<svg width="150" height="50" xmlns="http://www.w3.org/2000/svg" viewBox="0 0 40 50"><defs><style>.cls-1{fill:#2655a2;}.cls-2{fill:#52c3f1;}.cls-3{fill:#b3cbeb;}</style></defs><g id="Layer_2" data-name="Layer 2"><g id="Layer_1-2" data-name="Layer 1"><path class="cls-1" d="M39.9,2.48v22a2.47,2.47,0,0,1-1.11,2.07l-5.9,3.9V18.92a2.51,2.51,0,0,0-1.15-2.1L20.82,9.93a2,2,0,0,1,1.06-1.78L36.24.31A2.47,2.47,0,0,1,39.9,2.48Z"/><path class="cls-2" d="M32.89,18.92V30.41L21.58,37.89a.49.49,0,0,1-.76-.41V9.93l10.91,6.89A2.5,2.5,0,0,1,32.89,18.92Z"/><path class="cls-3" d="M32.89,30.41V42.58a2.48,2.48,0,0,1-3.78,2.11L22,40.33a2.49,2.49,0,0,1-1.18-2.12v-.73a.49.49,0,0,0,.76.41Z"/><path class="cls-3" d="M18.92,9.62,6.64,16.39v-11a2.48,2.48,0,0,1,3.81-2.1L18.1,8.13A1.75,1.75,0,0,1,18.92,9.62Z"/><path class="cls-2" d="M18.92,9.62V37.25a.49.49,0,0,1-.75.42L7.81,31.24a2.47,2.47,0,0,1-1.17-2.1V16.39Z"/><path class="cls-1" d="M18.92,37.25v1a2.47,2.47,0,0,1-1.1,2.06l-14,9.32A2.47,2.47,0,0,1,0,47.52v-26a2.49,2.49,0,0,1,1.28-2.17l5.36-2.95V29.14a2.47,2.47,0,0,0,1.17,2.1l10.36,6.43A.49.49,0,0,0,18.92,37.25Z"/></g></g></svg>