<svg width="360" height="240" viewBox="0 0 360 240" fill="none" xmlns="http://www.w3.org/2000/svg">
<g clip-path="url(#clip0_18063_78603)">
<path d="M318.525 212.477H244.496V122.063H318.525L312.327 138.449L318.833 164.492L316.158 187.251L318.525 212.477Z" fill="#D2D6E1"/>
<path d="M255.475 180.634C256.15 180.634 301.996 183.547 301.996 183.547L255.475 187.615V180.634Z" fill="#9EA9BD"/>
<path d="M316.159 147.567L281.666 148.44L317.993 150.784L316.159 147.567Z" fill="#9EA9BD"/>
<path d="M261.71 196.402L283.09 197.655L259.783 198.906L261.71 196.402Z" fill="#9EA9BD"/>
<path d="M249.116 123.349H200.186V92.0518H249.116L245.95 105.704L249.116 123.349Z" fill="#E4E6ED"/>
<path d="M245.95 105.703H211.191L246.896 101.621L245.95 105.703Z" fill="#D2D6E1"/>
<path d="M203.645 110.756L236.124 112.059L203.645 112.813V110.756Z" fill="#D2D6E1"/>
<path d="M104.562 165.754H71.2012L74.3872 108.76L71.2012 90.0312H104.562V165.754Z" fill="#E4E6ED"/>
<path d="M74.3868 108.76H98.5488V106.774L73.6113 104.201L74.3868 108.76Z" fill="#D2D6E1"/>
<path d="M71.6622 92.7406L96.3108 91.3623H71.4277L71.6622 92.7406Z" fill="#D2D6E1"/>
<path d="M98.5481 120.59L76.5723 122.063H98.5481V120.59Z" fill="#D2D6E1"/>
<path d="M261.536 212.477H197.627V119.641H263.56L266.253 139.143L262.404 167.934L263.849 193.187L261.536 212.477Z" fill="#DFE1E6"/>
<path d="M266.252 139.142H228.674L265.609 134.487L266.252 139.142Z" fill="#E4E6ED"/>
<path d="M202.893 126.482L243.393 128.215L202.893 131.001V126.482Z" fill="#E4E6ED"/>
<path d="M262.403 167.935L216.873 170.303L262.403 171.003V167.935Z" fill="#E4E6ED"/>
<path d="M202.893 200.975C202.893 201.075 256.794 200.975 256.794 200.975L202.893 205.037V200.975Z" fill="#E4E6ED"/>
<path d="M265.931 136.834C263.892 137.037 261.85 137.201 259.807 137.362C258.786 137.44 257.764 137.514 256.743 137.582C255.721 137.654 254.699 137.718 253.676 137.772L250.606 137.92C249.583 137.967 248.56 138.015 247.537 138.076C245.492 138.198 243.45 138.352 241.408 138.518C239.366 138.688 237.324 138.846 235.281 138.992C233.237 139.139 231.194 139.288 229.15 139.416C225.061 139.664 220.97 139.886 216.874 140.033L216.871 139.995C220.951 139.608 225.037 139.297 229.124 139.012C231.167 138.873 233.212 138.756 235.257 138.636C237.302 138.514 239.348 138.405 241.394 138.31C243.441 138.21 245.486 138.097 247.529 137.953C248.551 137.88 249.572 137.795 250.592 137.709L253.655 137.457C254.676 137.379 255.698 137.309 256.721 137.247C257.743 137.183 258.765 137.124 259.788 137.068C261.834 136.961 263.88 136.859 265.929 136.796L265.931 136.834Z" fill="#9EA9BD"/>
<path d="M263.452 160.086C261.174 160.099 258.897 160.094 256.619 160.099L249.787 160.083C247.509 160.082 245.232 160.06 242.955 160.048L236.122 160.005L222.458 159.86L215.627 159.765C213.349 159.722 211.072 159.69 208.795 159.639C211.073 159.625 213.35 159.63 215.628 159.625L222.46 159.641L236.125 159.72L242.957 159.789C245.234 159.814 247.511 159.829 249.789 159.865L256.62 159.96C258.898 160.003 261.175 160.035 263.452 160.086Z" fill="#9EA9BD"/>
<path d="M213.049 183.547C214.258 183.515 215.468 183.501 216.678 183.477L220.306 183.438C222.726 183.412 225.145 183.408 227.564 183.404C229.983 183.408 232.402 183.411 234.822 183.437L238.45 183.477C239.66 183.501 240.87 183.514 242.079 183.547C240.87 183.579 239.66 183.593 238.45 183.617L234.822 183.656C232.402 183.682 229.983 183.686 227.564 183.689C225.145 183.685 222.726 183.682 220.306 183.656L216.678 183.616C215.468 183.593 214.258 183.579 213.049 183.547Z" fill="#9EA9BD"/>
<path d="M263.848 193.188L260.012 193.234L256.176 193.26L248.504 193.283L240.832 193.261L236.996 193.234L233.16 193.188L236.996 193.141L240.832 193.114L248.504 193.093L256.176 193.115L260.012 193.141L263.848 193.188Z" fill="#9EA9BD"/>
<path d="M219.584 128.741L223.571 128.57L227.559 128.419L235.536 128.147L243.514 127.919L247.503 127.821L251.493 127.742L247.506 127.914L243.518 128.065L235.542 128.337L227.564 128.564L223.574 128.663L219.584 128.741Z" fill="#9EA9BD"/>
<path d="M213.049 149.393L216.678 149.376L220.307 149.369L227.564 149.357L234.822 149.369L238.45 149.376L242.079 149.393L238.45 149.41L234.822 149.417L227.564 149.428L220.307 149.417L216.678 149.41L213.049 149.393Z" fill="#9EA9BD"/>
<path d="M257.675 169.927L251.734 170.084L245.793 170.227L233.912 170.512L222.029 170.766L216.088 170.892L210.146 171.003L216.087 170.846L222.028 170.703L233.909 170.418L245.792 170.164L251.733 170.038L257.675 169.927Z" fill="#9EA9BD"/>
<path d="M205.588 202.977C207.798 202.784 210.011 202.651 212.224 202.531L213.885 202.446L215.545 202.373C216.652 202.322 217.76 202.285 218.868 202.261L222.193 202.212L223.855 202.19L225.517 202.152C226.625 202.117 227.732 202.074 228.839 202.02C229.946 201.97 231.052 201.896 232.159 201.834C233.265 201.768 234.371 201.694 235.478 201.635C236.584 201.573 237.691 201.52 238.798 201.468L242.119 201.312C243.226 201.26 244.333 201.221 245.441 201.179C249.871 201.033 254.303 200.936 258.739 200.946L258.741 201.003C254.319 201.352 249.892 201.593 245.464 201.786C244.357 201.828 243.249 201.874 242.142 201.906L238.819 202.004C237.711 202.037 236.603 202.069 235.495 202.092C234.387 202.116 233.279 202.128 232.171 202.146C231.062 202.169 229.954 202.179 228.846 202.214C227.739 202.244 226.631 202.285 225.524 202.336L223.864 202.424L222.205 202.529L218.886 202.735C217.779 202.794 216.672 202.841 215.564 202.877L213.903 202.93L212.241 202.972C210.025 203.021 207.809 203.058 205.59 203.034L205.588 202.977Z" fill="#9EA9BD"/>
<path d="M115.771 212.477H56.984L54.4219 196.928L59.6145 171.342L54.4219 152.967L56.984 134.581H115.771L113.551 150.139L118.436 169.935L113.037 197.7L115.771 212.477Z" fill="#F1F2F5"/>
<path d="M54.4219 152.967L97.6119 155.501L55.3408 156.219L54.4219 152.967Z" fill="#E4E6ED"/>
<path d="M113.037 197.699L92.4707 200.875L113.776 201.69L113.037 197.699Z" fill="#E4E6ED"/>
<path d="M57.5901 181.325L76.9436 182.837L57.0273 184.098L57.5901 181.325Z" fill="#E4E6ED"/>
<path d="M118.436 169.935L66.9844 171.342L117.897 172.707L118.436 169.935Z" fill="#E4E6ED"/>
<path d="M115.155 138.912H104.562L114.631 142.582L115.155 138.912Z" fill="#E4E6ED"/>
<path d="M54.8828 154.593L61.3493 154.519L67.8158 154.473C69.9713 154.453 72.1268 154.457 74.2823 154.449L80.7488 154.434L87.2153 154.447C89.3708 154.455 91.5263 154.449 93.6818 154.469L100.148 154.514C102.304 154.541 104.459 154.556 106.615 154.593C104.459 154.631 102.304 154.648 100.148 154.676L93.6819 154.724C91.5264 154.745 89.3709 154.741 87.2154 154.749L80.7489 154.765L74.2824 154.751C72.1268 154.743 69.9713 154.747 67.8158 154.727L61.3493 154.68L58.116 154.642C57.0383 154.63 55.9605 154.616 54.8828 154.593Z" fill="#9EA9BD"/>
<path d="M113.038 197.699C111.604 197.815 110.17 197.919 108.735 198.024L106.584 198.182L104.432 198.327C101.562 198.519 98.6931 198.719 95.8224 198.894L91.5166 199.157L87.2103 199.412C84.3389 199.574 81.4674 199.732 78.5956 199.885L78.5771 199.886L78.5605 199.884C77.2473 199.714 75.9353 199.534 74.6233 199.355L70.687 198.819C69.3745 198.643 68.0636 198.455 66.7525 198.268C65.4414 198.082 64.1302 197.896 62.8203 197.699C64.1378 197.835 65.454 197.982 66.7702 198.128C68.0865 198.274 69.403 198.418 70.7178 198.575L74.6636 199.037C75.9789 199.19 77.2943 199.343 78.6085 199.505L78.5735 199.504C81.4436 199.32 84.3142 199.146 87.1853 198.98L91.4922 198.736L95.7997 198.5C98.6713 198.342 101.544 198.21 104.417 198.07L106.571 197.965L108.727 197.874C110.163 197.813 111.6 197.75 113.038 197.699Z" fill="#9EA9BD"/>
<path d="M57.3086 182.712L63.0356 182.659L68.7625 182.629L80.2165 182.604L91.6704 182.628L97.3974 182.659L103.124 182.712L97.3974 182.765L91.6704 182.796L80.2165 182.82L68.7625 182.795L63.0356 182.765L57.3086 182.712Z" fill="#9EA9BD"/>
<path d="M116.463 161.936C115.678 161.96 114.893 161.971 114.107 161.988L111.751 162.019C110.18 162.037 108.609 162.035 107.038 162.044C105.468 162.035 103.897 162.036 102.326 162.019L99.9696 161.989C99.1841 161.971 98.3988 161.96 97.6133 161.936C98.3987 161.911 99.1841 161.9 99.9696 161.882L102.326 161.852C103.897 161.835 105.468 161.836 107.038 161.827C108.609 161.836 110.18 161.835 111.751 161.852L114.107 161.883C114.893 161.901 115.678 161.911 116.463 161.936Z" fill="#9EA9BD"/>
<path d="M69.873 142.582C70.8246 142.558 71.7762 142.547 72.7277 142.529L75.5824 142.499C77.4855 142.481 79.3886 142.483 81.2917 142.474C83.1948 142.482 85.0979 142.481 87.0011 142.499L89.8557 142.529C90.8073 142.547 91.7588 142.557 92.7104 142.582C91.7588 142.607 90.8073 142.617 89.8557 142.635L87.0011 142.666C85.0979 142.683 83.1948 142.682 81.2917 142.69C79.3886 142.681 77.4855 142.683 75.5824 142.665L72.7277 142.635C71.7762 142.617 70.8246 142.606 69.873 142.582Z" fill="#9EA9BD"/>
<path d="M85.1523 147.523C86.1817 147.499 87.2111 147.488 88.2405 147.471L91.3287 147.44C93.3874 147.422 95.4462 147.424 97.505 147.415C99.5637 147.424 101.623 147.423 103.681 147.44L106.769 147.47C107.799 147.488 108.828 147.499 109.858 147.523C108.828 147.548 107.799 147.559 106.769 147.577L103.681 147.607C101.623 147.624 99.5637 147.623 97.505 147.632C95.4462 147.623 93.3874 147.624 91.3287 147.607L88.2405 147.576C87.2111 147.558 86.1817 147.548 85.1523 147.523Z" fill="#9EA9BD"/>
<path d="M56.957 161.936C57.6832 161.911 58.4094 161.901 59.1357 161.883L61.3143 161.853C62.7667 161.833 64.2191 161.83 65.6715 161.827C67.1239 161.83 68.5763 161.832 70.0287 161.852L72.2073 161.882C72.9335 161.9 73.6598 161.911 74.386 161.936C73.6598 161.96 72.9335 161.971 72.2073 161.989L70.0287 162.019C68.5763 162.039 67.1239 162.042 65.6715 162.044C64.2191 162.041 62.7666 162.039 61.3143 162.019L59.1357 161.989C58.4094 161.971 57.6832 161.96 56.957 161.936Z" fill="#9EA9BD"/>
<path d="M56.4707 209.358L115.771 212.477H56.9845L56.4707 209.358Z" fill="#E4E6ED"/>
<path d="M197.781 64.2705H104.412C101.174 64.2705 98.5488 66.8956 98.5488 70.1338V206.614C98.5488 209.852 101.174 212.477 104.412 212.477H197.781C201.019 212.477 203.644 209.852 203.644 206.614V70.1338C203.644 66.8956 201.019 64.2705 197.781 64.2705Z" fill="#083A55"/>
<path d="M108.102 70.5137H194.09C194.55 70.5137 195.005 70.6042 195.43 70.7801C195.854 70.9561 196.24 71.2139 196.565 71.539C196.891 71.8641 197.148 72.2501 197.324 72.6748C197.5 73.0995 197.591 73.5548 197.591 74.0145V202.732C197.591 203.661 197.222 204.551 196.565 205.208C195.909 205.864 195.018 206.233 194.09 206.233H108.102C107.174 206.233 106.283 205.864 105.627 205.208C104.97 204.551 104.602 203.661 104.602 202.732V74.0145C104.602 73.0861 104.97 72.1956 105.627 71.539C106.283 70.8825 107.174 70.5137 108.102 70.5137Z" fill="#F1F2F5"/>
<path d="M167.708 61.2858H159.819C160.086 59.991 160.061 58.6531 159.747 57.3691C159.432 56.0851 158.836 54.8873 158 53.8626C157.165 52.8378 156.112 52.0118 154.918 51.4446C153.724 50.8773 152.419 50.583 151.097 50.583C149.775 50.583 148.47 50.8773 147.276 51.4446C146.081 52.0118 145.029 52.8378 144.194 53.8626C143.358 54.8873 142.762 56.0851 142.447 57.3691C142.133 58.6531 142.108 59.991 142.374 61.2858H134.485C133.642 61.2858 132.833 61.6209 132.236 62.2174C131.64 62.8139 131.305 63.623 131.305 64.4666V72.3071C131.305 73.1507 131.64 73.9597 132.236 74.5562C132.833 75.1528 133.642 75.4879 134.485 75.4879H167.708C168.126 75.4879 168.54 75.4056 168.926 75.2458C169.312 75.0859 169.662 74.8516 169.958 74.5562C170.253 74.2609 170.487 73.9102 170.647 73.5243C170.807 73.1384 170.889 72.7248 170.889 72.3071V64.4666C170.889 64.0489 170.807 63.6353 170.647 63.2493C170.487 62.8634 170.253 62.5128 169.958 62.2174C169.662 61.9221 169.312 61.6878 168.926 61.5279C168.54 61.3681 168.126 61.2858 167.708 61.2858ZM151.097 61.0482C150.498 61.0482 149.913 60.8707 149.416 60.5382C148.918 60.2057 148.53 59.7331 148.301 59.1801C148.072 58.6272 148.012 58.0187 148.129 57.4317C148.246 56.8447 148.534 56.3055 148.957 55.8823C149.38 55.4591 149.92 55.1709 150.507 55.0541C151.094 54.9374 151.702 54.9973 152.255 55.2263C152.808 55.4554 153.281 55.8432 153.613 56.3409C153.946 56.8385 154.123 57.4236 154.123 58.0221C154.123 58.4195 154.045 58.813 153.893 59.1801C153.741 59.5473 153.518 59.8809 153.237 60.1619C152.956 60.4429 152.622 60.6658 152.255 60.8179C151.888 60.9699 151.494 61.0482 151.097 61.0482V61.0482Z" fill="#3CAE5C"/>
<path d="M129.929 114.472H112.766V99.0762H129.929V114.472ZM113.308 113.929H129.386V99.6189H113.308V113.929Z" fill="#9EA9BD"/>
<path d="M139.271 99.3473C141.432 99.3071 143.593 99.2897 145.753 99.2603L152.235 99.2106C154.396 99.1891 156.556 99.1931 158.717 99.1851L165.199 99.1689L171.681 99.1848C173.842 99.1933 176.002 99.1883 178.163 99.21L184.645 99.2598C186.805 99.2895 188.966 99.3068 191.127 99.3473C188.966 99.3878 186.805 99.4052 184.645 99.4349L178.163 99.4847C176.002 99.5064 173.842 99.5014 171.681 99.5099L165.199 99.5257L158.717 99.5096C156.557 99.5016 154.396 99.5055 152.235 99.4841L145.753 99.4344C143.593 99.4049 141.432 99.3875 139.271 99.3473Z" fill="#9EA9BD"/>
<path d="M139.271 105.704C141.432 105.664 143.593 105.646 145.753 105.617L152.235 105.567C154.396 105.546 156.556 105.55 158.717 105.542L165.199 105.525L171.681 105.541C173.842 105.55 176.002 105.545 178.163 105.566L184.645 105.616C186.805 105.646 188.966 105.663 191.127 105.704C188.966 105.744 186.805 105.762 184.645 105.791L178.163 105.841C176.002 105.863 173.842 105.858 171.681 105.866L165.199 105.882L158.717 105.866C156.557 105.858 154.396 105.862 152.235 105.841L145.753 105.791C143.593 105.761 141.432 105.744 139.271 105.704Z" fill="#9EA9BD"/>
<path d="M139.271 112.059C140.744 112.026 142.216 112.012 143.688 111.988L148.105 111.946C149.577 111.929 151.049 111.932 152.521 111.925L156.938 111.912L161.354 111.925C162.826 111.932 164.299 111.928 165.771 111.946L170.187 111.987C171.659 112.012 173.132 112.026 174.604 112.059C173.132 112.093 171.659 112.107 170.187 112.132L165.771 112.173C164.299 112.191 162.826 112.186 161.354 112.193L156.938 112.207L152.521 112.193C151.049 112.187 149.577 112.19 148.105 112.172L143.688 112.131C142.216 112.107 140.744 112.093 139.271 112.059Z" fill="#9EA9BD"/>
<path d="M129.929 134.488H112.766V119.093H129.929V134.488ZM113.308 133.946H129.386V119.635H113.308V133.946Z" fill="#9EA9BD"/>
<path d="M139.271 119.365C141.432 119.325 143.593 119.307 145.753 119.278L152.235 119.228C154.396 119.207 156.556 119.211 158.717 119.203L165.199 119.187L171.681 119.202C173.842 119.211 176.002 119.206 178.163 119.228L184.645 119.277C186.805 119.307 188.966 119.324 191.127 119.365C188.966 119.405 186.805 119.423 184.645 119.452L178.163 119.502C176.002 119.524 173.842 119.519 171.681 119.527L165.199 119.543L158.717 119.527C156.557 119.519 154.396 119.523 152.235 119.502L145.753 119.452C143.593 119.422 141.432 119.405 139.271 119.365Z" fill="#9EA9BD"/>
<path d="M139.271 125.72C141.432 125.68 143.593 125.663 145.753 125.633L152.235 125.584C154.396 125.562 156.556 125.566 158.717 125.558L165.199 125.542L171.681 125.558C173.842 125.566 176.002 125.561 178.163 125.583L184.645 125.633C186.805 125.662 188.966 125.68 191.127 125.72C188.966 125.761 186.805 125.778 184.645 125.808L178.163 125.858C176.002 125.879 173.842 125.874 171.681 125.883L165.199 125.899L158.717 125.883C156.557 125.875 154.396 125.879 152.235 125.857L145.753 125.807C143.593 125.778 141.432 125.761 139.271 125.72Z" fill="#9EA9BD"/>
<path d="M139.271 132.076C140.744 132.043 142.216 132.028 143.688 132.004L148.105 131.963C149.577 131.945 151.049 131.949 152.521 131.942L156.938 131.929L161.354 131.942C162.826 131.949 164.299 131.945 165.771 131.963L170.187 132.004C171.659 132.028 173.132 132.043 174.604 132.076C173.132 132.109 171.659 132.124 170.187 132.148L165.771 132.189C164.299 132.207 162.826 132.203 161.354 132.21L156.938 132.223L152.521 132.21C151.049 132.203 149.577 132.206 148.105 132.189L143.688 132.148C142.216 132.123 140.744 132.109 139.271 132.076Z" fill="#9EA9BD"/>
<path d="M129.929 154.506H112.766V139.11H129.929V154.506ZM113.308 153.963H129.386V139.653H113.308V153.963Z" fill="#9EA9BD"/>
<path d="M139.271 139.381C141.432 139.341 143.593 139.324 145.753 139.294L152.235 139.245C154.396 139.223 156.556 139.227 158.717 139.219L165.199 139.203L171.681 139.219C173.842 139.227 176.002 139.222 178.163 139.244L184.645 139.294C186.805 139.324 188.966 139.341 191.127 139.382C188.966 139.422 186.805 139.439 184.645 139.469L178.163 139.519C176.002 139.541 173.842 139.536 171.681 139.544L165.199 139.56L158.717 139.544C156.557 139.536 154.396 139.54 152.235 139.518L145.753 139.469C143.593 139.439 141.432 139.422 139.271 139.381Z" fill="#9EA9BD"/>
<path d="M139.271 145.737C141.432 145.697 143.593 145.679 145.753 145.65L152.235 145.6C154.396 145.579 156.556 145.583 158.717 145.575L165.199 145.559L171.681 145.574C173.842 145.583 176.002 145.578 178.163 145.6L184.645 145.649C186.805 145.679 188.966 145.696 191.127 145.737C188.966 145.777 186.805 145.795 184.645 145.825L178.163 145.874C176.002 145.896 173.842 145.891 171.681 145.9L165.199 145.915L158.717 145.899C156.557 145.891 154.396 145.895 152.235 145.874L145.753 145.824C143.593 145.795 141.432 145.777 139.271 145.737Z" fill="#9EA9BD"/>
<path d="M139.271 152.093C140.744 152.059 142.216 152.045 143.688 152.021L148.105 151.98C149.577 151.962 151.049 151.965 152.521 151.959L156.938 151.945L161.354 151.958C162.826 151.965 164.299 151.961 165.771 151.979L170.187 152.02C171.659 152.045 173.132 152.059 174.604 152.093C173.132 152.126 171.659 152.14 170.187 152.165L165.771 152.206C164.299 152.224 162.826 152.22 161.354 152.227L156.938 152.24L152.521 152.226C151.049 152.22 149.577 152.223 148.105 152.205L143.688 152.164C142.216 152.14 140.744 152.126 139.271 152.093Z" fill="#9EA9BD"/>
<path d="M129.929 174.523H112.766V159.127H129.929V174.523ZM113.308 173.98H129.386V159.67H113.308V173.98Z" fill="#9EA9BD"/>
<path d="M139.271 159.398C141.432 159.358 143.593 159.34 145.753 159.311L152.235 159.261C154.396 159.24 156.556 159.244 158.717 159.236L165.199 159.22L171.681 159.236C173.842 159.244 176.002 159.239 178.163 159.261L184.645 159.311C186.805 159.34 188.966 159.358 191.127 159.398C188.966 159.439 186.805 159.456 184.645 159.486L178.163 159.535C176.002 159.557 173.842 159.552 171.681 159.561L165.199 159.576L158.717 159.56C156.557 159.552 154.396 159.556 152.235 159.535L145.753 159.485C143.593 159.456 141.432 159.438 139.271 159.398Z" fill="#9EA9BD"/>
<path d="M139.271 165.754C141.432 165.713 143.593 165.696 145.753 165.667L152.235 165.617C154.396 165.595 156.556 165.599 158.717 165.591L165.199 165.575L171.681 165.591C173.842 165.6 176.002 165.594 178.163 165.616L184.645 165.666C186.805 165.696 188.966 165.713 191.127 165.754C188.966 165.794 186.805 165.811 184.645 165.841L178.163 165.891C176.002 165.913 173.842 165.908 171.681 165.916L165.199 165.932L158.717 165.916C156.557 165.908 154.396 165.912 152.235 165.89L145.753 165.841C143.593 165.811 141.432 165.794 139.271 165.754Z" fill="#9EA9BD"/>
<path d="M139.271 172.11C140.744 172.077 142.216 172.063 143.688 172.038L148.105 171.997C149.577 171.98 151.049 171.983 152.521 171.976L156.938 171.963L161.354 171.976C162.826 171.983 164.299 171.979 165.771 171.997L170.187 172.038C171.659 172.062 173.132 172.077 174.604 172.11C173.132 172.144 171.659 172.158 170.187 172.182L165.771 172.223C164.299 172.241 162.826 172.237 161.354 172.244L156.938 172.257L152.521 172.244C151.049 172.237 149.577 172.241 148.105 172.223L143.688 172.182C142.216 172.158 140.744 172.143 139.271 172.11Z" fill="#9EA9BD"/>
<path d="M129.929 194.539H112.766V179.144H129.929V194.539ZM113.308 193.996H129.386V179.686H113.308V193.996Z" fill="#9EA9BD"/>
<path d="M139.271 179.415C141.432 179.374 143.593 179.357 145.753 179.328L152.235 179.278C154.396 179.256 156.556 179.26 158.717 179.252L165.199 179.236L171.681 179.252C173.842 179.261 176.002 179.256 178.163 179.277L184.645 179.327C186.805 179.357 188.966 179.374 191.127 179.415C188.966 179.455 186.805 179.473 184.645 179.502L178.163 179.552C176.002 179.574 173.842 179.569 171.681 179.577L165.199 179.593L158.717 179.577C156.557 179.569 154.396 179.573 152.235 179.552L145.753 179.502C143.593 179.472 141.432 179.455 139.271 179.415Z" fill="#9EA9BD"/>
<path d="M139.271 185.771C141.432 185.731 143.593 185.714 145.753 185.684L152.235 185.634C154.396 185.613 156.556 185.617 158.717 185.609L165.199 185.593L171.681 185.609C173.842 185.617 176.002 185.612 178.163 185.634L184.645 185.684C186.805 185.713 188.966 185.731 191.127 185.771C188.966 185.812 186.805 185.829 184.645 185.859L178.163 185.909C176.002 185.93 173.842 185.925 171.681 185.934L165.199 185.95L158.717 185.933C156.557 185.925 154.396 185.929 152.235 185.908L145.753 185.858C143.593 185.829 141.432 185.811 139.271 185.771Z" fill="#9EA9BD"/>
<path d="M139.271 192.127C140.744 192.094 142.216 192.079 143.688 192.055L148.105 192.014C149.577 191.996 151.049 191.999 152.521 191.993L156.938 191.979L161.354 191.993C162.826 192 164.299 191.995 165.771 192.013L170.187 192.054C171.659 192.079 173.132 192.093 174.604 192.127C173.132 192.16 171.659 192.174 170.187 192.199L165.771 192.24C164.299 192.258 162.826 192.254 161.354 192.261L156.938 192.274L152.521 192.261C151.049 192.254 149.577 192.257 148.105 192.24L143.688 192.199C142.216 192.174 140.744 192.16 139.271 192.127Z" fill="#9EA9BD"/>
<path d="M329.887 212.777H39.2355C39.156 212.777 39.0797 212.745 39.0234 212.689C38.9672 212.633 38.9355 212.556 38.9355 212.477C38.9355 212.397 38.9672 212.321 39.0234 212.265C39.0797 212.208 39.156 212.177 39.2355 212.177H329.887C329.967 212.177 330.043 212.208 330.099 212.265C330.156 212.321 330.187 212.397 330.187 212.477C330.187 212.556 330.156 212.633 330.099 212.689C330.043 212.745 329.967 212.777 329.887 212.777Z" fill="#083A55"/>
<path d="M212.933 192.631L225.076 191.12L214.118 103.022L201.975 104.532L212.933 192.631Z" fill="#3CAE5C"/>
<path d="M201.974 104.532L214.117 103.021L213.268 96.1912L201.124 97.7017L201.974 104.532Z" fill="white"/>
<path d="M206.377 90.3642C207.174 90.265 207.983 90.3238 208.758 90.5373C209.532 90.7508 210.257 91.1148 210.891 91.6085C211.525 92.1021 212.056 92.7158 212.452 93.4145C212.849 94.1132 213.104 94.8832 213.204 95.6805L213.267 96.1919L201.124 97.7024L201.06 97.191C200.86 95.5807 201.308 93.9568 202.305 92.6765C203.302 91.3963 204.767 90.5645 206.377 90.3642Z" fill="#3EBB5A"/>
<path d="M206.709 103.943C207.012 105.713 207.282 107.488 207.558 109.261L207.97 111.922L208.362 114.585L208.557 115.916L208.745 117.249L209.12 119.914C209.247 120.802 209.366 121.691 209.485 122.58L209.843 125.248L209.888 125.581L209.585 125.757C209.037 126.074 208.614 126.568 208.387 127.159C208.274 127.45 208.211 127.758 208.203 128.07C208.2 128.226 208.211 128.382 208.234 128.537L208.276 128.767L208.341 128.992C208.538 129.588 208.936 130.097 209.467 130.432C209.997 130.767 210.628 130.908 211.251 130.831C211.874 130.753 212.45 130.462 212.883 130.007C213.315 129.552 213.576 128.961 213.622 128.335L213.629 128.101L213.614 127.868C213.598 127.712 213.57 127.558 213.53 127.408C213.445 127.107 213.309 126.823 213.128 126.569C212.763 126.051 212.232 125.675 211.623 125.502L211.287 125.406L211.249 125.073L210.942 122.399C210.839 121.508 210.739 120.617 210.644 119.725C210.454 117.94 210.249 116.158 210.073 114.372L209.799 111.694L209.547 109.014C209.38 107.227 209.207 105.44 209.066 103.65L209.127 103.643L211.806 125.004L211.767 124.96C212.32 125.108 212.825 125.397 213.233 125.797C213.641 126.198 213.938 126.698 214.096 127.248C214.146 127.431 214.181 127.618 214.201 127.806C214.208 127.901 214.216 127.996 214.221 128.09L214.213 128.375C214.162 129.141 213.846 129.865 213.319 130.423C212.792 130.981 212.087 131.338 211.325 131.433C210.564 131.527 209.793 131.354 209.145 130.942C208.497 130.53 208.013 129.906 207.776 129.176L207.699 128.902C207.68 128.809 207.665 128.715 207.649 128.621C207.621 128.434 207.61 128.244 207.614 128.054C207.632 127.482 207.798 126.925 208.095 126.436C208.393 125.948 208.811 125.544 209.311 125.265L209.284 125.317L206.648 103.951L206.709 103.943Z" fill="#1D2238"/>
<path d="M225.089 191.214L221.757 212.776L212.945 192.724" fill="#4A4E60"/>
<path d="M221.084 213.171C222.797 213.171 224.185 211.695 224.185 209.874C224.185 208.053 222.797 206.577 221.084 206.577C219.371 206.577 217.982 208.053 217.982 209.874C217.982 211.695 219.371 213.171 221.084 213.171Z" fill="#083A55"/>
<path d="M212.696 190.391L224.442 188.93C224.75 188.891 225.062 188.977 225.307 189.168C225.553 189.36 225.712 189.64 225.751 189.949C225.77 190.102 225.758 190.257 225.717 190.406C225.676 190.554 225.607 190.693 225.512 190.815C225.417 190.936 225.3 191.038 225.166 191.114C225.032 191.19 224.884 191.239 224.731 191.258L212.986 192.719C212.833 192.738 212.678 192.727 212.529 192.686C212.381 192.645 212.242 192.575 212.12 192.48C211.999 192.386 211.897 192.268 211.821 192.134C211.745 192 211.696 191.853 211.677 191.7C211.658 191.547 211.669 191.392 211.71 191.243C211.751 191.095 211.821 190.956 211.916 190.834C212.01 190.713 212.128 190.611 212.262 190.535C212.396 190.459 212.543 190.41 212.696 190.391Z" fill="#083A55"/>
<path d="M200.821 103.494C200.84 103.647 200.889 103.795 200.965 103.929C201.041 104.063 201.143 104.18 201.265 104.275C201.386 104.369 201.525 104.439 201.674 104.48C201.822 104.521 201.977 104.532 202.13 104.513L213.876 103.052C214.028 103.033 214.176 102.984 214.31 102.908C214.444 102.832 214.562 102.731 214.656 102.609C214.751 102.488 214.821 102.349 214.862 102.2C214.903 102.051 214.914 101.896 214.895 101.744C214.863 101.49 214.749 101.253 214.571 101.07C214.392 100.887 214.159 100.767 213.906 100.729C214.149 100.638 214.355 100.469 214.492 100.248C214.628 100.028 214.687 99.7677 214.66 99.5096C214.633 99.2515 214.521 99.0097 214.342 98.8221C214.162 98.6346 213.926 98.5119 213.669 98.4733C213.938 98.3725 214.161 98.1764 214.294 97.9224C214.428 97.6683 214.464 97.3739 214.396 97.095C214.327 96.8161 214.158 96.5721 213.922 96.4094C213.685 96.2467 213.397 96.1765 213.112 96.2122L201.366 97.6732C201.085 97.7081 200.826 97.8435 200.637 98.0546C200.448 98.2657 200.342 98.5381 200.338 98.8214C200.334 99.1047 200.433 99.3798 200.617 99.5958C200.8 99.8117 201.055 99.954 201.336 99.9962C201.093 100.087 200.887 100.257 200.75 100.477C200.614 100.698 200.554 100.958 200.581 101.216C200.609 101.474 200.721 101.716 200.9 101.903C201.08 102.091 201.316 102.214 201.573 102.252C201.326 102.345 201.118 102.518 200.982 102.743C200.845 102.968 200.789 103.233 200.821 103.494Z" fill="#083A55"/>
<path d="M271.584 61.7275C271.584 61.7275 274.853 78.9883 262.148 82.8623C262.148 82.8623 271.704 82.3881 275.851 81.7829C280.986 81.0336 286.465 75.2816 287.892 61.7275H271.584Z" fill="#F1F2F5"/>
<path d="M271.584 61.7275C272.024 63.2167 272.207 64.7748 272.252 66.3287C272.273 67.1074 272.251 67.8867 272.184 68.6629C272.114 69.4392 272.003 70.2114 271.853 70.9763C271.698 71.7404 271.5 72.4953 271.261 73.2375L271.072 73.7907C271.008 73.9747 270.933 74.1548 270.864 74.337C270.732 74.7035 270.562 75.0552 270.407 75.4119C270.076 76.116 269.705 76.8011 269.297 77.4638C268.886 78.1223 268.437 78.7565 267.953 79.3633L268.274 78.8784C268.381 78.7171 268.493 78.5599 268.591 78.3926C268.791 78.0617 268.999 77.7362 269.179 77.3939C269.56 76.7232 269.904 76.0322 270.21 75.3238C270.815 73.9069 271.274 72.4316 271.578 70.9211C271.881 69.4098 272.034 67.8725 272.037 66.3311C272.042 65.5594 272.007 64.788 271.931 64.02C271.865 63.2492 271.749 62.4835 271.584 61.7275Z" fill="#9EA9BD"/>
<path d="M275.478 79.0052C275.169 78.9031 274.831 78.9282 274.54 79.0749C274.249 79.2216 274.028 79.4779 273.926 79.7874L273.161 82.1077L269.863 82.3775L260.249 86.0353L259.911 82.17L255.131 83.346L256.362 97.2564C263.593 96.3778 275.021 83.8302 275.021 83.8302L275.021 83.8301C275.173 83.6893 275.286 83.5123 275.351 83.3158L276.26 80.5572C276.311 80.4039 276.331 80.2422 276.319 80.0812C276.307 79.9203 276.263 79.7633 276.191 79.6192C276.118 79.475 276.018 79.3467 275.896 79.2413C275.773 79.136 275.631 79.0557 275.478 79.0052Z" fill="#D58378"/>
<path d="M260.249 86.0352C260.005 86.3993 259.766 86.7563 259.533 87.1159C259.303 87.4774 259.081 87.8402 258.873 88.2101C258.666 88.5806 258.482 88.9607 258.308 89.3482C258.144 89.745 258.002 90.1505 257.883 90.5628C257.864 90.1207 257.918 89.6786 258.044 89.2543C258.17 88.8301 258.343 88.4211 258.559 88.0348C258.775 87.6512 259.025 87.2881 259.307 86.9501C259.584 86.6092 259.9 86.3021 260.249 86.0352Z" fill="#1D2238"/>
<path d="M273.095 160.525L284.632 165.491C285.473 165.854 286.189 166.458 286.687 167.227C287.186 167.996 287.445 168.895 287.432 169.812L262.4 169.874L263.689 160.549L273.095 160.525Z" fill="#3CAE5C"/>
<path d="M262.396 168.212C264.459 168.322 266.521 168.377 268.583 168.412C269.614 168.435 270.645 168.438 271.676 168.451L274.77 168.458L277.863 168.436C278.894 168.418 279.925 168.41 280.956 168.382C283.017 168.336 285.079 168.271 287.141 168.15C285.079 168.04 283.017 167.985 280.954 167.95C279.923 167.926 278.892 167.924 277.861 167.911L274.768 167.904L271.675 167.927C270.644 167.945 269.613 167.953 268.582 167.981C266.52 168.027 264.458 168.092 262.396 168.212Z" fill="#1D2238"/>
<path d="M269.032 166.307C270.035 165.551 270.235 164.125 269.48 163.123C268.724 162.12 267.299 161.92 266.296 162.676C265.293 163.431 265.093 164.857 265.849 165.859C266.604 166.862 268.03 167.062 269.032 166.307Z" fill="#1D2238"/>
<path d="M283.075 164.591C282.805 164.486 282.51 164.459 282.225 164.515C281.955 164.564 281.699 164.667 281.47 164.819C281.236 164.974 281.039 165.179 280.893 165.419C280.735 165.672 280.667 165.971 280.699 166.268L280.748 166.295C280.814 166.193 280.886 166.095 280.964 166.002C281.003 165.956 281.038 165.906 281.08 165.862L281.207 165.731C281.381 165.563 281.572 165.412 281.777 165.28C281.979 165.144 282.191 165.023 282.411 164.919C282.521 164.866 282.633 164.817 282.747 164.773C282.859 164.725 282.974 164.682 283.089 164.645L283.075 164.591Z" fill="#1D2238"/>
<path d="M280.13 163.351C279.86 163.245 279.565 163.219 279.28 163.275C279.01 163.323 278.753 163.427 278.525 163.578C278.291 163.734 278.093 163.938 277.947 164.178C277.789 164.432 277.721 164.731 277.754 165.028L277.802 165.055C277.868 164.953 277.94 164.855 278.018 164.761C278.058 164.715 278.093 164.666 278.135 164.622L278.261 164.491C278.436 164.322 278.627 164.171 278.832 164.04C279.034 163.904 279.246 163.783 279.466 163.678C279.576 163.626 279.688 163.577 279.801 163.533C279.914 163.485 280.029 163.441 280.144 163.405L280.13 163.351Z" fill="#1D2238"/>
<path d="M277.406 162.226C277.135 162.12 276.84 162.094 276.555 162.15C276.285 162.198 276.029 162.302 275.8 162.453C275.566 162.609 275.369 162.813 275.223 163.053C275.065 163.307 274.997 163.606 275.03 163.903L275.078 163.93C275.144 163.828 275.216 163.73 275.294 163.636C275.333 163.59 275.368 163.54 275.41 163.497L275.537 163.366C275.712 163.197 275.903 163.046 276.107 162.915C276.309 162.779 276.521 162.658 276.741 162.553C276.851 162.501 276.963 162.452 277.077 162.408C277.189 162.36 277.304 162.316 277.419 162.28L277.406 162.226Z" fill="#1D2238"/>
<path d="M305.863 138.01L317.884 134.37C318.761 134.104 319.697 134.105 320.574 134.371C321.451 134.638 322.229 135.158 322.809 135.867L303.714 152.052L298.688 144.092L305.863 138.01Z" fill="#3CAE5C"/>
<path d="M302.639 150.784C304.286 149.538 305.898 148.251 307.497 146.949C308.3 146.302 309.09 145.639 309.887 144.984L312.256 142.996L314.606 140.985C315.383 140.307 316.166 139.636 316.936 138.95C318.483 137.586 320.017 136.206 321.515 134.785C319.868 136.03 318.256 137.318 316.656 138.62C315.853 139.267 315.063 139.93 314.267 140.585L311.898 142.573L309.548 144.585C308.771 145.263 307.989 145.934 307.219 146.62C305.672 147.984 304.138 149.363 302.639 150.784Z" fill="#1D2238"/>
<path d="M302.533 146.013C302.824 146.356 303.21 146.605 303.642 146.728C304.074 146.852 304.534 146.845 304.962 146.708C305.39 146.57 305.768 146.309 306.047 145.957C306.327 145.605 306.496 145.178 306.533 144.73C306.57 144.282 306.473 143.833 306.255 143.44C306.037 143.046 305.707 142.727 305.307 142.521C304.907 142.316 304.455 142.233 304.009 142.284C303.562 142.335 303.141 142.518 302.798 142.809C302.338 143.198 302.051 143.755 302.002 144.356C301.952 144.957 302.143 145.553 302.533 146.013Z" fill="#1D2238"/>
<path d="M316.113 134.686C315.838 134.779 315.595 134.949 315.414 135.175C315.239 135.387 315.109 135.631 315.033 135.894C314.953 136.164 314.935 136.448 314.978 136.725C315.02 137.021 315.161 137.293 315.377 137.499L315.432 137.489C315.416 137.368 315.408 137.247 315.408 137.125C315.408 137.065 315.403 137.004 315.407 136.944L315.419 136.762C315.444 136.52 315.493 136.282 315.564 136.05C315.631 135.815 315.715 135.586 315.816 135.364C315.866 135.253 315.921 135.144 315.978 135.036C316.033 134.928 316.094 134.82 316.158 134.718L316.113 134.686Z" fill="#1D2238"/>
<path d="M313.062 135.635C312.787 135.728 312.545 135.898 312.363 136.125C312.188 136.336 312.058 136.58 311.982 136.843C311.903 137.113 311.884 137.397 311.927 137.675C311.969 137.97 312.11 138.243 312.327 138.448L312.381 138.438C312.366 138.318 312.358 138.196 312.357 138.075C312.357 138.014 312.352 137.953 312.356 137.893L312.368 137.711C312.393 137.47 312.442 137.231 312.514 136.999C312.58 136.765 312.664 136.536 312.765 136.314C312.816 136.203 312.87 136.093 312.928 135.986C312.983 135.877 313.043 135.769 313.107 135.667L313.062 135.635Z" fill="#1D2238"/>
<path d="M310.255 136.531C309.981 136.625 309.738 136.795 309.556 137.021C309.381 137.232 309.252 137.477 309.175 137.74C309.096 138.01 309.077 138.293 309.12 138.571C309.163 138.867 309.303 139.139 309.52 139.345L309.574 139.335C309.559 139.214 309.551 139.093 309.55 138.971C309.551 138.91 309.545 138.85 309.549 138.789L309.562 138.608C309.587 138.366 309.635 138.127 309.707 137.895C309.774 137.661 309.858 137.432 309.958 137.21C310.009 137.099 310.063 136.99 310.121 136.882C310.176 136.773 310.236 136.666 310.301 136.563L310.255 136.531Z" fill="#1D2238"/>
<path d="M308.519 135.231L295.249 122.958L285.952 114.358C283.842 112.407 281.883 110.218 279.409 108.709C277.545 107.571 275.51 107.203 273.429 106.686L261.768 103.788L254.937 102.091L234.446 101.496C234.345 101.638 234.247 101.78 234.151 101.921C227.477 111.72 234.662 124.974 246.516 124.791L258.621 124.604L262.597 160.829H277.985L276.989 128.609L297.934 146.488L308.519 135.231Z" fill="#083A55"/>
<path d="M276.96 128.61L276.825 127.674L276.707 126.737L276.473 124.863C276.4 124.24 276.34 123.608 276.262 122.992L276.202 122.535C276.185 122.383 276.151 122.232 276.127 122.081C276.098 121.93 276.079 121.778 276.043 121.629L275.94 121.182C275.292 118.5 273.925 116.046 271.984 114.085C270.044 112.124 267.605 110.73 264.931 110.053C264.632 109.978 264.333 109.908 264.03 109.852C263.727 109.791 263.412 109.74 263.105 109.68L261.251 109.317L260.325 109.134L259.4 108.935L259.408 108.88L263.145 109.392C263.766 109.478 264.393 109.556 265.009 109.689C265.626 109.82 266.233 109.992 266.828 110.202C268.018 110.622 269.151 111.191 270.198 111.896C270.722 112.248 271.221 112.636 271.692 113.056C273.123 114.304 274.292 115.824 275.13 117.527C275.264 117.813 275.408 118.094 275.522 118.388C275.582 118.534 275.645 118.679 275.702 118.825L275.862 119.271L275.941 119.493L276.009 119.72L276.146 120.172C276.187 120.324 276.223 120.478 276.261 120.631C276.299 120.784 276.34 120.936 276.367 121.091L276.457 121.555C276.49 121.71 276.505 121.867 276.529 122.023C276.55 122.179 276.579 122.334 276.592 122.491L276.635 122.962C276.686 123.589 276.721 124.216 276.765 124.843L277.015 128.607L276.96 128.61Z" fill="#4A4E60"/>
<path d="M258.593 124.606C258.387 123.814 258.353 122.988 258.493 122.182C258.615 121.354 258.906 120.56 259.348 119.849C259.797 119.126 260.419 118.525 261.157 118.102C261.876 117.689 262.691 117.474 263.52 117.479L263.532 117.532C263.154 117.626 262.784 117.751 262.426 117.906C262.068 118.057 261.726 118.244 261.405 118.464C260.765 118.908 260.224 119.48 259.816 120.143C259.404 120.805 259.101 121.529 258.92 122.287C258.827 122.665 258.757 123.049 258.711 123.436C258.662 123.823 258.641 124.213 258.648 124.603L258.593 124.606Z" fill="#4A4E60"/>
<path d="M260.413 82.0467C259.401 68.4855 248.367 64.5875 248.367 64.5875L240.048 64.2676C240.048 64.2676 227.261 65.7558 223.51 83.1923L231.696 86.2801C230.498 96.3246 231.758 104.9 231.758 104.9C243.96 107.642 256.717 102.734 256.717 102.734C255.95 90.8646 256.114 93.2887 255.13 83.3462L260.413 82.0467Z" fill="#31A24B"/>
<path d="M237.554 64.9235C237.554 64.9235 236.852 69.9929 241.473 72.5892C241.603 72.6621 241.755 72.683 241.899 72.6477C242.044 72.6124 242.169 72.5234 242.25 72.3989L244.496 68.9362L247.005 72.4025C247.053 72.4682 247.114 72.5233 247.184 72.5641C247.254 72.605 247.332 72.6307 247.413 72.6397C247.493 72.6487 247.575 72.6407 247.652 72.6163C247.73 72.5919 247.801 72.5516 247.862 72.498C248.839 71.6533 249.583 70.5729 250.025 69.3595C250.466 68.1461 250.59 66.84 250.385 65.5652C250.385 65.5652 247.504 63.01 243.173 63.1395C238.843 63.2691 237.554 64.9235 237.554 64.9235" fill="white"/>
<path d="M256.714 56.7746L256.628 54.0592C256.596 53.0607 256.368 52.0784 255.956 51.1681C255.544 50.2579 254.958 49.4376 254.229 48.7542C253.5 48.0708 252.644 47.5375 251.71 47.1849C250.775 46.8323 249.78 46.6673 248.782 46.6992C246.866 46.7607 245.043 47.5435 243.68 48.8908C242.316 50.2381 241.512 52.0507 241.427 53.9658L241.365 53.9578L240.049 64.2681C239.98 64.8078 240.018 65.3558 240.161 65.8807C240.304 66.4057 240.549 66.8974 240.882 67.3278C241.215 67.7581 241.629 68.1187 242.101 68.3889C242.574 68.659 243.094 68.8336 243.634 68.9025C244.174 68.9714 244.722 68.9333 245.247 68.7904C245.772 68.6475 246.264 68.4026 246.694 68.0697C247.124 67.7368 247.485 67.3224 247.755 66.8501C248.025 66.3779 248.2 65.857 248.269 65.3173L248.362 64.5861C248.692 64.619 249.023 64.6306 249.354 64.6207C250.353 64.5888 251.335 64.3605 252.246 63.949C253.156 63.5374 253.976 62.9506 254.66 62.222C255.343 61.4934 255.876 60.6373 256.229 59.7026C256.581 58.768 256.746 57.773 256.714 56.7746Z" fill="#D58378"/>
<path d="M248.367 64.5871C248.367 64.5871 245.662 64.2398 244.496 63.1387C244.496 63.1387 244.992 64.7181 248.225 65.5935L248.367 64.5871Z" fill="#1D2238"/>
<path d="M251.698 54.0991C251.764 54.2935 251.818 54.4914 251.861 54.6919C251.886 54.7907 251.902 54.8899 251.921 54.989C251.94 55.088 251.96 55.1871 251.972 55.2863C252.002 55.4847 252.031 55.6832 252.047 55.882L252.077 56.18L252.093 56.4785L251.745 56.1521C251.872 56.1464 251.998 56.1355 252.125 56.1341C252.19 56.1342 252.24 56.1305 252.351 56.1365C252.447 56.1457 252.542 56.1681 252.632 56.2031C252.808 56.2743 252.959 56.3975 253.064 56.5563C253.169 56.7151 253.223 56.902 253.219 57.0922C253.211 57.2735 253.149 57.4484 253.042 57.595C252.938 57.7321 252.794 57.834 252.63 57.8869C252.552 57.9111 252.471 57.9226 252.389 57.9209C252.319 57.9169 252.25 57.9078 252.182 57.8938L251.99 57.8545L251.798 57.8065L251.793 57.8053C251.788 57.8042 251.784 57.8016 251.782 57.7979C251.779 57.7942 251.778 57.7896 251.779 57.7851C251.779 57.7806 251.781 57.7764 251.784 57.7733C251.788 57.7702 251.792 57.7685 251.797 57.7683L252.177 57.7535C252.24 57.7508 252.305 57.7497 252.365 57.7427C252.425 57.7331 252.484 57.7155 252.54 57.6905C252.651 57.6392 252.744 57.5564 252.808 57.4525C252.872 57.3485 252.903 57.228 252.899 57.106C252.895 56.9841 252.855 56.8661 252.783 56.7669C252.712 56.6677 252.613 56.5918 252.499 56.5486C252.443 56.5284 252.384 56.5158 252.324 56.511C252.266 56.5089 252.201 56.5127 252.138 56.515L251.757 56.5253L251.721 56.5263L251.72 56.4905L251.66 54.1003C251.66 54.0958 251.662 54.0914 251.664 54.088C251.667 54.0845 251.671 54.0821 251.676 54.0814C251.68 54.0806 251.684 54.0814 251.688 54.0836C251.692 54.0859 251.695 54.0894 251.697 54.0937L251.698 54.0991Z" fill="#1D2238"/>
<path d="M248.038 53.9006C248.1 54.0934 248.588 54.1089 249.129 53.9352C249.67 53.7616 250.059 53.4645 249.997 53.2716C249.935 53.0788 249.446 53.0633 248.905 53.237C248.364 53.4106 247.976 53.7078 248.038 53.9006Z" fill="#1D2238"/>
<path d="M252.911 53.0448C252.87 53.2431 253.287 53.4978 253.843 53.6137C254.4 53.7297 254.884 53.663 254.925 53.4648C254.967 53.2665 254.549 53.0118 253.993 52.8958C253.437 52.7799 252.952 52.8466 252.911 53.0448Z" fill="#1D2238"/>
<path d="M249.045 54.93C249.048 55.0223 249.078 55.1116 249.132 55.1867C249.186 55.2618 249.261 55.3192 249.347 55.3518C249.433 55.3844 249.527 55.3906 249.617 55.3697C249.707 55.3488 249.789 55.3017 249.852 55.2344C249.915 55.1671 249.957 55.0825 249.972 54.9914C249.987 54.9004 249.975 54.8069 249.937 54.7227C249.899 54.6386 249.837 54.5677 249.759 54.5188C249.68 54.47 249.589 54.4455 249.497 54.4485C249.436 54.4504 249.375 54.4644 249.319 54.4897C249.264 54.515 249.213 54.551 249.171 54.5957C249.129 54.6404 249.097 54.6929 249.075 54.7503C249.053 54.8077 249.043 54.8687 249.045 54.93Z" fill="#1D2238"/>
<path d="M253.108 54.8001C253.111 54.8924 253.141 54.9817 253.195 55.0568C253.248 55.1319 253.323 55.1893 253.409 55.2219C253.496 55.2545 253.59 55.2607 253.68 55.2398C253.77 55.219 253.852 55.1719 253.915 55.1045C253.978 55.0372 254.02 54.9526 254.035 54.8616C254.05 54.7705 254.038 54.677 254 54.5929C253.962 54.5087 253.899 54.4378 253.821 54.389C253.743 54.3401 253.652 54.3157 253.559 54.3186C253.498 54.3206 253.438 54.3346 253.382 54.3598C253.326 54.3851 253.276 54.4211 253.234 54.4658C253.192 54.5105 253.159 54.563 253.137 54.6204C253.116 54.6778 253.106 54.7388 253.108 54.8001Z" fill="#1D2238"/>
<path d="M251.362 60.5302L251.109 60.426C250.952 60.3616 250.809 60.2669 250.689 60.1473C250.569 60.0278 250.474 59.8857 250.408 59.7293C250.343 59.5728 250.309 59.405 250.309 59.2355C250.308 59.066 250.341 58.898 250.406 58.7412L253.047 59.8268C252.983 59.9836 252.888 60.1262 252.768 60.2464C252.649 60.3666 252.507 60.4621 252.35 60.5274C252.194 60.5927 252.026 60.6266 251.857 60.6271C251.687 60.6275 251.519 60.5946 251.362 60.5302Z" fill="white"/>
<path d="M239.984 55.1349C240.017 56.1693 240.721 56.9862 241.557 56.9595C242.393 56.9328 243.044 56.0725 243.011 55.0381C242.978 54.0037 242.274 53.1868 241.438 53.2135C240.602 53.2403 239.951 54.1005 239.984 55.1349Z" fill="#AD6359"/>
<path d="M242.348 54.547C242.226 54.4449 242.084 54.3695 241.931 54.3256C241.869 54.3072 241.805 54.2997 241.741 54.3032C241.684 54.3043 241.628 54.3148 241.575 54.3344C241.475 54.3785 241.385 54.4441 241.312 54.5266C241.24 54.609 241.186 54.7064 241.155 54.8117C241.135 54.8687 241.119 54.9274 241.108 54.9871C241.104 55.0179 241.097 55.0483 241.095 55.0795L241.092 55.1267L241.088 55.1605C241.086 55.1712 241.087 55.168 241.084 55.172C241.083 55.1673 241.079 55.1652 241.07 55.1509C241.047 55.1196 241.012 55.0985 240.974 55.092C240.928 55.0956 240.999 55.1113 241.062 55.1005C241.197 55.0805 241.367 55.0381 241.54 55.0059C241.721 54.9643 241.909 54.9659 242.089 55.0106L242.095 55.0126C242.099 55.0139 242.103 55.0167 242.105 55.0203C242.107 55.024 242.108 55.0283 242.108 55.0326C242.107 55.0369 242.105 55.0408 242.102 55.0438C242.099 55.0468 242.095 55.0485 242.091 55.0489C241.927 55.0712 241.768 55.1208 241.62 55.1956C241.466 55.2615 241.315 55.3364 241.152 55.3901C241.068 55.4231 240.976 55.433 240.887 55.4187C240.862 55.4127 240.839 55.4018 240.819 55.3867C240.798 55.3716 240.781 55.3525 240.768 55.3307C240.745 55.2896 240.731 55.2438 240.728 55.1967C240.715 55.0234 240.738 54.8492 240.794 54.685C240.851 54.5197 240.947 54.3708 241.074 54.251C241.201 54.1287 241.365 54.0514 241.54 54.031C241.715 54.0117 241.892 54.0532 242.04 54.1486C242.185 54.2437 242.302 54.3745 242.381 54.5284C242.383 54.5321 242.384 54.5363 242.383 54.5404C242.382 54.5445 242.38 54.5483 242.377 54.551C242.374 54.5537 242.37 54.5552 242.365 54.5553C242.361 54.5554 242.357 54.5541 242.354 54.5516L242.348 54.547Z" fill="#1D2238"/>
<path d="M254.594 77.3125C254.741 78.1301 254.854 78.9508 254.953 79.7727C255.007 80.1833 255.047 80.5951 255.093 81.0063L255.214 82.2417L255.314 83.4788C255.341 83.8918 255.375 84.3042 255.395 84.7178C255.442 85.5443 255.476 86.372 255.475 87.2028C255.327 86.3853 255.214 85.5646 255.115 84.7427C255.061 84.3321 255.021 83.9203 254.975 83.5091L254.855 82.2736L254.755 81.0364C254.728 80.6235 254.695 80.2111 254.675 79.7975C254.628 78.971 254.593 78.1433 254.594 77.3125Z" fill="#1D2238"/>
<path d="M262.797 87.8818V88.6534C261.722 88.7053 260.71 89.1757 259.977 89.9638C259.244 90.752 258.848 91.7956 258.874 92.8716C258.9 93.9476 259.346 94.9708 260.116 95.7226C260.887 96.4744 261.92 96.8952 262.997 96.8951H263.139C263.435 97.5331 263.907 98.0732 264.5 98.4516C265.093 98.8301 265.781 99.0312 266.485 99.0311H267.589C268.567 99.0311 269.505 98.6426 270.197 97.9511C270.888 97.2596 271.277 96.3216 271.277 95.3436V87.8818H262.797ZM259.781 92.7717C259.782 91.9542 260.095 91.1678 260.655 90.5725C261.215 89.9771 261.981 89.6173 262.797 89.5663V95.3436C262.797 95.557 262.816 95.7699 262.853 95.98C262.027 95.9428 261.246 95.5887 260.674 94.9912C260.102 94.3938 259.782 93.5989 259.781 92.7717Z" fill="#083A55"/>
<path d="M260.722 91.8436L256.472 90.8819L256.17 90.8053C249.022 90.1733 234.99 89.245 234.99 89.245L235.485 87.0976L225.749 84.0391L225.065 91.0064C224.961 92.2879 225.128 93.5769 225.554 94.7898C226.042 96.1473 226.844 97.3706 228.022 98.0935C229.417 98.9499 231.398 98.7983 233.021 98.5805L254.437 96.2197L257.22 97.1206C257.53 97.2205 257.862 97.2222 258.172 97.1253C258.482 97.0285 258.755 96.8379 258.952 96.5798L259.436 96.7568C259.647 96.8339 259.877 96.8416 260.092 96.7787C260.308 96.7159 260.497 96.5858 260.634 96.4074C260.754 96.2495 260.84 96.0678 260.885 95.8743C260.93 95.6809 260.934 95.48 260.895 95.2851C260.857 95.0901 260.777 94.9056 260.662 94.7437C260.547 94.5817 260.399 94.4461 260.227 94.3458L260.203 94.3318L260.387 94.3399C260.703 94.3537 261.012 94.249 261.254 94.0463C261.497 93.8437 261.654 93.5577 261.696 93.2447C261.738 92.9317 261.661 92.6144 261.481 92.3551C261.301 92.0958 261.03 91.9133 260.722 91.8436V91.8436Z" fill="#D58378"/>
<path d="M258.869 96.5886C258.654 96.5885 258.44 96.5617 258.232 96.5088C258.129 96.4885 258.031 96.4539 257.93 96.4265C257.832 96.3939 257.735 96.3574 257.637 96.3225C257.542 96.2808 257.446 96.2422 257.352 96.1981C257.259 96.1498 257.164 96.1079 257.075 96.0524C256.887 95.9492 256.712 95.8231 256.554 95.677L256.545 95.6681L256.552 95.6504L256.563 95.6547L257.725 96.0993L258.878 96.5662L258.889 96.5707L258.882 96.5884L258.869 96.5886Z" fill="#1D2238"/>
<path d="M260.716 94.6408C260.518 94.6606 260.319 94.6539 260.123 94.6207C260.026 94.6102 259.934 94.585 259.84 94.5672C259.747 94.5441 259.656 94.5169 259.564 94.4914C259.474 94.459 259.383 94.4297 259.294 94.3947C259.206 94.3555 259.117 94.3229 259.031 94.2763C258.852 94.1911 258.684 94.0824 258.533 93.9531L258.523 93.9445L258.529 93.9268L258.54 93.9303L259.636 94.2626L260.724 94.6178L260.735 94.6216L260.729 94.6392L260.716 94.6408Z" fill="#1D2238"/>
<path d="M237.01 79.3633C236.916 80.2019 236.793 81.0347 236.665 81.8663C236.538 82.6981 236.394 83.5266 236.25 84.3551C235.954 86.0103 235.63 87.6596 235.277 89.3032L235.007 88.9525C235.604 88.9932 236.201 89.0381 236.797 89.0874C237.393 89.1339 237.989 89.1943 238.585 89.2476C239.18 89.3082 239.776 89.3664 240.371 89.438C240.966 89.5064 241.56 89.5818 242.154 89.6707C241.554 89.6886 240.955 89.693 240.356 89.6903C239.757 89.691 239.158 89.6782 238.56 89.6677C237.962 89.65 237.363 89.6394 236.765 89.6149C236.168 89.5931 235.57 89.567 234.973 89.5367L234.639 89.5197L234.703 89.186C235.024 87.5358 235.373 85.8914 235.749 84.2528C235.942 83.4344 236.135 82.616 236.344 81.8009C236.553 80.9856 236.767 80.1715 237.01 79.3633Z" fill="#1D2238"/>
<path d="M235.108 89.4546L230.289 91.8822L234.873 89.0359L235.077 88.9092L235.322 89.3465L235.108 89.4546Z" fill="#1D2238"/>
<path d="M253.691 90.5451C254.126 90.5271 254.559 90.5299 254.991 90.5355C255.207 90.5369 255.423 90.547 255.639 90.5524C255.862 90.558 256.084 90.5779 256.305 90.6122C256.414 90.6284 256.528 90.6488 256.634 90.6694C256.74 90.6902 256.846 90.7084 256.951 90.7312L257.584 90.8649C258.006 90.9501 258.424 91.054 258.844 91.1504C259.264 91.2442 259.68 91.3573 260.098 91.462L260.411 91.5419L260.567 91.584L260.648 91.6068C260.68 91.617 260.713 91.6265 260.745 91.638C261.003 91.7306 261.227 91.8957 261.393 92.1133C261.555 92.3278 261.649 92.5866 261.661 92.8555C261.679 93.1007 261.649 93.347 261.572 93.5806C261.552 93.639 261.528 93.6961 261.5 93.7514C261.474 93.8017 261.451 93.8525 261.423 93.9019C261.371 94.0017 261.312 94.099 261.252 94.1946C261.188 94.2894 261.12 94.3806 261.046 94.4677C260.97 94.5596 260.885 94.6433 260.792 94.7172L260.826 94.5866C260.861 94.7207 260.89 94.8565 260.912 94.9936C260.934 95.1304 260.94 95.2693 260.931 95.4076L260.929 95.4256L260.895 95.4266L260.895 95.4086C260.886 95.2758 260.863 95.1444 260.826 95.0167C260.79 94.8878 260.748 94.7608 260.7 94.6363L260.695 94.6232L260.706 94.6127C260.856 94.4614 260.983 94.2885 261.081 94.0998C261.185 93.913 261.271 93.717 261.338 93.5142C261.392 93.3085 261.407 93.0944 261.382 92.8832C261.363 92.6727 261.282 92.4725 261.149 92.3076C261.017 92.1431 260.84 92.0204 260.64 91.9543C260.438 91.8974 260.223 91.8517 260.015 91.7999L258.76 91.495C257.924 91.2905 257.088 91.0751 256.251 90.8797C255.832 90.7913 255.401 90.7649 254.973 90.7158L253.688 90.5809L253.67 90.579L253.673 90.5458L253.691 90.5451Z" fill="#1D2238"/>
<path d="M257.217 97.1123C256.741 97.0256 256.277 96.9048 255.814 96.7778C255.583 96.7133 255.353 96.6461 255.124 96.5744C254.894 96.5065 254.667 96.428 254.439 96.3547L254.484 96.3595C254.182 96.3815 253.878 96.4002 253.574 96.412C253.27 96.4218 252.966 96.4286 252.66 96.4184C252.959 96.3505 253.259 96.2995 253.559 96.2515C253.86 96.2054 254.161 96.1663 254.462 96.1305L254.484 96.1279L254.508 96.1353C254.737 96.2066 254.968 96.2726 255.195 96.3492C255.423 96.4221 255.65 96.4994 255.877 96.5794C256.328 96.7415 256.778 96.9098 257.217 97.1123Z" fill="#1D2238"/>
<path d="M273.636 80.665C273.619 80.7927 273.596 80.9185 273.573 81.0441C273.547 81.1688 273.524 81.2945 273.494 81.418C273.465 81.5418 273.438 81.6661 273.405 81.7886C273.373 81.9112 273.343 82.0348 273.308 82.1567L273.282 82.2512L273.162 82.2637C273.027 82.2792 272.892 82.303 272.76 82.3349C272.623 82.3655 272.488 82.404 272.354 82.4467C272.085 82.5341 271.821 82.6366 271.563 82.7537C271.306 82.8761 271.05 83.0034 270.801 83.1501C270.737 83.1839 270.675 83.2214 270.614 83.2607L270.426 83.3726C270.303 83.4501 270.18 83.531 270.051 83.6058C270.144 83.4912 270.24 83.3766 270.344 83.2698C270.451 83.1673 270.555 83.0587 270.673 82.9668C270.787 82.8696 270.906 82.7791 271.03 82.6955C271.154 82.6093 271.282 82.5297 271.413 82.4568C271.679 82.3116 271.959 82.1935 272.248 82.1044C272.543 82.01 272.85 81.9587 273.159 81.9523L273.013 82.0592C273.057 81.9406 273.107 81.8237 273.154 81.7059C273.201 81.5878 273.253 81.4717 273.303 81.355C273.353 81.238 273.409 81.1232 273.462 81.0074C273.518 80.8926 273.574 80.7778 273.636 80.665Z" fill="#1D2238"/>
<path d="M249.513 48.4508C249.513 48.4508 247.217 54.3681 242.752 54.0569C242.752 54.0569 242.452 53.1282 241.438 53.2143C240.424 53.3003 239.006 55.0185 240.996 56.8463L240.634 59.6809C240.634 59.6809 237.331 56.9245 238.549 51.3944C239.768 45.8644 246.162 43.6312 249.513 44.5252C249.513 44.5252 258.228 42.9048 260.072 47.5424C261.916 52.18 256.363 52.2975 256.363 52.2975C256.363 52.2975 255.046 47.2918 249.513 48.4508Z" fill="#1D2238"/>
<path d="M249.206 56.5449C248.762 56.5449 248.327 56.413 247.957 56.1658C247.587 55.9186 247.299 55.5673 247.128 55.1562C246.958 54.7452 246.913 54.2929 247 53.8565C247.087 53.4202 247.301 53.0194 247.616 52.7048C247.93 52.3902 248.331 52.1759 248.768 52.0891C249.204 52.0023 249.656 52.0469 250.067 52.2171C250.478 52.3874 250.83 52.6757 251.077 53.0456C251.324 53.4156 251.456 53.8505 251.456 54.2954C251.455 54.8918 251.218 55.4636 250.796 55.8853C250.375 56.307 249.803 56.5442 249.206 56.5449ZM249.206 52.2859C248.809 52.2859 248.421 52.4038 248.09 52.6246C247.76 52.8454 247.502 53.1592 247.35 53.5264C247.198 53.8936 247.158 54.2977 247.236 54.6875C247.313 55.0773 247.505 55.4353 247.786 55.7164C248.067 55.9974 248.425 56.1888 248.815 56.2663C249.204 56.3438 249.608 56.304 249.976 56.1519C250.343 55.9998 250.657 55.7423 250.877 55.4118C251.098 55.0813 251.216 54.6928 251.216 54.2954C251.215 53.7626 251.003 53.2518 250.627 52.8751C250.25 52.4984 249.739 52.2865 249.206 52.286V52.2859Z" fill="#1D2238"/>
<path d="M254.302 56.5449C253.857 56.5449 253.422 56.413 253.052 56.1658C252.683 55.9186 252.394 55.5673 252.224 55.1562C252.054 54.7452 252.009 54.2929 252.096 53.8565C252.183 53.4202 252.397 53.0194 252.712 52.7048C253.026 52.3902 253.427 52.1759 253.863 52.0891C254.3 52.0023 254.752 52.0469 255.163 52.2171C255.574 52.3874 255.925 52.6757 256.173 53.0456C256.42 53.4156 256.552 53.8505 256.552 54.2954C256.551 54.8918 256.314 55.4636 255.892 55.8853C255.47 56.307 254.899 56.5442 254.302 56.5449ZM254.302 52.2859C253.905 52.2859 253.516 52.4038 253.186 52.6246C252.855 52.8454 252.598 53.1592 252.446 53.5264C252.294 53.8936 252.254 54.2977 252.331 54.6875C252.409 55.0773 252.6 55.4353 252.881 55.7163C253.162 55.9974 253.52 56.1888 253.91 56.2663C254.3 56.3438 254.704 56.304 255.071 56.1519C255.438 55.9998 255.752 55.7423 255.973 55.4118C256.194 55.0813 256.312 54.6928 256.312 54.2954C256.311 53.7626 256.099 53.2519 255.722 52.8752C255.346 52.4985 254.835 52.2866 254.302 52.2859V52.2859Z" fill="#1D2238"/>
<path d="M242.757 53.9371L242.744 54.1768L247.069 54.4161L247.082 54.1764L242.757 53.9371Z" fill="#1D2238"/>
<path d="M252.245 53.6309H251.336V53.8709H252.245V53.6309Z" fill="#1D2238"/>
<path d="M127.238 85.32H128.654L130.606 91H129.262L128.822 89.728H127.054L126.622 91H125.278L127.238 85.32ZM128.606 88.824L127.942 86.64L127.262 88.824H128.606ZM134.503 86.984C134.487 86.9573 134.431 86.9173 134.335 86.864C134.239 86.8053 134.119 86.744 133.975 86.68C133.831 86.616 133.673 86.56 133.503 86.512C133.332 86.464 133.161 86.44 132.991 86.44C132.767 86.44 132.593 86.48 132.471 86.56C132.348 86.6347 132.287 86.752 132.287 86.912C132.287 87.04 132.332 87.1413 132.423 87.216C132.519 87.2907 132.655 87.3573 132.831 87.416C133.007 87.4693 133.223 87.5333 133.479 87.608C133.841 87.704 134.156 87.8213 134.423 87.96C134.689 88.0933 134.892 88.2667 135.031 88.48C135.175 88.6933 135.247 88.976 135.247 89.328C135.247 89.648 135.188 89.92 135.071 90.144C134.953 90.3627 134.793 90.5413 134.591 90.68C134.393 90.8133 134.167 90.912 133.911 90.976C133.655 91.0347 133.391 91.064 133.119 91.064C132.841 91.064 132.556 91.0373 132.263 90.984C131.975 90.9253 131.697 90.8453 131.431 90.744C131.164 90.6373 130.919 90.5093 130.695 90.36L131.271 89.216C131.292 89.2427 131.361 89.2933 131.479 89.368C131.596 89.4373 131.74 89.512 131.911 89.592C132.087 89.6667 132.281 89.7333 132.495 89.792C132.708 89.8507 132.924 89.88 133.143 89.88C133.377 89.88 133.551 89.8427 133.663 89.768C133.78 89.6933 133.839 89.5893 133.839 89.456C133.839 89.312 133.777 89.2 133.655 89.12C133.537 89.04 133.375 88.968 133.167 88.904C132.964 88.84 132.729 88.768 132.463 88.688C132.116 88.5813 131.828 88.4613 131.599 88.328C131.375 88.1947 131.207 88.032 131.095 87.84C130.988 87.648 130.935 87.408 130.935 87.12C130.935 86.72 131.028 86.384 131.215 86.112C131.407 85.8347 131.663 85.6267 131.983 85.488C132.303 85.344 132.652 85.272 133.031 85.272C133.297 85.272 133.553 85.304 133.799 85.368C134.049 85.432 134.281 85.512 134.495 85.608C134.713 85.704 134.908 85.8 135.079 85.896L134.503 86.984ZM139.425 86.984C139.409 86.9573 139.353 86.9173 139.257 86.864C139.161 86.8053 139.041 86.744 138.897 86.68C138.753 86.616 138.595 86.56 138.425 86.512C138.254 86.464 138.083 86.44 137.913 86.44C137.689 86.44 137.515 86.48 137.393 86.56C137.27 86.6347 137.209 86.752 137.209 86.912C137.209 87.04 137.254 87.1413 137.345 87.216C137.441 87.2907 137.577 87.3573 137.753 87.416C137.929 87.4693 138.145 87.5333 138.401 87.608C138.763 87.704 139.078 87.8213 139.345 87.96C139.611 88.0933 139.814 88.2667 139.953 88.48C140.097 88.6933 140.169 88.976 140.169 89.328C140.169 89.648 140.11 89.92 139.993 90.144C139.875 90.3627 139.715 90.5413 139.513 90.68C139.315 90.8133 139.089 90.912 138.833 90.976C138.577 91.0347 138.313 91.064 138.041 91.064C137.763 91.064 137.478 91.0373 137.185 90.984C136.897 90.9253 136.619 90.8453 136.353 90.744C136.086 90.6373 135.841 90.5093 135.617 90.36L136.193 89.216C136.214 89.2427 136.283 89.2933 136.401 89.368C136.518 89.4373 136.662 89.512 136.833 89.592C137.009 89.6667 137.203 89.7333 137.417 89.792C137.63 89.8507 137.846 89.88 138.065 89.88C138.299 89.88 138.473 89.8427 138.585 89.768C138.702 89.6933 138.761 89.5893 138.761 89.456C138.761 89.312 138.699 89.2 138.577 89.12C138.459 89.04 138.297 88.968 138.089 88.904C137.886 88.84 137.651 88.768 137.385 88.688C137.038 88.5813 136.75 88.4613 136.521 88.328C136.297 88.1947 136.129 88.032 136.017 87.84C135.91 87.648 135.857 87.408 135.857 87.12C135.857 86.72 135.95 86.384 136.137 86.112C136.329 85.8347 136.585 85.6267 136.905 85.488C137.225 85.344 137.574 85.272 137.953 85.272C138.219 85.272 138.475 85.304 138.721 85.368C138.971 85.432 139.203 85.512 139.417 85.608C139.635 85.704 139.83 85.8 140.001 85.896L139.425 86.984ZM144.931 89.848V91H140.939V85.32H144.859V86.472H142.251V87.576H144.491V88.64H142.251V89.848H144.931ZM149.136 86.984C149.12 86.9573 149.064 86.9173 148.968 86.864C148.872 86.8053 148.752 86.744 148.608 86.68C148.464 86.616 148.306 86.56 148.136 86.512C147.965 86.464 147.794 86.44 147.624 86.44C147.4 86.44 147.226 86.48 147.104 86.56C146.981 86.6347 146.92 86.752 146.92 86.912C146.92 87.04 146.965 87.1413 147.056 87.216C147.152 87.2907 147.288 87.3573 147.464 87.416C147.64 87.4693 147.856 87.5333 148.112 87.608C148.474 87.704 148.789 87.8213 149.056 87.96C149.322 88.0933 149.525 88.2667 149.664 88.48C149.808 88.6933 149.88 88.976 149.88 89.328C149.88 89.648 149.821 89.92 149.704 90.144C149.586 90.3627 149.426 90.5413 149.224 90.68C149.026 90.8133 148.8 90.912 148.544 90.976C148.288 91.0347 148.024 91.064 147.752 91.064C147.474 91.064 147.189 91.0373 146.896 90.984C146.608 90.9253 146.33 90.8453 146.064 90.744C145.797 90.6373 145.552 90.5093 145.328 90.36L145.904 89.216C145.925 89.2427 145.994 89.2933 146.112 89.368C146.229 89.4373 146.373 89.512 146.544 89.592C146.72 89.6667 146.914 89.7333 147.128 89.792C147.341 89.8507 147.557 89.88 147.776 89.88C148.01 89.88 148.184 89.8427 148.296 89.768C148.413 89.6933 148.472 89.5893 148.472 89.456C148.472 89.312 148.41 89.2 148.288 89.12C148.17 89.04 148.008 88.968 147.8 88.904C147.597 88.84 147.362 88.768 147.096 88.688C146.749 88.5813 146.461 88.4613 146.232 88.328C146.008 88.1947 145.84 88.032 145.728 87.84C145.621 87.648 145.568 87.408 145.568 87.12C145.568 86.72 145.661 86.384 145.848 86.112C146.04 85.8347 146.296 85.6267 146.616 85.488C146.936 85.344 147.285 85.272 147.664 85.272C147.93 85.272 148.186 85.304 148.432 85.368C148.682 85.432 148.914 85.512 149.128 85.608C149.346 85.704 149.541 85.8 149.712 85.896L149.136 86.984ZM154.057 86.984C154.041 86.9573 153.985 86.9173 153.889 86.864C153.793 86.8053 153.673 86.744 153.529 86.68C153.385 86.616 153.228 86.56 153.057 86.512C152.887 86.464 152.716 86.44 152.545 86.44C152.321 86.44 152.148 86.48 152.025 86.56C151.903 86.6347 151.841 86.752 151.841 86.912C151.841 87.04 151.887 87.1413 151.977 87.216C152.073 87.2907 152.209 87.3573 152.385 87.416C152.561 87.4693 152.777 87.5333 153.033 87.608C153.396 87.704 153.711 87.8213 153.977 87.96C154.244 88.0933 154.447 88.2667 154.585 88.48C154.729 88.6933 154.801 88.976 154.801 89.328C154.801 89.648 154.743 89.92 154.625 90.144C154.508 90.3627 154.348 90.5413 154.145 90.68C153.948 90.8133 153.721 90.912 153.465 90.976C153.209 91.0347 152.945 91.064 152.673 91.064C152.396 91.064 152.111 91.0373 151.817 90.984C151.529 90.9253 151.252 90.8453 150.985 90.744C150.719 90.6373 150.473 90.5093 150.249 90.36L150.825 89.216C150.847 89.2427 150.916 89.2933 151.033 89.368C151.151 89.4373 151.295 89.512 151.465 89.592C151.641 89.6667 151.836 89.7333 152.049 89.792C152.263 89.8507 152.479 89.88 152.697 89.88C152.932 89.88 153.105 89.8427 153.217 89.768C153.335 89.6933 153.393 89.5893 153.393 89.456C153.393 89.312 153.332 89.2 153.209 89.12C153.092 89.04 152.929 88.968 152.721 88.904C152.519 88.84 152.284 88.768 152.017 88.688C151.671 88.5813 151.383 88.4613 151.153 88.328C150.929 88.1947 150.761 88.032 150.649 87.84C150.543 87.648 150.489 87.408 150.489 87.12C150.489 86.72 150.583 86.384 150.769 86.112C150.961 85.8347 151.217 85.6267 151.537 85.488C151.857 85.344 152.207 85.272 152.585 85.272C152.852 85.272 153.108 85.304 153.353 85.368C153.604 85.432 153.836 85.512 154.049 85.608C154.268 85.704 154.463 85.8 154.633 85.896L154.057 86.984ZM160.051 91V87.616L158.827 90.08H158.107L156.883 87.616V91H155.571V85.32H156.995L158.467 88.288L159.947 85.32H161.363V91H160.051ZM166.446 89.848V91H162.454V85.32H166.374V86.472H163.766V87.576H166.006V88.64H163.766V89.848H166.446ZM168.555 87.752V91H167.243V85.32H168.283L170.915 88.664V85.32H172.227V91H171.155L168.555 87.752ZM177.642 86.472H175.914V91H174.602V86.472H172.866V85.32H177.642V86.472Z" fill="black"/>
</g>
<defs>
<clipPath id="clip0_18063_78603">
<rect width="360" height="240" fill="white"/>
</clipPath>
</defs>
</svg>
