<svg width="193" height="200" viewBox="0 0 193 200" fill="none" xmlns="http://www.w3.org/2000/svg">
<g clip-path="url(#clip0_18063_78383)">
<path opacity="0.7" d="M11.6912 62.2917C11.6912 62.2917 -0.89474 94.793 16.7916 127.533C34.4779 160.273 70.915 177.558 100.077 192.343C129.238 207.127 159.519 199.927 173.91 175.711C188.3 151.495 168.562 134.207 168.538 99.6727C168.515 65.1386 173.707 55.9954 155.01 26.8192C136.314 -2.35694 90.4216 -8.81434 55.7292 12.8249C21.0368 34.4642 11.6912 62.2917 11.6912 62.2917Z" fill="white"/>
<path d="M9.77461 49.6842C21.8361 26.2799 44.2118 8.57367 72.1059 6.08025C91.2805 4.40745 110.391 9.93592 125.711 21.5877C133.323 27.4401 140.089 34.9281 144.579 43.4588C149.737 53.2571 151.238 64.5525 156.544 74.3031C163.142 86.4274 175.53 91.4264 183.849 101.903C190.7 110.531 193.05 122.091 192.264 133.08C190.828 153.14 179.076 172.185 161.79 182.465C147.177 191.155 129.56 193.553 112.577 192.764C86.3933 191.547 60.3232 182.914 39.7002 166.736C19.0773 150.557 4.25201 126.643 0.741447 100.668C-1.64483 83.0143 1.82415 65.1114 9.77461 49.6842Z" fill="#92E3A9"/>
<path opacity="0.7" d="M9.77461 49.6842C21.8361 26.2799 44.2118 8.57367 72.1059 6.08025C91.2805 4.40745 110.391 9.93592 125.711 21.5877C133.323 27.4401 140.089 34.9281 144.579 43.4588C149.737 53.2571 151.238 64.5525 156.544 74.3031C163.142 86.4274 175.53 91.4264 183.849 101.903C190.7 110.531 193.05 122.091 192.264 133.08C190.828 153.14 179.076 172.185 161.79 182.465C147.177 191.155 129.56 193.553 112.577 192.764C86.3933 191.547 60.3232 182.914 39.7002 166.736C19.0773 150.557 4.25201 126.643 0.741447 100.668C-1.64483 83.0143 1.82415 65.1114 9.77461 49.6842Z" fill="white"/>
<path d="M1.82227 58.2403C2.35502 60.3499 2.09262 56.4666 3.13708 51.7149C4.18154 46.9632 5.9696 48.8905 5.9696 48.8905" stroke="#263238" stroke-linecap="round" stroke-linejoin="round"/>
<path d="M1.49414 53.3865L4.76808 52.0439" stroke="#263238" stroke-linecap="round" stroke-linejoin="round"/>
<path d="M7.47618 50.4346C7.47618 50.4346 5.51904 54.4812 8.46944 56.2013" stroke="#263238" stroke-linecap="round" stroke-linejoin="round"/>
<path d="M10.252 49.2969C10.252 49.2969 13.4821 51.0915 11.4585 54.9761" stroke="#263238" stroke-linecap="round" stroke-linejoin="round"/>
<path d="M8.03711 51.8057L10.3514 53.4956" stroke="#263238" stroke-linecap="round" stroke-linejoin="round"/>
<path d="M9.85192 51.0615L8.04102 53.9443" stroke="#263238" stroke-linecap="round" stroke-linejoin="round"/>
<path d="M20.2542 94.295C20.6946 91.6107 18.8756 89.0777 16.1913 88.6374C13.5071 88.197 10.974 90.016 10.5337 92.7003C10.0933 95.3845 11.9123 97.9175 14.5966 98.3579C17.2809 98.7983 19.8139 96.9792 20.2542 94.295Z" stroke="#263238" stroke-linecap="round" stroke-linejoin="round"/>
<path d="M23.1813 100.776C26.138 100.169 28.0431 97.2805 27.4365 94.3238C26.8299 91.3671 23.9412 89.462 20.9845 90.0686C18.0278 90.6752 16.1226 93.5639 16.7293 96.5206C17.3359 99.4773 20.2246 101.382 23.1813 100.776Z" stroke="#263238" stroke-linecap="round" stroke-linejoin="round"/>
<path d="M19.8818 91.4678L17.6113 92.2781" stroke="#263238" stroke-linecap="round" stroke-linejoin="round"/>
<path d="M20.1974 92.4043L16.9375 93.5829" stroke="#263238" stroke-linecap="round" stroke-linejoin="round"/>
<path d="M20.318 93.5312L16.6797 94.9303" stroke="#263238" stroke-linecap="round" stroke-linejoin="round"/>
<path d="M20.0607 95.0713L16.7441 96.5868" stroke="#263238" stroke-linecap="round" stroke-linejoin="round"/>
<path d="M19.4762 96.2559L16.9531 97.3025" stroke="#263238" stroke-linecap="round" stroke-linejoin="round"/>
<path d="M17.7728 85.9961C17.6299 85.568 16.0335 85.2645 15.9556 86.4463C15.8778 87.6282 17.6407 86.6465 18.1349 86.0171C18.1349 86.0171 17.2284 87.2345 17.6128 87.4748" stroke="#263238" stroke-linecap="round" stroke-linejoin="round"/>
<path d="M26.6154 87.4688L25.1973 90.4159C25.1973 90.4159 25.9064 88.9423 26.6649 89.0772C27.5995 89.2433 26.9785 90.7721 25.8488 90.2096" stroke="#263238" stroke-linecap="round" stroke-linejoin="round"/>
<path d="M180.896 135.604L183.124 137.711" stroke="#263238" stroke-linecap="round" stroke-linejoin="round"/>
<path d="M183.125 135.054L181.26 137.84" stroke="#263238" stroke-linecap="round" stroke-linejoin="round"/>
<path d="M185.314 135.853L187.542 135.024" stroke="#263238" stroke-linecap="round" stroke-linejoin="round"/>
<path d="M188.611 132.702L189.966 133.901" stroke="#263238" stroke-linecap="round" stroke-linejoin="round"/>
<path d="M191.005 131.261L189.289 137.149" stroke="#263238" stroke-linecap="round" stroke-linejoin="round"/>
<path d="M87.1055 102.535L93.0962 98.4131L101.031 98.9693L101.526 109.026L95.7022 113.19L88.5159 112.666L87.1055 102.535Z" stroke="#263238" stroke-linecap="round" stroke-linejoin="round"/>
<path d="M88.5156 112.666L94.3154 108.49L101.526 109.026" stroke="#263238" stroke-linecap="round" stroke-linejoin="round"/>
<path d="M94.3153 108.49L93.0957 98.4131" stroke="#263238" stroke-linecap="round" stroke-linejoin="round"/>
<path d="M87.1055 102.535L95.0223 103.452L101.031 98.9697" stroke="#263238" stroke-linecap="round" stroke-linejoin="round"/>
<path d="M95.0215 103.451L95.7016 113.189" stroke="#263238" stroke-linecap="round" stroke-linejoin="round"/>
<path d="M157.033 68.7412L154.379 76.9898L162.64 75.8751L157.033 68.7412Z" stroke="#263238" stroke-linecap="round" stroke-linejoin="round"/>
<path d="M157.031 68.7412L158.508 76.3843" stroke="#263238" stroke-linecap="round" stroke-linejoin="round"/>
<path d="M158.271 75.1594L159.237 75.0059L159.462 76.3034" stroke="#263238" stroke-linecap="round" stroke-linejoin="round"/>
<path d="M52.9824 144.223L57.1108 146.25" stroke="#263238" stroke-linecap="round" stroke-linejoin="round"/>
<path d="M55.7788 142.676L54.5977 146.987" stroke="#263238" stroke-linecap="round" stroke-linejoin="round"/>
<path d="M56.3516 140.574C56.4193 140.504 56.5025 140.451 56.5943 140.419C56.6862 140.387 56.7842 140.377 56.8807 140.389C56.9773 140.401 57.0696 140.436 57.1504 140.49C57.2312 140.544 57.2983 140.616 57.3464 140.701C57.7591 141.353 56.9482 142.715 56.9482 142.715L58.604 142.085" stroke="#263238" stroke-linecap="round" stroke-linejoin="round"/>
<path d="M85.3815 2.21973C89.3215 4.43372 84.8066 9.85153 84.8066 13.0119C84.8066 16.1723 89.3215 15.7208 91.5789 16.6238C92.4819 16.6238 94.2878 16.6238 94.2389 18.9201" stroke="#263238" stroke-linecap="round" stroke-linejoin="round"/>
<path d="M80.9883 5.08105C81.6733 8.817 85.9607 7.4914 88.5835 8.3447C93.0909 9.81126 90.5919 14.472 89.2439 17.2873C88.4379 18.9708 87.6352 21.3236 89.076 22.9204" stroke="#263238" stroke-linecap="round" stroke-linejoin="round"/>
<path d="M81.5664 6.53023L86.2661 2.62598" stroke="#263238" stroke-linecap="round" stroke-linejoin="round"/>
<path d="M83.4102 7.69563L86.9494 4.75977" stroke="#263238" stroke-linecap="round" stroke-linejoin="round"/>
<path d="M85.4902 10.6649L88.4799 8.31641" stroke="#263238" stroke-linecap="round" stroke-linejoin="round"/>
<path d="M84.8711 14.1796L90.7137 9.97754" stroke="#263238" stroke-linecap="round" stroke-linejoin="round"/>
<path d="M87.1094 15.8189L91.1816 12.8291" stroke="#263238" stroke-linecap="round" stroke-linejoin="round"/>
<path d="M88.8418 22.1705L93.932 18.0264" stroke="#263238" stroke-linecap="round" stroke-linejoin="round"/>
<path d="M88.9688 18.91L92.2897 16.5762" stroke="#263238" stroke-linecap="round" stroke-linejoin="round"/>
<path d="M22.535 146.478C27.3839 144.539 29.7427 139.036 27.8034 134.187C25.8641 129.338 20.3612 126.979 15.5122 128.918C10.6633 130.858 8.30452 136.361 10.2438 141.209C12.1831 146.058 17.686 148.417 22.535 146.478Z" stroke="#263238" stroke-linecap="round" stroke-linejoin="round"/>
<path d="M21.4031 128.548C24.6985 124.68 27.5008 122.488 28.5817 123.201C30.2227 124.283 27.2741 131.65 21.996 139.657C16.7178 147.663 11.1086 153.276 9.46759 152.195C8.38664 151.482 9.29706 148.042 11.5529 143.489" stroke="#263238" stroke-linecap="round" stroke-linejoin="round"/>
<path d="M9.77013 139.636C5.17686 138.314 2.24153 136.77 2.42407 135.537C2.71171 133.592 10.6351 133.154 20.1215 134.557C29.608 135.96 37.0651 138.674 36.7775 140.618C36.5786 141.963 32.7274 142.588 27.2331 142.381" stroke="#263238" stroke-linecap="round" stroke-linejoin="round"/>
<path d="M10.9749 132.789C7.50825 126.532 5.77491 121.65 6.9508 120.889C8.49371 119.89 14.4619 126.364 20.2808 135.349C26.0997 144.335 29.5661 152.429 28.0231 153.428C27.0025 154.089 24.0459 151.481 20.4771 147.038" stroke="#263238" stroke-linecap="round" stroke-linejoin="round"/>
<path d="M29.9111 127.294C29.7419 127.551 29.5003 127.751 29.217 127.871C28.9337 127.99 28.6213 128.023 28.3194 127.965C28.0175 127.907 27.7396 127.76 27.5208 127.544C27.3021 127.328 27.1523 127.052 27.0904 126.751C27.0285 126.45 27.0573 126.137 27.1732 125.852C27.2891 125.568 27.4868 125.324 27.7414 125.151C27.9959 124.979 28.2959 124.886 28.6033 124.884C28.9108 124.882 29.2119 124.971 29.4686 125.14C29.6391 125.253 29.7858 125.398 29.9003 125.567C30.0147 125.736 30.0948 125.925 30.1359 126.125C30.177 126.325 30.1783 126.532 30.1397 126.732C30.1011 126.933 30.0234 127.123 29.9111 127.294Z" fill="#263238"/>
<path d="M24.7685 151.082C24.5993 151.339 24.3577 151.539 24.0744 151.659C23.7911 151.778 23.4788 151.811 23.1768 151.753C22.8749 151.695 22.597 151.549 22.3782 151.333C22.1595 151.117 22.0097 150.84 21.9478 150.539C21.8859 150.238 21.9148 149.925 22.0306 149.641C22.1465 149.356 22.3442 149.112 22.5988 148.939C22.8533 148.767 23.1533 148.674 23.4608 148.672C23.7682 148.67 24.0693 148.759 24.326 148.928C24.6703 149.155 24.9103 149.51 24.9933 149.914C25.0763 150.317 24.9954 150.738 24.7685 151.082Z" fill="#263238"/>
<path d="M16.4736 134.95C16.3044 135.207 16.0628 135.408 15.7795 135.527C15.4962 135.646 15.1838 135.679 14.8819 135.621C14.58 135.563 14.3021 135.417 14.0833 135.201C13.8646 134.985 13.7148 134.709 13.6529 134.407C13.591 134.106 13.6198 133.794 13.7357 133.509C13.8516 133.224 14.0493 132.98 14.3039 132.808C14.5584 132.635 14.8584 132.542 15.1658 132.54C15.4733 132.538 15.7744 132.627 16.0311 132.797C16.2016 132.909 16.3483 133.054 16.4628 133.223C16.5772 133.392 16.6573 133.582 16.6984 133.782C16.7395 133.982 16.7408 134.188 16.7022 134.388C16.6636 134.589 16.5859 134.78 16.4736 134.95Z" fill="#263238"/>
<path d="M115.488 67.3662H120.807L123.467 62.7593L120.807 58.1523H115.488L112.828 62.7593L115.488 67.3662Z" stroke="#263238" stroke-linecap="round" stroke-linejoin="round"/>
<path d="M114.714 77.4722L112.054 72.8652H106.734" stroke="#263238" stroke-linecap="round" stroke-linejoin="round"/>
<path d="M107.451 62.7598H112.77L115.43 58.1528L112.77 53.5459H107.451L104.791 58.1528L107.451 62.7598Z" stroke="#263238" stroke-linecap="round" stroke-linejoin="round"/>
<path d="M115.488 58.1524H120.807L123.467 53.5454L120.807 48.9385H115.488L112.828 53.5454L115.488 58.1524Z" stroke="#263238" stroke-linecap="round" stroke-linejoin="round"/>
<path d="M115.429 58.8664C115.824 58.8664 116.144 58.5465 116.144 58.1519C116.144 57.7574 115.824 57.4375 115.429 57.4375C115.035 57.4375 114.715 57.7574 114.715 58.1519C114.715 58.5465 115.035 58.8664 115.429 58.8664Z" fill="#263238"/>
<path d="M104.322 49.1974C104.716 49.1974 105.036 48.8776 105.036 48.483C105.036 48.0884 104.716 47.7686 104.322 47.7686C103.927 47.7686 103.607 48.0884 103.607 48.483C103.607 48.8776 103.927 49.1974 104.322 49.1974Z" fill="#263238"/>
<path d="M114 77.4722C114 77.3309 114.042 77.1928 114.12 77.0753C114.199 76.9578 114.31 76.8663 114.441 76.8122C114.572 76.7581 114.715 76.744 114.854 76.7715C114.992 76.7991 115.12 76.8672 115.22 76.9671C115.32 77.067 115.388 77.1943 115.415 77.3329C115.443 77.4715 115.429 77.6151 115.374 77.7456C115.32 77.8762 115.229 77.9878 115.111 78.0663C114.994 78.1448 114.856 78.1867 114.714 78.1867C114.621 78.1867 114.528 78.1682 114.441 78.1323C114.354 78.0964 114.276 78.0438 114.209 77.9774C114.143 77.9111 114.09 77.8323 114.054 77.7456C114.018 77.659 114 77.5661 114 77.4722Z" fill="#263238"/>
<path d="M106.736 73.5802C107.13 73.5802 107.45 73.2604 107.45 72.8658C107.45 72.4712 107.13 72.1514 106.736 72.1514C106.341 72.1514 106.021 72.4712 106.021 72.8658C106.021 73.2604 106.341 73.5802 106.736 73.5802Z" fill="#263238"/>
<path d="M128.611 53.6666C128.611 53.5253 128.653 53.3872 128.732 53.2697C128.81 53.1522 128.922 53.0606 129.052 53.0065C129.183 52.9525 129.327 52.9383 129.465 52.9659C129.604 52.9935 129.731 53.0615 129.831 53.1614C129.931 53.2613 129.999 53.3887 130.027 53.5273C130.054 53.6659 130.04 53.8095 129.986 53.9401C129.932 54.0706 129.84 54.1822 129.723 54.2607C129.605 54.3392 129.467 54.3811 129.326 54.3811C129.232 54.3811 129.139 54.3626 129.052 54.3267C128.966 54.2908 128.887 54.2382 128.821 54.1718C128.754 54.1055 128.702 54.0267 128.666 53.94C128.63 53.8533 128.611 53.7604 128.611 53.6666Z" fill="#263238"/>
<path d="M112 73.5802C112.394 73.5802 112.714 73.2604 112.714 72.8658C112.714 72.4712 112.394 72.1514 112 72.1514C111.605 72.1514 111.285 72.4712 111.285 72.8658C111.285 73.2604 111.605 73.5802 112 73.5802Z" fill="#263238"/>
<path d="M122.752 53.6665C122.752 53.5252 122.794 53.3871 122.872 53.2696C122.951 53.1521 123.062 53.0606 123.193 53.0065C123.324 52.9524 123.467 52.9383 123.606 52.9659C123.744 52.9935 123.872 53.0615 123.972 53.1614C124.071 53.2613 124.139 53.3886 124.167 53.5272C124.195 53.6658 124.18 53.8094 124.126 53.94C124.072 54.0705 123.981 54.1821 123.863 54.2606C123.746 54.3391 123.608 54.381 123.466 54.381C123.373 54.381 123.28 54.3625 123.193 54.3266C123.106 54.2907 123.028 54.2381 122.961 54.1717C122.895 54.1054 122.842 54.0266 122.806 53.9399C122.77 53.8533 122.752 53.7604 122.752 53.6665Z" fill="#263238"/>
<path d="M114.715 67.3658C114.715 67.2245 114.757 67.0863 114.835 66.9689C114.914 66.8514 115.025 66.7598 115.156 66.7057C115.286 66.6517 115.43 66.6375 115.569 66.6651C115.707 66.6927 115.835 66.7607 115.934 66.8606C116.034 66.9606 116.102 67.0879 116.13 67.2264C116.158 67.365 116.143 67.5087 116.089 67.6392C116.035 67.7698 115.944 67.8813 115.826 67.9598C115.709 68.0383 115.571 68.0802 115.429 68.0802C115.335 68.0802 115.243 68.0618 115.156 68.0258C115.069 67.9899 114.99 67.9373 114.924 67.871C114.858 67.8046 114.805 67.7259 114.769 67.6392C114.733 67.5525 114.715 67.4596 114.715 67.3658Z" fill="#263238"/>
<path d="M123.467 53.667H129.326" stroke="#263238" stroke-linecap="round" stroke-linejoin="round"/>
<path d="M115.429 67.3662L112 72.8655" stroke="#263238" stroke-linecap="round" stroke-linejoin="round"/>
<path d="M107.449 53.5453L104.32 48.4824" stroke="#263238" stroke-linecap="round" stroke-linejoin="round"/>
<path d="M145.174 35.3906C145.786 33.3164 147.064 31.5014 148.81 30.2258C150.557 28.9501 152.675 28.2848 154.837 28.3325C156.999 28.3801 159.085 29.1382 160.774 30.4895C162.462 31.8409 163.659 33.7104 164.179 35.8096" stroke="#263238" stroke-linecap="round" stroke-linejoin="round"/>
<path d="M153.503 47.9585C151.1 47.6841 148.883 46.5354 147.273 44.7312C145.663 42.9271 144.774 40.5937 144.773 38.1758" stroke="#263238" stroke-linecap="round" stroke-linejoin="round"/>
<path d="M164.464 38.1758C164.464 40.7869 163.427 43.2911 161.581 45.1375C159.735 46.9838 157.23 48.0211 154.619 48.0211" stroke="#263238" stroke-linecap="round" stroke-linejoin="round"/>
<path d="M165.022 31.9331C168.102 31.538 170.166 31.7525 170.484 32.6697C171.121 34.5045 164.534 38.4568 155.772 41.4973C147.009 44.5379 139.39 45.5156 138.753 43.6807C138.413 42.6999 140.137 41.1141 143.154 39.3859" stroke="#263238" stroke-linecap="round" stroke-linejoin="round"/>
<path d="M112 25.1846L112.944 27.0962L115.054 27.4027L113.527 28.8908L113.887 30.992L112 30.0001L110.113 30.992L110.474 28.8908L108.947 27.4027L111.057 27.0962L112 25.1846Z" stroke="#263238" stroke-linecap="round" stroke-linejoin="round"/>
<path d="M45.3452 20.0962C45.3434 21.794 44.6685 23.4219 43.4684 24.6228C42.2683 25.8238 40.6409 26.4998 38.9431 26.5027C38.7354 26.5027 38.5323 26.4937 38.3336 26.4757C37.0981 26.3583 35.9233 25.8846 34.9519 25.1122C33.9805 24.3397 33.2545 23.3017 32.862 22.1243C32.4695 20.9469 32.4275 19.6809 32.741 18.4801C33.0545 17.2792 33.7101 16.1953 34.6281 15.3601C35.5461 14.5249 36.6869 13.9743 37.9119 13.7753C39.1369 13.5763 40.3934 13.7374 41.5285 14.239C42.6637 14.7407 43.6287 15.5613 44.3063 16.6011C44.9838 17.6409 45.3447 18.8551 45.3452 20.0962V20.0962Z" stroke="#263238" stroke-linecap="round" stroke-linejoin="round"/>
<path d="M44.3187 21.255C44.3187 21.4509 44.2607 21.6424 44.1518 21.8053C44.043 21.9682 43.8883 22.0951 43.7074 22.1701C43.5264 22.2451 43.3272 22.2647 43.1351 22.2265C42.943 22.1882 42.7665 22.0939 42.628 21.9554C42.4895 21.8169 42.3951 21.6404 42.3569 21.4483C42.3187 21.2562 42.3383 21.057 42.4133 20.876C42.4883 20.6951 42.6152 20.5404 42.7781 20.4315C42.941 20.3227 43.1325 20.2646 43.3284 20.2646C43.591 20.2647 43.8429 20.369 44.0286 20.5547C44.2144 20.7405 44.3187 20.9924 44.3187 21.255V21.255Z" stroke="#263238" stroke-linecap="round" stroke-linejoin="round"/>
<path d="M35.4035 23.771C35.4037 24.0063 35.352 24.2388 35.2521 24.4518C35.1522 24.6648 35.0066 24.8532 34.8256 25.0036C33.9902 24.3065 33.3481 23.4063 32.9609 22.3895C33.2094 22.2369 33.4956 22.1571 33.7872 22.1592C33.9991 22.1589 34.2091 22.2003 34.4051 22.2811C34.601 22.362 34.7791 22.4806 34.9292 22.6303C35.0793 22.78 35.1985 22.9577 35.2798 23.1535C35.3612 23.3492 35.4032 23.559 35.4035 23.771Z" stroke="#263238" stroke-linecap="round" stroke-linejoin="round"/>
<path d="M43.3269 24.7601C42.1429 25.8814 40.5736 26.5052 38.943 26.5029C38.7353 26.5029 38.5321 26.4938 38.3335 26.4758C38.2971 26.3021 38.279 26.125 38.2793 25.9476C38.2779 25.3465 38.48 24.7626 38.8526 24.2909C39.2253 23.8193 39.7466 23.4877 40.3317 23.35C40.9168 23.2124 41.5313 23.2768 42.0752 23.5329C42.619 23.7889 43.0602 24.2215 43.3269 24.7601Z" stroke="#263238" stroke-linecap="round" stroke-linejoin="round"/>
<path d="M37.3914 17.5582C38.2051 17.5582 38.8648 16.8985 38.8648 16.0847C38.8648 15.271 38.2051 14.6113 37.3914 14.6113C36.5776 14.6113 35.918 15.271 35.918 16.0847C35.918 16.8985 36.5776 17.5582 37.3914 17.5582Z" stroke="#263238" stroke-linecap="round" stroke-linejoin="round"/>
<path d="M38.7541 20.2647C38.7541 20.3996 38.7141 20.5314 38.6392 20.6435C38.5643 20.7556 38.4578 20.843 38.3333 20.8946C38.2087 20.9462 38.0716 20.9597 37.9394 20.9334C37.8071 20.9071 37.6856 20.8422 37.5903 20.7468C37.495 20.6515 37.43 20.53 37.4037 20.3977C37.3774 20.2655 37.3909 20.1284 37.4425 20.0039C37.4941 19.8793 37.5815 19.7728 37.6936 19.6979C37.8057 19.623 37.9375 19.583 38.0724 19.583C38.2532 19.583 38.4266 19.6548 38.5544 19.7827C38.6823 19.9105 38.7541 20.0839 38.7541 20.2647V20.2647Z" stroke="#263238" stroke-linecap="round" stroke-linejoin="round"/>
<path d="M44.1399 16.3582C43.9608 16.417 43.7732 16.446 43.5846 16.444C43.3381 16.4441 43.0941 16.3956 42.8664 16.3012C42.6388 16.2067 42.432 16.0683 42.2579 15.8939C42.0838 15.7194 41.9459 15.5122 41.8521 15.2844C41.7582 15.0565 41.7102 14.8123 41.7109 14.5658C41.7108 14.4874 41.7153 14.409 41.7245 14.3311C42.6866 14.794 43.5171 15.491 44.1399 16.3582V16.3582Z" stroke="#263238" stroke-linecap="round" stroke-linejoin="round"/>
<path d="M191.344 94.4399L192.034 92.8871L190.916 92.2695C190.956 91.9964 190.963 91.7195 190.938 91.4446L192.086 90.886L191.477 89.2996L190.25 89.6535C190.085 89.4326 189.894 89.232 189.681 89.0559L190.098 87.8481L188.545 87.1573L187.928 88.2759C187.655 88.2359 187.378 88.2284 187.103 88.2534L186.544 87.1055L184.958 87.715L185.312 88.9414C185.091 89.107 184.89 89.298 184.714 89.5106L183.506 89.0934L182.816 90.6463L183.934 91.2639C183.894 91.537 183.887 91.8139 183.912 92.0889L182.764 92.6474L183.373 94.2337L184.6 93.8799C184.765 94.1008 184.956 94.3014 185.169 94.4775L184.752 95.6853L186.305 96.3761L186.922 95.2575C187.195 95.2975 187.472 95.3051 187.747 95.2801L188.306 96.4279L189.892 95.8184L189.538 94.5919C189.759 94.4264 189.96 94.2354 190.136 94.0228L191.344 94.4399ZM186.622 93.5713C186.265 93.4126 185.963 93.1516 185.755 92.8213C185.546 92.4911 185.44 92.1064 185.45 91.7159C185.46 91.3254 185.586 90.9467 185.811 90.6277C186.037 90.3086 186.352 90.0635 186.716 89.9234C187.081 89.7833 187.479 89.7545 187.86 89.8405C188.241 89.9266 188.588 90.1237 188.857 90.4069C189.126 90.6901 189.305 91.0468 189.371 91.4317C189.437 91.8166 189.388 92.2126 189.229 92.5695C189.016 93.048 188.622 93.4224 188.133 93.6103C187.644 93.7982 187.101 93.7842 186.622 93.5713V93.5713Z" stroke="#263238" stroke-linecap="round" stroke-linejoin="round"/>
<path d="M183.094 102.409L184.032 100.3L182.513 99.4611C182.567 99.0902 182.577 98.7141 182.543 98.3408L184.102 97.5823L183.274 95.4278L181.608 95.9084C181.384 95.6084 181.124 95.3359 180.835 95.0967L181.402 93.4565L179.293 92.5184L178.454 94.0376C178.083 93.9834 177.707 93.9732 177.334 94.0072L176.575 92.4482L174.421 93.2762L174.902 94.9419C174.601 95.1667 174.329 95.4261 174.09 95.7148L172.45 95.1483L171.512 97.2572L173.031 98.096C172.977 98.467 172.966 98.843 173 99.2164L171.441 99.9749L172.269 102.129L173.935 101.649C174.16 101.949 174.419 102.221 174.708 102.46L174.141 104.101L176.25 105.039L177.089 103.519C177.46 103.574 177.836 103.584 178.21 103.55L178.968 105.109L181.123 104.281L180.642 102.615C180.942 102.39 181.214 102.131 181.454 101.842L183.094 102.409ZM176.682 101.229C176.197 101.013 175.787 100.659 175.504 100.21C175.221 99.7619 175.077 99.2394 175.09 98.7092C175.104 98.1789 175.275 97.6645 175.581 97.2312C175.887 96.7979 176.314 96.4651 176.81 96.2748C177.305 96.0845 177.845 96.0453 178.363 96.1622C178.88 96.2791 179.351 96.5468 179.717 96.9314C180.082 97.3161 180.325 97.8004 180.415 98.3232C180.505 98.846 180.438 99.3837 180.222 99.8684C180.079 100.19 179.874 100.481 179.619 100.723C179.363 100.966 179.063 101.156 178.734 101.282C178.405 101.408 178.055 101.469 177.702 101.46C177.35 101.45 177.004 101.372 176.682 101.229V101.229Z" stroke="#263238" stroke-linecap="round" stroke-linejoin="round"/>
<path d="M89.4988 82.3917C87.757 85.7026 85.3795 88.6375 82.5022 91.0286C79.625 93.4197 76.3045 95.22 72.7308 96.3266C69.1571 97.4331 65.4003 97.8241 61.6753 97.4773C57.9503 97.1304 54.3303 96.0525 51.0223 94.3053C50.3953 93.9748 49.7842 93.6215 49.1935 93.2518C48.6042 92.8867 48.0343 92.502 47.4838 92.0977C46.814 91.6123 46.1724 91.1004 45.5591 90.5619C45.556 90.5603 45.5546 90.5557 45.5516 90.5541C45.5126 90.5229 45.4758 90.4892 45.4414 90.4532C45.4374 90.4489 45.4329 90.4451 45.4279 90.4421C41.4263 86.9013 38.5015 82.3062 36.9875 77.1819C35.4736 72.0577 35.4316 66.6109 36.8663 61.4639C38.3011 56.3169 41.1548 51.6773 45.1013 48.0751C49.0478 44.473 53.928 42.0537 59.1842 41.0935C64.4405 40.1334 69.8608 40.6711 74.826 42.6454C79.7911 44.6196 84.1007 47.9507 87.2625 52.258C90.4243 56.5654 92.3107 61.6753 92.7062 67.0039C93.1016 72.3324 91.9902 77.6648 89.4989 82.3917H89.4988Z" fill="#92E3A9"/>
<g opacity="0.6">
<path opacity="0.6" d="M89.4996 82.3933C88.8809 83.5655 88.1825 84.6938 87.4092 85.7704L86.8584 85.337L85.9103 84.8358L84.9125 84.3121L85.0796 83.1066L85.0254 82.0185C84.9667 80.9305 85.7523 81.8199 86.4024 81.4903C86.8896 81.1455 87.2849 80.6867 87.5537 80.1539C87.5537 80.1539 88.0142 78.7046 87.8562 78.1222C87.6131 77.4511 87.3266 76.7966 86.9984 76.1628L85.3821 78.4067L84.0502 78.3028L82.7228 77.6075L82.5558 75.8242L81.8966 75.481L81.6212 74.4562L78.059 73.4584L77.6526 72.7451C77.2463 72.0317 75.6074 71.666 75.6074 71.666L76.0092 70.7359L76.6413 69.6975C77.2779 68.6591 77.9371 70.3838 77.9371 70.3838L78.6911 70.7766L80.0907 69.6027L80.4609 67.9187L82.7409 68.0496C82.6961 67.8217 82.7308 67.5853 82.8393 67.3799C82.9477 67.1745 83.1234 67.0125 83.3368 66.9209C84.0953 66.6229 83.7612 64.975 83.4723 64.3655C83.1743 63.7605 82.1359 64.2481 82.1359 64.2481C82.1359 64.2481 80.9756 62.4828 80.8176 61.7785C80.6595 61.0787 83.0298 61.3089 84.0457 60.6182C85.057 59.9319 84.7139 58.5007 84.2172 58.4691C83.7251 58.433 85.1879 55.2636 88.0097 56.1349C88.7953 56.3787 89.2919 56.2929 89.5989 56.0221C91.7134 60.0989 92.8088 64.6273 92.7915 69.2199C92.7742 73.8124 91.6447 78.3324 89.4996 82.3933Z" fill="white"/>
<path opacity="0.6" d="M69.7558 70.1809L68.7896 71.3954C68.7896 71.3954 68.3788 70.4157 67.7919 70.9484C67.2049 71.4812 66.9069 71.7521 66.9069 71.7521L66.2523 73.5851L65.0784 74.3436L64.3606 73.9689L63.6833 73.6077L62.9474 73.2194L62.2431 74.5558L61.6697 75.6394C61.9492 76.1713 62.2967 76.6646 62.7036 77.1067L63.9497 79.3054L65.4351 80.0865C66.0678 80.11 66.6975 80.1855 67.3178 80.3122L68.3607 80.8585L67.9905 83.1205C67.9905 83.1205 67.2049 84.3982 66.6812 84.046L66.153 83.6984L65.2952 86.6691L65.259 88.3035C65.259 88.3035 64.7489 88.5157 64.2342 88.6873C63.715 88.8588 64.0445 88.7685 62.9655 89.1026C61.8864 89.4367 61.9722 89.4232 61.0963 89.6715C60.3497 89.9328 59.6312 90.2686 58.9518 90.6738L59.0285 92.245L56.9653 92.5475L55.8095 91.9334L56.0939 90.9402L56.2293 89.3871L56.0713 88.2267L55.5747 87.2019L56.9653 85.9422L56.6582 85.1521L55.8681 83.581L54.1977 84.4839L53.3398 84.9445L51.3985 84.0731L51.1863 82.8947L50.5271 80.7682L49.9221 79.4499L48.8476 77.9961L48.5767 76.7455L49.1817 75.5987L49.5022 74.9937L48.5135 73.6619L48.2426 72.7137L46.5766 71.2013C46.5766 71.2013 47.0597 71.1697 46.9513 70.4969C46.843 69.8242 47.904 68.691 47.904 68.691C48.5044 69.007 50.3059 70.2622 50.3059 70.2622L51.8815 70.4789C51.8996 70.4789 52.1976 70.4699 52.5046 69.8829C52.8632 69.3348 53.2844 68.8302 53.7597 68.3795C53.7597 68.3795 53.0328 65.8557 53.552 65.5171C54.0667 65.1694 54.5995 63.526 54.5995 63.526L55.0148 62.7359C55.0148 62.7359 54.0351 62.307 53.85 61.7878C53.6649 61.2641 51.2495 61.9594 51.2495 61.9594L49.5835 63.1152L48.3103 64.1265L47.7414 65.2055C47.7414 65.2055 46.5811 63.8105 46.5766 64.5915C46.488 65.3923 46.3124 66.1811 46.0529 66.9438C46.0529 66.9438 46.2922 67.0702 45.9761 67.6752C45.6556 68.2756 45.317 68.2486 44.6036 68.3343C43.7032 68.3425 42.8035 68.2806 41.9128 68.1492C41.9128 68.1492 41.4613 69.8197 41.7728 70.1087L42.0798 70.3886C42.0798 70.3886 41.5967 71.6031 41.1181 71.3503C40.6351 71.0929 39.9533 70.7362 39.9533 70.7362L38.3235 71.3954L36.5356 73.391L36.1338 73.3097C35.0269 65.8858 36.8955 58.3252 41.3333 52.2717C45.7711 46.2182 52.4193 42.1614 59.8322 40.9834C59.936 41.4439 60.0489 41.8593 60.0489 41.8593L59.611 44.0896L59.0331 45.1912L58.5364 46.1348L57.8366 47.4622L59.5794 49.1146L59.1956 51.0696L58.2249 51.6791L57.945 53.1464L59.611 56.4016L60.0805 57.6793C59.8017 58.291 59.6644 58.9576 59.6787 59.6297C59.6787 59.6297 59.8818 60.8487 60.7713 61.3318C61.6607 61.8104 62.83 62.3838 62.83 62.3838L62.7352 64.1987L62.3334 64.6683L63.0016 66.6142C65.0378 67.4133 64.8437 68.0815 65.0378 67.4133L65.2365 66.7496L66.6225 66.2485L68.3878 68.3569C68.5933 68.354 68.7961 68.4029 68.9777 68.4992C69.1592 68.5954 69.3135 68.736 69.4262 68.9077C69.9229 69.5308 70.7265 68.9664 69.7558 70.1809Z" fill="white"/>
<path opacity="0.6" d="M45.8265 85.9059C45.8762 86.547 45.0635 87.3506 45.0635 87.3506L45.7272 87.6982L45.9303 89.4861L45.4292 90.4433C41.8781 87.3062 39.1696 83.3294 37.5508 78.8762L37.912 76.9619L39.5057 76.7362C39.5057 76.7362 40.9324 75.7881 41.5645 76.0409C42.1966 76.3028 42.7745 77.8333 42.7745 77.8333C42.7745 77.8333 43.2395 79.9282 43.1672 79.8876L43.1582 79.8831L43.1311 79.9011L43.1672 79.8876L43.8174 80.2307L44.0025 81.0569L43.095 82.7726L41.6412 82.7771C41.6412 82.7771 41.3523 82.6236 41.3252 83.3775C41.3486 83.6392 41.4281 83.8928 41.5582 84.121C41.6883 84.3493 41.866 84.5469 42.0792 84.7004L43.6503 84.2986L44.0702 82.6732L45.6143 82.3707C45.6143 82.3707 45.3931 83.3685 45.7543 83.5581L46.12 83.7523L46.3367 84.9442C46.1734 85.0442 46.04 85.1862 45.9503 85.3554C45.8605 85.5245 45.8178 85.7146 45.8265 85.9059Z" fill="white"/>
<path opacity="0.6" d="M53.2957 88.4598C53.1562 88.0751 53.0973 87.7367 52.1353 87.2297C51.1766 86.7243 51.225 86.9054 50.8528 87.3238C50.6899 87.5404 50.4669 87.7044 50.2116 87.7952C49.9562 87.8861 49.6798 87.8998 49.4167 87.8347C48.7872 87.6934 49.115 88.4069 49.115 88.4069L49.266 90.3339L47.4844 92.0979C48.0344 92.5006 48.6043 92.8853 49.1941 93.2519L49.5747 92.0873L52.5368 92.9682C51.9083 92.7808 52.2792 91.9223 52.2792 91.9223L51.6461 91.5885C51.6461 91.5885 53.4368 88.8414 53.2957 88.4598Z" fill="white"/>
<path opacity="0.6" d="M71.949 78.4368L70.9781 77.457L69.8697 77.8083L69.3962 78.7065L69.0547 79.3544L69.5131 80.236L70.4232 81.3312L70.941 80.3488C70.941 80.3488 72.3722 80.3583 73.1207 79.522C73.8692 78.6857 71.949 78.4368 71.949 78.4368Z" fill="white"/>
<path opacity="0.6" d="M69.0977 74.0169L70.9036 74.969L70.9736 74.5443C71.0693 74.2035 71.2362 73.8868 71.4633 73.6153L70.0794 72.1543L69.0977 74.0169Z" fill="white"/>
<path opacity="0.6" d="M68.4824 95.0345L67.9616 94.2738L67.3589 93.9561L65.5105 93.9579L64.4596 95.9515C64.4596 95.9515 63.4545 95.8145 62.1303 95.6999C60.8077 95.5822 61.1346 96.1278 61.1346 96.1278L60.7891 97.3809C64.1274 97.7945 67.5126 97.6129 70.7875 96.8446C70.406 96.5812 70.0111 96.3379 69.6042 96.1159L68.4824 95.0345Z" fill="white"/>
</g>
<path d="M89.4988 82.3917C87.757 85.7026 85.3795 88.6375 82.5022 91.0286C79.625 93.4197 76.3045 95.22 72.7308 96.3266C69.1571 97.4331 65.4003 97.8241 61.6753 97.4773C57.9503 97.1304 54.3303 96.0525 51.0223 94.3053C50.3953 93.9748 49.7842 93.6215 49.1935 93.2518C48.6042 92.8867 48.0343 92.502 47.4838 92.0977C46.814 91.6123 46.1724 91.1004 45.5591 90.5619C45.556 90.5603 45.5546 90.5557 45.5516 90.5541C45.5126 90.5229 45.4758 90.4892 45.4414 90.4532C45.4374 90.4489 45.4329 90.4451 45.4279 90.4421C41.4263 86.9013 38.5015 82.3062 36.9875 77.1819C35.4736 72.0577 35.4316 66.6109 36.8663 61.4639C38.3011 56.3169 41.1548 51.6773 45.1013 48.0751C49.0478 44.473 53.928 42.0537 59.1842 41.0935C64.4405 40.1334 69.8608 40.6711 74.8259 42.6454C79.7911 44.6196 84.1007 47.9507 87.2625 52.2581C90.4243 56.5654 92.3107 61.6753 92.7062 67.0039C93.1016 72.3324 91.9902 77.6648 89.4989 82.3917H89.4988Z" stroke="#263238" stroke-linecap="round" stroke-linejoin="round"/>
<path d="M70.7874 96.8446C67.5125 97.6129 64.1273 97.7944 60.7891 97.3808L61.1345 96.1278C61.1345 96.1278 60.8077 95.5821 62.1302 95.6998C63.4544 95.8145 64.4596 95.9514 64.4596 95.9514L65.5105 93.9579L67.3589 93.9561L67.9615 94.2737L68.4823 95.0344L69.6041 96.1158C70.011 96.3379 70.406 96.5812 70.7874 96.8446V96.8446Z" stroke="#263238" stroke-linecap="round" stroke-linejoin="round"/>
<path d="M89.5989 56.0243C89.293 56.2948 88.7971 56.3796 88.0113 56.1364C85.189 55.2632 83.7234 58.4345 84.2182 58.4697C84.7149 58.5019 85.058 59.9314 84.0458 60.6191C83.0291 61.3083 80.6608 61.0789 80.8166 61.7794C80.9754 62.4816 82.1333 64.2471 82.1333 64.2471C82.1333 64.2471 83.1718 63.76 83.4697 64.3682C83.7629 64.9777 84.0969 66.624 83.3364 66.9232C83.123 67.015 82.9475 67.1771 82.8392 67.3826C82.7309 67.5881 82.6963 67.8245 82.7411 68.0524L80.4585 67.9187L80.0914 69.6038L78.6903 70.7787L77.9385 70.3824C77.9385 70.3824 77.2783 68.6614 76.6419 69.6989L76.0102 70.735L75.6055 71.6651C75.6055 71.6651 77.2444 72.0312 77.6538 72.7448L78.0601 73.4569L81.62 74.4583L81.8981 75.4801L82.5555 75.8267L82.722 77.6063L84.0506 78.3028L85.3796 78.4083L86.9993 76.1622C87.327 76.7965 87.6131 77.4515 87.8559 78.1229C88.0157 78.705 87.5552 80.1541 87.5552 80.1541C87.2859 80.6876 86.8891 81.1464 86.4 81.4898C85.7543 81.8222 84.9668 80.9327 85.0234 82.0204L85.077 83.1066L84.9126 84.3112L85.911 84.8375L86.8575 85.3365L87.4069 85.7699" stroke="#263238" stroke-linecap="round" stroke-linejoin="round"/>
<path d="M36.1348 73.3112L36.5332 73.3891L38.3245 71.3929L39.9516 70.7337L41.1173 71.3483C41.5982 71.6018 42.0813 70.3901 42.0813 70.3901L41.7719 70.1064C41.4594 69.8212 41.914 68.147 41.914 68.147C42.8041 68.2803 43.7033 68.3434 44.6033 68.3356C45.3177 68.2494 45.6573 68.2769 45.9749 67.674C46.2926 67.0712 46.0522 66.9447 46.0522 66.9447C46.3128 66.182 46.4887 65.3931 46.5767 64.592C46.5796 63.8117 47.7394 65.2049 47.7394 65.2049L48.309 64.1244L49.585 63.113L51.2473 61.9591C51.2473 61.9591 53.6632 61.2646 53.8505 61.7872C54.0347 62.3083 55.0153 62.7357 55.0153 62.7357L54.5999 63.524C54.5999 63.524 54.0675 65.1686 53.5506 65.5145C53.0323 65.8558 53.76 68.3785 53.76 68.3785C53.2847 68.8298 52.8632 69.3346 52.5041 69.8829C52.1864 70.4856 51.8818 70.4805 51.8818 70.4805L50.3043 70.2635C50.3043 70.2635 48.5045 69.0074 47.9018 68.6898C47.9018 68.6898 46.8448 69.8244 46.9504 70.4946C47.0575 71.1695 46.5782 71.2008 46.5782 71.2008L48.2433 72.7125L48.5138 73.6602L49.5041 74.9912L49.1832 75.5999L48.5782 76.7473L48.8453 77.9966L49.9237 79.448L50.528 80.7661L51.1872 82.8949L51.3989 84.0722L53.3394 84.9436L54.1972 84.4818L55.8664 83.5804L56.656 85.1518L56.9669 85.9419L55.5763 87.2002L56.0698 88.2266L56.2311 89.3889L56.0931 90.9421L55.8071 91.9347L56.9667 92.546L59.0262 92.2471L58.9539 90.6726C59.6331 90.2685 60.3508 89.9327 61.0963 89.6703C61.9743 89.4214 61.8846 89.4364 62.966 89.1041C64.046 88.7672 63.7131 88.86 64.2324 88.6865C64.7471 88.5144 65.2579 88.3053 65.2579 88.3053L65.2961 86.6686L66.1511 83.6966L66.6793 84.045C67.2058 84.3964 67.9904 83.1221 67.9904 83.1221L68.3592 80.8583L67.3182 80.3096C66.6979 80.185 66.0685 80.1108 65.4362 80.0876L63.9478 79.303L62.7053 77.1078C62.2983 76.6654 61.9504 76.1722 61.6702 75.6405L62.2414 74.5569L62.9457 73.2207L63.6823 73.609L64.361 73.9668L65.0793 74.3454L66.2515 73.5827L66.9065 71.7496C66.9065 71.7496 67.2047 71.479 67.7917 70.9483C68.3803 70.4146 68.7902 71.393 68.7902 71.393L69.7566 70.1795C70.7261 68.9675 69.9245 69.529 69.4285 68.9058C69.3152 68.7341 69.1604 68.5938 68.9785 68.4979C68.7965 68.4019 68.5933 68.3535 68.3876 68.3571L66.6214 66.2476L65.2363 66.7503L65.0389 67.4125C64.843 68.0793 65.0389 67.4125 63.003 66.6116L62.3322 64.6672L62.7347 64.1987L62.8322 62.3832C62.8322 62.3832 61.6594 61.8117 60.7725 61.3324C59.8841 60.8486 59.6795 59.6283 59.6795 59.6283C59.6644 58.9573 59.8013 58.2915 60.0799 57.6808L59.6118 56.3995L57.9442 53.144L58.2265 51.6787L59.1938 51.0685L59.5776 49.116L57.8355 47.4626L58.5351 46.1356L59.0324 45.192L59.6132 44.0904L60.0475 41.8573C60.0475 41.8573 59.9378 41.4456 59.8324 40.9814" stroke="#263238" stroke-linecap="round" stroke-linejoin="round"/>
<path d="M45.5598 90.5615C45.5255 90.5202 45.486 90.4837 45.4421 90.4527C45.4382 90.4484 45.4336 90.4447 45.4286 90.4417L45.9324 89.486L45.7307 87.6995L45.067 87.3497C45.067 87.3497 45.8751 86.5467 45.8275 85.907C45.8183 85.7154 45.8607 85.5249 45.9502 85.3552C46.0396 85.1855 46.1729 85.0429 46.3361 84.9422L46.1201 83.751L45.7579 83.56C45.3957 83.3691 45.6157 82.3688 45.6157 82.3688L44.0716 82.6713L43.6504 84.2967L42.0812 84.6985C41.8682 84.5454 41.6906 84.3483 41.5603 84.1206C41.43 83.8929 41.3502 83.6399 41.3262 83.3787C41.3547 82.6236 41.6438 82.7761 41.6438 82.7761L43.0968 82.7719L44.0017 81.0553L43.8208 80.2326L43.1664 79.8877" stroke="#263238" stroke-linecap="round" stroke-linejoin="round"/>
<path d="M43.1604 79.885L43.1665 79.8882C43.2395 79.9267 42.7751 77.8343 42.7751 77.8343C42.7751 77.8343 42.1985 76.3014 41.5654 76.0415C40.9338 75.7863 39.5067 76.7376 39.5067 76.7376L37.9135 76.9633L37.5508 78.8762" stroke="#263238" stroke-linecap="round" stroke-linejoin="round"/>
<path d="M49.5746 92.0872L49.1941 93.2518C48.6048 92.8867 48.0349 92.502 47.4844 92.0977L49.266 90.3338L49.115 88.4067C49.115 88.4067 48.7871 87.6934 49.4166 87.8345C49.6797 87.8997 49.9562 87.886 50.2116 87.7952C50.4669 87.7043 50.69 87.5404 50.8529 87.3238C51.2251 86.9055 51.1766 86.7243 52.1354 87.2297C53.097 87.7367 53.1561 88.075 53.2957 88.4597C53.4368 88.8413 51.6464 91.5885 51.6464 91.5885L52.2795 91.9222C52.2795 91.9222 51.9086 92.7808 52.5371 92.9682L49.5746 92.0872Z" stroke="#263238" stroke-linecap="round" stroke-linejoin="round"/>
<path d="M69.8698 77.8083L70.9781 77.457L71.9491 78.4368C71.9491 78.4368 73.8693 78.6858 73.1208 79.5221C72.3722 80.3585 70.9411 80.3489 70.9411 80.3489L70.4232 81.3313L69.5132 80.2361L69.0547 79.3545L69.3962 78.7066L69.8698 77.8083Z" stroke="#263238" stroke-linecap="round" stroke-linejoin="round"/>
<path d="M71.4652 73.6153C71.2381 73.8868 71.0712 74.2035 70.9756 74.5443L70.9055 74.9689L69.0996 74.0169L70.0815 72.1543L71.4652 73.6153Z" stroke="#263238" stroke-linecap="round" stroke-linejoin="round"/>
<path d="M169.438 180.112C167.018 182.126 148.377 194.92 121.775 192.859C120.344 180.75 114.885 131.001 121.093 123.204C121.093 123.204 136.155 116.02 150.029 119.036C163.903 122.052 169.303 124.942 170.292 127.443C171.041 129.335 169.971 164.559 169.438 180.112Z" fill="#263238"/>
<path d="M149.569 124.35C141.578 131.271 131.284 129.809 131.51 124.495C131.546 123.664 132.436 122.635 132.436 122.635C132.436 122.635 132.318 122.458 132.124 122.156C131.826 121.705 131.343 120.969 130.783 120.111C129.794 118.58 128.557 116.657 127.695 115.257C126.973 114.065 144.982 102.986 144.982 109.356C144.982 118.332 149.389 120.02 149.389 120.02C151.037 120.689 152.581 121.745 149.569 124.35Z" fill="white" stroke="#263238" stroke-linecap="round" stroke-linejoin="round"/>
<path d="M154.62 138.058C154.62 138.058 153.009 143.582 153.775 145.166" stroke="white" stroke-linecap="round" stroke-linejoin="round"/>
<path d="M152.74 122.01C152.74 127.343 136.833 132.565 132.172 127.217" stroke="white" stroke-linecap="round" stroke-linejoin="round"/>
<path d="M139.655 115.857C139.655 115.857 138.584 119.874 133.628 123.015C133.391 122.608 133.008 122.306 132.558 122.169C132.415 122.143 132.268 122.139 132.124 122.156C131.826 121.704 131.343 120.968 130.783 120.11C133.316 118.273 139.655 115.857 139.655 115.857Z" fill="#263238"/>
<path d="M141.884 110.92C141.884 110.92 141.832 114.885 140.993 115.69C134.693 121.732 128.536 122.209 127.52 120.615C120.681 109.891 122.297 107.063 121.6 105.237C120.368 102.011 118.856 96.7485 119.523 93.5598C121.012 86.4378 134.432 80.9351 141.485 88.0767C144.87 91.5052 145.941 98.9421 145.225 105.136" fill="white"/>
<path d="M141.884 110.92C141.884 110.92 141.832 114.885 140.993 115.69C134.693 121.732 128.536 122.209 127.52 120.615C120.681 109.891 122.297 107.063 121.6 105.237C120.368 102.011 118.856 96.7485 119.523 93.5598C121.012 86.4378 134.432 80.9351 141.485 88.0767C144.87 91.5052 145.941 98.9421 145.225 105.136" stroke="#263238" stroke-linecap="round" stroke-linejoin="round"/>
<path d="M122.452 101.919C122.452 101.919 120.572 101.075 120.164 102.082" stroke="#263238" stroke-linecap="round" stroke-linejoin="round"/>
<path d="M127.018 101.963C127.018 101.963 130.932 100.324 132.692 102.313" stroke="#263238" stroke-linecap="round" stroke-linejoin="round"/>
<path d="M131.347 104.759C131.411 105.346 131.124 105.86 130.706 105.905C130.288 105.951 129.897 105.512 129.833 104.924C129.769 104.337 130.056 103.823 130.474 103.778C130.892 103.732 131.283 104.171 131.347 104.759Z" fill="#263238"/>
<path d="M123.683 104.937C123.747 105.524 123.46 106.038 123.042 106.083C122.624 106.129 122.233 105.689 122.169 105.102C122.105 104.514 122.392 104.001 122.81 103.955C123.228 103.91 123.619 104.349 123.683 104.937Z" fill="#263238"/>
<path d="M123.879 103.395C124.425 104.275 124.126 105.777 123.407 107.838C122.687 109.899 123.321 110.648 126.091 110.856" fill="white"/>
<path d="M123.879 103.395C124.425 104.275 124.126 105.777 123.407 107.838C122.687 109.899 123.321 110.648 126.091 110.856" stroke="#263238" stroke-linecap="round" stroke-linejoin="round"/>
<path d="M126.09 114.427C126.09 114.427 129.711 114.096 131.356 113.189" stroke="#263238" stroke-linecap="round" stroke-linejoin="round"/>
<path d="M148.967 93.9562C148.966 91.273 146.321 85.7698 141.676 85.1523C139.011 82.3614 135.206 81.3355 130.592 82.3961C119.931 84.847 116.686 95.3728 116.217 97.1177C116.172 97.28 116.152 97.3698 116.152 97.3698L119.006 96.6451L117.775 99.0459L119.272 100.033L118.929 100.413L120.661 102.083L120.119 99.0328C120.454 97.0604 122.719 94.3094 122.719 94.3094C121.893 95.3821 121.378 96.6616 121.232 98.0075C122.126 95.6627 127.553 93.5093 127.553 93.5093C125.795 94.9341 124.859 97.7265 124.859 97.7265C126.532 95.6677 130.447 94.3341 132.951 93.6263C133.797 95.665 135.137 97.7912 137.052 98.9695C138.855 100.079 138.792 102.37 138.792 102.37C140.733 103.722 142.161 105.689 142.847 107.952L145.032 110.941C145.032 110.941 148.971 106.086 148.967 93.9562Z" fill="#263238"/>
<path d="M139.777 103.122C139.046 101.553 141.701 97.3113 143.58 97.8368C144.637 98.1323 146.018 100.06 146.287 102.085C146.556 104.111 145.125 107.936 143.598 108.788C142.63 109.328 141.832 107.855 141.832 107.855" fill="white"/>
<path d="M139.777 103.122C139.046 101.553 141.701 97.3113 143.58 97.8368C144.637 98.1323 146.018 100.06 146.287 102.085C146.556 104.111 145.125 107.936 143.598 108.788C142.63 109.328 141.832 107.855 141.832 107.855" stroke="#263238" stroke-linecap="round" stroke-linejoin="round"/>
<path d="M24.5938 179.751L75.6052 167.826L182.011 180.112L154.619 198.85L24.5938 179.751Z" fill="white"/>
<path d="M24.5938 179.751L75.6052 167.826L182.011 180.112" fill="white"/>
<path d="M24.5938 179.751L75.6052 167.826L182.011 180.112" stroke="#263238" stroke-linecap="round" stroke-linejoin="round"/>
<path d="M68.7402 182.144L89.3907 173.018L115.499 174.365L103.889 184.292L68.7402 182.144Z" fill="white" stroke="#263238" stroke-linecap="round" stroke-linejoin="round"/>
<path d="M122.102 122.759C115.478 125.468 114.049 131.556 102.797 155.624C102.797 155.624 97.796 156.65 95.1168 162.723C92.4377 168.796 96.903 173.591 102.083 173.426C102.083 173.426 104.153 175.226 108.387 175.047C112.621 174.868 131.43 146.129 131.43 146.129L122.102 122.759Z" fill="#263238"/>
<path d="M104.768 157.031C107.731 159.671 109.431 163.539 108.528 167.826" stroke="white" stroke-linecap="round" stroke-linejoin="round"/>
<path d="M107.625 158.3C107.625 158.3 111.267 159.094 111.827 163.757" stroke="white" stroke-linecap="round" stroke-linejoin="round"/>
<path d="M118.279 144.666C116.56 140.424 115.966 135.81 116.555 131.271" stroke="white" stroke-linecap="round" stroke-linejoin="round"/>
<path d="M117.759 138.527C117.483 140.424 119.442 150.517 119.429 161.134" stroke="white" stroke-linecap="round" stroke-linejoin="round"/>
<path d="M167.268 124.746C175.554 128.91 176.539 141.72 168.72 157.032C163.2 167.842 155.577 183.802 150.755 184.874C145.933 185.945 141.232 182.941 141.232 182.941C141.232 182.941 137.166 182.75 135.94 179.863C132.582 171.946 141.12 161.987 144.479 164.373C144.479 164.373 155.205 141.046 157.16 139.576" fill="#263238"/>
<path d="M135.171 175.059C134.059 169.612 142.633 163.182 144.478 164.372C144.478 164.372 150.849 164.73 151.801 169.136" stroke="white" stroke-linecap="round" stroke-linejoin="round"/>
<path d="M158.508 176.223C162.238 169.644 168.719 157.031 168.719 157.031" stroke="white" stroke-linecap="round" stroke-linejoin="round"/>
<path d="M144.479 164.373C144.479 164.373 148.944 161.703 152.278 164.229" stroke="white" stroke-linecap="round" stroke-linejoin="round"/>
<path d="M145.982 161.135C145.982 161.135 148.449 155.727 150.96 150.737C153.471 145.746 159.183 138.415 161.564 138.058" stroke="white" stroke-linecap="round" stroke-linejoin="round"/>
<path d="M98.9305 170.867C98.3943 170.84 97.8704 170.697 97.3955 170.447C89.7067 166.442 83.7516 159.823 80.1578 155.074C78.76 153.253 77.4739 151.348 76.3066 149.371L78.1487 141.479C78.1487 141.479 79.8824 145.976 86.8488 150.432C93.8107 154.889 102.091 156.333 104.768 160.799C107.139 164.754 102.962 171.07 98.9305 170.867Z" fill="white"/>
<path opacity="0.4" d="M98.9305 170.867C98.842 170.295 98.6875 169.736 98.47 169.201C96.8582 165.164 87.1062 157.141 87.1062 157.141C84.7855 157.069 82.2346 156.103 80.1578 155.074C78.76 153.253 77.4739 151.348 76.3066 149.371L78.1487 141.479C78.1487 141.479 79.8824 145.976 86.8488 150.432C93.8107 154.889 102.091 156.333 104.768 160.799C107.139 164.754 102.962 171.07 98.9305 170.867Z" fill="#92E3A9"/>
<path d="M98.9305 170.867C98.3943 170.84 97.8704 170.697 97.3955 170.447C89.7067 166.442 83.7516 159.823 80.1578 155.074C78.76 153.253 77.4739 151.348 76.3066 149.371L78.1487 141.479C78.1487 141.479 79.8824 145.976 86.8488 150.432C93.8107 154.889 102.091 156.333 104.768 160.799C107.139 164.754 102.962 171.07 98.9305 170.867Z" stroke="#263238" stroke-linecap="round" stroke-linejoin="round"/>
<path d="M81.5477 148.909C81.5477 148.909 80.595 153.121 78.0848 152.177C76.7239 151.665 74.1197 147.619 73.627 145.58L81.5477 148.909Z" fill="white" stroke="#263238" stroke-linecap="round" stroke-linejoin="round"/>
<path d="M70.4824 123.002L72.5318 121.941C72.5318 121.941 78.3254 121.993 81.9191 124.914C85.1833 127.567 86.8368 131.727 86.8368 131.727C86.8368 131.727 99.5217 124.723 112.472 128.742L117.758 158.185L93.4726 159.788L78.3148 145.374L70.4824 123.002Z" fill="white" stroke="#263238" stroke-linecap="round" stroke-linejoin="round"/>
<path d="M119.429 159.363C119.429 159.363 116.58 159.277 112.769 159.404C107.008 159.584 99.0488 160.235 95.4099 162.352L95.2383 162.293L91.9063 161.133C91.9063 161.133 91.8838 161.101 91.8386 161.034C91.2246 160.122 86.2718 153.02 79.2061 150.126L69.2012 122.17C69.2012 122.17 79.5898 122.635 85.2605 132.003L88.1093 133.033C88.1093 133.033 105.063 128.012 114.553 129.818L119.429 159.363Z" fill="#92E3A9"/>
<path opacity="0.3" d="M91.8386 161.034C91.2246 160.122 86.2718 153.02 79.2061 150.126L69.2012 122.17C69.2012 122.17 79.5898 122.635 85.2605 132.003L91.8386 161.034Z" fill="black" fill-opacity="0.7"/>
<path opacity="0.3" d="M112.77 159.403C107.009 159.584 99.0494 160.234 95.4104 162.352L95.2389 162.293L88.584 134.048C88.584 134.048 94.0278 132.825 95.7039 133.443C95.7039 133.443 106.77 141.612 112.77 159.403Z" fill="black" fill-opacity="0.7"/>
<path d="M119.429 159.363C119.429 159.363 116.58 159.277 112.769 159.404C107.008 159.584 99.0488 160.235 95.4099 162.352L95.2383 162.293L91.9063 161.133C91.9063 161.133 91.8838 161.101 91.8386 161.034C91.2246 160.122 86.2718 153.02 79.2061 150.126L69.2012 122.17C69.2012 122.17 79.5898 122.635 85.2605 132.003L88.1093 133.033C88.1093 133.033 105.063 128.012 114.553 129.818L119.429 159.363Z" stroke="#263238" stroke-linecap="round" stroke-linejoin="round"/>
<path d="M88.1074 133.033L94.6419 160.136" stroke="#263238" stroke-linecap="round" stroke-linejoin="round"/>
<path d="M91.9058 161.135L85.5586 134.049" stroke="#263238" stroke-linecap="round" stroke-linejoin="round"/>
<path d="M75.7793 149.414C74.3282 149.01 71.4081 140.299 72.7465 136.551C72.7465 136.551 74.3358 133.792 74.9825 133.603C75.9959 133.307 80.0772 133.394 79.8798 134.08C79.4233 135.668 76.2923 135.641 76.2923 135.641L75.2762 137.501L75.32 138.528C75.32 138.528 76.7936 137.453 77.3376 137.482C78.3309 137.842 79.2912 138.287 80.2077 138.813C81.1889 139.333 81.7879 139.613 81.5684 140.086C80.8423 141.647 77.7454 140.552 77.7454 140.552L76.5834 142.304C76.5834 142.304 77.7071 142.498 78.2006 142.555C78.7403 142.618 82.7781 145.329 82.6546 145.669C82.1727 146.997 78.2975 145.561 78.2975 145.561L77.6109 146.132C77.6109 146.132 80.4673 146.87 80.7573 146.977C81.212 147.145 82.9505 148.484 82.9233 148.636C82.7142 149.809 80.316 148.946 80.316 148.946L78.2183 148.861C77.8965 149.142 77.5113 149.341 77.0956 149.441" fill="white"/>
<path d="M75.7793 149.414C74.3282 149.01 71.4081 140.299 72.7465 136.551C72.7465 136.551 74.3358 133.792 74.9825 133.603C75.9959 133.307 80.0772 133.394 79.8798 134.08C79.4233 135.668 76.2923 135.641 76.2923 135.641L75.2762 137.501L75.32 138.528C75.32 138.528 76.7936 137.453 77.3376 137.482C78.3309 137.842 79.2912 138.287 80.2077 138.813C81.1889 139.333 81.7879 139.613 81.5684 140.086C80.8423 141.647 77.7454 140.552 77.7454 140.552L76.5834 142.304C76.5834 142.304 77.7071 142.498 78.2006 142.555C78.7403 142.618 82.7781 145.329 82.6546 145.669C82.1727 146.997 78.2975 145.561 78.2975 145.561L77.6109 146.132C77.6109 146.132 80.4673 146.87 80.7573 146.977C81.212 147.145 82.9505 148.484 82.9233 148.636C82.7142 149.809 80.316 148.946 80.316 148.946L78.2183 148.861C77.8965 149.142 77.5113 149.341 77.0956 149.441" stroke="#263238" stroke-linecap="round" stroke-linejoin="round"/>
<path d="M75.3189 138.527C75.3189 138.527 73.9792 139.666 73.6137 139.994C73.2483 140.321 73.3513 141.371 73.3513 141.371" stroke="#263238" stroke-linecap="round" stroke-linejoin="round"/>
<path d="M74.338 143.681C74.3294 144.831 75.1064 145.524 75.4601 145.894C75.8138 146.265 74.8945 147.273 75.9083 147.996" stroke="#263238" stroke-linecap="round" stroke-linejoin="round"/>
<path d="M141.213 180.031C138.346 180.812 135.231 175.774 131.429 170.275V170.27C128.919 166.64 126.111 162.807 122.883 160.324C122.625 160.13 122.363 159.94 122.102 159.76L123.989 150.292C127.908 152.346 130.337 155.638 134.405 159.019C140.951 164.469 146.753 167.814 148.36 170.225C149.967 172.636 146.125 178.69 141.213 180.031Z" fill="white"/>
<path opacity="0.4" d="M131.427 170.271C128.917 166.641 126.109 162.808 122.881 160.324C123.306 160.346 123.732 160.281 124.131 160.135C124.131 160.135 129.233 164.288 131.427 170.271Z" fill="#92E3A9"/>
<path d="M141.213 180.031C138.346 180.812 135.231 175.774 131.429 170.275V170.27C128.919 166.64 126.111 162.807 122.883 160.324C122.625 160.13 122.363 159.94 122.102 159.76L123.989 150.292C127.908 152.346 130.337 155.638 134.405 159.019C140.951 164.469 146.753 167.814 148.36 170.225C149.967 172.636 146.125 178.69 141.213 180.031Z" stroke="#263238" stroke-linecap="round" stroke-linejoin="round"/>
<path d="M125.049 159.403C124.85 159.757 124.521 160.019 124.133 160.135C124.031 160.175 123.927 160.21 123.821 160.239C123.798 160.243 123.767 160.248 123.735 160.257C120.706 161.047 113.888 159.403 113.888 159.403C113.888 159.403 109.423 157.281 109.152 156.78C108.964 156.383 108.796 155.976 108.651 155.561C108.579 155.349 108.529 155.205 108.529 155.205C108.529 155.205 106.922 154.311 106.741 153.597C106.565 152.884 106.204 152.703 107.188 152.568C108.173 152.437 113.527 152.568 113.527 152.568L107.726 150.202C107.726 150.202 103.883 148.265 103.527 147.584C103.17 146.897 102.723 146.45 104.687 146.721C106.651 146.988 110.94 148.238 110.94 148.238L114.299 148.952L110.94 147.52C110.94 147.52 104.33 146.721 105.581 144.667H109.333C111.464 144.76 113.585 145.029 115.672 145.471C116.764 145.805 123.988 150.292 123.988 150.292" fill="white"/>
<path opacity="0.4" d="M123.734 160.257C120.705 161.047 113.888 159.404 113.888 159.404C113.888 159.404 109.422 157.282 109.152 156.781C108.963 156.383 108.796 155.977 108.65 155.562L114.131 156.176C113.941 156.52 113.842 156.907 113.842 157.3C113.842 157.693 113.941 158.08 114.131 158.424C114.741 159.517 121.685 160.627 123.734 160.257Z" fill="#92E3A9"/>
<path d="M125.049 159.403C124.85 159.757 124.521 160.019 124.133 160.135C124.031 160.175 123.927 160.21 123.821 160.239C123.798 160.243 123.767 160.248 123.735 160.257C120.706 161.047 113.888 159.403 113.888 159.403C113.888 159.403 109.423 157.281 109.152 156.78C108.964 156.383 108.796 155.976 108.651 155.561C108.579 155.349 108.529 155.205 108.529 155.205C108.529 155.205 106.922 154.311 106.741 153.597C106.565 152.884 106.204 152.703 107.188 152.568C108.173 152.437 113.527 152.568 113.527 152.568L107.726 150.202C107.726 150.202 103.883 148.265 103.527 147.584C103.17 146.897 102.723 146.45 104.687 146.721C106.651 146.988 110.94 148.238 110.94 148.238L114.299 148.952L110.94 147.52C110.94 147.52 104.33 146.721 105.581 144.667H109.333C111.464 144.76 113.585 145.029 115.672 145.471C116.764 145.805 123.988 150.292 123.988 150.292" stroke="#263238" stroke-linecap="round" stroke-linejoin="round"/>
<path d="M108.527 155.204L115.126 156.174" stroke="#263238" stroke-linecap="round" stroke-linejoin="round"/>
<path d="M42.7773 175.403L59.3086 180.385L89.5633 173.482C89.5633 173.482 71.0841 168.223 70.9106 168.349C70.7371 168.475 42.7773 175.403 42.7773 175.403Z" fill="#92E3A9"/>
<path opacity="0.3" d="M42.7773 175.403L59.3086 180.385L89.5633 173.482C89.5633 173.482 71.0841 168.223 70.9106 168.349C70.7371 168.475 42.7773 175.403 42.7773 175.403Z" fill="black" fill-opacity="0.7"/>
<path d="M42.7773 175.403L59.3086 180.385L89.5633 173.482C89.5633 173.482 71.0841 168.223 70.9106 168.349C70.7371 168.475 42.7773 175.403 42.7773 175.403Z" stroke="#263238" stroke-linecap="round" stroke-linejoin="round"/>
<path d="M43.0148 169.58C41.8562 169.661 41.5653 173.844 42.7771 175.403L69.4828 169.861L71.6256 164.794L43.0148 169.58Z" fill="#92E3A9"/>
<path opacity="0.3" d="M43.0148 169.58C41.8562 169.661 41.5653 173.844 42.7771 175.403L69.4828 169.861L71.6256 164.794L43.0148 169.58Z" fill="black" fill-opacity="0.7"/>
<path d="M43.0148 169.58C41.8562 169.661 41.5653 173.844 42.7771 175.403L69.4828 169.861L71.6256 164.794L43.0148 169.58Z" stroke="#263238" stroke-linecap="round" stroke-linejoin="round"/>
<path d="M88.2621 169.52C88.2621 169.52 87.8646 171.721 88.1222 173.073L59.2757 179.604L44.07 175.134C44.07 175.134 42.4887 172.338 43.8663 170.174L71.6518 165.458L88.2621 169.52Z" fill="white" stroke="#263238" stroke-linecap="round" stroke-linejoin="round"/>
<path d="M43.0137 169.581L71.6247 164.794L89.3902 169.295L59.5087 175.25L43.0137 169.581Z" fill="#92E3A9" stroke="#263238" stroke-linecap="round" stroke-linejoin="round"/>
<path d="M44.0293 172.253L59.159 176.756L83.9216 171.773" stroke="#263238" stroke-linecap="round" stroke-linejoin="round"/>
<path d="M88.0404 172.233L61.4121 177.915" stroke="#263238" stroke-linecap="round" stroke-linejoin="round"/>
<path d="M44.3887 174.025C44.6155 174.048 55.7928 177.49 55.7928 177.49" stroke="#263238" stroke-linecap="round" stroke-linejoin="round"/>
<path d="M85.8633 171.191L87.9823 170.848" stroke="#263238" stroke-linecap="round" stroke-linejoin="round"/>
<path d="M58.6649 178.326L57.5449 178.074" stroke="#263238" stroke-linecap="round" stroke-linejoin="round"/>
<path d="M43.8663 170.174C44.4559 170.856 44.7971 171.718 44.8341 172.618C44.8711 173.519 44.6017 174.406 44.0699 175.134C43.5764 174.409 43.2958 173.56 43.2598 172.683C43.2238 171.806 43.4339 170.937 43.8663 170.174Z" fill="#263238"/>
<path opacity="0.3" d="M43.8663 170.174C44.4559 170.856 44.7971 171.718 44.8341 172.618C44.8711 173.519 44.6017 174.406 44.0699 175.134C43.5764 174.409 43.2958 173.56 43.2598 172.683C43.2238 171.806 43.4339 170.937 43.8663 170.174Z" fill="white" fill-opacity="0.7"/>
<path d="M43.8663 170.174C44.4559 170.856 44.7971 171.718 44.8341 172.618C44.8711 173.519 44.6017 174.406 44.0699 175.134C43.5764 174.409 43.2958 173.56 43.2598 172.683C43.2238 171.806 43.4339 170.937 43.8663 170.174Z" stroke="#263238" stroke-linecap="round" stroke-linejoin="round"/>
<path d="M105.663 176.756L134.536 177.941L131.72 187.88L96.2051 186.525L105.663 176.756Z" fill="white"/>
<path opacity="0.4" d="M105.663 176.756L134.536 177.941L131.72 187.88L96.2051 186.525L105.663 176.756Z" fill="#92E3A9"/>
<path d="M105.663 176.756L134.536 177.941L131.72 187.88L96.2051 186.525L105.663 176.756Z" stroke="#263238" stroke-linecap="round" stroke-linejoin="round"/>
</g>
<defs>
<clipPath id="clip0_18063_78383">
<rect width="192.409" height="200" fill="white"/>
</clipPath>
</defs>
</svg>
