<svg width="16" height="16" viewBox="0 0 16 16" fill="none" xmlns="http://www.w3.org/2000/svg">
<path d="M9.13799 0.0300922C9.01799 -0.0239078 8.87865 -0.00456402 8.78065 0.0827484L3.542 4.66675H0.999999C0.448656 4.66675 0 5.1154 0 5.66675V10.3334C0 10.8848 0.448656 11.3334 0.999999 11.3334H3.542L8.78065 15.9174C8.84265 15.9721 8.92065 16.0001 8.99999 16.0001C9.04665 16.0001 9.09399 15.9901 9.13799 15.9701C9.25734 15.9161 9.33334 15.7974 9.33334 15.6667V0.333436C9.33331 0.202748 9.25731 0.0840922 9.13799 0.0300922ZM8.66665 14.9321L3.886 10.7494C3.82534 10.6961 3.74734 10.6668 3.66665 10.6668H0.999999C0.816656 10.6668 0.666656 10.5168 0.666656 10.3334V5.66675C0.666656 5.4834 0.816656 5.3334 0.999999 5.3334H3.66665C3.74731 5.3334 3.82531 5.30406 3.886 5.25075L8.66665 1.06809V14.9321Z" fill="#393A4A"/>
<path d="M11.7077 5.71935C11.661 5.5407 11.4763 5.43001 11.3017 5.48135C11.1237 5.52735 11.017 5.70935 11.0637 5.88735C11.2423 6.57401 11.3337 7.28601 11.3337 8.00201C11.3337 8.71667 11.243 9.42801 11.0643 10.1147C11.017 10.292 11.1237 10.4747 11.3023 10.5207C11.3303 10.5287 11.359 10.532 11.3863 10.532C11.535 10.532 11.6697 10.4327 11.7083 10.2827C11.9023 9.54132 12.0003 8.77332 12.0003 8.00201C12.0004 7.22867 11.9024 6.46067 11.7077 5.71935Z" fill="#393A4A"/>
<path d="M13.1666 3.7921C13.0966 3.6221 12.902 3.54076 12.7313 3.61145C12.5613 3.68145 12.4806 3.87679 12.5506 4.04679C13.07 5.30145 13.334 6.63145 13.334 8.00013C13.334 9.36947 13.0706 10.6988 12.5513 11.9515C12.4813 12.1215 12.562 12.3168 12.732 12.3868C12.7733 12.4042 12.8166 12.4122 12.8593 12.4122C12.99 12.4122 13.114 12.3348 13.1673 12.2068C13.72 10.8728 14.0006 9.45748 14.0006 8.00016C14.0006 6.54345 13.7199 5.12745 13.1666 3.7921Z" fill="#393A4A"/>
<path d="M14.5354 1.99904C14.4501 1.8357 14.2481 1.7737 14.0854 1.8577C13.9228 1.94304 13.8588 2.14436 13.9441 2.3077C14.8534 4.0517 15.3341 6.02035 15.3341 8.00104C15.3341 9.98038 14.8541 11.9477 13.9461 13.691C13.8607 13.8544 13.9247 14.0557 14.0874 14.141C14.1368 14.1664 14.1894 14.179 14.2414 14.179C14.3614 14.179 14.4781 14.1137 14.5374 13.9997C15.4948 12.161 16.0008 10.087 16.0008 8.00104C16.0008 5.91304 15.4941 3.83839 14.5354 1.99904Z" fill="#393A4A"/>
</svg>
