<svg width="56" height="56" viewBox="0 0 56 56" fill="none" xmlns="http://www.w3.org/2000/svg">
<path opacity="0.3" d="M38.0693 37.6792C37.2257 38.1509 36.1595 37.8495 35.6878 37.006C35.216 36.1624 35.5175 35.0962 36.361 34.6244C38.7436 33.2921 40.2497 30.7789 40.2497 28.0001C40.2497 25.2417 38.7659 22.7444 36.4111 21.404C35.5711 20.9259 35.2778 19.8574 35.7559 19.0174C36.234 18.1774 37.3025 17.8841 38.1425 18.3622C41.5799 20.3189 43.7497 23.9708 43.7497 28.0001C43.7497 32.0594 41.5474 35.7342 38.0693 37.6792Z" fill="black"/>
<path fill-rule="evenodd" clip-rule="evenodd" d="M16.3332 37.3333L8.41796 35.7503C6.23665 35.314 4.6665 33.3987 4.6665 31.1742V24.8257C4.6665 22.6012 6.23665 20.6859 8.41796 20.2497L16.3332 18.6666L24.0166 10.9832C24.9278 10.072 26.4052 10.072 27.3164 10.9832C27.754 11.4208 27.9998 12.0143 27.9998 12.6331V43.3668C27.9998 44.6555 26.9552 45.7001 25.6665 45.7001C25.0477 45.7001 24.4542 45.4543 24.0166 45.0167L16.3332 37.3333Z" fill="black"/>
</svg>
