<svg width="13" height="13" viewBox="0 0 13 13" fill="none" xmlns="http://www.w3.org/2000/svg">
<path d="M6.96654 6.02336L11.8283 1.16165C12.0888 0.901081 12.0888 0.478985 11.8283 0.219155C11.5677 -0.0414101 11.1456 -0.0414101 10.8858 0.219155L6.02405 5.08087L1.16233 0.218373C0.902523 -0.0421919 0.479668 -0.0421919 0.219838 0.218373C-0.0407271 0.478937 -0.0407271 0.901034 0.219838 1.16086L5.08156 6.02336L0.219838 10.8851C-0.0407271 11.1456 -0.0407271 11.5678 0.219838 11.8276C0.349362 11.9586 0.520039 12.0234 0.690692 12.0234C0.861346 12.0234 1.03202 11.9586 1.16233 11.8283L6.02405 6.96583L10.8858 11.8275C11.0161 11.9579 11.1867 12.0226 11.3574 12.0226C11.528 12.0226 11.6987 11.9578 11.829 11.8275C12.0896 11.567 12.0896 11.1449 11.829 10.8851L6.96649 6.02334L6.96654 6.02336Z" fill="#0050C8"/>
</svg>
