<svg width="16" height="17" viewBox="0 0 16 17" fill="none" xmlns="http://www.w3.org/2000/svg">
<path d="M3.98242 6.48831H2.98438V7.48636H3.98242V6.48831Z" fill="#0050C8"/>
<path d="M4.98047 6.48831H5.97852V7.48636H4.98047V6.48831Z" fill="#0050C8"/>
<path d="M7.97461 6.48831H6.97656V7.48636H7.97461V6.48831Z" fill="#0050C8"/>
<path d="M8.97266 6.48831H9.9707V7.48636H8.97266V6.48831Z" fill="#0050C8"/>
<path d="M11.9668 6.48831H10.9688V7.48636H11.9668V6.48831Z" fill="#0050C8"/>
<path d="M2.98438 8.48441H3.98242V9.48245H2.98438V8.48441Z" fill="#0050C8"/>
<path d="M5.97852 8.48441H4.98047V9.48245H5.97852V8.48441Z" fill="#0050C8"/>
<path d="M6.97656 8.48441H7.97461V9.48245H6.97656V8.48441Z" fill="#0050C8"/>
<path d="M9.9707 8.48441H8.97266V9.48245H9.9707V8.48441Z" fill="#0050C8"/>
<path d="M10.9688 8.48441H11.9668V9.48245H10.9688V8.48441Z" fill="#0050C8"/>
<path d="M3.98242 10.4805H2.98438V11.4785H3.98242V10.4805Z" fill="#0050C8"/>
<path d="M2.98438 12.4766H3.98242V13.4747H2.98438V12.4766Z" fill="#0050C8"/>
<path d="M5.97852 12.4766H4.98047V13.4747H5.97852V12.4766Z" fill="#0050C8"/>
<path d="M4.98047 10.4805H5.97852V11.4785H4.98047V10.4805Z" fill="#0050C8"/>
<path d="M7.97461 10.4805H6.97656V11.4785H7.97461V10.4805Z" fill="#0050C8"/>
<path fill-rule="evenodd" clip-rule="evenodd" d="M13.9727 3.49414C15.0645 3.49414 15.9502 4.37991 15.9502 5.47153V13.4778L12.9561 16.4719H1.97754C0.885742 16.4719 0 15.4302 0 14.3386V5.47153C0 4.37991 0.885742 3.49414 1.97754 3.49414H1.98633V1.49805C1.98633 0.946014 2.43262 0.5 2.98438 0.5C3.53711 0.5 3.98242 0.946014 3.98242 1.49805V3.49414H6.97656V1.49805C6.97656 0.946014 7.42285 0.5 7.97461 0.5C8.52734 0.5 8.97266 0.946014 8.97266 1.49805V3.49414H11.9668V1.49805C11.9668 0.946014 12.4131 0.5 12.9648 0.5C13.5176 0.5 13.9629 0.946014 13.9629 1.49805V3.49414H13.9727ZM11.958 14.4727L13.9541 12.4766H11.958V14.4727ZM13.9541 10.4805H9.96191V14.4727H2.05859C2.02734 14.4353 1.99609 14.376 1.99609 14.3355V5.49026H13.9541V10.4805Z" fill="#0050C8"/>
</svg>
