<svg width="30" height="31" viewBox="0 0 30 31" fill="none" xmlns="http://www.w3.org/2000/svg">
<circle cx="15" cy="15.5" r="14.5" stroke="#CDCED9"/>
<g clip-path="url(#clip0)">
<path d="M14.8333 10C14.8775 10 14.9199 10.0176 14.9512 10.0488C14.9824 10.0801 15 10.1225 15 10.1667V10.3333C15 10.5101 15.0702 10.6797 15.1953 10.8047C15.3203 10.9298 15.4899 11 15.6667 11C15.8435 11 16.013 10.9298 16.1381 10.8047C16.2631 10.6797 16.3333 10.5101 16.3333 10.3333V10.1667C16.3333 10.1225 16.3509 10.0801 16.3821 10.0488C16.4134 10.0176 16.4558 10 16.5 10H17.1667C17.2109 10 17.2533 10.0176 17.2845 10.0488C17.3158 10.0801 17.3333 10.1225 17.3333 10.1667V13.3C17.3333 13.3246 17.3388 13.3488 17.3495 13.371C17.3601 13.3931 17.3757 13.4125 17.3949 13.4278C17.4141 13.443 17.4366 13.4538 17.4606 13.4591C17.4845 13.4645 17.5094 13.4643 17.5333 13.4587C17.8532 13.3866 18.179 13.3447 18.5067 13.3333C18.5492 13.3326 18.5898 13.3153 18.6197 13.285C18.6496 13.2547 18.6665 13.2139 18.6667 13.1713V10C18.6667 9.64638 18.5262 9.30724 18.2761 9.05719C18.0261 8.80714 17.687 8.66667 17.3333 8.66667H16.5C16.4558 8.66667 16.4134 8.64911 16.3821 8.61785C16.3509 8.5866 16.3333 8.5442 16.3333 8.5V7.66667C16.3333 7.48986 16.2631 7.32029 16.1381 7.19526C16.013 7.07024 15.8435 7 15.6667 7C15.4899 7 15.3203 7.07024 15.1953 7.19526C15.0702 7.32029 15 7.48986 15 7.66667V8.5C15 8.5442 14.9824 8.5866 14.9512 8.61785C14.9199 8.64911 14.8775 8.66667 14.8333 8.66667H13.8333C13.7891 8.66667 13.7467 8.64911 13.7155 8.61785C13.6842 8.5866 13.6667 8.5442 13.6667 8.5V7.66667C13.6667 7.48986 13.5964 7.32029 13.4714 7.19526C13.3464 7.07024 13.1768 7 13 7C12.8232 7 12.6536 7.07024 12.5286 7.19526C12.4036 7.32029 12.3333 7.48986 12.3333 7.66667V8.5C12.3333 8.5442 12.3158 8.5866 12.2845 8.61785C12.2533 8.64911 12.2109 8.66667 12.1667 8.66667H11.1667C11.1225 8.66667 11.0801 8.64911 11.0488 8.61785C11.0176 8.5866 11 8.5442 11 8.5V7.66667C11 7.48986 10.9298 7.32029 10.8047 7.19526C10.6797 7.07024 10.5101 7 10.3333 7C10.1565 7 9.98695 7.07024 9.86193 7.19526C9.7369 7.32029 9.66667 7.48986 9.66667 7.66667V8.5C9.66667 8.5442 9.64911 8.5866 9.61785 8.61785C9.5866 8.64911 9.5442 8.66667 9.5 8.66667H8.33333C7.97971 8.66667 7.64057 8.80714 7.39052 9.05719C7.14048 9.30724 7 9.64638 7 10V18.6667C7 19.0203 7.14048 19.3594 7.39052 19.6095C7.64057 19.8595 7.97971 20 8.33333 20H13.302C13.3266 20.0001 13.3508 19.9945 13.373 19.9839C13.3951 19.9732 13.4145 19.9577 13.4298 19.9384C13.445 19.9192 13.4558 19.8967 13.4611 19.8728C13.4665 19.8488 13.4663 19.8239 13.4607 19.8C13.3879 19.4802 13.3453 19.1544 13.3333 18.8267C13.3326 18.7841 13.3153 18.7435 13.285 18.7136C13.2547 18.6837 13.2139 18.6668 13.1713 18.6667H8.5C8.4558 18.6667 8.41341 18.6491 8.38215 18.6179C8.35089 18.5866 8.33333 18.5442 8.33333 18.5V10.1667C8.33333 10.1225 8.35089 10.0801 8.38215 10.0488C8.41341 10.0176 8.4558 10 8.5 10H9.5C9.5442 10 9.5866 10.0176 9.61785 10.0488C9.64911 10.0801 9.66667 10.1225 9.66667 10.1667V10.3333C9.66667 10.5101 9.7369 10.6797 9.86193 10.8047C9.98695 10.9298 10.1565 11 10.3333 11C10.5101 11 10.6797 10.9298 10.8047 10.8047C10.9298 10.6797 11 10.5101 11 10.3333V10.1667C11 10.1225 11.0176 10.0801 11.0488 10.0488C11.0801 10.0176 11.1225 10 11.1667 10H12.1667C12.2109 10 12.2533 10.0176 12.2845 10.0488C12.3158 10.0801 12.3333 10.1225 12.3333 10.1667V10.3333C12.3333 10.5101 12.4036 10.6797 12.5286 10.8047C12.6536 10.9298 12.8232 11 13 11C13.1768 11 13.3464 10.9298 13.4714 10.8047C13.5964 10.6797 13.6667 10.5101 13.6667 10.3333V10.1667C13.6667 10.1225 13.6842 10.0801 13.7155 10.0488C13.7467 10.0176 13.7891 10 13.8333 10H14.8333Z" fill="#0050C8"/>
<path d="M18.6663 14.334C17.8093 14.334 16.9715 14.5881 16.2589 15.0643C15.5463 15.5404 14.9908 16.2172 14.6629 17.009C14.3349 17.8008 14.2491 18.6721 14.4163 19.5127C14.5835 20.3533 14.9962 21.1254 15.6022 21.7314C16.2082 22.3375 16.9804 22.7502 17.821 22.9174C18.6615 23.0846 19.5328 22.9988 20.3246 22.6708C21.1165 22.3428 21.7932 21.7874 22.2694 21.0748C22.7455 20.3622 22.9997 19.5244 22.9997 18.6673C22.9983 17.5185 22.5413 16.4171 21.7289 15.6047C20.9166 14.7924 19.8152 14.3354 18.6663 14.334ZM20.8483 17.8007L18.9117 20.3833C18.8262 20.4988 18.7166 20.5944 18.5906 20.6635C18.4646 20.7325 18.325 20.7734 18.1817 20.7833C18.1583 20.7833 18.1343 20.7833 18.111 20.7833C17.9796 20.7832 17.8494 20.7572 17.7281 20.7067C17.6067 20.6563 17.4965 20.5824 17.4037 20.4893L16.4037 19.4893C16.3126 19.395 16.2623 19.2686 16.2635 19.1375C16.2647 19.0065 16.3173 18.8811 16.4101 18.7884C16.5028 18.6957 16.6283 18.6432 16.7594 18.6421C16.8905 18.6411 17.0168 18.6915 17.111 18.7826L17.9777 19.6493C17.9946 19.6662 18.0149 19.6793 18.0373 19.6876C18.0597 19.696 18.0836 19.6994 18.1075 19.6977C18.1313 19.696 18.1545 19.6892 18.1755 19.6777C18.1964 19.6663 18.2147 19.6505 18.229 19.6313L20.0503 17.2027C20.0897 17.1501 20.1391 17.1059 20.1956 17.0724C20.2521 17.039 20.3146 17.017 20.3796 17.0077C20.4446 16.9984 20.5108 17.002 20.5744 17.0183C20.638 17.0346 20.6978 17.0633 20.7503 17.1027C20.8029 17.142 20.8471 17.1914 20.8806 17.2479C20.914 17.3044 20.936 17.3669 20.9453 17.4319C20.9546 17.4969 20.951 17.5631 20.9347 17.6267C20.9184 17.6903 20.8897 17.7501 20.8503 17.8026L20.8483 17.8007Z" fill="#0050C8"/>
</g>
<defs>
<clipPath id="clip0">
<rect width="16" height="16" fill="white" transform="translate(7 7)"/>
</clipPath>
</defs>
</svg>
