<svg width="30" height="31" viewBox="0 0 30 31" fill="none" xmlns="http://www.w3.org/2000/svg">
<circle cx="15" cy="15.5" r="14.5" stroke="#CDCED9"/>
<g clip-path="url(#clip0)">
<path d="M12.3327 19.5C12.3343 18.0418 12.9142 16.6438 13.9453 15.6127C14.9765 14.5816 16.3745 14.0016 17.8327 14C18.6481 13.999 19.4532 14.1812 20.1887 14.5333C20.2395 14.5577 20.2957 14.5687 20.3519 14.5655C20.4082 14.5622 20.4627 14.5448 20.5103 14.5148C20.558 14.4847 20.5973 14.4431 20.6245 14.3938C20.6517 14.3444 20.666 14.289 20.666 14.2327V12C20.6661 11.6926 20.5599 11.3947 20.3656 11.1566C20.1712 10.9184 19.9005 10.7548 19.5993 10.6933C19.5242 10.678 19.4566 10.6372 19.408 10.5778C19.3594 10.5184 19.3328 10.4441 19.3327 10.3673V9.33333C19.3327 8.97971 19.1922 8.64057 18.9422 8.39052C18.6921 8.14048 18.353 8 17.9993 8H9.66602C9.13558 8 8.62687 8.21071 8.2518 8.58579C7.87673 8.96086 7.66602 9.46957 7.66602 10V22C7.66602 22.5304 7.87673 23.0391 8.2518 23.4142C8.62687 23.7893 9.13558 24 9.66602 24H14.1907C14.2248 24 14.2581 23.9894 14.2861 23.9698C14.3141 23.9503 14.3353 23.9226 14.347 23.8905C14.3587 23.8584 14.3603 23.8235 14.3516 23.7905C14.3428 23.7575 14.3241 23.728 14.298 23.706C13.6828 23.1913 13.1879 22.5479 12.8483 21.8212C12.5087 21.0945 12.3327 20.3021 12.3327 19.5ZM8.99935 10C8.99935 9.82319 9.06959 9.65362 9.19461 9.5286C9.31964 9.40357 9.4892 9.33333 9.66602 9.33333H17.8327C17.8769 9.33333 17.9193 9.35089 17.9505 9.38215C17.9818 9.41341 17.9993 9.4558 17.9993 9.5V10.5C17.9993 10.5442 17.9818 10.5866 17.9505 10.6179C17.9193 10.6491 17.8769 10.6667 17.8327 10.6667H9.66602C9.4892 10.6667 9.31964 10.5964 9.19461 10.4714C9.06959 10.3464 8.99935 10.1768 8.99935 10Z" fill="#0050C8"/>
<path fill-rule="evenodd" clip-rule="evenodd" d="M17.9993 24.0007C20.3926 24.0007 22.3327 22.0606 22.3327 19.6673C22.3327 17.2741 20.3926 15.334 17.9993 15.334C15.6061 15.334 13.666 17.2741 13.666 19.6673C13.666 22.0606 15.6061 24.0007 17.9993 24.0007ZM20.6227 18.077C20.5997 18.1582 20.561 18.234 20.5087 18.3002L17.8911 21.6153C17.7965 21.7324 17.6785 21.8285 17.5446 21.8973C17.4107 21.9661 17.264 22.0062 17.1137 22.0151C16.9634 22.0239 16.8129 22.0012 16.6719 21.9485C16.5309 21.8958 16.4024 21.8143 16.2948 21.7091L15.1302 20.5441C15.0133 20.423 14.9486 20.2609 14.95 20.0925C14.9515 19.9242 15.019 19.7632 15.138 19.6442C15.2571 19.5251 15.4181 19.4576 15.5864 19.4562C15.7547 19.4547 15.9169 19.5194 16.038 19.6363L16.9474 20.5458C16.9581 20.5566 16.9709 20.5649 16.985 20.5703C16.9992 20.5757 17.0143 20.578 17.0294 20.5772C17.0445 20.5763 17.0592 20.5722 17.0726 20.5651C17.086 20.5581 17.0978 20.5483 17.1071 20.5364L19.5008 17.5041C19.5531 17.438 19.6179 17.3827 19.6915 17.3416C19.7651 17.3004 19.8461 17.2742 19.9298 17.2644C20.0136 17.2545 20.0985 17.2613 20.1796 17.2843C20.2608 17.3072 20.3366 17.3459 20.4028 17.3982C20.4689 17.4505 20.5242 17.5153 20.5653 17.5889C20.6065 17.6625 20.6327 17.7435 20.6425 17.8273C20.6524 17.911 20.6456 17.9959 20.6227 18.077Z" fill="#0050C8"/>
</g>
<defs>
<clipPath id="clip0">
<rect width="16" height="16" fill="white" transform="translate(7 8)"/>
</clipPath>
</defs>
</svg>
