<svg width="808" height="277" viewBox="0 0 808 277" fill="none" xmlns="http://www.w3.org/2000/svg">
<g clip-path="url(#clip0_17908_75898)">
<path d="M325.332 123.668C325.332 127.911 323.646 131.981 320.646 134.982C317.645 137.982 313.575 139.668 309.332 139.668C305.089 139.668 301.019 137.982 298.018 134.982C295.018 131.981 293.332 127.911 293.332 123.668V99.668C293.332 97.5462 294.175 95.5114 295.675 94.0111C297.175 92.5108 299.21 91.668 301.332 91.668H317.332C319.454 91.668 321.489 92.5108 322.989 94.0111C324.489 95.5114 325.332 97.5462 325.332 99.668V123.668Z" stroke="#60C87D" stroke-linecap="round" stroke-linejoin="round"/>
<path d="M293.332 105H325.332" stroke="#60C87D" stroke-linecap="round" stroke-linejoin="round"/>
<path d="M309.332 104.999V91.6654C309.332 88.1291 310.737 84.7378 313.237 82.2373C315.738 79.7368 319.129 78.332 322.665 78.332C326.202 78.332 329.593 79.7368 332.093 82.2373C334.594 84.7378 335.999 88.1291 335.999 91.6654V98.332C335.999 100.807 336.982 103.181 338.732 104.932C340.483 106.682 342.857 107.665 345.332 107.665C347.807 107.665 350.181 106.682 351.932 104.932C353.682 103.181 354.665 100.807 354.665 98.332V78.332" stroke="#60C87D" stroke-linecap="round" stroke-linejoin="round"/>
</g>
<g clip-path="url(#clip1_17908_75898)">
<path d="M325.332 273.668C325.332 277.911 323.646 281.981 320.646 284.982C317.645 287.982 313.575 289.668 309.332 289.668C305.089 289.668 301.019 287.982 298.018 284.982C295.018 281.981 293.332 277.911 293.332 273.668V249.668C293.332 247.546 294.175 245.511 295.675 244.011C297.175 242.511 299.21 241.668 301.332 241.668H317.332C319.454 241.668 321.489 242.511 322.989 244.011C324.489 245.511 325.332 247.546 325.332 249.668V273.668Z" stroke="#60C87D" stroke-linecap="round" stroke-linejoin="round"/>
<path d="M293.332 255H325.332" stroke="#60C87D" stroke-linecap="round" stroke-linejoin="round"/>
<path d="M309.332 254.999V241.665C309.332 238.129 310.737 234.738 313.237 232.237C315.738 229.737 319.129 228.332 322.665 228.332C326.202 228.332 329.593 229.737 332.093 232.237C334.594 234.738 335.999 238.129 335.999 241.665V248.332C335.999 250.807 336.982 253.181 338.732 254.932C340.483 256.682 342.857 257.665 345.332 257.665C347.807 257.665 350.181 256.682 351.932 254.932C353.682 253.181 354.665 250.807 354.665 248.332V228.332" stroke="#60C87D" stroke-linecap="round" stroke-linejoin="round"/>
</g>
<g clip-path="url(#clip2_17908_75898)">
<path d="M777.332 113.668C777.332 117.911 775.646 121.981 772.646 124.982C769.645 127.982 765.575 129.668 761.332 129.668C757.089 129.668 753.019 127.982 750.018 124.982C747.018 121.981 745.332 117.911 745.332 113.668V89.668C745.332 87.5462 746.175 85.5114 747.675 84.0111C749.175 82.5108 751.21 81.668 753.332 81.668H769.332C771.454 81.668 773.489 82.5108 774.989 84.0111C776.489 85.5114 777.332 87.5462 777.332 89.668V113.668Z" stroke="#60C87D" stroke-linecap="round" stroke-linejoin="round"/>
<path d="M745.332 95H777.332" stroke="#60C87D" stroke-linecap="round" stroke-linejoin="round"/>
<path d="M761.332 94.9987V81.6654C761.332 78.1291 762.737 74.7378 765.237 72.2373C767.738 69.7368 771.129 68.332 774.665 68.332C778.202 68.332 781.593 69.7368 784.093 72.2373C786.594 74.7378 787.999 78.1291 787.999 81.6654V88.332C787.999 90.8074 788.982 93.1814 790.732 94.9317C792.483 96.682 794.857 97.6654 797.332 97.6654C799.807 97.6654 802.181 96.682 803.932 94.9317C805.682 93.1814 806.665 90.8074 806.665 88.332V68.332" stroke="#60C87D" stroke-linecap="round" stroke-linejoin="round"/>
</g>
<g clip-path="url(#clip3_17908_75898)">
<path d="M777.332 263.668C777.332 267.911 775.646 271.981 772.646 274.982C769.645 277.982 765.575 279.668 761.332 279.668C757.089 279.668 753.019 277.982 750.018 274.982C747.018 271.981 745.332 267.911 745.332 263.668V239.668C745.332 237.546 746.175 235.511 747.675 234.011C749.175 232.511 751.21 231.668 753.332 231.668H769.332C771.454 231.668 773.489 232.511 774.989 234.011C776.489 235.511 777.332 237.546 777.332 239.668V263.668Z" stroke="#60C87D" stroke-linecap="round" stroke-linejoin="round"/>
<path d="M745.332 245H777.332" stroke="#60C87D" stroke-linecap="round" stroke-linejoin="round"/>
<path d="M761.332 244.999V231.665C761.332 228.129 762.737 224.738 765.237 222.237C767.738 219.737 771.129 218.332 774.665 218.332C778.202 218.332 781.593 219.737 784.093 222.237C786.594 224.738 787.999 228.129 787.999 231.665V238.332C787.999 240.807 788.982 243.181 790.732 244.932C792.483 246.682 794.857 247.665 797.332 247.665C799.807 247.665 802.181 246.682 803.932 244.932C805.682 243.181 806.665 240.807 806.665 238.332V218.332" stroke="#60C87D" stroke-linecap="round" stroke-linejoin="round"/>
</g>
<g clip-path="url(#clip4_17908_75898)">
<path d="M214.121 82.2869L186.33 89.7333C183.969 90.366 182.568 92.7931 183.2 95.1544L187.783 112.256C188.415 114.617 190.842 116.019 193.204 115.386L220.994 107.94C223.355 107.307 224.757 104.88 224.124 102.519L219.542 85.4167C218.909 83.0555 216.482 81.6542 214.121 82.2869Z" stroke="#60C87D" stroke-linecap="round" stroke-linejoin="round"/>
<path d="M236.277 122.846C236.534 123.22 236.696 123.649 236.752 124.099C236.808 124.549 236.755 125.006 236.598 125.431C236.441 125.856 236.184 126.238 235.849 126.543C235.514 126.849 235.111 127.069 234.673 127.187L190.982 138.894C190.544 139.011 190.084 139.021 189.641 138.924C189.199 138.827 188.786 138.626 188.437 138.336C188.088 138.046 187.814 137.677 187.637 137.26C187.461 136.842 187.387 136.388 187.422 135.936L188.585 120.945C188.685 119.654 189.184 118.427 190.011 117.431C190.838 116.435 191.954 115.721 193.204 115.386L220.994 107.94C222.244 107.604 223.568 107.665 224.782 108.114C225.996 108.563 227.04 109.377 227.772 110.445L236.277 122.846Z" stroke="#60C87D" stroke-linecap="round" stroke-linejoin="round"/>
<path d="M220.307 131.036L205.343 135.046L205.763 128.06L216.451 125.196L220.307 131.036Z" stroke="#60C87D" stroke-linecap="round" stroke-linejoin="round"/>
<path d="M194.91 121.801L197.048 121.228" stroke="#60C87D" stroke-linecap="round" stroke-linejoin="round"/>
<path d="M201.324 120.082L203.462 119.509" stroke="#60C87D" stroke-linecap="round" stroke-linejoin="round"/>
<path d="M214.152 116.648L216.29 116.076" stroke="#60C87D" stroke-linecap="round" stroke-linejoin="round"/>
<path d="M220.562 114.93L222.7 114.357" stroke="#60C87D" stroke-linecap="round" stroke-linejoin="round"/>
<path d="M207.738 118.367L209.876 117.794" stroke="#60C87D" stroke-linecap="round" stroke-linejoin="round"/>
<path d="M193.918 126.648L196.056 126.076" stroke="#60C87D" stroke-linecap="round" stroke-linejoin="round"/>
<path d="M200.332 124.934L219.572 119.778" stroke="#60C87D" stroke-linecap="round" stroke-linejoin="round"/>
<path d="M223.848 118.633L225.985 118.06" stroke="#60C87D" stroke-linecap="round" stroke-linejoin="round"/>
</g>
<g clip-path="url(#clip5_17908_75898)">
<path d="M214.121 232.291L186.33 239.737C183.969 240.37 182.568 242.797 183.2 245.158L187.783 262.26C188.415 264.621 190.842 266.023 193.204 265.39L220.994 257.943C223.355 257.311 224.757 254.884 224.124 252.522L219.542 235.421C218.909 233.059 216.482 231.658 214.121 232.291Z" stroke="#60C87D" stroke-linecap="round" stroke-linejoin="round"/>
<path d="M236.277 272.849C236.534 273.223 236.696 273.653 236.752 274.103C236.808 274.553 236.755 275.01 236.598 275.435C236.441 275.86 236.184 276.242 235.849 276.547C235.514 276.852 235.111 277.073 234.673 277.191L190.982 288.897C190.544 289.015 190.084 289.025 189.641 288.928C189.199 288.831 188.786 288.629 188.437 288.34C188.088 288.05 187.814 287.681 187.637 287.264C187.461 286.846 187.387 286.392 187.422 285.94L188.585 270.949C188.685 269.658 189.184 268.431 190.011 267.435C190.838 266.439 191.954 265.725 193.204 265.39L220.994 257.944C222.244 257.608 223.568 257.669 224.782 258.118C225.996 258.567 227.04 259.381 227.772 260.449L236.277 272.849Z" stroke="#60C87D" stroke-linecap="round" stroke-linejoin="round"/>
<path d="M220.307 281.04L205.343 285.05L205.763 278.064L216.451 275.2L220.307 281.04Z" stroke="#60C87D" stroke-linecap="round" stroke-linejoin="round"/>
<path d="M194.91 271.805L197.048 271.232" stroke="#60C87D" stroke-linecap="round" stroke-linejoin="round"/>
<path d="M201.324 270.086L203.462 269.513" stroke="#60C87D" stroke-linecap="round" stroke-linejoin="round"/>
<path d="M214.152 266.652L216.29 266.08" stroke="#60C87D" stroke-linecap="round" stroke-linejoin="round"/>
<path d="M220.562 264.934L222.7 264.361" stroke="#60C87D" stroke-linecap="round" stroke-linejoin="round"/>
<path d="M207.738 268.371L209.876 267.798" stroke="#60C87D" stroke-linecap="round" stroke-linejoin="round"/>
<path d="M193.918 276.652L196.056 276.08" stroke="#60C87D" stroke-linecap="round" stroke-linejoin="round"/>
<path d="M200.332 274.938L219.572 269.782" stroke="#60C87D" stroke-linecap="round" stroke-linejoin="round"/>
<path d="M223.848 268.637L225.985 268.064" stroke="#60C87D" stroke-linecap="round" stroke-linejoin="round"/>
</g>
<g clip-path="url(#clip6_17908_75898)">
<path d="M377.324 4.52424L353.548 10.8949C351.528 11.4362 350.329 13.5126 350.871 15.5328L354.791 30.1639C355.332 32.1841 357.409 33.3829 359.429 32.8416L383.205 26.471C385.225 25.9297 386.424 23.8532 385.882 21.8331L381.962 7.20193C381.421 5.18179 379.344 3.98295 377.324 4.52424Z" stroke="#60C87D" stroke-linecap="round" stroke-linejoin="round"/>
<path d="M396.28 39.2246C396.499 39.5445 396.639 39.9124 396.686 40.2973C396.734 40.6822 396.689 41.0729 396.554 41.4367C396.42 41.8005 396.2 42.1267 395.914 42.388C395.627 42.6493 395.282 42.8381 394.907 42.9385L357.528 52.9542C357.154 53.0545 356.76 53.0636 356.382 52.9806C356.003 52.8976 355.649 52.7249 355.351 52.4771C355.053 52.2293 354.818 51.9135 354.667 51.5563C354.516 51.1991 354.453 50.8109 354.482 50.4242L355.478 37.5985C355.564 36.4944 355.99 35.4441 356.698 34.5924C357.405 33.7406 358.36 33.1293 359.429 32.8428L383.205 26.4721C384.275 26.1853 385.407 26.2374 386.445 26.6213C387.484 27.0052 388.378 27.702 389.003 28.6154L396.28 39.2246Z" stroke="#60C87D" stroke-linecap="round" stroke-linejoin="round"/>
<path d="M382.62 46.2321L369.818 49.6625L370.177 43.6857L379.321 41.2355L382.62 46.2321Z" stroke="#60C87D" stroke-linecap="round" stroke-linejoin="round"/>
<path d="M360.891 38.332L362.72 37.842" stroke="#60C87D" stroke-linecap="round" stroke-linejoin="round"/>
<path d="M366.379 36.8594L368.208 36.3693" stroke="#60C87D" stroke-linecap="round" stroke-linejoin="round"/>
<path d="M377.352 33.9219L379.18 33.4318" stroke="#60C87D" stroke-linecap="round" stroke-linejoin="round"/>
<path d="M382.836 32.4492L384.665 31.9592" stroke="#60C87D" stroke-linecap="round" stroke-linejoin="round"/>
<path d="M371.863 35.3906L373.692 34.9006" stroke="#60C87D" stroke-linecap="round" stroke-linejoin="round"/>
<path d="M360.043 42.4805L361.872 41.9904" stroke="#60C87D" stroke-linecap="round" stroke-linejoin="round"/>
<path d="M365.527 41.0078L381.987 36.5974" stroke="#60C87D" stroke-linecap="round" stroke-linejoin="round"/>
<path d="M385.645 35.6172L387.473 35.1271" stroke="#60C87D" stroke-linecap="round" stroke-linejoin="round"/>
</g>
<g clip-path="url(#clip7_17908_75898)">
<path d="M377.324 154.524L353.548 160.895C351.528 161.436 350.329 163.513 350.871 165.533L354.791 180.164C355.332 182.184 357.409 183.383 359.429 182.842L383.205 176.471C385.225 175.93 386.424 173.853 385.882 171.833L381.962 157.202C381.421 155.182 379.344 153.983 377.324 154.524Z" stroke="#60C87D" stroke-linecap="round" stroke-linejoin="round"/>
<path d="M396.28 189.225C396.499 189.545 396.639 189.912 396.686 190.297C396.734 190.682 396.689 191.073 396.554 191.437C396.42 191.8 396.2 192.127 395.914 192.388C395.627 192.649 395.282 192.838 394.907 192.939L357.528 202.954C357.154 203.055 356.76 203.064 356.382 202.981C356.003 202.898 355.649 202.725 355.351 202.477C355.053 202.229 354.818 201.914 354.667 201.556C354.516 201.199 354.453 200.811 354.482 200.424L355.478 187.599C355.564 186.494 355.99 185.444 356.698 184.592C357.405 183.741 358.36 183.129 359.429 182.843L383.205 176.472C384.275 176.185 385.407 176.237 386.445 176.621C387.484 177.005 388.378 177.702 389.003 178.615L396.28 189.225Z" stroke="#60C87D" stroke-linecap="round" stroke-linejoin="round"/>
<path d="M382.62 196.232L369.818 199.662L370.177 193.686L379.321 191.235L382.62 196.232Z" stroke="#60C87D" stroke-linecap="round" stroke-linejoin="round"/>
<path d="M360.891 188.332L362.72 187.842" stroke="#60C87D" stroke-linecap="round" stroke-linejoin="round"/>
<path d="M366.379 186.859L368.208 186.369" stroke="#60C87D" stroke-linecap="round" stroke-linejoin="round"/>
<path d="M377.352 183.922L379.18 183.432" stroke="#60C87D" stroke-linecap="round" stroke-linejoin="round"/>
<path d="M382.836 182.449L384.665 181.959" stroke="#60C87D" stroke-linecap="round" stroke-linejoin="round"/>
<path d="M371.863 185.391L373.692 184.901" stroke="#60C87D" stroke-linecap="round" stroke-linejoin="round"/>
<path d="M360.043 192.48L361.872 191.99" stroke="#60C87D" stroke-linecap="round" stroke-linejoin="round"/>
<path d="M365.527 191.008L381.987 186.597" stroke="#60C87D" stroke-linecap="round" stroke-linejoin="round"/>
<path d="M385.645 185.617L387.473 185.127" stroke="#60C87D" stroke-linecap="round" stroke-linejoin="round"/>
</g>
<g clip-path="url(#clip8_17908_75898)">
<path d="M554.324 83.5242L530.548 89.8949C528.528 90.4362 527.329 92.5126 527.871 94.5328L531.791 109.164C532.332 111.184 534.409 112.383 536.429 111.842L560.205 105.471C562.225 104.93 563.424 102.853 562.882 100.833L558.962 86.2019C558.421 84.1818 556.344 82.9829 554.324 83.5242Z" stroke="#60C87D" stroke-linecap="round" stroke-linejoin="round"/>
<path d="M573.28 118.225C573.499 118.545 573.639 118.912 573.686 119.297C573.734 119.682 573.689 120.073 573.554 120.437C573.42 120.8 573.2 121.127 572.914 121.388C572.627 121.649 572.282 121.838 571.907 121.939L534.528 131.954C534.154 132.055 533.76 132.064 533.382 131.981C533.003 131.898 532.649 131.725 532.351 131.477C532.053 131.229 531.818 130.914 531.667 130.556C531.516 130.199 531.453 129.811 531.482 129.424L532.478 116.599C532.564 115.494 532.99 114.444 533.698 113.592C534.405 112.741 535.36 112.129 536.429 111.843L560.205 105.472C561.275 105.185 562.407 105.237 563.445 105.621C564.484 106.005 565.378 106.702 566.003 107.615L573.28 118.225Z" stroke="#60C87D" stroke-linecap="round" stroke-linejoin="round"/>
<path d="M559.62 125.232L546.818 128.662L547.177 122.686L556.321 120.235L559.62 125.232Z" stroke="#60C87D" stroke-linecap="round" stroke-linejoin="round"/>
<path d="M537.891 117.332L539.72 116.842" stroke="#60C87D" stroke-linecap="round" stroke-linejoin="round"/>
<path d="M543.379 115.859L545.208 115.369" stroke="#60C87D" stroke-linecap="round" stroke-linejoin="round"/>
<path d="M554.352 112.922L556.18 112.432" stroke="#60C87D" stroke-linecap="round" stroke-linejoin="round"/>
<path d="M559.836 111.449L561.665 110.959" stroke="#60C87D" stroke-linecap="round" stroke-linejoin="round"/>
<path d="M548.863 114.391L550.692 113.901" stroke="#60C87D" stroke-linecap="round" stroke-linejoin="round"/>
<path d="M537.043 121.48L538.872 120.99" stroke="#60C87D" stroke-linecap="round" stroke-linejoin="round"/>
<path d="M542.527 120.008L558.987 115.597" stroke="#60C87D" stroke-linecap="round" stroke-linejoin="round"/>
<path d="M562.645 114.617L564.473 114.127" stroke="#60C87D" stroke-linecap="round" stroke-linejoin="round"/>
</g>
<g clip-path="url(#clip9_17908_75898)">
<path d="M554.324 233.524L530.548 239.895C528.528 240.436 527.329 242.513 527.871 244.533L531.791 259.164C532.332 261.184 534.409 262.383 536.429 261.842L560.205 255.471C562.225 254.93 563.424 252.853 562.882 250.833L558.962 236.202C558.421 234.182 556.344 232.983 554.324 233.524Z" stroke="#60C87D" stroke-linecap="round" stroke-linejoin="round"/>
<path d="M573.28 268.225C573.499 268.545 573.639 268.912 573.686 269.297C573.734 269.682 573.689 270.073 573.554 270.437C573.42 270.8 573.2 271.127 572.914 271.388C572.627 271.649 572.282 271.838 571.907 271.939L534.528 281.954C534.154 282.055 533.76 282.064 533.382 281.981C533.003 281.898 532.649 281.725 532.351 281.477C532.053 281.229 531.818 280.914 531.667 280.556C531.516 280.199 531.453 279.811 531.482 279.424L532.478 266.599C532.564 265.494 532.99 264.444 533.698 263.592C534.405 262.741 535.36 262.129 536.429 261.843L560.205 255.472C561.275 255.185 562.407 255.237 563.445 255.621C564.484 256.005 565.378 256.702 566.003 257.615L573.28 268.225Z" stroke="#60C87D" stroke-linecap="round" stroke-linejoin="round"/>
<path d="M559.62 275.232L546.818 278.662L547.177 272.686L556.321 270.235L559.62 275.232Z" stroke="#60C87D" stroke-linecap="round" stroke-linejoin="round"/>
<path d="M537.891 267.332L539.72 266.842" stroke="#60C87D" stroke-linecap="round" stroke-linejoin="round"/>
<path d="M543.379 265.859L545.208 265.369" stroke="#60C87D" stroke-linecap="round" stroke-linejoin="round"/>
<path d="M554.352 262.922L556.18 262.432" stroke="#60C87D" stroke-linecap="round" stroke-linejoin="round"/>
<path d="M559.836 261.449L561.665 260.959" stroke="#60C87D" stroke-linecap="round" stroke-linejoin="round"/>
<path d="M548.863 264.391L550.692 263.901" stroke="#60C87D" stroke-linecap="round" stroke-linejoin="round"/>
<path d="M537.043 271.48L538.872 270.99" stroke="#60C87D" stroke-linecap="round" stroke-linejoin="round"/>
<path d="M542.527 270.008L558.987 265.597" stroke="#60C87D" stroke-linecap="round" stroke-linejoin="round"/>
<path d="M562.645 264.617L564.473 264.127" stroke="#60C87D" stroke-linecap="round" stroke-linejoin="round"/>
</g>
<g clip-path="url(#clip10_17908_75898)">
<path d="M508.272 16.1888C508.272 15.802 508.118 15.4311 507.845 15.1576C507.572 14.8841 507.201 14.7305 506.814 14.7305H479.709C479.322 14.7306 478.952 14.8843 478.678 15.1578L475.158 18.6782C474.884 18.9516 474.731 19.3225 474.73 19.7092V46.8138C474.73 47.2006 474.884 47.5715 475.158 47.845C475.431 48.1185 475.802 48.2721 476.189 48.2721H506.814C507.201 48.2721 507.572 48.1185 507.845 47.845C508.118 47.5715 508.272 47.2006 508.272 46.8138V16.1888Z" stroke="#60C87D" stroke-linecap="round" stroke-linejoin="round"/>
<path d="M502.438 14.7305H480.562V22.0221H502.438V14.7305Z" stroke="#60C87D" stroke-linecap="round" stroke-linejoin="round"/>
<path d="M502.438 43.8945H480.562V48.2695H502.438V43.8945Z" stroke="#60C87D" stroke-linecap="round" stroke-linejoin="round"/>
<path d="M491.501 36.6042C494.723 36.6042 497.335 33.9925 497.335 30.7708C497.335 27.5492 494.723 24.9375 491.501 24.9375C488.28 24.9375 485.668 27.5492 485.668 30.7708C485.668 33.9925 488.28 36.6042 491.501 36.6042Z" stroke="#60C87D" stroke-linecap="round" stroke-linejoin="round"/>
<path d="M495.145 40.9805H502.436" stroke="#60C87D" stroke-linecap="round" stroke-linejoin="round"/>
<path d="M488.582 29.3125V32.2292" stroke="#60C87D" stroke-linecap="round" stroke-linejoin="round"/>
<path d="M491.501 30.4062C491.573 30.4062 491.644 30.4276 491.704 30.4677C491.764 30.5078 491.811 30.5647 491.838 30.6313C491.866 30.6979 491.873 30.7712 491.859 30.842C491.845 30.9127 491.81 30.9776 491.759 31.0286C491.708 31.0796 491.643 31.1143 491.572 31.1284C491.502 31.1425 491.428 31.1353 491.362 31.1077C491.295 31.0801 491.238 31.0333 491.198 30.9734C491.158 30.9134 491.137 30.8429 491.137 30.7708C491.137 30.6741 491.175 30.5814 491.244 30.513C491.312 30.4447 491.405 30.4062 491.501 30.4062Z" stroke="#60C87D" stroke-linecap="round" stroke-linejoin="round"/>
</g>
<g clip-path="url(#clip11_17908_75898)">
<path d="M508.272 166.189C508.272 165.802 508.118 165.431 507.845 165.158C507.572 164.884 507.201 164.73 506.814 164.73H479.709C479.322 164.731 478.952 164.884 478.678 165.158L475.158 168.678C474.884 168.952 474.731 169.322 474.73 169.709V196.814C474.73 197.201 474.884 197.572 475.158 197.845C475.431 198.118 475.802 198.272 476.189 198.272H506.814C507.201 198.272 507.572 198.118 507.845 197.845C508.118 197.572 508.272 197.201 508.272 196.814V166.189Z" stroke="#60C87D" stroke-linecap="round" stroke-linejoin="round"/>
<path d="M502.438 164.73H480.562V172.022H502.438V164.73Z" stroke="#60C87D" stroke-linecap="round" stroke-linejoin="round"/>
<path d="M502.438 193.895H480.562V198.27H502.438V193.895Z" stroke="#60C87D" stroke-linecap="round" stroke-linejoin="round"/>
<path d="M491.501 186.604C494.723 186.604 497.335 183.992 497.335 180.771C497.335 177.549 494.723 174.938 491.501 174.938C488.28 174.938 485.668 177.549 485.668 180.771C485.668 183.992 488.28 186.604 491.501 186.604Z" stroke="#60C87D" stroke-linecap="round" stroke-linejoin="round"/>
<path d="M495.145 190.98H502.436" stroke="#60C87D" stroke-linecap="round" stroke-linejoin="round"/>
<path d="M488.582 179.312V182.229" stroke="#60C87D" stroke-linecap="round" stroke-linejoin="round"/>
<path d="M491.501 180.406C491.573 180.406 491.644 180.428 491.704 180.468C491.764 180.508 491.811 180.565 491.838 180.631C491.866 180.698 491.873 180.771 491.859 180.842C491.845 180.913 491.81 180.978 491.759 181.029C491.708 181.08 491.643 181.114 491.572 181.128C491.502 181.142 491.428 181.135 491.362 181.108C491.295 181.08 491.238 181.033 491.198 180.973C491.158 180.913 491.137 180.843 491.137 180.771C491.137 180.674 491.175 180.581 491.244 180.513C491.312 180.445 491.405 180.406 491.501 180.406Z" stroke="#60C87D" stroke-linecap="round" stroke-linejoin="round"/>
</g>
<g clip-path="url(#clip12_17908_75898)">
<path d="M34.2721 93.1888C34.2721 92.802 34.1185 92.4311 33.845 92.1576C33.5715 91.8841 33.2006 91.7305 32.8138 91.7305H5.70922C5.32248 91.7306 4.9516 91.8843 4.67818 92.1578L1.15776 95.6782C0.884251 95.9516 0.730551 96.3225 0.730469 96.7092V123.814C0.730469 124.201 0.884114 124.572 1.1576 124.845C1.4311 125.118 1.80203 125.272 2.1888 125.272H32.8138C33.2006 125.272 33.5715 125.118 33.845 124.845C34.1185 124.572 34.2721 124.201 34.2721 123.814V93.1888Z" stroke="#60C87D" stroke-linecap="round" stroke-linejoin="round"/>
<path d="M28.4375 91.7305H6.5625V99.0221H28.4375V91.7305Z" stroke="#60C87D" stroke-linecap="round" stroke-linejoin="round"/>
<path d="M28.4375 120.895H6.5625V125.27H28.4375V120.895Z" stroke="#60C87D" stroke-linecap="round" stroke-linejoin="round"/>
<path d="M17.5013 113.604C20.723 113.604 23.3346 110.992 23.3346 107.771C23.3346 104.549 20.723 101.938 17.5013 101.938C14.2796 101.938 11.668 104.549 11.668 107.771C11.668 110.992 14.2796 113.604 17.5013 113.604Z" stroke="#60C87D" stroke-linecap="round" stroke-linejoin="round"/>
<path d="M21.1445 117.98H28.4362" stroke="#60C87D" stroke-linecap="round" stroke-linejoin="round"/>
<path d="M14.582 106.312V109.229" stroke="#60C87D" stroke-linecap="round" stroke-linejoin="round"/>
<path d="M17.5013 107.406C17.5734 107.406 17.6439 107.428 17.7039 107.468C17.7638 107.508 17.8105 107.565 17.8381 107.631C17.8657 107.698 17.8729 107.771 17.8589 107.842C17.8448 107.913 17.8101 107.978 17.7591 108.029C17.7081 108.08 17.6432 108.114 17.5724 108.128C17.5017 108.142 17.4284 108.135 17.3618 108.108C17.2952 108.08 17.2382 108.033 17.1982 107.973C17.1581 107.913 17.1367 107.843 17.1367 107.771C17.1367 107.674 17.1751 107.581 17.2435 107.513C17.3119 107.445 17.4046 107.406 17.5013 107.406Z" stroke="#60C87D" stroke-linecap="round" stroke-linejoin="round"/>
</g>
<g clip-path="url(#clip13_17908_75898)">
<path d="M34.2721 243.189C34.2721 242.802 34.1185 242.431 33.845 242.158C33.5715 241.884 33.2006 241.73 32.8138 241.73H5.70922C5.32248 241.731 4.9516 241.884 4.67818 242.158L1.15776 245.678C0.884251 245.952 0.730551 246.322 0.730469 246.709V273.814C0.730469 274.201 0.884114 274.572 1.1576 274.845C1.4311 275.118 1.80203 275.272 2.1888 275.272H32.8138C33.2006 275.272 33.5715 275.118 33.845 274.845C34.1185 274.572 34.2721 274.201 34.2721 273.814V243.189Z" stroke="#60C87D" stroke-linecap="round" stroke-linejoin="round"/>
<path d="M28.4375 241.73H6.5625V249.022H28.4375V241.73Z" stroke="#60C87D" stroke-linecap="round" stroke-linejoin="round"/>
<path d="M28.4375 270.895H6.5625V275.27H28.4375V270.895Z" stroke="#60C87D" stroke-linecap="round" stroke-linejoin="round"/>
<path d="M17.5013 263.604C20.723 263.604 23.3346 260.992 23.3346 257.771C23.3346 254.549 20.723 251.938 17.5013 251.938C14.2796 251.938 11.668 254.549 11.668 257.771C11.668 260.992 14.2796 263.604 17.5013 263.604Z" stroke="#60C87D" stroke-linecap="round" stroke-linejoin="round"/>
<path d="M21.1445 267.98H28.4362" stroke="#60C87D" stroke-linecap="round" stroke-linejoin="round"/>
<path d="M14.582 256.312V259.229" stroke="#60C87D" stroke-linecap="round" stroke-linejoin="round"/>
<path d="M17.5013 257.406C17.5734 257.406 17.6439 257.428 17.7039 257.468C17.7638 257.508 17.8105 257.565 17.8381 257.631C17.8657 257.698 17.8729 257.771 17.8589 257.842C17.8448 257.913 17.8101 257.978 17.7591 258.029C17.7081 258.08 17.6432 258.114 17.5724 258.128C17.5017 258.142 17.4284 258.135 17.3618 258.108C17.2952 258.08 17.2382 258.033 17.1982 257.973C17.1581 257.913 17.1367 257.843 17.1367 257.771C17.1367 257.674 17.1751 257.581 17.2435 257.513C17.3119 257.445 17.4046 257.406 17.5013 257.406Z" stroke="#60C87D" stroke-linecap="round" stroke-linejoin="round"/>
</g>
<g clip-path="url(#clip14_17908_75898)">
<path d="M252.625 45.625H256.792" stroke="#60C87D" stroke-linecap="round" stroke-linejoin="round"/>
<path d="M266.168 49.8034H241.168C240.339 49.7968 239.547 49.4641 238.962 48.8772C238.377 48.2903 238.047 47.4966 238.043 46.668V9.16797C238.046 8.34001 238.376 7.54675 238.961 6.96129C239.547 6.37584 240.34 6.04571 241.168 6.04297H268.251C269.08 6.04297 269.875 6.37221 270.461 6.95826C271.047 7.54431 271.376 8.33917 271.376 9.16797V37.293" stroke="#60C87D" stroke-linecap="round" stroke-linejoin="round"/>
<path d="M268.73 41.457H243.249C242.972 41.457 242.707 41.3473 242.512 41.1519C242.317 40.9566 242.207 40.6916 242.207 40.4154V11.2487C242.207 10.9724 242.317 10.7075 242.512 10.5121C242.707 10.3168 242.972 10.207 243.249 10.207H266.165C266.442 10.207 266.707 10.3168 266.902 10.5121C267.097 10.7075 267.207 10.9724 267.207 11.2487V34.0341" stroke="#60C87D" stroke-linecap="round" stroke-linejoin="round"/>
<path d="M285.958 53.957L279.708 45.6237V36.1258C279.708 32.5966 275.373 29.2508 271.375 25.832" stroke="#60C87D" stroke-linecap="round" stroke-linejoin="round"/>
<path d="M273.459 39.3735L268.772 34.686C268.357 34.2718 267.795 34.0391 267.209 34.0391C266.623 34.0391 266.061 34.2718 265.647 34.686C265.308 35.1365 265.125 35.6848 265.125 36.2485C265.125 36.8121 265.308 37.3605 265.647 37.811L271.376 44.5818V46.6651C271.376 48.7485 275.543 53.9568 275.543 53.9568" stroke="#60C87D" stroke-linecap="round" stroke-linejoin="round"/>
<path d="M248.457 31.043H260.957" stroke="#60C87D" stroke-linecap="round" stroke-linejoin="round"/>
<path d="M248.457 24.793H260.957" stroke="#60C87D" stroke-linecap="round" stroke-linejoin="round"/>
<path d="M248.457 18.543H256.79" stroke="#60C87D" stroke-linecap="round" stroke-linejoin="round"/>
</g>
<g clip-path="url(#clip15_17908_75898)">
<path d="M252.625 195.625H256.792" stroke="#60C87D" stroke-linecap="round" stroke-linejoin="round"/>
<path d="M266.168 199.803H241.168C240.339 199.797 239.547 199.464 238.962 198.877C238.377 198.29 238.047 197.497 238.043 196.668V159.168C238.046 158.34 238.376 157.547 238.961 156.961C239.547 156.376 240.34 156.046 241.168 156.043H268.251C269.08 156.043 269.875 156.372 270.461 156.958C271.047 157.544 271.376 158.339 271.376 159.168V187.293" stroke="#60C87D" stroke-linecap="round" stroke-linejoin="round"/>
<path d="M268.73 191.457H243.249C242.972 191.457 242.707 191.347 242.512 191.152C242.317 190.957 242.207 190.692 242.207 190.415V161.249C242.207 160.972 242.317 160.707 242.512 160.512C242.707 160.317 242.972 160.207 243.249 160.207H266.165C266.442 160.207 266.707 160.317 266.902 160.512C267.097 160.707 267.207 160.972 267.207 161.249V184.034" stroke="#60C87D" stroke-linecap="round" stroke-linejoin="round"/>
<path d="M285.958 203.957L279.708 195.624V186.126C279.708 182.597 275.373 179.251 271.375 175.832" stroke="#60C87D" stroke-linecap="round" stroke-linejoin="round"/>
<path d="M273.459 189.373L268.772 184.686C268.357 184.272 267.795 184.039 267.209 184.039C266.623 184.039 266.061 184.272 265.647 184.686C265.308 185.136 265.125 185.685 265.125 186.248C265.125 186.812 265.308 187.36 265.647 187.811L271.376 194.582V196.665C271.376 198.748 275.543 203.957 275.543 203.957" stroke="#60C87D" stroke-linecap="round" stroke-linejoin="round"/>
<path d="M248.457 181.043H260.957" stroke="#60C87D" stroke-linecap="round" stroke-linejoin="round"/>
<path d="M248.457 174.793H260.957" stroke="#60C87D" stroke-linecap="round" stroke-linejoin="round"/>
<path d="M248.457 168.543H256.79" stroke="#60C87D" stroke-linecap="round" stroke-linejoin="round"/>
</g>
<g clip-path="url(#clip16_17908_75898)">
<path d="M439.625 126.625H443.792" stroke="#60C87D" stroke-linecap="round" stroke-linejoin="round"/>
<path d="M453.168 130.803H428.168C427.339 130.797 426.547 130.464 425.962 129.877C425.377 129.29 425.047 128.497 425.043 127.668V90.168C425.046 89.34 425.376 88.5468 425.961 87.9613C426.547 87.3758 427.34 87.0457 428.168 87.043H455.251C456.08 87.043 456.875 87.3722 457.461 87.9583C458.047 88.5443 458.376 89.3392 458.376 90.168V118.293" stroke="#60C87D" stroke-linecap="round" stroke-linejoin="round"/>
<path d="M455.73 122.457H430.249C429.972 122.457 429.707 122.347 429.512 122.152C429.317 121.957 429.207 121.692 429.207 121.415V92.2487C429.207 91.9724 429.317 91.7075 429.512 91.5121C429.707 91.3168 429.972 91.207 430.249 91.207H453.165C453.442 91.207 453.707 91.3168 453.902 91.5121C454.097 91.7075 454.207 91.9724 454.207 92.2487V115.034" stroke="#60C87D" stroke-linecap="round" stroke-linejoin="round"/>
<path d="M472.958 134.957L466.708 126.624V117.126C466.708 113.597 462.373 110.251 458.375 106.832" stroke="#60C87D" stroke-linecap="round" stroke-linejoin="round"/>
<path d="M460.459 120.373L455.772 115.686C455.357 115.272 454.795 115.039 454.209 115.039C453.623 115.039 453.061 115.272 452.647 115.686C452.308 116.136 452.125 116.685 452.125 117.248C452.125 117.812 452.308 118.36 452.647 118.811L458.376 125.582V127.665C458.376 129.748 462.543 134.957 462.543 134.957" stroke="#60C87D" stroke-linecap="round" stroke-linejoin="round"/>
<path d="M435.457 112.043H447.957" stroke="#60C87D" stroke-linecap="round" stroke-linejoin="round"/>
<path d="M435.457 105.793H447.957" stroke="#60C87D" stroke-linecap="round" stroke-linejoin="round"/>
<path d="M435.457 99.543H443.79" stroke="#60C87D" stroke-linecap="round" stroke-linejoin="round"/>
</g>
<g clip-path="url(#clip17_17908_75898)">
<path d="M439.625 276.625H443.792" stroke="#60C87D" stroke-linecap="round" stroke-linejoin="round"/>
<path d="M453.168 280.803H428.168C427.339 280.797 426.547 280.464 425.962 279.877C425.377 279.29 425.047 278.497 425.043 277.668V240.168C425.046 239.34 425.376 238.547 425.961 237.961C426.547 237.376 427.34 237.046 428.168 237.043H455.251C456.08 237.043 456.875 237.372 457.461 237.958C458.047 238.544 458.376 239.339 458.376 240.168V268.293" stroke="#60C87D" stroke-linecap="round" stroke-linejoin="round"/>
<path d="M455.73 272.457H430.249C429.972 272.457 429.707 272.347 429.512 272.152C429.317 271.957 429.207 271.692 429.207 271.415V242.249C429.207 241.972 429.317 241.707 429.512 241.512C429.707 241.317 429.972 241.207 430.249 241.207H453.165C453.442 241.207 453.707 241.317 453.902 241.512C454.097 241.707 454.207 241.972 454.207 242.249V265.034" stroke="#60C87D" stroke-linecap="round" stroke-linejoin="round"/>
<path d="M472.958 284.957L466.708 276.624V267.126C466.708 263.597 462.373 260.251 458.375 256.832" stroke="#60C87D" stroke-linecap="round" stroke-linejoin="round"/>
<path d="M460.459 270.373L455.772 265.686C455.357 265.272 454.795 265.039 454.209 265.039C453.623 265.039 453.061 265.272 452.647 265.686C452.308 266.136 452.125 266.685 452.125 267.248C452.125 267.812 452.308 268.36 452.647 268.811L458.376 275.582V277.665C458.376 279.748 462.543 284.957 462.543 284.957" stroke="#60C87D" stroke-linecap="round" stroke-linejoin="round"/>
<path d="M435.457 262.043H447.957" stroke="#60C87D" stroke-linecap="round" stroke-linejoin="round"/>
<path d="M435.457 255.793H447.957" stroke="#60C87D" stroke-linecap="round" stroke-linejoin="round"/>
<path d="M435.457 249.543H443.79" stroke="#60C87D" stroke-linecap="round" stroke-linejoin="round"/>
</g>
<g clip-path="url(#clip18_17908_75898)">
<path d="M651 119H655" stroke="#60C87D" stroke-linecap="round" stroke-linejoin="round"/>
<path d="M664 123.01H640C639.205 123.004 638.444 122.684 637.882 122.121C637.321 121.557 637.004 120.795 637 120V84C637.003 83.2052 637.32 82.4436 637.882 81.8816C638.444 81.3196 639.205 81.0026 640 81H666C666.796 81 667.559 81.3161 668.121 81.8787C668.684 82.4413 669 83.2044 669 84V111" stroke="#60C87D" stroke-linecap="round" stroke-linejoin="round"/>
<path d="M666.462 115H642C641.735 115 641.48 114.895 641.293 114.707C641.105 114.52 641 114.265 641 114V86C641 85.7348 641.105 85.4804 641.293 85.2929C641.48 85.1054 641.735 85 642 85H664C664.265 85 664.52 85.1054 664.707 85.2929C664.895 85.4804 665 85.7348 665 86V107.874" stroke="#60C87D" stroke-linecap="round" stroke-linejoin="round"/>
<path d="M683 127L677 119V109.882C677 106.494 672.838 103.282 669 100" stroke="#60C87D" stroke-linecap="round" stroke-linejoin="round"/>
<path d="M671.001 113L666.501 108.5C666.103 108.102 665.564 107.879 665.001 107.879C664.438 107.879 663.899 108.102 663.501 108.5C663.176 108.932 663 109.459 663 110C663 110.541 663.176 111.067 663.501 111.5L669.001 118V120C669.001 122 673.001 127 673.001 127" stroke="#60C87D" stroke-linecap="round" stroke-linejoin="round"/>
<path d="M647 105H659" stroke="#60C87D" stroke-linecap="round" stroke-linejoin="round"/>
<path d="M647 99H659" stroke="#60C87D" stroke-linecap="round" stroke-linejoin="round"/>
<path d="M647 93H655" stroke="#60C87D" stroke-linecap="round" stroke-linejoin="round"/>
</g>
<g clip-path="url(#clip19_17908_75898)">
<path d="M651 269H655" stroke="#60C87D" stroke-linecap="round" stroke-linejoin="round"/>
<path d="M664 273.01H640C639.205 273.004 638.444 272.684 637.882 272.121C637.321 271.557 637.004 270.795 637 270V234C637.003 233.205 637.32 232.444 637.882 231.882C638.444 231.32 639.205 231.003 640 231H666C666.796 231 667.559 231.316 668.121 231.879C668.684 232.441 669 233.204 669 234V261" stroke="#60C87D" stroke-linecap="round" stroke-linejoin="round"/>
<path d="M666.462 265H642C641.735 265 641.48 264.895 641.293 264.707C641.105 264.52 641 264.265 641 264V236C641 235.735 641.105 235.48 641.293 235.293C641.48 235.105 641.735 235 642 235H664C664.265 235 664.52 235.105 664.707 235.293C664.895 235.48 665 235.735 665 236V257.874" stroke="#60C87D" stroke-linecap="round" stroke-linejoin="round"/>
<path d="M683 277L677 269V259.882C677 256.494 672.838 253.282 669 250" stroke="#60C87D" stroke-linecap="round" stroke-linejoin="round"/>
<path d="M671.001 263L666.501 258.5C666.103 258.102 665.564 257.879 665.001 257.879C664.438 257.879 663.899 258.102 663.501 258.5C663.176 258.932 663 259.459 663 260C663 260.541 663.176 261.067 663.501 261.5L669.001 268V270C669.001 272 673.001 277 673.001 277" stroke="#60C87D" stroke-linecap="round" stroke-linejoin="round"/>
<path d="M647 255H659" stroke="#60C87D" stroke-linecap="round" stroke-linejoin="round"/>
<path d="M647 249H659" stroke="#60C87D" stroke-linecap="round" stroke-linejoin="round"/>
<path d="M647 243H655" stroke="#60C87D" stroke-linecap="round" stroke-linejoin="round"/>
</g>
<g clip-path="url(#clip20_17908_75898)">
<path d="M80.4922 111.273L83.9563 113.273" stroke="#60C87D" stroke-linecap="round" stroke-linejoin="round"/>
<path d="M89.7449 121.249L68.9603 109.249C68.2745 108.846 67.7753 108.189 67.5707 107.42C67.3661 106.651 67.4726 105.833 67.8672 105.142L85.8672 73.9653C86.2669 73.2782 86.9221 72.7772 87.6899 72.5715C88.4576 72.3657 89.2756 72.4721 89.9653 72.8672L112.482 85.8672C113.171 86.265 113.674 86.9203 113.88 87.6888C114.086 88.4573 113.978 89.2762 113.58 89.9653L100.08 113.348" stroke="#60C87D" stroke-linecap="round" stroke-linejoin="round"/>
<path d="M95.8828 115.544L74.6981 103.313C74.4684 103.18 74.3008 102.962 74.2321 102.706C74.1635 102.449 74.1994 102.176 74.332 101.947L88.332 77.6981C88.4646 77.4684 88.6831 77.3008 88.9392 77.2321C89.1954 77.1635 89.4684 77.1994 89.6981 77.332L108.751 88.332C108.98 88.4646 109.148 88.6831 109.217 88.9392C109.285 89.1954 109.249 89.4684 109.117 89.6981L98.1796 108.641" stroke="#60C87D" stroke-linecap="round" stroke-linejoin="round"/>
<path d="M104.202 134.203L103.006 124.275L107.565 116.378C109.259 113.444 107.261 108.582 105.578 103.82" stroke="#60C87D" stroke-linecap="round" stroke-linejoin="round"/>
<path d="M100.81 116.08L99.1628 109.933C99.0171 109.39 98.6615 108.926 98.1743 108.645C97.6871 108.364 97.1082 108.287 96.5648 108.433C96.0669 108.645 95.6514 109.013 95.3809 109.481C95.1103 109.95 94.9994 110.494 95.0648 111.031L96.5779 119.41L95.5779 121.142C94.5779 122.874 95.542 129.204 95.542 129.204" stroke="#60C87D" stroke-linecap="round" stroke-linejoin="round"/>
<path d="M84.0273 97.1523L94.4196 103.152" stroke="#60C87D" stroke-linecap="round" stroke-linejoin="round"/>
<path d="M87.0273 91.9531L97.4196 97.9531" stroke="#60C87D" stroke-linecap="round" stroke-linejoin="round"/>
<path d="M90.0273 86.7578L96.9555 90.7578" stroke="#60C87D" stroke-linecap="round" stroke-linejoin="round"/>
</g>
<g clip-path="url(#clip21_17908_75898)">
<path d="M80.4922 261.273L83.9563 263.273" stroke="#60C87D" stroke-linecap="round" stroke-linejoin="round"/>
<path d="M89.7449 271.249L68.9603 259.249C68.2745 258.846 67.7753 258.189 67.5707 257.42C67.3661 256.651 67.4726 255.833 67.8672 255.142L85.8672 223.965C86.2669 223.278 86.9221 222.777 87.6899 222.571C88.4576 222.366 89.2756 222.472 89.9653 222.867L112.482 235.867C113.171 236.265 113.674 236.92 113.88 237.689C114.086 238.457 113.978 239.276 113.58 239.965L100.08 263.348" stroke="#60C87D" stroke-linecap="round" stroke-linejoin="round"/>
<path d="M95.8828 265.544L74.6981 253.313C74.4684 253.18 74.3008 252.962 74.2321 252.706C74.1635 252.449 74.1994 252.176 74.332 251.947L88.332 227.698C88.4646 227.468 88.6831 227.301 88.9392 227.232C89.1954 227.163 89.4684 227.199 89.6981 227.332L108.751 238.332C108.98 238.465 109.148 238.683 109.217 238.939C109.285 239.195 109.249 239.468 109.117 239.698L98.1796 258.641" stroke="#60C87D" stroke-linecap="round" stroke-linejoin="round"/>
<path d="M104.202 284.203L103.006 274.275L107.565 266.378C109.259 263.444 107.261 258.582 105.578 253.82" stroke="#60C87D" stroke-linecap="round" stroke-linejoin="round"/>
<path d="M100.81 266.08L99.1628 259.933C99.0171 259.39 98.6615 258.926 98.1743 258.645C97.6871 258.364 97.1082 258.287 96.5648 258.433C96.0669 258.645 95.6514 259.013 95.3809 259.481C95.1103 259.95 94.9994 260.494 95.0648 261.031L96.5779 269.41L95.5779 271.142C94.5779 272.874 95.542 279.204 95.542 279.204" stroke="#60C87D" stroke-linecap="round" stroke-linejoin="round"/>
<path d="M84.0273 247.152L94.4196 253.152" stroke="#60C87D" stroke-linecap="round" stroke-linejoin="round"/>
<path d="M87.0273 241.953L97.4196 247.953" stroke="#60C87D" stroke-linecap="round" stroke-linejoin="round"/>
<path d="M90.0273 236.758L96.9555 240.758" stroke="#60C87D" stroke-linecap="round" stroke-linejoin="round"/>
</g>
<g clip-path="url(#clip22_17908_75898)">
<path d="M593.688 46.1875H596.271" stroke="#60C87D" stroke-linecap="round" stroke-linejoin="round"/>
<path d="M602.082 48.776H586.582C586.068 48.7719 585.577 48.5656 585.214 48.2017C584.852 47.8379 584.647 47.3458 584.645 46.832V23.582C584.646 23.0687 584.851 22.5769 585.214 22.2139C585.577 21.8509 586.069 21.6462 586.582 21.6445H603.374C603.888 21.6445 604.38 21.8487 604.744 22.212C605.107 22.5754 605.311 23.0682 605.311 23.582V41.0195" stroke="#60C87D" stroke-linecap="round" stroke-linejoin="round"/>
<path d="M603.675 43.6055H587.876C587.705 43.6055 587.541 43.5374 587.42 43.4163C587.299 43.2952 587.23 43.1309 587.23 42.9596V24.8763C587.23 24.705 587.299 24.5407 587.42 24.4196C587.541 24.2985 587.705 24.2305 587.876 24.2305H602.085C602.256 24.2305 602.42 24.2985 602.541 24.4196C602.662 24.5407 602.73 24.705 602.73 24.8763V39.0033" stroke="#60C87D" stroke-linecap="round" stroke-linejoin="round"/>
<path d="M614.354 51.3555L610.479 46.1888V40.3001C610.479 38.112 607.791 36.0376 605.312 33.918" stroke="#60C87D" stroke-linecap="round" stroke-linejoin="round"/>
<path d="M606.605 42.3112L603.699 39.405C603.442 39.1482 603.093 39.0039 602.73 39.0039C602.366 39.0039 602.018 39.1482 601.761 39.405C601.551 39.6843 601.438 40.0243 601.438 40.3737C601.438 40.7232 601.551 41.0632 601.761 41.3425L605.313 45.5404V46.8321C605.313 48.1237 607.896 51.3529 607.896 51.3529" stroke="#60C87D" stroke-linecap="round" stroke-linejoin="round"/>
<path d="M591.105 37.1445H598.855" stroke="#60C87D" stroke-linecap="round" stroke-linejoin="round"/>
<path d="M591.105 33.2695H598.855" stroke="#60C87D" stroke-linecap="round" stroke-linejoin="round"/>
<path d="M591.105 29.3945H596.272" stroke="#60C87D" stroke-linecap="round" stroke-linejoin="round"/>
</g>
<g clip-path="url(#clip23_17908_75898)">
<path d="M593.688 196.188H596.271" stroke="#60C87D" stroke-linecap="round" stroke-linejoin="round"/>
<path d="M602.082 198.776H586.582C586.068 198.772 585.577 198.566 585.214 198.202C584.852 197.838 584.647 197.346 584.645 196.832V173.582C584.646 173.069 584.851 172.577 585.214 172.214C585.577 171.851 586.069 171.646 586.582 171.645H603.374C603.888 171.645 604.38 171.849 604.744 172.212C605.107 172.575 605.311 173.068 605.311 173.582V191.02" stroke="#60C87D" stroke-linecap="round" stroke-linejoin="round"/>
<path d="M603.675 193.605H587.876C587.705 193.605 587.541 193.537 587.42 193.416C587.299 193.295 587.23 193.131 587.23 192.96V174.876C587.23 174.705 587.299 174.541 587.42 174.42C587.541 174.299 587.705 174.23 587.876 174.23H602.085C602.256 174.23 602.42 174.299 602.541 174.42C602.662 174.541 602.73 174.705 602.73 174.876V189.003" stroke="#60C87D" stroke-linecap="round" stroke-linejoin="round"/>
<path d="M614.354 201.355L610.479 196.189V190.3C610.479 188.112 607.791 186.038 605.312 183.918" stroke="#60C87D" stroke-linecap="round" stroke-linejoin="round"/>
<path d="M606.605 192.311L603.699 189.405C603.442 189.148 603.093 189.004 602.73 189.004C602.366 189.004 602.018 189.148 601.761 189.405C601.551 189.684 601.438 190.024 601.438 190.374C601.438 190.723 601.551 191.063 601.761 191.342L605.313 195.54V196.832C605.313 198.124 607.896 201.353 607.896 201.353" stroke="#60C87D" stroke-linecap="round" stroke-linejoin="round"/>
<path d="M591.105 187.145H598.855" stroke="#60C87D" stroke-linecap="round" stroke-linejoin="round"/>
<path d="M591.105 183.27H598.855" stroke="#60C87D" stroke-linecap="round" stroke-linejoin="round"/>
<path d="M591.105 179.395H596.272" stroke="#60C87D" stroke-linecap="round" stroke-linejoin="round"/>
</g>
<g clip-path="url(#clip24_17908_75898)">
<path d="M169.043 49.457C169.043 52.7722 167.726 55.9517 165.382 58.2959C163.038 60.6401 159.858 61.957 156.543 61.957C153.228 61.957 150.048 60.6401 147.704 58.2959C145.36 55.9517 144.043 52.7722 144.043 49.457V30.707C144.043 29.0494 144.701 27.4597 145.874 26.2876C147.046 25.1155 148.635 24.457 150.293 24.457H162.793C164.451 24.457 166.04 25.1155 167.212 26.2876C168.384 27.4597 169.043 29.0494 169.043 30.707V49.457Z" stroke="#60C87D" stroke-linecap="round" stroke-linejoin="round"/>
<path d="M144.043 34.875H169.043" stroke="#60C87D" stroke-linecap="round" stroke-linejoin="round"/>
<path d="M156.543 34.8763V24.4596C156.543 21.697 157.64 19.0474 159.594 17.0939C161.547 15.1404 164.197 14.043 166.96 14.043C169.722 14.043 172.372 15.1404 174.325 17.0939C176.279 19.0474 177.376 21.697 177.376 24.4596V29.668C177.376 31.6018 178.145 33.4565 179.512 34.824C180.879 36.1914 182.734 36.9596 184.668 36.9596C186.602 36.9596 188.457 36.1914 189.824 34.824C191.191 33.4565 191.96 31.6018 191.96 29.668V14.043" stroke="#60C87D" stroke-linecap="round" stroke-linejoin="round"/>
</g>
<g clip-path="url(#clip25_17908_75898)">
<path d="M169.043 199.457C169.043 202.772 167.726 205.952 165.382 208.296C163.038 210.64 159.858 211.957 156.543 211.957C153.228 211.957 150.048 210.64 147.704 208.296C145.36 205.952 144.043 202.772 144.043 199.457V180.707C144.043 179.049 144.701 177.46 145.874 176.288C147.046 175.116 148.635 174.457 150.293 174.457H162.793C164.451 174.457 166.04 175.116 167.212 176.288C168.384 177.46 169.043 179.049 169.043 180.707V199.457Z" stroke="#60C87D" stroke-linecap="round" stroke-linejoin="round"/>
<path d="M144.043 184.875H169.043" stroke="#60C87D" stroke-linecap="round" stroke-linejoin="round"/>
<path d="M156.543 184.876V174.46C156.543 171.697 157.64 169.047 159.594 167.094C161.547 165.14 164.197 164.043 166.96 164.043C169.722 164.043 172.372 165.14 174.325 167.094C176.279 169.047 177.376 171.697 177.376 174.46V179.668C177.376 181.602 178.145 183.456 179.512 184.824C180.879 186.191 182.734 186.96 184.668 186.96C186.602 186.96 188.457 186.191 189.824 184.824C191.191 183.456 191.96 181.602 191.96 179.668V164.043" stroke="#60C87D" stroke-linecap="round" stroke-linejoin="round"/>
</g>
<g clip-path="url(#clip26_17908_75898)">
<path d="M49.5625 42.1875C49.5625 45.569 48.2192 48.812 45.8281 51.2031C43.437 53.5942 40.194 54.9375 36.8125 54.9375C33.431 54.9375 30.188 53.5942 27.7969 51.2031C25.4058 48.812 24.0625 45.569 24.0625 42.1875V23.0625C24.0625 21.3717 24.7341 19.7502 25.9297 18.5547C27.1252 17.3592 28.7467 16.6875 30.4375 16.6875H43.1875C44.8782 16.6875 46.4998 17.3592 47.6953 18.5547C48.8908 19.7502 49.5625 21.3717 49.5625 23.0625V42.1875Z" stroke="#60C87D" stroke-linecap="round" stroke-linejoin="round"/>
<path d="M24.0625 27.3125H49.5625" stroke="#60C87D" stroke-linecap="round" stroke-linejoin="round"/>
<path d="M36.8125 27.3125V16.6875C36.8125 13.8696 37.9319 11.1671 39.9245 9.17449C41.9171 7.18192 44.6196 6.0625 47.4375 6.0625C50.2554 6.0625 52.9579 7.18192 54.9505 9.17449C56.9431 11.1671 58.0625 13.8696 58.0625 16.6875V22C58.0625 23.9725 58.8461 25.8643 60.2409 27.2591C61.6357 28.6539 63.5275 29.4375 65.5 29.4375C67.4725 29.4375 69.3643 28.6539 70.7591 27.2591C72.1539 25.8643 72.9375 23.9725 72.9375 22V6.0625" stroke="#60C87D" stroke-linecap="round" stroke-linejoin="round"/>
</g>
<g clip-path="url(#clip27_17908_75898)">
<path d="M49.5625 192.188C49.5625 195.569 48.2192 198.812 45.8281 201.203C43.437 203.594 40.194 204.938 36.8125 204.938C33.431 204.938 30.188 203.594 27.7969 201.203C25.4058 198.812 24.0625 195.569 24.0625 192.188V173.062C24.0625 171.372 24.7341 169.75 25.9297 168.555C27.1252 167.359 28.7467 166.688 30.4375 166.688H43.1875C44.8782 166.688 46.4998 167.359 47.6953 168.555C48.8908 169.75 49.5625 171.372 49.5625 173.062V192.188Z" stroke="#60C87D" stroke-linecap="round" stroke-linejoin="round"/>
<path d="M24.0625 177.312H49.5625" stroke="#60C87D" stroke-linecap="round" stroke-linejoin="round"/>
<path d="M36.8125 177.312V166.687C36.8125 163.87 37.9319 161.167 39.9245 159.174C41.9171 157.182 44.6196 156.062 47.4375 156.062C50.2554 156.062 52.9579 157.182 54.9505 159.174C56.9431 161.167 58.0625 163.87 58.0625 166.687V172C58.0625 173.973 58.8461 175.864 60.2409 177.259C61.6357 178.654 63.5275 179.437 65.5 179.437C67.4725 179.437 69.3643 178.654 70.7591 177.259C72.1539 175.864 72.9375 173.973 72.9375 172V156.062" stroke="#60C87D" stroke-linecap="round" stroke-linejoin="round"/>
</g>
<g clip-path="url(#clip28_17908_75898)">
<path d="M701.324 9.52424L677.548 15.8949C675.528 16.4362 674.329 18.5126 674.871 20.5328L678.791 35.1639C679.332 37.1841 681.409 38.3829 683.429 37.8416L707.205 31.471C709.225 30.9297 710.424 28.8532 709.882 26.8331L705.962 12.2019C705.421 10.1818 703.344 8.98295 701.324 9.52424Z" stroke="#60C87D" stroke-linecap="round" stroke-linejoin="round"/>
<path d="M720.28 44.2246C720.499 44.5445 720.639 44.9124 720.686 45.2973C720.734 45.6822 720.689 46.0729 720.554 46.4367C720.42 46.8005 720.2 47.1267 719.914 47.388C719.627 47.6493 719.282 47.8381 718.907 47.9385L681.528 57.9542C681.154 58.0545 680.76 58.0636 680.382 57.9806C680.003 57.8976 679.649 57.7249 679.351 57.4771C679.053 57.2293 678.818 56.9135 678.667 56.5563C678.516 56.1991 678.453 55.8109 678.482 55.4242L679.478 42.5985C679.564 41.4944 679.99 40.4441 680.698 39.5924C681.405 38.7406 682.36 38.1293 683.429 37.8428L707.205 31.4721C708.275 31.1853 709.407 31.2374 710.445 31.6213C711.484 32.0052 712.378 32.702 713.003 33.6154L720.28 44.2246Z" stroke="#60C87D" stroke-linecap="round" stroke-linejoin="round"/>
<path d="M706.62 51.2321L693.818 54.6625L694.177 48.6857L703.321 46.2355L706.62 51.2321Z" stroke="#60C87D" stroke-linecap="round" stroke-linejoin="round"/>
<path d="M684.891 43.332L686.72 42.842" stroke="#60C87D" stroke-linecap="round" stroke-linejoin="round"/>
<path d="M690.379 41.8594L692.208 41.3693" stroke="#60C87D" stroke-linecap="round" stroke-linejoin="round"/>
<path d="M701.352 38.9219L703.18 38.4318" stroke="#60C87D" stroke-linecap="round" stroke-linejoin="round"/>
<path d="M706.836 37.4492L708.665 36.9592" stroke="#60C87D" stroke-linecap="round" stroke-linejoin="round"/>
<path d="M695.863 40.3906L697.692 39.9006" stroke="#60C87D" stroke-linecap="round" stroke-linejoin="round"/>
<path d="M684.043 47.4805L685.872 46.9904" stroke="#60C87D" stroke-linecap="round" stroke-linejoin="round"/>
<path d="M689.527 46.0078L705.987 41.5974" stroke="#60C87D" stroke-linecap="round" stroke-linejoin="round"/>
<path d="M709.645 40.6172L711.473 40.1271" stroke="#60C87D" stroke-linecap="round" stroke-linejoin="round"/>
</g>
<g clip-path="url(#clip29_17908_75898)">
<path d="M701.324 159.524L677.548 165.895C675.528 166.436 674.329 168.513 674.871 170.533L678.791 185.164C679.332 187.184 681.409 188.383 683.429 187.842L707.205 181.471C709.225 180.93 710.424 178.853 709.882 176.833L705.962 162.202C705.421 160.182 703.344 158.983 701.324 159.524Z" stroke="#60C87D" stroke-linecap="round" stroke-linejoin="round"/>
<path d="M720.28 194.225C720.499 194.545 720.639 194.912 720.686 195.297C720.734 195.682 720.689 196.073 720.554 196.437C720.42 196.8 720.2 197.127 719.914 197.388C719.627 197.649 719.282 197.838 718.907 197.939L681.528 207.954C681.154 208.055 680.76 208.064 680.382 207.981C680.003 207.898 679.649 207.725 679.351 207.477C679.053 207.229 678.818 206.914 678.667 206.556C678.516 206.199 678.453 205.811 678.482 205.424L679.478 192.599C679.564 191.494 679.99 190.444 680.698 189.592C681.405 188.741 682.36 188.129 683.429 187.843L707.205 181.472C708.275 181.185 709.407 181.237 710.445 181.621C711.484 182.005 712.378 182.702 713.003 183.615L720.28 194.225Z" stroke="#60C87D" stroke-linecap="round" stroke-linejoin="round"/>
<path d="M706.62 201.232L693.818 204.662L694.177 198.686L703.321 196.235L706.62 201.232Z" stroke="#60C87D" stroke-linecap="round" stroke-linejoin="round"/>
<path d="M684.891 193.332L686.72 192.842" stroke="#60C87D" stroke-linecap="round" stroke-linejoin="round"/>
<path d="M690.379 191.859L692.208 191.369" stroke="#60C87D" stroke-linecap="round" stroke-linejoin="round"/>
<path d="M701.352 188.922L703.18 188.432" stroke="#60C87D" stroke-linecap="round" stroke-linejoin="round"/>
<path d="M706.836 187.449L708.665 186.959" stroke="#60C87D" stroke-linecap="round" stroke-linejoin="round"/>
<path d="M695.863 190.391L697.692 189.901" stroke="#60C87D" stroke-linecap="round" stroke-linejoin="round"/>
<path d="M684.043 197.48L685.872 196.99" stroke="#60C87D" stroke-linecap="round" stroke-linejoin="round"/>
<path d="M689.527 196.008L705.987 191.597" stroke="#60C87D" stroke-linecap="round" stroke-linejoin="round"/>
<path d="M709.645 190.617L711.473 190.127" stroke="#60C87D" stroke-linecap="round" stroke-linejoin="round"/>
</g>
<defs>
<clipPath id="clip0_17908_75898">
<rect width="64" height="64" fill="white" transform="translate(292 77)"/>
</clipPath>
<clipPath id="clip1_17908_75898">
<rect width="64" height="64" fill="white" transform="translate(292 227)"/>
</clipPath>
<clipPath id="clip2_17908_75898">
<rect width="64" height="64" fill="white" transform="translate(744 67)"/>
</clipPath>
<clipPath id="clip3_17908_75898">
<rect width="64" height="64" fill="white" transform="translate(744 217)"/>
</clipPath>
<clipPath id="clip4_17908_75898">
<rect width="53.1152" height="53.1152" fill="white" transform="translate(174 90.7461) rotate(-15)"/>
</clipPath>
<clipPath id="clip5_17908_75898">
<rect width="53.1152" height="53.1152" fill="white" transform="translate(174 240.75) rotate(-15)"/>
</clipPath>
<clipPath id="clip6_17908_75898">
<rect width="45.4418" height="45.4418" fill="white" transform="translate(343 11.7617) rotate(-15)"/>
</clipPath>
<clipPath id="clip7_17908_75898">
<rect width="45.4418" height="45.4418" fill="white" transform="translate(343 161.762) rotate(-15)"/>
</clipPath>
<clipPath id="clip8_17908_75898">
<rect width="45.4418" height="45.4418" fill="white" transform="translate(520 90.7617) rotate(-15)"/>
</clipPath>
<clipPath id="clip9_17908_75898">
<rect width="45.4418" height="45.4418" fill="white" transform="translate(520 240.762) rotate(-15)"/>
</clipPath>
<clipPath id="clip10_17908_75898">
<rect width="35" height="35" fill="white" transform="translate(474 14)"/>
</clipPath>
<clipPath id="clip11_17908_75898">
<rect width="35" height="35" fill="white" transform="translate(474 164)"/>
</clipPath>
<clipPath id="clip12_17908_75898">
<rect width="35" height="35" fill="white" transform="translate(0 91)"/>
</clipPath>
<clipPath id="clip13_17908_75898">
<rect width="35" height="35" fill="white" transform="translate(0 241)"/>
</clipPath>
<clipPath id="clip14_17908_75898">
<rect width="50" height="50" fill="white" transform="translate(237 5)"/>
</clipPath>
<clipPath id="clip15_17908_75898">
<rect width="50" height="50" fill="white" transform="translate(237 155)"/>
</clipPath>
<clipPath id="clip16_17908_75898">
<rect width="50" height="50" fill="white" transform="translate(424 86)"/>
</clipPath>
<clipPath id="clip17_17908_75898">
<rect width="50" height="50" fill="white" transform="translate(424 236)"/>
</clipPath>
<clipPath id="clip18_17908_75898">
<rect width="48" height="48" fill="white" transform="translate(636 80)"/>
</clipPath>
<clipPath id="clip19_17908_75898">
<rect width="48" height="48" fill="white" transform="translate(636 230)"/>
</clipPath>
<clipPath id="clip20_17908_75898">
<rect width="48" height="48" fill="white" transform="translate(87 70) rotate(30)"/>
</clipPath>
<clipPath id="clip21_17908_75898">
<rect width="48" height="48" fill="white" transform="translate(87 220) rotate(30)"/>
</clipPath>
<clipPath id="clip22_17908_75898">
<rect width="31" height="31" fill="white" transform="translate(584 21)"/>
</clipPath>
<clipPath id="clip23_17908_75898">
<rect width="31" height="31" fill="white" transform="translate(584 171)"/>
</clipPath>
<clipPath id="clip24_17908_75898">
<rect width="50" height="50" fill="white" transform="translate(143 13)"/>
</clipPath>
<clipPath id="clip25_17908_75898">
<rect width="50" height="50" fill="white" transform="translate(143 163)"/>
</clipPath>
<clipPath id="clip26_17908_75898">
<rect width="51" height="51" fill="white" transform="translate(23 5)"/>
</clipPath>
<clipPath id="clip27_17908_75898">
<rect width="51" height="51" fill="white" transform="translate(23 155)"/>
</clipPath>
<clipPath id="clip28_17908_75898">
<rect width="45.4418" height="45.4418" fill="white" transform="translate(667 16.7617) rotate(-15)"/>
</clipPath>
<clipPath id="clip29_17908_75898">
<rect width="45.4418" height="45.4418" fill="white" transform="translate(667 166.762) rotate(-15)"/>
</clipPath>
</defs>
</svg>
