<svg width="201" height="200" viewBox="0 0 201 200" fill="none" xmlns="http://www.w3.org/2000/svg">
<path d="M136.229 59.2706C135.937 59.6266 136.585 58.1086 135.977 52.0826C135.894 51.2506 139.877 51.5446 73.8452 51.5446C73.7713 51.5436 73.6978 51.5575 73.6293 51.5853C73.5608 51.6132 73.4985 51.6544 73.4461 51.7067C73.3938 51.759 73.3524 51.8212 73.3244 51.8897C73.2964 51.9582 73.2824 52.0316 73.2832 52.1056C72.8681 54.385 72.6489 56.6957 72.6282 59.0126C69.0642 55.7126 63.9142 55.4406 61.1332 57.2126C53.3082 62.1916 57.8562 82.7886 75.1562 90.1286C73.8712 91.9836 76.5512 99.4086 84.4972 91.4626C84.7252 91.2346 84.3972 90.9366 85.5512 92.4456C88.1022 96.7766 92.8402 99.7706 94.2362 104.76C95.3032 108.573 94.3362 111.392 95.6182 111.021C98.1912 110.275 98.6122 113.974 103.764 113.703C106.949 113.543 110.071 114.626 112.473 116.723C114.462 118.472 113.521 113.633 113.901 108.834C114.581 100.26 116.311 101.571 123.944 91.3926C124.798 92.2926 127.668 94.9156 128.767 94.3656C132.26 95.9375 134.991 92.5486 133.567 89.8006C148.439 85.8606 155.817 62.3796 147.767 56.8926C145.324 55.2246 140.093 54.5556 136.229 59.2706ZM135.72 63.5536C139.339 61.0866 142.845 59.5696 145.154 63.2266C148.947 69.2266 143.74 80.1066 137.921 84.0856C136.434 85.1264 134.741 85.8381 132.957 86.1732C131.172 86.5082 129.337 86.4589 127.573 86.0286C131.798 79.173 134.57 71.5236 135.72 63.5536ZM67.9032 81.9546C62.8252 76.4126 61.7392 65.5386 62.4032 64.2796C62.9565 63.3379 63.7934 62.5953 64.7942 62.158C65.7949 61.7206 66.9084 61.6109 67.9752 61.8446C69.7462 62.2796 71.1052 63.8706 73.0082 64.4906C74.1074 72.1167 76.8385 79.416 81.0152 85.8906C77.4562 87.4356 72.1252 86.5676 67.9032 81.9546Z" fill="#3CAE5C"/>
<path d="M110.694 74.5533C108.846 74.4603 107.616 74.9663 107.346 74.6713C106.986 74.2773 107.122 73.1323 105.33 69.7103C105.277 69.6245 105.203 69.5537 105.115 69.5046C105.027 69.4555 104.928 69.4297 104.827 69.4297C104.726 69.4297 104.627 69.4555 104.539 69.5046C104.45 69.5537 104.376 69.6245 104.323 69.7103C103.636 71.3333 102.923 72.9183 102.193 74.5333C100.859 74.4673 99.5225 74.4988 98.1933 74.6273C98.0791 74.6266 97.9672 74.6595 97.8717 74.7221C97.7761 74.7846 97.7012 74.874 97.6562 74.979C97.6113 75.0839 97.5983 75.1999 97.6189 75.3122C97.6396 75.4245 97.6929 75.5282 97.7723 75.6103C97.8813 75.6963 100.193 77.5953 100.254 77.7173C100.318 77.8173 100.354 77.4593 99.8793 82.9383C99.883 83.0533 99.9197 83.1647 99.985 83.2594C100.05 83.3541 100.141 83.428 100.248 83.4723C100.354 83.5167 100.47 83.5296 100.583 83.5096C100.697 83.4896 100.802 83.4374 100.886 83.3593C104.855 78.8593 104.017 79.8163 104.116 79.6833C104.132 79.6993 106.409 81.7643 108.034 83.1763C108.127 83.2617 108.245 83.3154 108.37 83.3295C108.495 83.3437 108.622 83.3176 108.731 83.255C108.841 83.1924 108.928 83.0965 108.979 82.9814C109.03 82.8662 109.044 82.7376 109.017 82.6143C108.273 77.2763 107.359 78.9353 111.096 75.5833C111.181 75.5011 111.239 75.3957 111.264 75.2804C111.289 75.165 111.28 75.0449 111.237 74.935C111.194 74.825 111.12 74.7302 111.023 74.6623C110.927 74.5944 110.812 74.5565 110.694 74.5533Z" fill="#D4F7DC"/>
<path d="M151.731 62.8744C150.331 54.4944 141.67 52.9514 136.771 57.6744C136.764 55.5763 136.624 53.4807 136.35 51.4004C136.349 51.3099 136.327 51.221 136.286 51.1403C136.245 51.0596 136.187 50.9894 136.114 50.9352C136.042 50.8809 135.958 50.8439 135.869 50.8271C135.78 50.8104 135.689 50.8142 135.601 50.8384C135.501 50.8264 72.8844 50.6624 72.6264 50.7914C72.5043 50.8295 72.3966 50.9035 72.3172 51.0037C72.2378 51.104 72.1905 51.2258 72.1814 51.3534C71.9227 53.4438 71.7818 55.5471 71.7594 57.6534C66.4014 52.4164 55.8014 54.6214 56.6364 66.7374C57.2754 75.9714 64.3664 87.5004 74.3364 90.2184C72.7484 94.6644 79.4874 98.3594 84.3564 92.7704C88.9974 98.7864 95.4654 103.79 94.4924 110.492C94.4489 110.641 94.4664 110.802 94.5411 110.938C94.6157 111.074 94.7414 111.175 94.8904 111.218C95.0395 111.262 95.1997 111.244 95.3358 111.17C95.472 111.095 95.5729 110.969 95.6164 110.82C96.8664 102.434 88.7754 97.6474 82.6934 88.4624C75.6234 77.7864 71.5814 64.1004 73.3284 51.8714C73.4284 51.8664 134.493 51.9424 135.273 51.9654C136.335 61.5916 134.708 71.3237 130.573 80.0814C121.273 100.436 110.039 98.4694 113.155 117.913C113.177 117.987 113.213 118.056 113.261 118.116C113.309 118.176 113.368 118.226 113.436 118.263C113.503 118.3 113.577 118.323 113.653 118.332C113.73 118.34 113.807 118.333 113.881 118.312C113.955 118.29 114.024 118.255 114.084 118.207C114.144 118.158 114.193 118.099 114.23 118.032C114.267 117.964 114.291 117.89 114.299 117.814C114.308 117.738 114.301 117.66 114.279 117.586C112.244 103.103 118.057 100.817 124.279 92.7704C129.062 98.2624 135.85 94.7224 134.252 90.1954C145.184 87.2684 153.388 72.8144 151.731 62.8744ZM83.6014 91.8804C79.1554 97.2174 73.5864 93.2314 75.6654 90.1954C75.709 90.1171 75.7344 90.03 75.7399 89.9405C75.7454 89.851 75.7308 89.7615 75.6971 89.6784C75.6634 89.5954 75.6116 89.5209 75.5454 89.4605C75.4791 89.4001 75.4002 89.3553 75.3144 89.3294C64.1024 86.5934 56.6424 72.6944 57.8734 63.5294C59.0224 54.9724 67.8024 54.3634 71.7564 59.5024C71.8024 60.6734 71.8734 61.8204 72.0134 62.9904C67.5704 59.0154 63.8814 60.6834 62.3214 64.2314C58.7884 72.2774 69.3894 90.4004 80.1174 86.8244C80.3144 86.6274 79.9114 86.9004 83.6014 91.8804ZM79.5754 85.7474C68.9944 88.7474 58.6174 68.8544 64.6154 62.9684C67.9894 59.6574 71.8514 64.5494 72.2944 64.7684C73.3502 72.165 75.8238 79.2883 79.5794 85.7474H79.5754ZM136.275 64.7244C136.622 64.5504 138.005 62.7884 139.857 62.0784C142.257 61.1604 144.369 62.5214 145.311 65.0284C147.938 72.0004 138.781 88.4734 129.001 85.7004C132.74 79.2352 135.211 72.1159 136.28 64.7244H136.275ZM150.675 67.3464C149.931 75.9304 143.2 86.7234 133.211 89.3524C133.125 89.3773 133.045 89.4216 132.978 89.4818C132.911 89.542 132.859 89.6167 132.825 89.7001C132.792 89.7835 132.777 89.8735 132.783 89.9633C132.789 90.0531 132.816 90.1403 132.86 90.2184C133.041 90.5407 133.155 90.8956 133.197 91.2625C133.24 91.6294 133.209 92.001 133.106 92.3559C133.004 92.7107 132.833 93.0418 132.601 93.3299C132.37 93.618 132.085 93.8575 131.76 94.0344C130.094 95.0044 127.175 94.6674 124.925 91.9274C128.086 87.6104 128.179 86.8274 128.389 86.8274C138.828 90.1444 148.942 73.3954 146.533 65.2194C145.283 60.9794 141.265 58.6854 136.466 62.9954C136.583 61.8474 136.677 60.6774 136.7 59.5064C140.834 53.9624 151.768 54.7644 150.677 67.3464H150.675Z" fill="#083A55"/>
<path d="M112.238 74.3948C110.706 73.9741 109.122 73.7691 107.532 73.7858C106.732 71.9598 105.959 70.0998 105.168 68.2608C105.117 68.1731 105.043 68.1003 104.955 68.0498C104.867 67.9992 104.767 67.9727 104.665 67.9727C104.563 67.9727 104.463 67.9992 104.375 68.0498C104.287 68.1003 104.213 68.1731 104.161 68.2608C103.319 70.1208 102.429 71.9608 101.516 73.7858C99.8807 73.7633 98.2498 73.9683 96.6705 74.3948C96.5622 74.4295 96.466 74.4944 96.3931 74.5817C96.3203 74.6691 96.2738 74.7753 96.259 74.8881C96.2442 75.0009 96.2618 75.1155 96.3097 75.2187C96.3576 75.3219 96.4338 75.4093 96.5295 75.4708C97.6406 76.3005 98.7108 77.1835 99.7365 78.1168C98.8845 84.0168 98.7265 84.2778 99.1285 84.5548C99.2218 84.6243 99.3331 84.6656 99.4491 84.6739C99.5652 84.6823 99.6812 84.6572 99.7835 84.6018C106.983 79.1508 101.946 79.1118 109.148 84.6018C109.249 84.6627 109.366 84.6909 109.483 84.6825C109.601 84.6741 109.713 84.6295 109.803 84.5548C110.198 84.2328 110.074 84.1968 109.194 78.1168C110.216 77.178 111.287 76.2947 112.402 75.4708C112.498 75.4075 112.573 75.3184 112.619 75.2138C112.666 75.1092 112.681 74.9935 112.664 74.8804C112.647 74.7674 112.597 74.6616 112.522 74.5755C112.447 74.4895 112.348 74.4268 112.238 74.3948ZM100.228 82.7518C100.796 78.6518 101.039 77.7398 100.603 77.3908C99.8008 76.6379 98.9667 75.9193 98.1035 75.2368C103.187 74.3368 101.349 76.8368 104.611 69.9928C107.582 76.8928 105.598 74.3518 110.745 75.2608C109.878 75.9398 109.036 76.6608 108.245 77.4148C107.81 77.7618 107.973 78.1148 108.619 82.7758C102.735 77.5538 105.981 77.9238 100.228 82.7518Z" fill="#083A55"/>
<path d="M92.5024 31.6917C96.3164 40.1747 96.1744 40.8457 96.9964 40.3777C97.7474 39.9507 97.0844 39.5557 93.5084 31.1067C93.429 30.9769 93.302 30.8832 93.1545 30.8459C93.0069 30.8086 92.8507 30.8305 92.7191 30.907C92.5876 30.9835 92.4912 31.1085 92.4507 31.2552C92.4102 31.4018 92.4287 31.5586 92.5024 31.6917Z" fill="#083A55"/>
<path d="M107.976 39.5348C108.504 35.7442 108.91 31.9442 109.193 28.1348C109.191 27.9802 109.129 27.8325 109.02 27.7231C108.91 27.6137 108.763 27.5512 108.608 27.5488C107.551 27.5488 108.378 28.5898 106.852 39.2318C106.812 39.3809 106.833 39.5398 106.91 39.6736C106.987 39.8074 107.114 39.9051 107.263 39.9453C107.412 39.9855 107.571 39.9648 107.704 39.8878C107.838 39.8109 107.936 39.6839 107.976 39.5348Z" fill="#083A55"/>
<path d="M119.566 41.5475C125.217 36.6795 127.384 36.4545 126.824 35.4605C126.786 35.394 126.734 35.3357 126.673 35.2892C126.612 35.2426 126.542 35.2085 126.468 35.189C126.394 35.1695 126.316 35.1649 126.24 35.1754C126.164 35.186 126.091 35.2115 126.024 35.2505C123.545 36.9965 121.045 38.7385 118.743 40.7285C118.689 40.7825 118.647 40.8466 118.618 40.9171C118.589 40.9876 118.574 41.0631 118.574 41.1394C118.574 41.2156 118.59 41.2911 118.619 41.3614C118.648 41.4318 118.691 41.4957 118.745 41.5495C118.799 41.6032 118.863 41.6458 118.934 41.6748C119.004 41.7038 119.08 41.7187 119.156 41.7185C119.232 41.7183 119.308 41.7031 119.378 41.6738C119.449 41.6444 119.512 41.6015 119.566 41.5475Z" fill="#083A55"/>
<path d="M123.353 115.571C123.29 115.468 123.196 115.388 123.085 115.341C122.973 115.294 122.85 115.282 122.732 115.308C122.614 115.334 122.507 115.395 122.426 115.484C122.344 115.573 122.292 115.685 122.276 115.805C119.873 117.148 117.32 118.201 114.668 118.942C113.732 117.642 107.936 112.742 98.4684 115.29C83.9864 119.19 86.3034 122.404 86.6224 131.022C86.6247 131.641 86.6718 132.259 86.7634 132.872C87.3024 135.785 92.0014 135.306 94.9574 127.604C95.1034 127.223 95.2684 126.604 95.4014 126.551C99.8332 126.756 104.205 125.461 107.809 122.875C109.17 123.741 130.447 141.575 130.494 141.604C131.344 142.08 131.737 141.694 136.885 139.567C138.509 139.089 136.37 138.554 123.353 115.571Z" fill="#083A55"/>
<path d="M92.6175 156.354C92.2955 156.605 91.6176 157.217 91.0956 157.009C91.608 156.095 91.9059 155.076 91.9667 154.03C92.0275 152.983 91.8496 151.937 91.4466 150.969C89.8546 147.275 85.7466 148.991 83.7206 152.444C83.0206 151.975 83.4066 151.832 83.7206 151.344C86.8156 146.552 83.7696 139.574 77.1426 146.592C76.7956 145.898 76.7546 146.043 76.8846 145.913C80.5046 141.459 77.8336 135.713 73.8186 137.321C69.9576 138.865 66.7586 145.471 67.5676 148.821C68.0676 150.87 70.8016 152.449 74.8486 150.483C74.0376 155.912 78.8876 157.64 83.2486 154.322C83.0976 155.38 81.7746 156.543 82.5236 158.422C82.8847 159.272 83.5518 159.955 84.3927 160.337C85.2337 160.718 86.1872 160.77 87.0646 160.482C87.8577 160.163 88.6119 159.755 89.3126 159.265C89.7706 160.793 88.2016 161.923 89.7566 163.783C92.9366 167.583 99.4256 160.945 97.4126 157.088C96.4806 155.286 94.6255 154.784 92.6175 156.354Z" fill="#083A55"/>
<path d="M131.032 143.97C130.059 138.299 119.359 134.177 108.113 122.993C108.025 122.915 107.915 122.864 107.799 122.847C107.682 122.829 107.562 122.847 107.455 122.897C107.348 122.947 107.258 123.027 107.196 123.127C107.134 123.228 107.103 123.344 107.106 123.462C103.382 126.007 97.357 125.908 96.22 126.177C95.083 126.446 95.625 127.448 94.464 129.736C92.698 133.214 88.794 136.674 87.064 134.465C86.439 133.665 86.433 132.413 86.364 129.338C86.153 120.281 86.815 119.128 90.437 117.796C95.837 115.811 99.607 114.547 100.504 114.355C101.355 114.173 100.784 112.455 99.731 112.81C92.798 108.301 87.279 115.561 84.304 117.773C73.394 109.512 75.87 111.323 75.525 111.124C75.268 110.976 74.325 110.975 74.19 111.499C73.459 114.422 67.278 131.792 65.622 136.384C65.013 138.074 64.936 137.634 68.922 140.484C69.668 141.106 72.822 137.153 75.009 137.043C77.646 136.91 79.823 139.578 78.942 142.989C78.9136 143.102 78.919 143.22 78.9573 143.329C78.9957 143.438 79.0654 143.534 79.1578 143.604C79.2501 143.674 79.361 143.715 79.4767 143.722C79.5923 143.73 79.7075 143.703 79.808 143.645C82.565 141.745 86.66 144.82 85.028 149.591C84.82 150.201 85.59 150.504 86.012 150.153C93.358 144.031 91.305 156.853 91.56 156.895C91.6987 156.915 91.84 156.884 91.9567 156.806C92.0734 156.728 92.1572 156.61 92.192 156.474C92.4941 155.823 93.0308 155.309 93.6949 155.036C94.3591 154.763 95.1019 154.75 95.775 155C97.714 155.766 98.326 158.92 96.618 160.946C95.018 162.841 95.579 163.505 97.835 164.435C99.777 165.235 102.211 165.58 103.782 163.873C105.745 161.739 103.454 159.037 103.454 158.652C108.538 161.452 114.465 161.672 114.808 157.201C114.744 156.126 114.352 155.096 113.684 154.251C118.643 157.383 122.356 155.623 123.184 152.823C124.084 149.809 120.715 147.16 119.602 145.94C127.652 151.174 131.661 147.638 131.032 143.97Z" fill="white"/>
<path d="M62.0795 98.3041C60.6336 99.2017 59.5194 100.546 58.9055 102.133C55.6055 99.6331 52.2235 99.8101 44.0395 96.3281C43.8045 94.9151 41.9745 96.5871 42.9155 97.1001C43.4035 102.845 42.9055 116.122 42.8455 128.19C42.8455 128.748 43.2615 128.742 45.4675 129.454C45.3734 129.958 45.394 130.476 45.5279 130.97C45.6617 131.465 45.9053 131.923 46.2405 132.31C47.6405 134.032 48.6895 134.041 57.8185 137.973C58.9758 138.393 60.1048 138.887 61.1985 139.452C61.6985 140.64 63.6545 140.613 64.5985 138.352C71.1265 122.631 71.8635 115.829 74.2665 109.908C76.1705 105.206 79.1685 104.408 62.0795 98.3041Z" fill="#3EBB5A"/>
<path d="M168.304 91.2997C168.204 98.2537 167.21 122.255 167.391 125.691C167.389 125.793 167.362 125.893 167.313 125.982C167.264 126.072 167.195 126.148 167.11 126.206C157.875 131.581 148.32 136.388 138.499 140.6C138.421 140.641 138.334 140.664 138.245 140.669C138.156 140.673 138.068 140.658 137.985 140.625C137.903 140.591 137.829 140.54 137.768 140.475C137.707 140.41 137.661 140.333 137.633 140.249C132.883 130.364 125.499 119.028 123.024 113.749C122.769 113.204 123.273 112.962 123.375 112.86C124.825 112.054 167.424 90.8047 167.458 90.7827C167.547 90.7373 167.646 90.7154 167.745 90.7192C167.845 90.7229 167.941 90.7521 168.026 90.804C168.111 90.8559 168.181 90.9287 168.23 91.0155C168.279 91.1023 168.304 91.2002 168.304 91.2997Z" fill="#267939"/>
<path d="M142.669 138.8C142.325 138.983 141.964 139.132 141.592 139.245C138.414 132.284 130.331 118.578 126.164 111.526C126.515 111.339 126.864 111.175 127.218 110.988C130.499 116.275 137.525 128.206 142.669 138.8Z" fill="white"/>
<path d="M147.209 136.689C144.857 137.789 148.638 138.889 130.609 109.275C130.961 109.087 131.309 108.924 131.663 108.76C135.286 114.479 143.604 129.055 147.209 136.689Z" fill="white"/>
<path d="M152.008 134.347C151.657 134.534 151.308 134.698 150.954 134.862C148.627 129.431 138.172 111.213 135.41 106.839C135.761 106.652 136.11 106.488 136.463 106.324C138.237 109.099 149.357 128.16 152.008 134.347Z" fill="white"/>
<path d="M161.536 129.337C161.449 129.391 160.636 129.844 160.506 129.899C156.912 122.033 146.251 103.711 145.078 102.016C145.412 101.848 145.747 101.685 146.085 101.525C146.419 101.525 161.536 128.154 161.536 129.337Z" fill="white"/>
<path d="M166.336 126.646C165.081 127.363 165.407 127.285 165.306 127.184C164.737 126.046 164.68 125.267 159.006 114.984C157.467 112.195 150.18 99.697 150.086 99.556L151.14 99.041C151.198 99.144 163.543 119.664 166.336 126.646Z" fill="white"/>
<path d="M167.532 116.673L167.462 119.037C161.63 107.822 155.031 97.2691 155.031 97.0541C155.382 96.8901 155.731 96.7031 156.084 96.5391C156.913 97.8651 165.18 112.12 167.532 116.673Z" fill="white"/>
<path d="M167.858 105.926C167.746 109.561 169.369 110.382 159.969 94.5716C160.32 94.3836 160.669 94.2206 161.022 94.0566C162.216 96.0466 166.758 103.959 167.858 105.926Z" fill="white"/>
<path d="M156.832 131.889C156.48 132.076 156.153 132.24 155.801 132.427C149.401 119.627 141.842 106.827 140.301 104.451C140.653 104.287 141.001 104.1 141.355 103.936C144.198 108.479 153.867 125.179 156.832 131.889Z" fill="white"/>
<path d="M167.249 90.0535C162.629 92.4105 122.385 112.693 122.277 112.693C121.652 113.005 122.17 114.133 122.535 114.729C119.889 116.017 117.244 117.305 114.575 118.545C110.819 114.923 108.01 112.697 101.956 113.653C101.756 113.353 97.7835 110.376 94.6565 110.539C91.2285 110.718 86.6895 114.357 84.2855 116.649C74.5265 109.755 75.3235 110.296 74.9915 110.349C77.3485 103.615 77.6195 104.26 69.1625 100.305C64.3095 98.0355 63.3785 97.2445 62.0685 97.5185C60.7165 97.8025 59.4165 99.5305 58.9315 100.984C54.8115 99.3215 44.1315 95.2025 42.9425 94.7565C41.5865 94.2495 42.2165 96.7085 42.2165 128.632C42.2955 129.499 43.9165 129.381 44.9085 130.178C44.2945 132.478 45.7785 132.884 47.6245 133.853C47.9655 134.032 61.6055 140.612 62.4665 140.83C64.0715 141.236 64.7665 140.28 65.1595 138.886C66.3744 139.669 67.532 140.538 68.6235 141.486C68.6005 141.509 68.6005 141.533 68.5775 141.556C63.3125 148.903 69.3125 154.038 74.0775 150.804C72.8485 155.719 77.7775 158.918 81.9205 155.135C79.8915 160.094 84.9075 163.735 88.9435 159.817C86.6625 165.002 91.9135 167.954 95.3815 163.96C95.5815 163.76 95.4345 163.732 95.7095 164.007C100.924 168.045 107.116 164.386 104.862 159.653C106.909 160.895 109.328 162.183 111.562 161.553C112.193 161.376 112.778 161.068 113.28 160.649C113.782 160.229 114.19 159.708 114.475 159.119C114.761 158.531 114.918 157.888 114.936 157.234C114.955 156.58 114.834 155.929 114.582 155.326C122.09 159.337 126.728 153.236 122.05 147.951C128.413 151.36 134.122 147.351 131.04 142.169C131.133 142.169 136.54 139.641 136.799 139.641C136.944 139.915 137.469 141.008 137.499 141.141C138.405 143.315 163.259 129.176 167.676 126.931C167.774 126.888 167.855 126.815 167.906 126.721C167.956 126.628 167.975 126.52 167.957 126.416C168.247 101.852 168.348 93.2495 168.335 90.7315C168.325 89.7935 167.703 89.8225 167.249 90.0535ZM43.3835 128.331C43.3485 127.791 43.2895 96.2455 43.2895 96.1405C47.3165 97.6405 57.4295 101.619 58.4835 102.041C55.0355 109.613 48.7485 120.714 45.3495 129.08C44.7266 128.752 44.0665 128.5 43.3835 128.331ZM63.8205 139.311C63.4515 140.118 62.7515 139.792 61.9945 139.428C60.8835 138.893 56.5095 137.023 47.7605 132.662C43.9725 130.774 45.1245 133.215 60.0985 101.245C60.2996 100.501 60.7148 99.8336 61.2925 99.3245C62.4195 98.2795 62.7025 98.4795 65.0845 99.6525C74.8315 104.453 76.0845 103.853 74.8235 107.261C73.0355 112.107 64.0215 138.872 63.8205 139.311ZM72.9275 150.127C69.3115 151.958 65.2975 148.406 69.6035 142.167C75.8765 133.079 80.7745 139.082 76.6265 146.077C75.1835 147.931 74.8985 149.129 72.9275 150.127ZM82.5965 152.538C78.2195 158.838 72.6965 154.5 76.2055 148.838C77.5755 147.125 79.3375 143.664 82.4795 143.664C84.4175 143.665 86.1985 147.36 82.5985 152.538H82.5965ZM89.2965 157.595C86.1915 162.015 82.4815 160.484 82.6485 157.103C82.7605 154.811 86.2015 149.635 89.2735 149.635C91.0575 149.635 92.5075 153.018 89.2915 157.6L89.2965 157.595ZM95.1965 162.324C92.5375 166.102 89.4575 164.856 89.5545 161.996C89.6545 158.996 95.1485 152.98 96.6475 156.729C97.2985 158.718 96.2985 160.757 95.1915 162.324H95.1965ZM125.419 147.832C121.551 147.196 119.806 144.479 116.406 142.869C115.386 142.386 115.083 143.351 115.493 143.689C119.972 147.384 122.658 149.332 122.793 152.07C122.849 152.815 122.63 153.556 122.177 154.151C121.724 154.746 121.069 155.154 120.335 155.3C117.135 156.187 112.435 152.846 109.917 150.665C109.809 150.556 109.662 150.495 109.508 150.495C109.354 150.495 109.207 150.556 109.098 150.665C108.99 150.773 108.929 150.92 108.929 151.074C108.929 151.228 108.99 151.375 109.098 151.484C109.804 152.125 111.673 153.474 112.698 154.504C113.137 154.905 113.465 155.413 113.651 155.977C113.837 156.542 113.874 157.146 113.758 157.729C113.643 158.313 113.38 158.857 112.993 159.309C112.606 159.76 112.11 160.105 111.551 160.31C109.069 161.218 105.47 158.695 103.076 157.033C102.955 156.964 102.812 156.941 102.675 156.969C102.538 156.998 102.415 157.074 102.33 157.185C102.245 157.296 102.203 157.434 102.211 157.574C102.22 157.714 102.278 157.846 102.376 157.946C103.175 158.78 103.782 159.778 104.155 160.872C104.987 164.158 100.177 165.558 97.6475 163.916C96.7545 163.336 96.3585 162.932 96.2665 162.932C100.56 156.92 96.3915 151.359 91.5835 156.167C94.2945 150.359 90.2315 145.567 85.2165 150.361C87.5325 144.571 83.8405 140.145 79.1065 143.661C81.0665 136.8 75.1555 132.735 69.3905 140.477C68.9575 140.086 66.1525 137.759 65.5745 137.855C66.0385 136.772 74.6795 111.315 74.7045 111.214C74.7925 111.345 83.7045 117.571 84.0925 117.839C84.2041 117.899 84.332 117.922 84.4578 117.905C84.5835 117.889 84.7007 117.832 84.7925 117.745C86.9535 115.612 91.2825 112.106 94.2925 111.659C96.5405 111.325 98.6505 112.565 100.519 113.859C96.655 114.793 92.9031 116.143 89.3295 117.886C86.2295 119.376 85.7195 121.193 85.6775 124.839C85.5925 132.105 85.3085 133.251 86.3565 134.414C88.7195 137.037 94.7145 133.814 96.3565 126.714C100.308 126.571 104.159 125.427 107.547 123.389C127.775 140.175 129.955 141.283 130.653 143.944C131.198 147.236 128.651 148.365 125.414 147.832H125.419ZM130.406 141.232C128.931 139.432 107.934 122.222 107.627 122.222C106.851 121.963 103.044 125.551 95.8275 125.593C94.7725 125.599 95.6055 127.468 93.4395 130.65C92.1975 132.474 89.5515 135.067 87.6105 133.998C86.4005 133.331 86.7105 132.176 86.7905 125.874C86.8575 120.727 87.0065 120.045 91.9645 117.961C104.331 112.761 108.011 113.933 113.01 118.617C113.675 119.239 114.152 119.999 114.79 119.694C117.577 118.359 120.361 117.071 123.147 115.714C123.197 115.814 134.821 135.958 136.281 138.586C135.85 138.762 130.724 140.907 130.398 141.231L130.406 141.232ZM166.828 125.99C157.207 130.964 147.456 137.058 138.314 140.013C136.031 135.137 123.595 114.302 123.237 113.442C128.973 110.609 164.159 92.8865 167.203 91.3185C167.255 93.8465 166.828 122.24 166.828 125.99Z" fill="#083A55"/>
<path d="M84.985 30.1921C84.233 30.1121 83.151 30.4491 82.971 29.2791C82.821 28.3011 83.726 26.9551 84.423 26.2591C84.524 26.1489 84.5786 26.0039 84.5754 25.8544C84.5721 25.7049 84.5112 25.5624 84.4054 25.4567C84.2996 25.3511 84.157 25.2903 84.0075 25.2872C83.858 25.2841 83.713 25.3389 83.6029 25.4401C81.1309 27.8741 81.066 31.3131 84.259 31.3861C84.6816 31.3353 85.1101 31.3999 85.499 31.5731C86.952 32.4881 85.2129 35.8191 84.3519 36.1621C84.2065 36.2084 84.0849 36.3097 84.0131 36.4444C83.9413 36.5792 83.925 36.7366 83.9677 36.8831C84.0104 37.0297 84.1086 37.1538 84.2415 37.2289C84.3744 37.304 84.5314 37.3242 84.679 37.2851C86.966 36.4381 88.841 30.6041 84.985 30.1921Z" fill="#083A55"/>
<path d="M11.9648 182.41C11.2158 182.331 10.1318 182.668 9.95178 181.497C9.80178 180.519 10.7068 179.173 11.4028 178.477C11.4566 178.423 11.4992 178.359 11.5283 178.289C11.5574 178.219 11.5724 178.143 11.5724 178.067C11.5724 177.991 11.5574 177.916 11.5283 177.846C11.4992 177.776 11.4566 177.712 11.4028 177.658C11.349 177.604 11.2852 177.561 11.2149 177.532C11.1446 177.503 11.0693 177.488 10.9933 177.488C10.9172 177.488 10.8419 177.503 10.7717 177.532C10.7014 177.561 10.6376 177.604 10.5838 177.658C8.11178 180.092 8.04577 183.532 11.2398 183.604C11.6624 183.553 12.091 183.618 12.4798 183.791C13.9338 184.706 12.1938 188.037 11.3328 188.38C11.259 188.401 11.1901 188.437 11.1302 188.485C11.0702 188.534 11.0204 188.593 10.9834 188.66C10.9088 188.797 10.8913 188.957 10.9348 189.106C10.9783 189.255 11.0792 189.381 11.2153 189.455C11.3515 189.53 11.5117 189.547 11.6608 189.504C13.9628 188.65 15.8188 182.817 11.9648 182.41Z" fill="#083A55"/>
<path d="M128.387 21.9991C126.223 20.1651 123.087 20.8171 122.464 19.6811C122.101 19.0161 122.444 17.9811 124.08 17.6211C124.227 17.5763 124.351 17.4751 124.424 17.3397C124.497 17.2042 124.514 17.0453 124.471 16.8976C124.428 16.7498 124.328 16.6249 124.193 16.5502C124.059 16.4754 123.9 16.4567 123.752 16.4981C120.811 17.0981 120.297 20.2621 122.581 21.2271C124.281 21.9461 127.293 21.6651 128.294 23.7551C128.485 24.1168 128.528 24.5386 128.415 24.9316C128.301 25.3247 128.04 25.6583 127.685 25.8621C127.538 25.9085 127.414 26.0098 127.339 26.145C127.265 26.2802 127.245 26.4389 127.285 26.5881C127.729 28.2381 131.662 24.7731 128.387 21.9991Z" fill="#083A55"/>
<path d="M162.381 44.5189C162.49 44.4101 162.551 44.2627 162.551 44.109C162.551 43.9553 162.49 43.808 162.381 43.6994C162.272 43.5908 162.125 43.5298 161.971 43.5299C161.817 43.53 161.67 43.5911 161.561 43.6999C161.094 44.1228 160.547 44.4482 159.952 44.6572C159.357 44.8661 158.727 44.9544 158.097 44.9169C160.52 39.1399 155.489 37.1969 154.421 41.1479C154.195 42.0025 154.267 42.9085 154.625 43.7169C154.982 44.5254 155.604 45.188 156.388 45.5959C154.879 47.6849 153.316 47.4599 153.836 48.3819C154.443 49.4579 156.826 47.0679 157.511 45.9939C158.382 46.1292 159.271 46.0668 160.114 45.8115C160.958 45.5562 161.732 45.1144 162.381 44.5189ZM157.301 40.7269C157.689 41.9854 157.572 43.3456 156.973 44.5189C153.936 43.0379 156.244 38.7159 157.299 40.7269H157.301Z" fill="#083A55"/>
<path d="M186.308 77.6222C185.374 79.6722 182.285 78.7832 182.679 80.0572C182.723 80.2062 182.824 80.3319 182.96 80.4068C183.096 80.4818 183.256 80.4999 183.405 80.4572C184.636 80.3316 185.801 79.8425 186.753 79.0522C187.175 78.6566 187.459 78.1366 187.564 77.5681C187.669 76.9997 187.59 76.4125 187.338 75.8922C186.11 73.7122 182.132 74.4362 181.111 73.7152C180.43 73.2342 180.522 71.8512 181.977 71.4912C182.12 71.445 182.239 71.3458 182.31 71.2141C182.381 71.0825 182.399 70.9284 182.36 70.7838C182.321 70.6393 182.228 70.5154 182.099 70.4378C181.971 70.3603 181.818 70.3349 181.672 70.3672C178.879 71.0672 178.772 74.6672 181.719 75.1432C182.867 75.3242 187.372 75.2862 186.308 77.6222Z" fill="#083A55"/>
<path d="M158.964 153.731C157.964 152.266 162.098 149.938 161.89 147.223C161.732 145.154 160.123 144.051 157.325 145.49C156.645 145.84 157.253 146.844 157.91 146.497C158.54 146.165 159.501 145.656 160.181 146.169C160.401 146.37 160.562 146.626 160.648 146.91C160.735 147.194 160.744 147.497 160.673 147.785C160.313 149.397 158.562 150.544 157.887 152.233C157.697 152.616 157.622 153.045 157.672 153.469C157.721 153.893 157.894 154.294 158.168 154.621C158.818 155.259 159.713 155.021 160.509 155.136C162.083 155.36 162.717 156.512 161.422 158.507C160.731 159.321 160.235 160.282 159.971 161.316C159.923 161.567 159.93 161.825 159.992 162.073C160.054 162.32 160.169 162.551 160.33 162.75C160.49 162.948 160.692 163.109 160.921 163.222C161.15 163.334 161.401 163.395 161.656 163.4C161.807 163.394 161.95 163.33 162.055 163.221C162.16 163.111 162.218 162.966 162.218 162.815C162.218 162.664 162.16 162.518 162.055 162.409C161.95 162.3 161.807 162.236 161.656 162.229C161.521 162.23 161.391 162.18 161.291 162.089C161.191 161.997 161.13 161.872 161.118 161.737C160.867 160.324 164.179 158.225 163.037 155.51C162.1 153.292 159.364 154.317 158.964 153.731Z" fill="#083A55"/>
<path d="M149.249 175.899C149.156 175.852 149.039 175.829 148.949 175.782C148.838 174.058 148.237 172.401 147.217 171.006C146.708 170.306 145.812 171.045 146.21 171.591C147.064 172.728 147.605 174.068 147.779 175.478C141.994 174.578 140.364 180.671 143.541 182.173C145.926 183.301 148.517 180.017 148.926 177.023C149.668 177.332 150.338 177.794 150.891 178.379C151.443 178.964 151.866 179.658 152.133 180.417C152.367 181.143 153.492 180.838 153.257 180.117C152.935 179.165 152.41 178.295 151.718 177.566C151.026 176.838 150.183 176.269 149.249 175.899ZM143.139 179.738C142.823 177.954 144.739 176.103 147.751 176.695C147.728 176.835 147.729 176.976 147.704 177.14C147.201 180.51 143.713 182.983 143.139 179.74V179.738Z" fill="#083A55"/>
<path d="M106.826 176.23C104.569 174.783 100.426 178.062 102.565 180.678C103.548 181.878 105.79 182.525 104.742 184.096C103.842 185.444 101.829 185.401 100.599 187.233C99.3694 189.065 99.5474 191.233 101.535 191.751C101.862 191.836 103.645 191.972 103.435 192.688C103.401 192.835 103.426 192.989 103.504 193.119C103.581 193.248 103.706 193.342 103.852 193.381C103.998 193.42 104.154 193.401 104.285 193.327C104.417 193.254 104.516 193.132 104.559 192.988C104.643 192.573 104.573 192.142 104.361 191.776C104.149 191.409 103.81 191.133 103.408 191C102.366 190.549 100.195 190.971 101.208 188.542C102.001 186.642 103.659 186.648 105.001 185.522C105.356 185.293 105.649 184.98 105.853 184.61C106.057 184.24 106.166 183.826 106.171 183.404C106.175 182.982 106.075 182.565 105.879 182.191C105.683 181.817 105.398 181.497 105.048 181.261C104.348 180.671 102.708 179.814 103.128 178.78C103.447 177.994 105.008 176.467 106.195 177.258C106.332 177.341 106.496 177.367 106.651 177.33C106.807 177.293 106.941 177.196 107.025 177.059C107.109 176.923 107.135 176.759 107.097 176.603C107.06 176.448 106.963 176.313 106.826 176.23Z" fill="#083A55"/>
<path d="M39.171 163.19C37.758 164.139 35.662 163.635 34.488 161.411C34.465 161.387 34.465 161.34 34.442 161.317C36.242 160.337 38.315 156.917 37.11 155.3C36.178 154.048 33.851 154.369 32.967 157.2C32.288 159.372 33.158 160.664 32.85 160.664C29.55 161.272 28.88 156.244 31.024 153.22C31.424 152.661 30.511 151.936 30.017 152.635C27.238 156.565 28.755 162.999 33.365 161.741C34.718 164.641 37.739 165.529 39.779 164.176C40.385 163.771 39.8 162.766 39.171 163.19ZM36.271 156.635C36.1544 157.352 35.8954 158.039 35.5093 158.654C35.1232 159.269 34.6179 159.801 34.023 160.217C33.067 156.4 36.4 154.582 36.268 156.635H36.271Z" fill="#083A55"/>
<path d="M26.737 115.499C25.796 114.799 24.562 114.973 23.6 114.492C22.622 114.003 23.7 111.706 24.279 110.792C24.841 109.903 25.707 109.154 25.918 108.077C26.0558 107.568 26.0006 107.026 25.763 106.555C25.5255 106.084 25.1224 105.717 24.631 105.525C23.131 104.977 20.057 106.471 21.306 103.625C21.7471 102.628 22.4613 101.776 23.366 101.167C23.996 100.741 23.416 99.7433 22.781 100.16C19.75 102.153 18.287 106.598 22.266 106.598C23.126 106.598 24.178 106.316 24.654 106.879C25.216 107.628 24.419 108.679 23.975 109.243C22.733 110.814 21.175 113.799 22.617 115.19C23.859 116.39 26.272 115.582 26.55 117.297C26.728 118.397 25.867 119.281 25.122 119.942C25.021 120.053 24.9664 120.198 24.9696 120.347C24.9729 120.497 25.0338 120.639 25.1396 120.745C25.2454 120.85 25.388 120.911 25.5375 120.914C25.687 120.917 25.8319 120.863 25.942 120.761C28.304 118.668 28.068 116.493 26.737 115.499Z" fill="#083A55"/>
<path d="M58.579 36.7469C60.679 33.1329 57.852 32.2559 58.79 29.4899C58.956 28.9989 59.471 28.2429 60.054 28.4599C60.593 28.6599 61.093 29.2859 61.88 29.5359C64.139 30.2539 66.763 27.1469 64.198 24.0109C63.818 23.4889 62.818 24.1309 63.378 24.8309C64.128 25.7669 64.491 27.3899 63.332 28.1789C62.003 29.0789 61.441 27.4859 60.148 27.2659C58.486 26.9819 57.559 28.8809 57.479 30.2659C57.351 32.4809 58.452 33.5249 58.205 34.5969C58.0357 35.4147 57.6282 36.1641 57.034 36.7509C56.334 37.1579 55.944 36.4409 55.653 35.9079C55.291 35.2459 54.277 35.8349 54.646 36.4929C55.872 38.6779 57.652 38.3399 58.579 36.7469Z" fill="#083A55"/>
<path d="M185.65 37.4272C186.556 37.8092 190.083 37.8362 190.005 38.8782C189.856 40.8632 183.786 43.3412 185.557 46.5782C186.129 47.6262 187.429 47.8212 188.506 47.8902C189.255 47.9372 189.255 46.7672 188.506 46.7192C187.806 46.6742 186.588 46.6022 186.47 45.6892C186.141 43.1602 191.514 41.3662 191.199 38.6192C190.922 36.2092 185.976 36.9672 185.767 35.9272C185.081 33.9272 188.609 33.1402 190.66 30.4272C191.143 29.936 191.433 29.2883 191.48 28.6012C191.41 27.6062 190.565 26.7012 188.389 26.8452C187.64 26.8942 187.64 28.0562 188.389 28.0162C189.689 27.9462 190.711 28.2162 190.122 29.1862C188.671 31.5782 186.522 31.9862 185.276 33.5642C183.948 35.2382 184.532 36.9552 185.65 37.4272Z" fill="#083A55"/>
<path d="M190.848 122.243C192.071 123.861 189.611 126.013 189.467 129.899C189.332 133.537 194.217 131.499 193.541 130.299C193.004 129.347 192.396 130.726 191.387 130.814C190.409 130.899 190.581 129.933 190.755 128.871C191.248 125.849 193.573 123.312 191.598 121.309C190.155 119.846 188.913 121.509 186.283 122.128C184.206 122.619 186.007 118.458 186.283 116.603C186.72 113.674 185.093 111.661 181.883 113.466C181.757 113.547 181.668 113.674 181.633 113.82C181.598 113.965 181.621 114.118 181.696 114.248C181.771 114.377 181.893 114.473 182.037 114.515C182.181 114.557 182.335 114.542 182.468 114.473C183.191 114.073 184.333 113.473 184.88 114.426C185.78 116.001 184.432 118.34 184.154 120.513C183.914 122.389 184.74 123.734 186.729 123.205C189.523 122.461 190.143 121.309 190.848 122.243Z" fill="#083A55"/>
<path d="M15.2912 49.5989C15.1518 49.63 15.006 49.6119 14.8784 49.5477C14.7508 49.4836 14.6493 49.3773 14.5912 49.2469C14.533 48.1326 14.7003 47.018 15.0832 45.9699C15.7132 44.1699 17.1782 41.7909 15.5042 40.0939C14.0652 38.6349 12.7802 40.3019 10.1902 40.9129C7.11817 41.6379 12.1442 34.5409 9.37117 32.0639C8.29517 31.1029 6.88517 31.6349 5.78917 32.2509C5.66361 32.3323 5.57418 32.459 5.5394 32.6045C5.50462 32.7501 5.52715 32.9035 5.60233 33.0329C5.67751 33.1623 5.79958 33.2578 5.94326 33.2997C6.08694 33.3416 6.24122 33.3266 6.37417 33.2579C7.09617 32.8529 8.23917 32.2579 8.78517 33.2109C9.68517 34.7859 8.33817 37.1249 8.06017 39.2979C7.81417 41.2199 8.71617 42.5379 10.6352 41.9899C13.4352 41.1899 14.0612 40.0899 14.7552 41.0069C15.9762 42.6229 13.5162 44.8359 13.3742 48.6619C13.2382 52.3169 18.1432 50.2359 17.4472 49.0619C16.9082 48.1539 16.2872 49.5129 15.2912 49.5989Z" fill="#083A55"/>
<path d="M36.4526 19.9625C30.5916 22.4625 31.4296 22.3225 30.8336 21.9295C29.7086 21.1865 29.6756 24.2295 31.0916 23.5215C32.3095 24.7119 33.4143 26.0128 34.3916 27.4075C35.5596 27.8075 35.4916 26.6435 37.2916 20.5945C37.4826 20.0795 36.8976 19.7735 36.4526 19.9625Z" fill="#D4F7DC"/>
<path d="M28.3296 71.7238C26.7299 70.7398 25.3318 69.4608 24.2096 67.9548C23.9786 67.6468 22.8926 67.2278 22.6646 67.9308C21.4556 71.6568 19.6366 74.8638 23.0156 73.7368C26.3336 72.6308 26.4156 73.6638 28.3296 72.7068C28.7516 72.5428 28.6796 71.9368 28.3296 71.7238Z" fill="#D4F7DC"/>
<path d="M166.573 7.76446C164.378 8.38004 162.221 9.12263 160.112 9.98846C159.974 10.0363 159.858 10.1317 159.784 10.2576C159.71 10.3835 159.683 10.5316 159.709 10.6754C159.734 10.8191 159.81 10.9492 159.922 11.0421C160.035 11.135 160.177 11.1848 160.323 11.1825C161.158 11.9995 164.764 16.1165 165.005 14.3905C165.287 12.334 166.057 10.3749 167.252 8.67746C167.312 8.57268 167.341 8.45253 167.334 8.33181C167.327 8.2111 167.284 8.09509 167.212 7.99806C167.14 7.90103 167.041 7.82722 166.927 7.78571C166.814 7.74421 166.691 7.73682 166.573 7.76446Z" fill="#D4F7DC"/>
<path d="M193.914 176.253C189.168 178.253 187.825 178.042 187.64 178.688C187.553 178.737 187.48 178.808 187.429 178.894C187.378 178.981 187.352 179.079 187.352 179.179C187.352 179.279 187.378 179.378 187.429 179.464C187.48 179.551 187.553 179.622 187.64 179.671C189.04 180.683 190.489 181.662 191.878 182.671C191.956 182.714 192.043 182.74 192.133 182.745C192.222 182.751 192.312 182.736 192.395 182.702C192.478 182.669 192.552 182.617 192.613 182.551C192.673 182.484 192.718 182.406 192.744 182.32C193.063 180.488 193.671 178.718 194.544 177.076C194.804 176.7 194.407 176.045 193.914 176.253Z" fill="#D4F7DC"/>
<path d="M64.8049 183.699C62.7049 184.279 60.5909 184.823 58.4839 185.408C57.6509 184.867 57.3149 186.494 58.0839 186.649C65.9499 194.765 62.0739 190.844 65.4579 184.542C65.5098 184.442 65.532 184.33 65.5219 184.218C65.5119 184.106 65.4701 184 65.4013 183.911C65.3326 183.822 65.2399 183.755 65.1342 183.718C65.0285 183.68 64.9142 183.673 64.8049 183.699Z" fill="#D4F7DC"/>
<path d="M21.0512 75.0704C23.9182 74.5801 26.7559 73.9314 29.5512 73.1274C29.648 73.0969 29.7355 73.0423 29.8055 72.9688C29.8755 72.8953 29.9257 72.8052 29.9513 72.707C29.977 72.6087 29.9773 72.5056 29.9523 72.4072C29.9273 72.3089 29.8777 72.2184 29.8082 72.1444C29.0022 71.3084 24.2172 66.5724 23.4412 66.1514C23.365 66.1056 23.2792 66.0784 23.1906 66.0718C23.1019 66.0653 23.013 66.0797 22.931 66.1139C22.8489 66.148 22.7761 66.201 22.7183 66.2685C22.6605 66.336 22.6193 66.4161 22.5982 66.5024C20.7942 73.2324 19.5002 75.3334 21.0512 75.0704ZM28.2852 72.3084C26.1197 72.8902 23.9332 73.3906 21.7302 73.8084L23.4852 67.7214C23.5592 67.7934 25.3612 69.3854 28.2852 72.3084Z" fill="#083A55"/>
<path d="M34.7676 28.5309C34.8417 28.6007 34.9322 28.6504 35.0308 28.6755C35.1294 28.7006 35.2327 28.7003 35.3311 28.6745C35.4295 28.6487 35.5197 28.5983 35.5932 28.528C35.6668 28.4578 35.7213 28.37 35.7516 28.2729C36.6312 25.4979 37.358 22.6766 37.9286 19.8219C37.9556 19.7212 37.9554 19.6152 37.9281 19.5145C37.9009 19.4139 37.8474 19.3223 37.7733 19.2489C37.6992 19.1756 37.607 19.1232 37.506 19.097C37.4051 19.0709 37.299 19.0719 37.1986 19.0999C35.7896 19.5369 29.7166 21.5149 28.9586 21.9799C28.0746 22.5189 28.7736 22.8929 34.7676 28.5309ZM36.5986 20.5239C36.1305 22.7164 35.5683 24.8878 34.9136 27.0319C29.6936 22.0539 30.2966 22.7529 30.4186 22.6319C30.5166 22.5999 35.6236 20.7669 36.5986 20.5239Z" fill="#083A55"/>
<path d="M194.759 174.899C193.35 175.336 187.277 177.314 186.518 177.779C186.441 177.824 186.376 177.886 186.327 177.96C186.278 178.034 186.246 178.119 186.235 178.207C186.224 178.295 186.233 178.385 186.262 178.469C186.29 178.553 186.338 178.629 186.401 178.692C191.901 183.752 192.867 185.392 193.308 184.053C194.178 181.275 194.905 178.455 195.485 175.602C195.509 175.503 195.508 175.399 195.479 175.3C195.451 175.202 195.398 175.113 195.324 175.041C195.251 174.97 195.16 174.92 195.06 174.895C194.961 174.87 194.857 174.871 194.759 174.899ZM192.465 182.836C187.245 177.857 187.848 178.556 187.965 178.436C189.177 177.97 194.065 176.355 194.165 176.329C193.686 178.519 193.119 180.688 192.465 182.831V182.836Z" fill="#083A55"/>
<path d="M65.4383 182.457C65.2293 182.523 58.0803 184.796 57.1973 185.337C57.1207 185.382 57.0554 185.444 57.0065 185.518C56.9575 185.592 56.9262 185.677 56.9149 185.765C56.9036 185.853 56.9126 185.943 56.9413 186.027C56.97 186.111 57.0175 186.187 57.0803 186.25C62.5803 191.31 63.5463 192.95 63.9863 191.611C64.8972 188.845 65.6245 186.021 66.1633 183.159C66.183 183.061 66.1777 182.959 66.1478 182.863C66.118 182.767 66.0645 182.68 65.9923 182.61C65.9202 182.541 65.8317 182.49 65.7349 182.463C65.6381 182.436 65.5361 182.434 65.4383 182.457ZM63.1203 190.393C57.9003 185.415 58.5043 186.114 58.6253 185.993C59.8373 185.527 64.7253 183.911 64.8253 183.886C64.3439 186.077 63.7751 188.248 63.1203 190.393Z" fill="#083A55"/>
<path d="M166.829 6.61763C166.62 6.68363 159.471 8.95663 158.588 9.49763C158.511 9.54265 158.446 9.60461 158.397 9.67876C158.348 9.75292 158.317 9.8373 158.306 9.92544C158.294 10.0136 158.303 10.1031 158.332 10.1872C158.361 10.2713 158.408 10.3478 158.471 10.4106C163.971 15.4706 164.937 17.1106 165.377 15.7716C166.28 13.0033 167.008 10.1807 167.555 7.32063C167.575 7.22198 167.57 7.11989 167.54 7.02376C167.51 6.92763 167.457 6.84054 167.384 6.77053C167.312 6.70051 167.223 6.64981 167.126 6.62309C167.029 6.59637 166.927 6.59449 166.829 6.61763ZM164.535 14.5536C159.315 9.57563 159.918 10.2746 160.035 10.1536C161.247 9.68763 166.135 8.07163 166.235 8.04663C165.729 10.2466 165.167 12.4236 164.535 14.5536Z" fill="#083A55"/>
</svg>
