<svg width="16" height="22" viewBox="0 0 16 22" fill="none" xmlns="http://www.w3.org/2000/svg">
<path d="M15.5555 5.66732H11.1111C10.8658 5.66732 10.6667 5.46732 10.6667 5.22286V0.778443C10.6667 0.533109 10.4675 0.333984 10.2222 0.333984H1.33333C0.598208 0.333984 0 0.932193 0 1.66732V20.334C0 21.0691 0.598208 21.6673 1.33333 21.6673H14.6667C15.4018 21.6673 16 21.0691 16 20.334V6.11178C16 5.86644 15.8009 5.66732 15.5555 5.66732ZM15.1111 20.334C15.1111 20.5784 14.912 20.7784 14.6667 20.7784H1.33333C1.088 20.7784 0.888875 20.5784 0.888875 20.334V1.66732C0.888875 1.42286 1.088 1.22286 1.33333 1.22286H9.77779V5.22286C9.77779 5.95798 10.376 6.55619 11.1111 6.55619H15.1111V20.334V20.334Z" fill="#6B6C7E"/>
<path d="M15.8691 5.79732L10.5358 0.463984C10.3625 0.290651 10.0807 0.290651 9.90734 0.463984C9.73401 0.637318 9.73401 0.919109 9.90734 1.09244L15.2407 6.42578C15.3278 6.51198 15.4416 6.55557 15.5553 6.55557C15.6691 6.55557 15.7829 6.51203 15.8691 6.42578C16.0425 6.25244 16.0425 5.97065 15.8691 5.79732Z" fill="#6B6C7E"/>
<path d="M11.9991 8.33398H3.99915C3.75381 8.33398 3.55469 8.53311 3.55469 8.77844C3.55469 9.02378 3.75381 9.2229 3.99915 9.2229H11.9991C12.2445 9.2229 12.4436 9.02378 12.4436 8.77844C12.4436 8.53311 12.2445 8.33398 11.9991 8.33398Z" fill="#6B6C7E"/>
<path d="M11.9991 11.8887H3.99915C3.75381 11.8887 3.55469 12.0878 3.55469 12.3331C3.55469 12.5785 3.75381 12.7776 3.99915 12.7776H11.9991C12.2445 12.7776 12.4436 12.5785 12.4436 12.3331C12.4436 12.0878 12.2445 11.8887 11.9991 11.8887Z" fill="#6B6C7E"/>
<path d="M11.9991 15.4453H3.99915C3.75381 15.4453 3.55469 15.6444 3.55469 15.8898C3.55469 16.1351 3.75381 16.3342 3.99915 16.3342H11.9991C12.2445 16.3342 12.4436 16.1351 12.4436 15.8898C12.4436 15.6444 12.2445 15.4453 11.9991 15.4453Z" fill="#6B6C7E"/>
</svg>
