<svg xmlns="http://www.w3.org/2000/svg" width="15" height="18" viewBox="0 0 15 18" fill="none">
<path d="M13.7995 3.73684C13.9279 3.86513 14 4.03913 14 4.22058V16.0526C14 16.2341 13.9279 16.4081 13.7996 16.5364C13.6713 16.6648 13.4973 16.7368 13.3158 16.7368H1.68421C1.50275 16.7368 1.32871 16.6648 1.2004 16.5364C1.07209 16.4081 1 16.2341 1 16.0526V1.68421C1 1.50275 1.07209 1.32872 1.2004 1.2004C1.32871 1.07209 1.50275 1 1.68421 1H10.7794C10.9609 1.00004 11.1349 1.07215 11.2632 1.20047L13.7995 3.73684Z" stroke="#6B6C7E" stroke-linecap="round" stroke-linejoin="round"/>
<path d="M3.05249 14H5.10512" stroke="#6B6C7E" stroke-linecap="round" stroke-linejoin="round"/>
<path d="M3.05249 12.6318H5.10512" stroke="#6B6C7E" stroke-linecap="round" stroke-linejoin="round"/>
<path d="M3.05249 11.2627H5.10512" stroke="#6B6C7E" stroke-linecap="round" stroke-linejoin="round"/>
<path d="M3.05249 9.89502H5.10512" stroke="#6B6C7E" stroke-linecap="round" stroke-linejoin="round"/>
<path d="M3.05249 8.52588H5.10512" stroke="#6B6C7E" stroke-linecap="round" stroke-linejoin="round"/>
<path d="M3.05249 7.1582H5.10512" stroke="#6B6C7E" stroke-linecap="round" stroke-linejoin="round"/>
<path d="M3.05249 5.78906H5.10512" stroke="#6B6C7E" stroke-linecap="round" stroke-linejoin="round"/>
<path d="M9.89453 14H11.9472" stroke="#6B6C7E" stroke-linecap="round" stroke-linejoin="round"/>
<path d="M9.89453 12.6318H11.9472" stroke="#6B6C7E" stroke-linecap="round" stroke-linejoin="round"/>
<path d="M9.89453 11.2627H11.9472" stroke="#6B6C7E" stroke-linecap="round" stroke-linejoin="round"/>
<path d="M9.89453 9.89502H11.9472" stroke="#6B6C7E" stroke-linecap="round" stroke-linejoin="round"/>
<path d="M9.89453 8.52588H11.9472" stroke="#6B6C7E" stroke-linecap="round" stroke-linejoin="round"/>
<path d="M6.47314 14H8.52578" stroke="#6B6C7E" stroke-linecap="round" stroke-linejoin="round"/>
<path d="M6.47314 12.6318H8.52578" stroke="#6B6C7E" stroke-linecap="round" stroke-linejoin="round"/>
<path d="M6.47314 11.2627H8.52578" stroke="#6B6C7E" stroke-linecap="round" stroke-linejoin="round"/>
</svg>