<svg width="33" height="34" viewBox="0 0 33 34" fill="none" xmlns="http://www.w3.org/2000/svg">
<path d="M8.76125 0H21.8934C22.4845 0 23.0565 0.209474 23.5079 0.591233L31.4472 7.30657C32.0088 7.78158 32.3327 8.4798 32.3327 9.21534V30.1389C32.3327 33.1231 32.2986 33.3333 29.2374 33.3333H8.76125C5.7001 33.3333 5.66602 33.1231 5.66602 30.1389V3.19444C5.66602 0.210208 5.7001 0 8.76125 0Z" fill="#E9EAEE"/>
<rect y="17.666" width="19" height="11" rx="2" fill="#6B6C7E"/>
<path d="M5.19158 20.682C5.79358 20.682 6.29058 20.8313 6.68258 21.13C7.07458 21.424 7.34525 21.8277 7.49458 22.341H6.82258C6.69658 22.0143 6.49358 21.7553 6.21358 21.564C5.93358 21.368 5.59058 21.27 5.18458 21.27C4.86258 21.27 4.57325 21.3493 4.31658 21.508C4.06458 21.662 3.86392 21.886 3.71458 22.18C3.56992 22.4693 3.49758 22.81 3.49758 23.202C3.49758 23.5893 3.56992 23.9277 3.71458 24.217C3.86392 24.5063 4.06458 24.7303 4.31658 24.889C4.57325 25.043 4.86258 25.12 5.18458 25.12C5.59058 25.12 5.93358 25.0243 6.21358 24.833C6.49358 24.637 6.69658 24.3757 6.82258 24.049H7.49458C7.34525 24.5623 7.07458 24.9683 6.68258 25.267C6.29058 25.561 5.79358 25.708 5.19158 25.708C4.72958 25.708 4.32125 25.603 3.96658 25.393C3.61192 25.1783 3.33425 24.882 3.13358 24.504C2.93758 24.1213 2.83958 23.6873 2.83958 23.202C2.83958 22.712 2.93758 22.2757 3.13358 21.893C3.33425 21.5103 3.61192 21.214 3.96658 21.004C4.32125 20.7893 4.72958 20.682 5.19158 20.682ZM11.4684 24.385C11.4684 24.6183 11.4124 24.8353 11.3004 25.036C11.1884 25.2367 11.0181 25.4 10.7894 25.526C10.5608 25.652 10.2784 25.715 9.94245 25.715C9.61578 25.715 9.32412 25.6567 9.06745 25.54C8.81545 25.4187 8.61245 25.2553 8.45845 25.05C8.30912 24.84 8.22278 24.602 8.19945 24.336H8.87845C8.89245 24.476 8.93912 24.6137 9.01845 24.749C9.10245 24.8797 9.21912 24.9893 9.36845 25.078C9.52245 25.162 9.70678 25.204 9.92145 25.204C10.2014 25.204 10.4161 25.1293 10.5654 24.98C10.7148 24.8307 10.7894 24.6393 10.7894 24.406C10.7894 24.2053 10.7358 24.042 10.6284 23.916C10.5258 23.79 10.3974 23.692 10.2434 23.622C10.0894 23.5473 9.87945 23.468 9.61345 23.384C9.30078 23.2813 9.04878 23.1857 8.85745 23.097C8.67078 23.0037 8.50978 22.866 8.37445 22.684C8.24378 22.502 8.17845 22.2617 8.17845 21.963C8.17845 21.7063 8.23912 21.48 8.36045 21.284C8.48645 21.088 8.66378 20.9363 8.89245 20.829C9.12578 20.7217 9.39878 20.668 9.71145 20.668C10.1968 20.668 10.5818 20.787 10.8664 21.025C11.1511 21.2583 11.3168 21.557 11.3634 21.921H10.6774C10.6401 21.725 10.5398 21.5523 10.3764 21.403C10.2131 21.2537 9.99145 21.179 9.71145 21.179C9.45478 21.179 9.24945 21.2467 9.09545 21.382C8.94145 21.5127 8.86445 21.6993 8.86445 21.942C8.86445 22.1333 8.91345 22.2897 9.01145 22.411C9.11412 22.5277 9.24012 22.621 9.38945 22.691C9.53878 22.7563 9.74412 22.831 10.0054 22.915C10.3228 23.0177 10.5771 23.1157 10.7684 23.209C10.9644 23.3023 11.1301 23.4447 11.2654 23.636C11.4008 23.8227 11.4684 24.0723 11.4684 24.385ZM12.647 20.731L14.152 24.959L15.678 20.731H16.371L14.558 25.666H13.753L11.947 20.731H12.647Z" fill="white"/>
</svg>
