<svg width="50" height="55" viewBox="0 0 50 55" fill="none" xmlns="http://www.w3.org/2000/svg">
<path d="M49.9934 25.9905H32.9004V54.2422H49.9934V25.9905Z" fill="#562411"/>
<path d="M38.5859 53.3217C38.5859 53.8302 38.1748 54.2421 37.6671 54.2421H2.73012C2.22075 54.2421 1.81055 53.8302 1.81055 53.3217V0.918726C1.81055 0.410206 2.22075 0 2.73012 0H37.6671C38.1748 0 38.5859 0.410206 38.5859 0.918726V53.3217Z" fill="#7C3613"/>
<path d="M1.8125 0.918726C1.8125 0.410206 2.22271 0 2.73207 0H37.6691C38.1768 0 38.5878 0.410206 38.5878 0.918726V53.3217C38.5878 53.8302 38.1768 54.2421 37.6691 54.2421" fill="#6B2C10"/>
<path d="M11.155 40.2282C11.155 40.6638 10.8024 41.0147 10.3685 41.0147H9.45142C9.01664 41.0147 8.66406 40.6638 8.66406 40.2282V34.3302C8.66406 33.8946 9.01664 33.542 9.45142 33.542H10.3685C10.8024 33.542 11.155 33.8946 11.155 34.3302V40.2282Z" fill="#FFA300"/>
<path d="M8.66406 34.3302C8.66406 33.8946 9.01664 33.542 9.45142 33.542H10.3685C10.8024 33.542 11.155 33.8946 11.155 34.3302V40.2282" fill="#FF9700"/>
<path d="M13.3494 40.9477C13.3494 41.3833 13.785 41.7359 13.3494 41.7359H6.46825C6.03431 41.7359 6.46825 41.3833 6.46825 40.9477V40.3587C6.46825 39.923 6.82082 39.5721 7.25476 39.5721H12.5646C12.9976 39.5721 13.3502 39.923 13.3502 40.3587V40.9477H13.3494Z" fill="#AF4E23"/>
<path d="M6.46875 40.9477V40.3587C6.46875 39.923 6.82132 39.5721 7.25526 39.5721H12.5651C12.9981 39.5721 13.3507 39.923 13.3507 40.3587V40.9477" fill="#C1562D"/>
<path d="M6.30273 41.7343H13.5135V48.9451" fill="#6B2C10"/>
<path d="M21.4432 40.2282C21.4432 40.6638 21.0906 41.0147 20.6567 41.0147H19.7396C19.3057 41.0147 18.9531 40.6638 18.9531 40.2282V34.3302C18.9531 33.8946 19.3057 33.542 19.7396 33.542H20.6567C21.0906 33.542 21.4432 33.8946 21.4432 34.3302V40.2282Z" fill="#FFA300"/>
<path d="M18.9531 34.3302C18.9531 33.8946 19.3057 33.542 19.7396 33.542H20.6567C21.0906 33.542 21.4432 33.8946 21.4432 34.3302V40.2282" fill="#FF9700"/>
<path d="M23.6401 40.9477C23.6401 41.3833 24.0741 41.7359 23.6401 41.7359H16.7573C16.3234 41.7359 16.7573 41.3833 16.7573 40.9477V40.3587C16.7573 39.923 17.1099 39.5721 17.5447 39.5721H22.8545C23.2884 39.5721 23.641 39.923 23.641 40.3587V40.9477H23.6401Z" fill="#AF4E23"/>
<path d="M16.7578 40.9477V40.3587C16.7578 39.923 17.1104 39.5721 17.5452 39.5721H22.855C23.2889 39.5721 23.6415 39.923 23.6415 40.3587V40.9477" fill="#C1562D"/>
<path d="M16.5938 41.7343H23.8046V48.9451" fill="#6B2C10"/>
<path d="M31.7359 40.2282C31.7359 40.6638 31.3833 41.0147 30.9485 41.0147H30.0306C29.5967 41.0147 29.2441 40.6638 29.2441 40.2282V34.3302C29.2441 33.8946 29.5967 33.542 30.0306 33.542H30.9485C31.3833 33.542 31.7359 33.8946 31.7359 34.3302V40.2282Z" fill="#FFA300"/>
<path d="M29.2461 34.3302C29.2461 33.8946 29.5987 33.542 30.0326 33.542H30.9505C31.3853 33.542 31.7378 33.8946 31.7378 34.3302V40.2282" fill="#FF9700"/>
<path d="M33.9314 40.9477C33.9314 41.3833 34.3653 41.7359 33.9314 41.7359H27.0503C26.6163 41.7359 27.0503 41.3833 27.0503 40.9477V40.3587C27.0503 39.923 27.4029 39.5721 27.8368 39.5721H33.1457C33.5797 39.5721 33.9323 39.923 33.9323 40.3587V40.9477H33.9314Z" fill="#AF4E23"/>
<path d="M27.0508 40.9477V40.3587C27.0508 39.923 27.4034 39.5721 27.8373 39.5721H33.1462C33.5802 39.5721 33.9328 39.923 33.9328 40.3587V40.9477" fill="#C1562D"/>
<path d="M26.8848 41.7343H34.0956V48.9451" fill="#6B2C10"/>
<path d="M11.155 26.9888C11.155 27.4227 10.8024 27.7753 10.3685 27.7753H9.45142C9.01664 27.7753 8.66406 27.4227 8.66406 26.9888V21.0891C8.66406 20.6535 9.01664 20.3026 9.45142 20.3026H10.3685C10.8024 20.3026 11.155 20.6535 11.155 21.0891V26.9888Z" fill="#FFA300"/>
<path d="M8.66406 21.0891C8.66406 20.6535 9.01664 20.3026 9.45142 20.3026H10.3685C10.8024 20.3026 11.155 20.6535 11.155 21.0891V26.9888" fill="#FF9700"/>
<path d="M13.3494 27.7084C13.3494 28.1424 13.785 28.4949 13.3494 28.4949H6.46825C6.03431 28.4949 6.46825 28.1424 6.46825 27.7084V27.1177C6.46825 26.6837 6.82082 26.3312 7.25476 26.3312H12.5646C12.9976 26.3312 13.3502 26.6837 13.3502 27.1177V27.7084H13.3494Z" fill="#AF4E23"/>
<path d="M6.46875 27.7084V27.1177C6.46875 26.6837 6.82132 26.3312 7.25526 26.3312H12.5651C12.9981 26.3312 13.3507 26.6837 13.3507 27.1177V27.7084" fill="#C1562D"/>
<path d="M6.30273 28.4932H13.5135V35.704" fill="#6B2C10"/>
<path d="M21.4432 26.9888C21.4432 27.4227 21.0906 27.7753 20.6567 27.7753H19.7396C19.3057 27.7753 18.9531 27.4227 18.9531 26.9888V21.0891C18.9531 20.6535 19.3057 20.3026 19.7396 20.3026H20.6567C21.0906 20.3026 21.4432 20.6535 21.4432 21.0891V26.9888Z" fill="#FFA300"/>
<path d="M18.9531 21.0891C18.9531 20.6535 19.3057 20.3026 19.7396 20.3026H20.6567C21.0906 20.3026 21.4432 20.6535 21.4432 21.0891V26.9888" fill="#FF9700"/>
<path d="M23.6401 27.7084C23.6401 28.1424 24.0741 28.4949 23.6401 28.4949H16.7573C16.3234 28.4949 16.7573 28.1424 16.7573 27.7084V27.1177C16.7573 26.6837 17.1099 26.3312 17.5447 26.3312H22.8545C23.2884 26.3312 23.641 26.6837 23.641 27.1177V27.7084H23.6401Z" fill="#AF4E23"/>
<path d="M16.7578 27.7084V27.1177C16.7578 26.6837 17.1104 26.3312 17.5452 26.3312H22.855C23.2889 26.3312 23.6415 26.6837 23.6415 27.1177V27.7084" fill="#C1562D"/>
<path d="M16.5938 28.4932H23.8046V35.704" fill="#6B2C10"/>
<path d="M31.7359 26.9888C31.7359 27.4227 31.3833 27.7753 30.9485 27.7753H30.0306C29.5967 27.7753 29.2441 27.4227 29.2441 26.9888V21.0891C29.2441 20.6535 29.5967 20.3026 30.0306 20.3026H30.9485C31.3833 20.3026 31.7359 20.6535 31.7359 21.0891V26.9888Z" fill="#FFA300"/>
<path d="M29.2461 21.0891C29.2461 20.6535 29.5987 20.3026 30.0326 20.3026H30.9505C31.3853 20.3026 31.7378 20.6535 31.7378 21.0891V26.9888" fill="#FF9700"/>
<path d="M33.9314 27.7084C33.9314 28.1424 34.3653 28.4949 33.9314 28.4949H27.0503C26.6163 28.4949 27.0503 28.1424 27.0503 27.7084V27.1177C27.0503 26.6837 27.4029 26.3312 27.8368 26.3312H33.1457C33.5797 26.3312 33.9323 26.6837 33.9323 27.1177V27.7084H33.9314Z" fill="#AF4E23"/>
<path d="M27.0508 27.7084V27.1177C27.0508 26.6837 27.4034 26.3312 27.8373 26.3312H33.1462C33.5802 26.3312 33.9328 26.6837 33.9328 27.1177V27.7084" fill="#C1562D"/>
<path d="M26.8848 28.4932H34.0956V35.704" fill="#6B2C10"/>
<path d="M11.155 13.7478C11.155 14.1835 10.8024 14.5343 10.3685 14.5343H9.45142C9.01664 14.5343 8.66406 14.1835 8.66406 13.7478V7.84816C8.66406 7.41422 9.01664 7.06165 9.45142 7.06165H10.3685C10.8024 7.06165 11.155 7.41422 11.155 7.84816V13.7478Z" fill="#FFA300"/>
<path d="M8.66406 7.84816C8.66406 7.41422 9.01664 7.06165 9.45142 7.06165H10.3685C10.8024 7.06165 11.155 7.41422 11.155 7.84816V13.7478" fill="#FF9700"/>
<path d="M13.3494 14.4673C13.3494 14.903 13.785 15.2539 13.3494 15.2539H6.46825C6.03431 15.2539 6.46825 14.903 6.46825 14.4673V13.8783C6.46825 13.4427 6.82082 13.0918 7.25476 13.0918H12.5646C12.9976 13.0918 13.3502 13.4427 13.3502 13.8783V14.4673H13.3494Z" fill="#AF4E23"/>
<path d="M6.46875 14.4673V13.8783C6.46875 13.4427 6.82132 13.0918 7.25526 13.0918H12.5651C12.9981 13.0918 13.3507 13.4427 13.3507 13.8783V14.4673" fill="#C1562D"/>
<path d="M6.30273 15.2539H13.5135V22.4647" fill="#6B2C10"/>
<path d="M21.4432 13.7478C21.4432 14.1835 21.0906 14.5343 20.6567 14.5343H19.7396C19.3057 14.5343 18.9531 14.1835 18.9531 13.7478V7.84816C18.9531 7.41422 19.3057 7.06165 19.7396 7.06165H20.6567C21.0906 7.06165 21.4432 7.41422 21.4432 7.84816V13.7478Z" fill="#FFA300"/>
<path d="M18.9531 7.84816C18.9531 7.41422 19.3057 7.06165 19.7396 7.06165H20.6567C21.0906 7.06165 21.4432 7.41422 21.4432 7.84816V13.7478" fill="#FF9700"/>
<path d="M23.6401 14.4673C23.6401 14.903 24.0741 15.2539 23.6401 15.2539H16.7573C16.3234 15.2539 16.7573 14.903 16.7573 14.4673V13.8783C16.7573 13.4427 17.1099 13.0918 17.5447 13.0918H22.8545C23.2884 13.0918 23.641 13.4427 23.641 13.8783V14.4673H23.6401Z" fill="#AF4E23"/>
<path d="M16.7578 14.4673V13.8783C16.7578 13.4427 17.1104 13.0918 17.5452 13.0918H22.855C23.2889 13.0918 23.6415 13.4427 23.6415 13.8783V14.4673" fill="#C1562D"/>
<path d="M16.5938 15.2539H23.8046V22.4647" fill="#6B2C10"/>
<path d="M31.7359 13.7478C31.7359 14.1835 31.3833 14.5343 30.9485 14.5343H30.0306C29.5967 14.5343 29.2441 14.1835 29.2441 13.7478V7.84816C29.2441 7.41422 29.5967 7.06165 30.0306 7.06165H30.9485C31.3833 7.06165 31.7359 7.41422 31.7359 7.84816V13.7478Z" fill="#FFA300"/>
<path d="M29.2461 7.84816C29.2461 7.41422 29.5987 7.06165 30.0326 7.06165H30.9505C31.3853 7.06165 31.7378 7.41422 31.7378 7.84816V13.7478" fill="#FF9700"/>
<path d="M33.9314 14.4673C33.9314 14.903 34.3653 15.2539 33.9314 15.2539H27.0503C26.6163 15.2539 27.0503 14.903 27.0503 14.4673V13.8783C27.0503 13.4427 27.4029 13.0918 27.8368 13.0918H33.1457C33.5797 13.0918 33.9323 13.4427 33.9323 13.8783V14.4673H33.9314Z" fill="#AF4E23"/>
<path d="M27.0508 14.4673V13.8783C27.0508 13.4427 27.4034 13.0918 27.8373 13.0918H33.1462C33.5802 13.0918 33.9328 13.4427 33.9328 13.8783V14.4673" fill="#C1562D"/>
<path d="M26.8848 15.2539H34.0956V22.4647" fill="#6B2C10"/>
<path d="M22.2475 45.2023H18.1522C17.6835 45.2023 17.3047 45.5811 17.3047 46.0498V54.2421H23.095V46.0498C23.095 45.5811 22.7162 45.2023 22.2475 45.2023Z" fill="#5FD2FF"/>
<path d="M23.095 54.2421V46.0498C23.095 45.5811 22.7162 45.2023 22.2475 45.2023H18.1522C17.6835 45.2023 17.3047 45.5811 17.3047 46.0498" fill="#17A8E2"/>
<path d="M40.3994 53.8184C40.3994 54.0515 40.2095 54.2422 39.9756 54.2422H0.423767C0.190695 54.2422 0 54.0515 0 53.8184C0 53.5837 0.190695 53.3947 0.423767 53.3947H39.9756C40.2095 53.3947 40.3994 53.5837 40.3994 53.8184Z" fill="#6B2C10"/>
</svg>
