<svg width="24" height="24" viewBox="0 0 24 24" fill="none" xmlns="http://www.w3.org/2000/svg">
<path d="M11.2307 7.74329H8.90625V8.51809H11.2307V7.74329Z" fill="#0050C8"/>
<path d="M15.0998 7.74329H12.7754V8.51809H15.0998V7.74329Z" fill="#0050C8"/>
<path d="M11.2307 10.8378H8.90625V11.6126H11.2307V10.8378Z" fill="#0050C8"/>
<path d="M15.0998 10.8378H12.7754V11.6126H15.0998V10.8378Z" fill="#0050C8"/>
<path d="M11.2307 13.937H8.90625V14.7118H11.2307V13.937Z" fill="#0050C8"/>
<path d="M15.0998 13.937H12.7754V14.7118H15.0998V13.937Z" fill="#0050C8"/>
<path d="M11.2307 17.0315H8.90625V17.8063H11.2307V17.0315Z" fill="#0050C8"/>
<path d="M15.0998 17.0315H12.7754V17.8063H15.0998V17.0315Z" fill="#0050C8"/>
<path d="M11.2307 20.1307H8.90625V20.9055H11.2307V20.1307Z" fill="#0050C8"/>
<path d="M15.0998 20.1307H12.7754V20.9055H15.0998V20.1307Z" fill="#0050C8"/>
<path d="M20.5178 13.5496H18.1934V14.3244H20.5178V13.5496Z" fill="#0050C8"/>
<path d="M20.5178 15.4819H18.1934V16.2567H20.5178V15.4819Z" fill="#0050C8"/>
<path d="M20.5178 17.4189H18.1934V18.1937H20.5178V17.4189Z" fill="#0050C8"/>
<path d="M20.5178 19.356H18.1934V20.1308H20.5178V19.356Z" fill="#0050C8"/>
<path d="M20.5178 21.2882H18.1934V22.063H20.5178V21.2882Z" fill="#0050C8"/>
<path d="M4.25723 13.5496H3.48242V14.3244H4.25723V13.5496Z" fill="#0050C8"/>
<path d="M4.25723 15.4819H3.48242V16.2567H4.25723V15.4819Z" fill="#0050C8"/>
<path d="M4.25723 17.4189H3.48242V18.1937H4.25723V17.4189Z" fill="#0050C8"/>
<path d="M4.25723 19.356H3.48242V20.1308H4.25723V19.356Z" fill="#0050C8"/>
<path d="M4.25723 21.2882H3.48242V22.063H4.25723V21.2882Z" fill="#0050C8"/>
<path d="M5.80605 13.5496H5.03125V14.3244H5.80605V13.5496Z" fill="#0050C8"/>
<path d="M4.25723 11.6125H3.48242V12.3874H4.25723V11.6125Z" fill="#0050C8"/>
<path d="M5.80605 11.6125H5.03125V12.3874H5.80605V11.6125Z" fill="#0050C8"/>
<path d="M5.80605 15.4819H5.03125V16.2567H5.80605V15.4819Z" fill="#0050C8"/>
<path d="M5.80605 17.4189H5.03125V18.1937H5.80605V17.4189Z" fill="#0050C8"/>
<path d="M5.80605 19.356H5.03125V20.1308H5.80605V19.356Z" fill="#0050C8"/>
<path d="M5.80605 21.2882H5.03125V22.063H5.80605V21.2882Z" fill="#0050C8"/>
<path d="M22.4504 23.2252V11.6126H17.0315V4.64409H15.4583C15.2787 3.03307 13.9984 1.74803 12.3827 1.5685V0H11.6079V1.57323C9.99685 1.75276 8.71181 3.03307 8.53228 4.64882H6.95906V9.68032H1.54961V23.2299H0V24H24V23.2252H22.4504ZM12 2.32441C13.3606 2.32441 14.4945 3.33543 14.6835 4.64882H9.31653C9.50551 3.33543 10.6394 2.32441 12 2.32441ZM6.9685 23.2252H2.32441V10.4504H6.9685V23.2252ZM16.2614 23.2252H16.2567H7.74331V5.4189H16.2614V23.2252ZM21.6756 23.2252H17.0315V12.3874H21.6756V23.2252Z" fill="#0050C8"/>
</svg>
