<svg width="33" height="34" viewBox="0 0 33 34" fill="none" xmlns="http://www.w3.org/2000/svg">
<path d="M8.76125 0H21.8934C22.4845 0 23.0565 0.209474 23.5079 0.591233L31.4472 7.30657C32.0088 7.78158 32.3327 8.4798 32.3327 9.21534V30.1389C32.3327 33.1231 32.2986 33.3333 29.2374 33.3333H8.76125C5.7001 33.3333 5.66602 33.1231 5.66602 30.1389V3.19444C5.66602 0.210208 5.7001 0 8.76125 0Z" fill="#E9EAEE"/>
<rect y="17.666" width="19" height="11" rx="2" fill="#A066AA"/>
<path d="M6.6705 20.913C6.32983 20.9083 6.09183 20.9667 5.9565 21.088C5.82583 21.2093 5.7605 21.4193 5.7605 21.718V21.823H6.6705V22.383H5.7605V25.666H5.1235V22.383H4.5705V21.823H5.1235V21.669C5.1235 20.7497 5.63916 20.311 6.6705 20.353V20.913ZM7.25007 20.696C7.25007 20.5793 7.28974 20.486 7.36907 20.416C7.44841 20.3413 7.55341 20.304 7.68407 20.304C7.81474 20.304 7.91974 20.3413 7.99907 20.416C8.07841 20.486 8.11807 20.5793 8.11807 20.696C8.11807 20.8127 8.07841 20.9083 7.99907 20.983C7.91974 21.053 7.81474 21.088 7.68407 21.088C7.55341 21.088 7.44841 21.053 7.36907 20.983C7.28974 20.9083 7.25007 20.8127 7.25007 20.696ZM7.99907 21.823V25.666H7.36207V21.823H7.99907ZM9.66021 20.486V25.666H9.02321V20.486H9.66021ZM14.2193 23.531C14.2193 23.6663 14.21 23.783 14.1913 23.881H11.1183C11.1323 24.3197 11.256 24.6487 11.4893 24.868C11.7273 25.0873 12.0167 25.197 12.3573 25.197C12.6653 25.197 12.922 25.12 13.1273 24.966C13.3373 24.8073 13.4657 24.5973 13.5123 24.336H14.1913C14.1447 24.602 14.0397 24.84 13.8763 25.05C13.7177 25.26 13.51 25.4233 13.2533 25.54C12.9967 25.6567 12.7073 25.715 12.3853 25.715C12.0167 25.715 11.69 25.6357 11.4053 25.477C11.1207 25.3183 10.8967 25.092 10.7333 24.798C10.5747 24.4993 10.4953 24.1493 10.4953 23.748C10.4953 23.3467 10.5747 22.9967 10.7333 22.698C10.8967 22.3993 11.1207 22.1707 11.4053 22.012C11.69 21.8533 12.0167 21.774 12.3853 21.774C12.7587 21.774 13.083 21.8533 13.3583 22.012C13.6383 22.1707 13.8507 22.383 13.9953 22.649C14.1447 22.915 14.2193 23.209 14.2193 23.531ZM13.5753 23.573C13.5893 23.2883 13.5427 23.0503 13.4353 22.859C13.328 22.6677 13.181 22.5253 12.9943 22.432C12.8077 22.3387 12.6047 22.292 12.3853 22.292C12.0353 22.292 11.7413 22.4017 11.5033 22.621C11.2653 22.8357 11.137 23.153 11.1183 23.573H13.5753Z" fill="white"/>
</svg>
