<svg width="1114" height="77" viewBox="0 0 1114 77" fill="none" xmlns="http://www.w3.org/2000/svg">
<path d="M403.637 95.3667V77.9685C403.637 73.3542 405.47 68.9289 408.733 65.6661C411.995 62.4033 416.421 60.5703 421.035 60.5703C425.649 60.5703 430.075 62.4033 433.337 65.6661C436.6 68.9289 438.433 73.3542 438.433 77.9685V86.6676C438.433 89.8976 439.716 92.9953 442 95.2793C444.284 97.5632 447.382 98.8463 450.612 98.8463C453.842 98.8463 456.94 97.5632 459.224 95.2793C461.507 92.9953 462.791 89.8976 462.791 86.6676V60.5703" stroke="#60C87D" stroke-width="1.30486" stroke-linecap="round" stroke-linejoin="round"/>
<path d="M1014.31 95.6736C1014.31 101.211 1012.11 106.521 1008.2 110.437C1004.28 114.352 998.974 116.551 993.436 116.551C987.899 116.551 982.589 114.352 978.674 110.437C974.758 106.521 972.559 101.211 972.559 95.6736V64.3569C972.559 61.5883 973.658 58.9331 975.616 56.9755C977.574 55.0178 980.229 53.918 982.998 53.918H1003.88C1006.64 53.918 1009.3 55.0178 1011.26 56.9755C1013.21 58.9331 1014.31 61.5883 1014.31 64.3569V95.6736Z" stroke="#60C87D" stroke-width="1.30486" stroke-linecap="round" stroke-linejoin="round"/>
<path d="M972.559 71.3164H1014.31" stroke="#60C87D" stroke-width="1.30486" stroke-linecap="round" stroke-linejoin="round"/>
<path d="M993.434 71.3179V53.9197C993.434 49.3054 995.267 44.8801 998.529 41.6173C1001.79 38.3545 1006.22 36.5215 1010.83 36.5215C1015.45 36.5215 1019.87 38.3545 1023.13 41.6173C1026.4 44.8801 1028.23 49.3054 1028.23 53.9197V62.6188C1028.23 65.8488 1029.51 68.9465 1031.8 71.2304C1034.08 73.5144 1037.18 74.7975 1040.41 74.7975C1043.64 74.7975 1046.74 73.5144 1049.02 71.2304C1051.3 68.9465 1052.59 65.8488 1052.59 62.6188V36.5215" stroke="#60C87D" stroke-width="1.30486" stroke-linecap="round" stroke-linejoin="round"/>
<g clip-path="url(#clip0_19464_86965)">
<path d="M279.4 62.73L243.137 72.4466C240.056 73.2721 238.228 76.4392 239.053 79.5203L245.033 101.836C245.858 104.917 249.025 106.745 252.107 105.92L288.369 96.2033C291.45 95.3777 293.279 92.2107 292.453 89.1295L286.474 66.814C285.648 63.7329 282.481 61.9044 279.4 62.73Z" stroke="#60C87D" stroke-width="1.30486" stroke-linecap="round" stroke-linejoin="round"/>
</g>
<g clip-path="url(#clip1_19464_86965)">
<path d="M492.355 -10.7421L461.332 -2.42929C458.696 -1.72297 457.131 0.986517 457.837 3.62253L462.953 22.7142C463.659 25.3502 466.369 26.9145 469.005 26.2082L500.029 17.8954C502.665 17.189 504.229 14.4796 503.523 11.8436L498.407 -7.24812C497.701 -9.88413 494.991 -11.4485 492.355 -10.7421Z" stroke="#60C87D" stroke-width="1.30486" stroke-linecap="round" stroke-linejoin="round"/>
<path d="M517.091 34.5365C517.377 34.954 517.559 35.434 517.621 35.9362C517.684 36.4384 517.625 36.9483 517.449 37.423C517.274 37.8977 516.987 38.3233 516.613 38.6643C516.239 39.0053 515.789 39.2517 515.3 39.3827L466.526 52.4517C466.037 52.5827 465.524 52.5945 465.029 52.4862C464.535 52.3779 464.074 52.1526 463.684 51.8292C463.295 51.5058 462.989 51.0938 462.792 50.6278C462.595 50.1617 462.512 49.6551 462.551 49.1505L463.85 32.4147C463.962 30.974 464.518 29.6035 465.441 28.492C466.365 27.3806 467.61 26.583 469.006 26.2091L500.03 17.8962C501.426 17.522 502.903 17.59 504.258 18.0909C505.613 18.5919 506.78 19.501 507.596 20.6929L517.091 34.5365Z" stroke="#60C87D" stroke-width="1.30486" stroke-linecap="round" stroke-linejoin="round"/>
<path d="M499.268 43.6793L482.563 48.1555L483.031 40.3566L494.963 37.1594L499.268 43.6793Z" stroke="#60C87D" stroke-width="1.30486" stroke-linecap="round" stroke-linejoin="round"/>
<path d="M470.914 33.373L473.301 32.7336" stroke="#60C87D" stroke-width="1.30486" stroke-linecap="round" stroke-linejoin="round"/>
<path d="M478.074 31.4531L480.461 30.8137" stroke="#60C87D" stroke-width="1.30486" stroke-linecap="round" stroke-linejoin="round"/>
<path d="M492.395 27.6152L494.781 26.9758" stroke="#60C87D" stroke-width="1.30486" stroke-linecap="round" stroke-linejoin="round"/>
<path d="M499.551 25.6992L501.937 25.0598" stroke="#60C87D" stroke-width="1.30486" stroke-linecap="round" stroke-linejoin="round"/>
<path d="M485.23 29.5352L487.617 28.8957" stroke="#60C87D" stroke-width="1.30486" stroke-linecap="round" stroke-linejoin="round"/>
<path d="M469.809 38.7832L472.195 38.1438" stroke="#60C87D" stroke-width="1.30486" stroke-linecap="round" stroke-linejoin="round"/>
<path d="M476.965 36.8633L498.443 31.1082" stroke="#60C87D" stroke-width="1.30486" stroke-linecap="round" stroke-linejoin="round"/>
<path d="M503.215 29.832L505.601 29.1926" stroke="#60C87D" stroke-width="1.30486" stroke-linecap="round" stroke-linejoin="round"/>
</g>
<g clip-path="url(#clip2_19464_86965)">
<path d="M723.316 62.3418L692.292 70.6547C689.656 71.361 688.092 74.0705 688.798 76.7065L693.914 95.7982C694.62 98.4342 697.33 99.9985 699.966 99.2922L730.99 90.9793C733.626 90.273 735.19 87.5635 734.484 84.9275L729.368 65.8359C728.662 63.1999 725.952 61.6355 723.316 62.3418Z" stroke="#60C87D" stroke-width="1.30486" stroke-linecap="round" stroke-linejoin="round"/>
</g>
<g clip-path="url(#clip3_19464_86965)">
<path d="M663.228 4.47715C663.228 3.97246 663.028 3.48844 662.671 3.13157C662.314 2.77471 661.83 2.57422 661.325 2.57422H625.958C625.453 2.57433 624.969 2.77488 624.612 3.13178L620.018 7.72545C619.662 8.08223 619.461 8.56617 619.461 9.07082V44.4386C619.461 44.9433 619.661 45.4273 620.018 45.7842C620.375 46.1411 620.859 46.3416 621.364 46.3416H661.325C661.83 46.3416 662.314 46.1411 662.671 45.7842C663.028 45.4273 663.228 44.9433 663.228 44.4386V4.47715Z" stroke="#60C87D" stroke-width="1.30486" stroke-linecap="round" stroke-linejoin="round"/>
<path d="M655.614 2.57422H627.07V12.0889H655.614V2.57422Z" stroke="#60C87D" stroke-width="1.30486" stroke-linecap="round" stroke-linejoin="round"/>
<path d="M655.614 40.6328H627.07V46.3416H655.614V40.6328Z" stroke="#60C87D" stroke-width="1.30486" stroke-linecap="round" stroke-linejoin="round"/>
<path d="M641.342 31.118C645.546 31.118 648.954 27.7101 648.954 23.5062C648.954 19.3024 645.546 15.8945 641.342 15.8945C637.138 15.8945 633.73 19.3024 633.73 23.5062C633.73 27.7101 637.138 31.118 641.342 31.118Z" stroke="#60C87D" stroke-width="1.30486" stroke-linecap="round" stroke-linejoin="round"/>
<path d="M646.098 36.8262H655.612" stroke="#60C87D" stroke-width="1.30486" stroke-linecap="round" stroke-linejoin="round"/>
<path d="M637.535 21.6035V25.4094" stroke="#60C87D" stroke-width="1.30486" stroke-linecap="round" stroke-linejoin="round"/>
<path d="M641.343 23.0312C641.437 23.0312 641.529 23.0592 641.607 23.1114C641.685 23.1637 641.746 23.238 641.782 23.3249C641.818 23.4119 641.828 23.5075 641.81 23.5998C641.791 23.6921 641.746 23.7768 641.679 23.8434C641.613 23.9099 641.528 23.9552 641.436 23.9736C641.343 23.9919 641.248 23.9825 641.161 23.9465C641.074 23.9105 641 23.8495 640.947 23.7713C640.895 23.6931 640.867 23.6011 640.867 23.507C640.867 23.3808 640.917 23.2598 641.007 23.1706C641.096 23.0814 641.217 23.0312 641.343 23.0312Z" stroke="#60C87D" stroke-width="1.30486" stroke-linecap="round" stroke-linejoin="round"/>
</g>
<g clip-path="url(#clip4_19464_86965)">
<path d="M329.641 42.8887H335.078" stroke="#60C87D" stroke-width="1.30486" stroke-linecap="round" stroke-linejoin="round"/>
<path d="M347.313 48.3378H314.691C313.61 48.3292 312.576 47.895 311.812 47.1292C311.049 46.3634 310.618 45.3277 310.613 44.2465V-4.68597C310.617 -5.76634 311.048 -6.80144 311.812 -7.56538C312.576 -8.32932 313.611 -8.76009 314.691 -8.76367H350.031C351.113 -8.76367 352.15 -8.33406 352.914 -7.56934C353.679 -6.80462 354.109 -5.76744 354.109 -4.68597V32.0134" stroke="#60C87D" stroke-width="1.30486" stroke-linecap="round" stroke-linejoin="round"/>
<path d="M350.656 37.4528H317.406C317.046 37.4528 316.7 37.3096 316.445 37.0547C316.19 36.7998 316.047 36.4541 316.047 36.0936V-1.96498C316.047 -2.32548 316.19 -2.6712 316.445 -2.92611C316.7 -3.18101 317.046 -3.32422 317.406 -3.32422H347.309C347.67 -3.32422 348.015 -3.18101 348.27 -2.92611C348.525 -2.6712 348.669 -2.32548 348.669 -1.96498V27.7669" stroke="#60C87D" stroke-width="1.30486" stroke-linecap="round" stroke-linejoin="round"/>
<path d="M373.139 53.7638L364.983 42.8899V30.4964C364.983 25.8913 359.326 21.5255 354.109 17.0645" stroke="#60C87D" stroke-width="1.30486" stroke-linecap="round" stroke-linejoin="round"/>
<path d="M356.828 34.7341L350.712 28.6176C350.171 28.0771 349.438 27.7734 348.673 27.7734C347.908 27.7734 347.175 28.0771 346.634 28.6176C346.192 29.2054 345.953 29.921 345.953 30.6564C345.953 31.3919 346.192 32.1074 346.634 32.6953L354.11 41.5303V44.2488C354.11 46.9672 359.547 53.7634 359.547 53.7634" stroke="#60C87D" stroke-width="1.30486" stroke-linecap="round" stroke-linejoin="round"/>
<path d="M324.203 23.8594H340.514" stroke="#60C87D" stroke-width="1.30486" stroke-linecap="round" stroke-linejoin="round"/>
<path d="M324.203 15.7031H340.514" stroke="#60C87D" stroke-width="1.30486" stroke-linecap="round" stroke-linejoin="round"/>
<path d="M324.203 7.54883H335.077" stroke="#60C87D" stroke-width="1.30486" stroke-linecap="round" stroke-linejoin="round"/>
</g>
<g clip-path="url(#clip5_19464_86965)">
<path d="M591.324 109.033H558.703C557.622 109.025 556.587 108.59 555.824 107.824C555.061 107.059 554.63 106.023 554.625 104.942V56.0093C554.629 54.929 555.059 53.8939 555.823 53.1299C556.587 52.366 557.622 51.9352 558.703 51.9316H594.043C595.124 51.9316 596.161 52.3613 596.926 53.126C597.691 53.8907 598.12 54.9279 598.12 56.0093V92.7087" stroke="#60C87D" stroke-width="1.30486" stroke-linecap="round" stroke-linejoin="round"/>
<path d="M594.667 98.1462H561.418C561.057 98.1462 560.712 98.003 560.457 97.7481C560.202 97.4931 560.059 97.1474 560.059 96.7869V58.7284C560.059 58.3679 560.202 58.0222 560.457 57.7673C560.712 57.5123 561.057 57.3691 561.418 57.3691H591.321C591.681 57.3691 592.027 57.5123 592.282 57.7673C592.537 58.0222 592.68 58.3679 592.68 58.7284V88.4603" stroke="#60C87D" stroke-width="1.30486" stroke-linecap="round" stroke-linejoin="round"/>
<path d="M568.211 76.3984H584.522" stroke="#60C87D" stroke-width="1.30486" stroke-linecap="round" stroke-linejoin="round"/>
<path d="M568.211 68.2422H579.085" stroke="#60C87D" stroke-width="1.30486" stroke-linecap="round" stroke-linejoin="round"/>
</g>
<path d="M859.431 112.866H828.114C827.076 112.858 826.083 112.441 825.35 111.706C824.618 110.971 824.204 109.977 824.199 108.939V61.9634C824.203 60.9263 824.616 59.9326 825.35 59.1992C826.083 58.4658 827.077 58.0523 828.114 58.0488H862.04C863.079 58.0488 864.074 58.4613 864.808 59.1954C865.542 59.9295 865.955 60.9252 865.955 61.9634V97.1948" stroke="#60C87D" stroke-width="1.30486" stroke-linecap="round" stroke-linejoin="round"/>
<path d="M862.642 102.414H830.723C830.377 102.414 830.045 102.276 829.8 102.031C829.555 101.787 829.418 101.455 829.418 101.109V64.5724C829.418 64.2264 829.555 63.8945 829.8 63.6498C830.045 63.4051 830.377 63.2676 830.723 63.2676H859.43C859.776 63.2676 860.108 63.4051 860.353 63.6498C860.597 63.8945 860.735 64.2264 860.735 64.5724V93.1151" stroke="#60C87D" stroke-width="1.30486" stroke-linecap="round" stroke-linejoin="round"/>
<path d="M837.246 73.707H847.685" stroke="#60C87D" stroke-width="1.30486" stroke-linecap="round" stroke-linejoin="round"/>
<g clip-path="url(#clip6_19464_86965)">
<path d="M117.106 102.565L89.9854 86.9071C89.0906 86.381 88.4392 85.5236 88.1722 84.5205C87.9052 83.5175 88.0442 82.4496 88.559 81.5484L112.047 40.8667C112.568 39.9702 113.423 39.3164 114.425 39.048C115.427 38.7795 116.494 38.9183 117.394 39.4339L146.775 56.3971C147.674 56.9162 148.33 57.7712 148.599 58.7741C148.868 59.7769 148.727 60.8454 148.208 61.7445L130.592 92.2558" stroke="#60C87D" stroke-width="1.30486" stroke-linecap="round" stroke-linejoin="round"/>
<path d="M125.114 95.121L97.4711 79.1612C97.1714 78.9882 96.9527 78.7032 96.8632 78.3689C96.7736 78.0346 96.8205 77.6785 96.9935 77.3788L115.262 45.7375C115.435 45.4378 115.72 45.2191 116.054 45.1295C116.388 45.0399 116.744 45.0868 117.044 45.2599L141.905 59.6134C142.205 59.7864 142.424 60.0714 142.513 60.4057C142.603 60.74 142.556 61.0961 142.383 61.3958L128.111 86.1145" stroke="#60C87D" stroke-width="1.30486" stroke-linecap="round" stroke-linejoin="round"/>
<path d="M109.645 71.123L123.205 78.9522" stroke="#60C87D" stroke-width="1.30486" stroke-linecap="round" stroke-linejoin="round"/>
<path d="M113.559 64.3438L127.119 72.1729" stroke="#60C87D" stroke-width="1.30486" stroke-linecap="round" stroke-linejoin="round"/>
<path d="M117.473 57.5625L126.513 62.782" stroke="#60C87D" stroke-width="1.30486" stroke-linecap="round" stroke-linejoin="round"/>
</g>
<g clip-path="url(#clip7_19464_86965)">
<path d="M774.684 43.623H778.054" stroke="#60C87D" stroke-width="1.30486" stroke-linecap="round" stroke-linejoin="round"/>
<path d="M785.636 47.0025H765.411C764.741 46.9972 764.099 46.728 763.626 46.2532C763.153 45.7784 762.886 45.1362 762.883 44.4659V14.1278C762.885 13.458 763.152 12.8162 763.626 12.3425C764.099 11.8689 764.741 11.6018 765.411 11.5996H787.322C787.992 11.5996 788.635 11.866 789.11 12.3401C789.584 12.8142 789.85 13.4573 789.85 14.1278V36.8814" stroke="#60C87D" stroke-width="1.30486" stroke-linecap="round" stroke-linejoin="round"/>
<path d="M787.715 40.2505H767.101C766.877 40.2505 766.663 40.1617 766.505 40.0037C766.347 39.8456 766.258 39.6313 766.258 39.4078V15.8115C766.258 15.588 766.347 15.3736 766.505 15.2156C766.663 15.0575 766.877 14.9688 767.101 14.9688H785.64C785.864 14.9688 786.078 15.0575 786.236 15.2156C786.394 15.3736 786.483 15.588 786.483 15.8115V34.2452" stroke="#60C87D" stroke-width="1.30486" stroke-linecap="round" stroke-linejoin="round"/>
<path d="M801.65 50.3649L796.593 43.6231V35.9391C796.593 33.084 793.086 30.3772 789.852 27.6113" stroke="#60C87D" stroke-width="1.30486" stroke-linecap="round" stroke-linejoin="round"/>
<path d="M791.536 38.5676L787.743 34.7753C787.408 34.4402 786.953 34.252 786.479 34.252C786.005 34.252 785.551 34.4402 785.215 34.7753C784.941 35.1398 784.793 35.5834 784.793 36.0394C784.793 36.4954 784.941 36.939 785.215 37.3035L789.85 42.7812V44.4667C789.85 46.1521 793.221 50.3657 793.221 50.3657" stroke="#60C87D" stroke-width="1.30486" stroke-linecap="round" stroke-linejoin="round"/>
<path d="M771.312 31.8262H781.425" stroke="#60C87D" stroke-width="1.30486" stroke-linecap="round" stroke-linejoin="round"/>
<path d="M771.312 26.7695H781.425" stroke="#60C87D" stroke-width="1.30486" stroke-linecap="round" stroke-linejoin="round"/>
<path d="M771.312 21.7129H778.054" stroke="#60C87D" stroke-width="1.30486" stroke-linecap="round" stroke-linejoin="round"/>
</g>
<g clip-path="url(#clip8_19464_86965)">
<path d="M220.579 47.8912C220.579 52.2171 218.86 56.3658 215.801 59.4246C212.742 62.4835 208.594 64.202 204.268 64.202C199.942 64.202 195.793 62.4835 192.734 59.4246C189.675 56.3658 187.957 52.2171 187.957 47.8912V23.4249C187.957 21.262 188.816 19.1876 190.346 17.6582C191.875 16.1288 193.949 15.2695 196.112 15.2695H212.423C214.586 15.2695 216.661 16.1288 218.19 17.6582C219.719 19.1876 220.579 21.262 220.579 23.4249V47.8912Z" stroke="#60C87D" stroke-width="1.30486" stroke-linecap="round" stroke-linejoin="round"/>
<path d="M187.957 28.8613H220.579" stroke="#60C87D" stroke-width="1.30486" stroke-linecap="round" stroke-linejoin="round"/>
<path d="M204.266 28.8605V15.2681C204.266 11.6632 205.698 8.20594 208.247 5.65689C210.796 3.10783 214.253 1.67578 217.858 1.67578C221.463 1.67578 224.92 3.10783 227.469 5.65689C230.018 8.20594 231.45 11.6632 231.45 15.2681V22.0643C231.45 24.5877 232.453 27.0078 234.237 28.7922C236.021 30.5765 238.442 31.5789 240.965 31.5789C243.488 31.5789 245.908 30.5765 247.693 28.7922C249.477 27.0078 250.48 24.5877 250.48 22.0643V1.67578" stroke="#60C87D" stroke-width="1.30486" stroke-linecap="round" stroke-linejoin="round"/>
</g>
<g clip-path="url(#clip9_19464_86965)">
<path d="M64.6725 38.403C64.6725 42.8154 62.9197 47.0471 59.7996 50.1671C56.6796 53.2872 52.4479 55.04 48.0355 55.04C43.623 55.04 39.3914 53.2872 36.2713 50.1671C33.1513 47.0471 31.3984 42.8154 31.3984 38.403V13.4474C31.3984 11.2412 32.2748 9.12537 33.8349 7.56534C35.3949 6.00532 37.5107 5.12891 39.7169 5.12891H56.354C58.5602 5.12891 60.676 6.00532 62.236 7.56534C63.7961 9.12537 64.6725 11.2412 64.6725 13.4474V38.403Z" stroke="#60C87D" stroke-width="1.30486" stroke-linecap="round" stroke-linejoin="round"/>
<path d="M31.3984 18.9941H64.6725" stroke="#60C87D" stroke-width="1.30486" stroke-linecap="round" stroke-linejoin="round"/>
<path d="M48.0352 18.994V5.12981C48.0352 1.4528 49.4958 -2.07361 52.0959 -4.67365C54.6959 -7.27369 58.2223 -8.73437 61.8993 -8.73438C65.5764 -8.73438 69.1028 -7.27369 71.7028 -4.67365C74.3028 -2.07361 75.7635 1.4528 75.7635 5.12981V12.0619C75.7635 14.6358 76.786 17.1043 78.606 18.9243C80.4261 20.7444 82.8946 21.7668 85.4685 21.7668C88.0424 21.7668 90.5109 20.7444 92.3309 18.9243C94.1509 17.1043 95.1734 14.6358 95.1734 12.0619V-8.73438" stroke="#60C87D" stroke-width="1.30486" stroke-linecap="round" stroke-linejoin="round"/>
</g>
<g clip-path="url(#clip10_19464_86965)">
<path d="M915.133 -4.21675L884.109 4.0961C881.473 4.80242 879.909 7.51191 880.615 10.1479L885.73 29.2396C886.437 31.8756 889.146 33.4399 891.782 32.7336L922.806 24.4208C925.442 23.7144 927.007 21.005 926.3 18.3689L921.185 -0.722728C920.478 -3.35874 917.769 -4.92306 915.133 -4.21675Z" stroke="#60C87D" stroke-width="1.30486" stroke-linecap="round" stroke-linejoin="round"/>
<path d="M939.869 41.0619C940.155 41.4794 940.337 41.9594 940.399 42.4616C940.461 42.9638 940.402 43.4737 940.227 43.9484C940.051 44.423 939.764 44.8487 939.39 45.1897C939.016 45.5307 938.566 45.777 938.077 45.9081L889.303 58.9771C888.814 59.1081 888.301 59.1199 887.807 59.0116C887.312 58.9033 886.851 58.678 886.462 58.3546C886.072 58.0312 885.766 57.6192 885.569 57.1531C885.372 56.6871 885.289 56.1805 885.329 55.6759L886.627 38.9401C886.739 37.4994 887.295 36.1289 888.219 35.0174C889.142 33.906 890.388 33.1084 891.784 32.7345L922.808 24.4216C924.203 24.0474 925.68 24.1154 927.035 24.6163C928.391 25.1173 929.557 26.0264 930.374 27.2183L939.869 41.0619Z" stroke="#60C87D" stroke-width="1.30486" stroke-linecap="round" stroke-linejoin="round"/>
<path d="M922.045 50.2028L905.34 54.6789L905.808 46.8801L917.741 43.6828L922.045 50.2028Z" stroke="#60C87D" stroke-width="1.30486" stroke-linecap="round" stroke-linejoin="round"/>
<path d="M893.691 39.8965L896.078 39.257" stroke="#60C87D" stroke-width="1.30486" stroke-linecap="round" stroke-linejoin="round"/>
<path d="M900.852 37.9785L903.238 37.3391" stroke="#60C87D" stroke-width="1.30486" stroke-linecap="round" stroke-linejoin="round"/>
<path d="M915.168 34.1406L917.554 33.5012" stroke="#60C87D" stroke-width="1.30486" stroke-linecap="round" stroke-linejoin="round"/>
<path d="M922.324 32.2227L924.711 31.5832" stroke="#60C87D" stroke-width="1.30486" stroke-linecap="round" stroke-linejoin="round"/>
<path d="M908.008 36.0586L910.394 35.4191" stroke="#60C87D" stroke-width="1.30486" stroke-linecap="round" stroke-linejoin="round"/>
<path d="M892.582 45.3086L894.968 44.6691" stroke="#60C87D" stroke-width="1.30486" stroke-linecap="round" stroke-linejoin="round"/>
<path d="M899.738 43.3887L921.216 37.6336" stroke="#60C87D" stroke-width="1.30486" stroke-linecap="round" stroke-linejoin="round"/>
<path d="M925.988 36.3574L928.375 35.718" stroke="#60C87D" stroke-width="1.30486" stroke-linecap="round" stroke-linejoin="round"/>
</g>
<defs>
<clipPath id="clip0_19464_86965">
<rect width="69.3082" height="69.3082" fill="white" transform="translate(227.047 73.7676) rotate(-15)"/>
</clipPath>
<clipPath id="clip1_19464_86965">
<rect width="59.2954" height="59.2954" fill="white" transform="translate(447.57 -1.29883) rotate(-15)"/>
</clipPath>
<clipPath id="clip2_19464_86965">
<rect width="59.2954" height="59.2954" fill="white" transform="translate(678.531 71.7871) rotate(-15)"/>
</clipPath>
<clipPath id="clip3_19464_86965">
<rect width="45.6703" height="45.6703" fill="white" transform="translate(618.508 1.62305)"/>
</clipPath>
<clipPath id="clip4_19464_86965">
<rect width="65.2432" height="65.2432" fill="white" transform="translate(309.254 -10.1211)"/>
</clipPath>
<clipPath id="clip5_19464_86965">
<rect width="65.2432" height="65.2432" fill="white" transform="translate(553.262 50.5723)"/>
</clipPath>
<clipPath id="clip6_19464_86965">
<rect width="62.6335" height="62.6335" fill="white" transform="translate(113.523 35.6953) rotate(30)"/>
</clipPath>
<clipPath id="clip7_19464_86965">
<rect width="40.4508" height="40.4508" fill="white" transform="translate(762.043 10.7559)"/>
</clipPath>
<clipPath id="clip8_19464_86965">
<rect width="65.2432" height="65.2432" fill="white" transform="translate(186.594 0.318359)"/>
</clipPath>
<clipPath id="clip9_19464_86965">
<rect width="66.5481" height="66.5481" fill="white" transform="translate(30.0117 -10.1211)"/>
</clipPath>
<clipPath id="clip10_19464_86965">
<rect width="59.2954" height="59.2954" fill="white" transform="translate(870.344 5.22656) rotate(-15)"/>
</clipPath>
</defs>
</svg>
