<svg width="150" height="50" xmlns="http://www.w3.org/2000/svg" viewBox="0 0 732.93 176.95"><defs><style>.cls-1{font-size:162.49px;font-family:Raleway-Heavy, Raleway;font-weight:800;}.cls-1,.cls-3{fill:#2655a2;}.cls-2{letter-spacing:-0.01em;}.cls-4{fill:#52c3f1;}.cls-5{fill:#b3cbeb;}</style></defs><g id="Layer_2" data-name="Layer 2"><g id="Layer_1-2" data-name="Layer 1"><text class="cls-1" transform="translate(182.57 138.93)"><tspan class="cls-2">D</tspan><tspan x="115.53" y="0">SLMS</tspan></text><path class="cls-3" d="M123.44,17.39V85.32A7.67,7.67,0,0,1,120,91.71l-18.25,12.07V68.24a7.67,7.67,0,0,0-3.58-6.48L64.42,40.43a6.29,6.29,0,0,1,3.26-5.51L112.1,10.67A7.66,7.66,0,0,1,123.44,17.39Z"/><path class="cls-4" d="M101.74,68.24v35.54l-35,23.15a1.51,1.51,0,0,1-2.34-1.27V40.43L98.16,61.76A7.65,7.65,0,0,1,101.74,68.24Z"/><path class="cls-5" d="M101.74,103.78v37.65A7.67,7.67,0,0,1,90.06,148l-22-13.51a7.69,7.69,0,0,1-3.64-6.54v-2.26a1.51,1.51,0,0,0,2.34,1.27Z"/><path class="cls-5" d="M58.54,39.48l-38,20.92V26.28a7.66,7.66,0,0,1,11.77-6.47L56,34.85A5.53,5.53,0,0,1,58.54,39.48Z"/><path class="cls-4" d="M58.53,39.48V125a1.51,1.51,0,0,1-2.31,1.29L24.16,106.35a7.66,7.66,0,0,1-3.61-6.51V60.4Z"/><path class="cls-3" d="M58.53,125v2.92a7.65,7.65,0,0,1-3.4,6.38L11.92,163.08A7.67,7.67,0,0,1,0,156.7V76.25a7.67,7.67,0,0,1,4-6.72L20.55,60.4V99.84a7.66,7.66,0,0,0,3.61,6.51l32.06,19.89A1.51,1.51,0,0,0,58.53,125Z"/></g></g></svg>