<svg width="33" height="34" viewBox="0 0 33 34" fill="none" xmlns="http://www.w3.org/2000/svg">
<path d="M8.76125 0H21.8934C22.4845 0 23.0565 0.209474 23.5079 0.591233L31.4472 7.30657C32.0088 7.78158 32.3327 8.4798 32.3327 9.21534V30.1389C32.3327 33.1231 32.2986 33.3333 29.2374 33.3333H8.76125C5.7001 33.3333 5.66602 33.1231 5.66602 30.1389V3.19444C5.66602 0.210208 5.7001 0 8.76125 0Z" fill="#E9EAEE"/>
<rect y="17.666" width="19" height="11" rx="2" fill="#0050C8"/>
<path d="M4.30475 21.774C4.67808 21.774 4.99308 21.8673 5.24975 22.054C5.51108 22.2407 5.69308 22.4903 5.79575 22.803V20.486H6.43275V25.666H5.79575V24.686C5.69308 24.9987 5.51108 25.2483 5.24975 25.435C4.99308 25.6217 4.67808 25.715 4.30475 25.715C3.96408 25.715 3.66075 25.6357 3.39475 25.477C3.12875 25.3183 2.91875 25.092 2.76475 24.798C2.61542 24.4993 2.54075 24.1493 2.54075 23.748C2.54075 23.3467 2.61542 22.9967 2.76475 22.698C2.91875 22.3993 3.12875 22.1707 3.39475 22.012C3.66075 21.8533 3.96408 21.774 4.30475 21.774ZM4.48675 22.341C4.09475 22.341 3.77975 22.467 3.54175 22.719C3.30842 22.9663 3.19175 23.3093 3.19175 23.748C3.19175 24.1867 3.30842 24.532 3.54175 24.784C3.77975 25.0313 4.09475 25.155 4.48675 25.155C4.73875 25.155 4.96275 25.0967 5.15875 24.98C5.35942 24.8633 5.51575 24.7 5.62775 24.49C5.73975 24.2753 5.79575 24.028 5.79575 23.748C5.79575 23.468 5.73975 23.2207 5.62775 23.006C5.51575 22.7913 5.35942 22.628 5.15875 22.516C4.96275 22.3993 4.73875 22.341 4.48675 22.341ZM9.18955 21.774C9.55821 21.774 9.88721 21.8533 10.1765 22.012C10.4705 22.1707 10.6992 22.3993 10.8625 22.698C11.0305 22.9967 11.1145 23.3467 11.1145 23.748C11.1145 24.1493 11.0305 24.4993 10.8625 24.798C10.6992 25.092 10.4705 25.3183 10.1765 25.477C9.88721 25.6357 9.55821 25.715 9.18955 25.715C8.82088 25.715 8.48955 25.6357 8.19555 25.477C7.90621 25.3183 7.67755 25.092 7.50955 24.798C7.34155 24.4993 7.25755 24.1493 7.25755 23.748C7.25755 23.3467 7.34155 22.9967 7.50955 22.698C7.67755 22.3993 7.90621 22.1707 8.19555 22.012C8.48955 21.8533 8.82088 21.774 9.18955 21.774ZM9.18955 22.334C8.96088 22.334 8.74855 22.3853 8.55255 22.488C8.36121 22.5907 8.20488 22.7493 8.08355 22.964C7.96688 23.174 7.90855 23.4353 7.90855 23.748C7.90855 24.056 7.96688 24.3173 8.08355 24.532C8.20488 24.742 8.36121 24.8983 8.55255 25.001C8.74855 25.1037 8.96088 25.155 9.18955 25.155C9.41821 25.155 9.62821 25.1037 9.81955 25.001C10.0155 24.8983 10.1719 24.742 10.2885 24.532C10.4099 24.3173 10.4705 24.056 10.4705 23.748C10.4705 23.4353 10.4099 23.174 10.2885 22.964C10.1719 22.7493 10.0155 22.5907 9.81955 22.488C9.62821 22.3853 9.41821 22.334 9.18955 22.334ZM13.6456 21.774C14.1356 21.774 14.5416 21.9047 14.8636 22.166C15.1856 22.4273 15.3839 22.7773 15.4586 23.216H14.7866C14.7399 22.9407 14.6116 22.726 14.4016 22.572C14.1963 22.4133 13.9396 22.334 13.6316 22.334C13.4076 22.334 13.2023 22.3853 13.0156 22.488C12.8336 22.5907 12.6866 22.7493 12.5746 22.964C12.4626 23.174 12.4066 23.4353 12.4066 23.748C12.4066 24.0607 12.4626 24.3243 12.5746 24.539C12.6866 24.749 12.8336 24.9053 13.0156 25.008C13.2023 25.1107 13.4076 25.162 13.6316 25.162C13.9396 25.162 14.1963 25.0827 14.4016 24.924C14.6116 24.7653 14.7399 24.5483 14.7866 24.273H15.4586C15.3839 24.7163 15.1856 25.0687 14.8636 25.33C14.5416 25.5867 14.1356 25.715 13.6456 25.715C13.2769 25.715 12.9503 25.6357 12.6656 25.477C12.3809 25.3183 12.1569 25.092 11.9936 24.798C11.8349 24.4993 11.7556 24.1493 11.7556 23.748C11.7556 23.3467 11.8349 22.9967 11.9936 22.698C12.1569 22.3993 12.3809 22.1707 12.6656 22.012C12.9503 21.8533 13.2769 21.774 13.6456 21.774Z" fill="white"/>
</svg>
