<svg width="16" height="17" viewBox="0 0 16 17" fill="none" xmlns="http://www.w3.org/2000/svg">
<path d="M8 12.5C7.73145 12.5 7.47461 12.3937 7.28418 12.2031L5.04688 9.96564C4.64941 9.5719 4.64941 8.93127 5.04688 8.53436C5.44043 8.13751 6.08105 8.13751 6.47754 8.53436L7 9.05627V1.5C7 0.946899 7.44629 0.5 8 0.5C8.55273 0.5 9 0.946899 9 1.5V9.05627L9.52148 8.53436C9.71875 8.33752 9.97754 8.23749 10.2373 8.23749C10.4971 8.23749 10.7559 8.33752 10.9531 8.53436C11.3496 8.9281 11.3496 9.56873 10.9531 9.96564L8.71582 12.2031C8.52441 12.3937 8.26855 12.5 8 12.5Z" fill="#6B6C7E"/>
<path d="M12 12.5C12 11.9469 12.4473 11.5 13 11.5C13.5527 11.5 14 11.9469 14 12.5V16.5H2V12.5C2 11.9469 2.44727 11.5 3 11.5C3.55273 11.5 4 11.9469 4 12.5V14.5H12V12.5Z" fill="#6B6C7E"/>
</svg>
