<svg width="12" height="17" viewBox="0 0 12 17" fill="none" xmlns="http://www.w3.org/2000/svg">
<path d="M6 12.5C5.73145 12.5 5.47461 12.3937 5.28418 12.2031L3.04688 9.96564C2.64941 9.5719 2.64941 8.93127 3.04688 8.53436C3.44043 8.13751 4.08105 8.13751 4.47754 8.53436L5 9.05627V1.5C5 0.946899 5.44629 0.5 6 0.5C6.55273 0.5 7 0.946899 7 1.5V9.05627L7.52148 8.53436C7.71875 8.33752 7.97754 8.23749 8.2373 8.23749C8.49707 8.23749 8.75586 8.33752 8.95312 8.53436C9.34961 8.9281 9.34961 9.56873 8.95312 9.96564L6.71582 12.2031C6.52441 12.3937 6.26855 12.5 6 12.5Z" fill="white"/>
<path d="M10 12.5C10 11.9469 10.4473 11.5 11 11.5C11.5527 11.5 12 11.9469 12 12.5V16.5H0V12.5C0 11.9469 0.447266 11.5 1 11.5C1.55273 11.5 2 11.9469 2 12.5V14.5H10V12.5Z" fill="white"/>
</svg>
