<svg width="140" height="50" viewBox="0 0 140 50" fill="none" xmlns="http://www.w3.org/2000/svg">
<path fill-rule="evenodd" clip-rule="evenodd" d="M30.7067 35.1829C33.9635 32.7485 38.2547 30.5987 43.5805 28.7334C43.5508 28.6228 41.8687 22.3451 38.5342 9.90025L38.5341 9.90026C38.4129 9.4478 37.9478 9.1793 37.4954 9.30053C37.4884 9.30238 37.4816 9.30432 37.4747 9.30635C32.8705 10.6658 28.5265 12.9968 24.4429 16.2992C24.4624 16.3721 26.108 22.5134 29.3796 34.723L29.3795 34.723C29.5008 35.1755 29.9659 35.444 30.4184 35.3228C30.5225 35.2949 30.6203 35.2474 30.7067 35.1829Z" fill="#0050C8"/>
<path opacity="0.3" fill-rule="evenodd" clip-rule="evenodd" d="M25.1836 36.6627C21.1459 36.1829 16.3546 36.4667 10.8098 37.5142C10.7802 37.4036 9.09805 31.1259 5.76346 18.6811L5.7635 18.681C5.64226 18.2286 5.91077 17.7635 6.36323 17.6423C6.37014 17.6404 6.37707 17.6387 6.38403 17.637C11.0512 16.5122 15.9786 16.3589 21.1663 17.1771C21.1859 17.25 22.8314 23.3913 26.103 35.6009L26.103 35.6009C26.2242 36.0534 25.9557 36.5185 25.5032 36.6397C25.3991 36.6676 25.2906 36.6754 25.1836 36.6627Z" fill="#0050C8"/>
<path d="M60.0082 32.9314V15.8914H66.2002C67.5922 15.8914 68.8082 16.1154 69.8482 16.5634C70.9042 17.0114 71.7842 17.6194 72.4882 18.3874C73.1922 19.1554 73.7202 20.0594 74.0722 21.0994C74.4242 22.1234 74.6002 23.2194 74.6002 24.3874C74.6002 25.6834 74.4002 26.8594 74.0002 27.9154C73.6162 28.9554 73.0562 29.8514 72.3202 30.6034C71.5842 31.3394 70.6962 31.9154 69.6562 32.3314C68.6322 32.7314 67.4802 32.9314 66.2002 32.9314H60.0082ZM71.2642 24.3874C71.2642 23.5714 71.1522 22.8194 70.9282 22.1314C70.7042 21.4434 70.3762 20.8514 69.9442 20.3554C69.5122 19.8594 68.9762 19.4754 68.3362 19.2034C67.7122 18.9314 67.0002 18.7954 66.2002 18.7954H63.3202V30.0274H66.2002C67.0162 30.0274 67.7362 29.8834 68.3602 29.5954C69.0002 29.3074 69.5282 28.9154 69.9442 28.4194C70.3762 27.9074 70.7042 27.3074 70.9282 26.6194C71.1522 25.9314 71.2642 25.1874 71.2642 24.3874ZM87.3399 20.3554C87.2279 20.2434 87.0199 20.0914 86.7159 19.8994C86.4279 19.7074 86.0679 19.5234 85.6359 19.3474C85.2199 19.1554 84.7639 18.9954 84.2679 18.8674C83.7719 18.7394 83.2679 18.6754 82.7559 18.6754C81.8439 18.6754 81.1639 18.8434 80.7159 19.1794C80.2679 19.5154 80.0439 19.9874 80.0439 20.5954C80.0439 20.9474 80.1239 21.2434 80.2839 21.4834C80.4599 21.7074 80.7079 21.9074 81.0279 22.0834C81.3479 22.2594 81.7479 22.4194 82.2279 22.5634C82.7239 22.7074 83.2919 22.8594 83.9319 23.0194C84.7639 23.2434 85.5159 23.4834 86.1879 23.7394C86.8759 23.9954 87.4519 24.3154 87.9159 24.6994C88.3959 25.0834 88.7639 25.5474 89.0199 26.0914C89.2759 26.6194 89.4039 27.2754 89.4039 28.0594C89.4039 28.9714 89.2279 29.7554 88.8759 30.4114C88.5399 31.0514 88.0759 31.5714 87.4839 31.9714C86.9079 32.3714 86.2359 32.6674 85.4679 32.8594C84.7159 33.0354 83.9239 33.1234 83.0919 33.1234C81.8119 33.1234 80.5479 32.9314 79.2999 32.5474C78.0519 32.1634 76.9319 31.6194 75.9399 30.9154L77.4039 28.0594C77.5479 28.2034 77.8039 28.3954 78.1719 28.6354C78.5559 28.8594 79.0039 29.0914 79.5159 29.3314C80.0279 29.5554 80.5959 29.7474 81.2199 29.9074C81.8439 30.0674 82.4839 30.1474 83.1399 30.1474C84.9639 30.1474 85.8759 29.5634 85.8759 28.3954C85.8759 28.0274 85.7719 27.7154 85.5639 27.4594C85.3559 27.2034 85.0599 26.9794 84.6759 26.7874C84.2919 26.5954 83.8279 26.4194 83.2839 26.2594C82.7399 26.0994 82.1319 25.9234 81.4599 25.7314C80.6439 25.5074 79.9319 25.2674 79.3239 25.0114C78.7319 24.7394 78.2359 24.4274 77.8359 24.0754C77.4359 23.7074 77.1319 23.2914 76.9239 22.8274C76.7319 22.3474 76.6359 21.7794 76.6359 21.1234C76.6359 20.2594 76.7959 19.4914 77.1159 18.8194C77.4359 18.1474 77.8759 17.5874 78.4359 17.1394C79.0119 16.6914 79.6759 16.3554 80.4279 16.1314C81.1799 15.8914 81.9879 15.7714 82.8519 15.7714C84.0519 15.7714 85.1559 15.9634 86.1639 16.3474C87.1719 16.7154 88.0519 17.1554 88.8039 17.6674L87.3399 20.3554ZM91.9066 32.9314V15.8914H95.2186V30.0274H103.907V32.9314H91.9066ZM119.818 32.9314V21.6514L115.426 30.0514H113.626L109.234 21.6514V32.9314H105.922V15.8914H109.474L114.514 25.5874L119.602 15.8914H123.13V32.9314H119.818ZM136.84 20.3554C136.728 20.2434 136.52 20.0914 136.216 19.8994C135.928 19.7074 135.568 19.5234 135.136 19.3474C134.72 19.1554 134.264 18.9954 133.768 18.8674C133.272 18.7394 132.768 18.6754 132.256 18.6754C131.344 18.6754 130.664 18.8434 130.216 19.1794C129.768 19.5154 129.544 19.9874 129.544 20.5954C129.544 20.9474 129.624 21.2434 129.784 21.4834C129.96 21.7074 130.208 21.9074 130.528 22.0834C130.848 22.2594 131.248 22.4194 131.728 22.5634C132.224 22.7074 132.792 22.8594 133.432 23.0194C134.264 23.2434 135.016 23.4834 135.688 23.7394C136.376 23.9954 136.952 24.3154 137.416 24.6994C137.896 25.0834 138.264 25.5474 138.52 26.0914C138.776 26.6194 138.904 27.2754 138.904 28.0594C138.904 28.9714 138.728 29.7554 138.376 30.4114C138.04 31.0514 137.576 31.5714 136.984 31.9714C136.408 32.3714 135.736 32.6674 134.968 32.8594C134.216 33.0354 133.424 33.1234 132.592 33.1234C131.312 33.1234 130.048 32.9314 128.8 32.5474C127.552 32.1634 126.432 31.6194 125.44 30.9154L126.904 28.0594C127.048 28.2034 127.304 28.3954 127.672 28.6354C128.056 28.8594 128.504 29.0914 129.016 29.3314C129.528 29.5554 130.096 29.7474 130.72 29.9074C131.344 30.0674 131.984 30.1474 132.64 30.1474C134.464 30.1474 135.376 29.5634 135.376 28.3954C135.376 28.0274 135.272 27.7154 135.064 27.4594C134.856 27.2034 134.56 26.9794 134.176 26.7874C133.792 26.5954 133.328 26.4194 132.784 26.2594C132.24 26.0994 131.632 25.9234 130.96 25.7314C130.144 25.5074 129.432 25.2674 128.824 25.0114C128.232 24.7394 127.736 24.4274 127.336 24.0754C126.936 23.7074 126.632 23.2914 126.424 22.8274C126.232 22.3474 126.136 21.7794 126.136 21.1234C126.136 20.2594 126.296 19.4914 126.616 18.8194C126.936 18.1474 127.376 17.5874 127.936 17.1394C128.512 16.6914 129.176 16.3554 129.928 16.1314C130.68 15.8914 131.488 15.7714 132.352 15.7714C133.552 15.7714 134.656 15.9634 135.664 16.3474C136.672 16.7154 137.552 17.1554 138.304 17.6674L136.84 20.3554Z" fill="#0050C8"/>
</svg>
