<svg width="46" height="46" viewBox="0 0 46 46" fill="none" xmlns="http://www.w3.org/2000/svg">
<circle cx="23" cy="23" r="23" fill="#F0F5FF"/>
<path d="M17.4 30.2V32.6C17.4 33.2365 17.1471 33.847 16.6971 34.2971C16.247 34.7471 15.6365 35 15 35H26.2C26.8365 35 27.447 34.7471 27.8971 34.2971C28.3471 33.847 28.6 33.2365 28.6 32.6V14.3707C28.6 13.7669 29.0672 11 31.8 11C32.6487 11 33.4626 11.3371 34.0627 11.9373C34.6629 12.5374 35 13.3513 35 14.2V17.4H28.6" stroke="#0050C8" stroke-linecap="round" stroke-linejoin="round"/>
<path d="M31.8002 11H22.2002" stroke="#0050C8" stroke-linecap="round" stroke-linejoin="round"/>
<path d="M13.1196 19.7812L12.2609 26.0522C12.2305 26.22 12.2544 26.3932 12.3292 26.5465C12.404 26.6997 12.5258 26.8251 12.6768 26.9044C12.8279 26.9837 13.0003 27.0127 13.1689 26.9871C13.3376 26.9616 13.4937 26.883 13.6145 26.7626L15.8001 24.5759L17.9868 26.7626C18.1076 26.883 18.2637 26.9616 18.4323 26.9871C18.601 27.0127 18.7734 26.9837 18.9244 26.9044C19.0754 26.8251 19.1972 26.6997 19.272 26.5465C19.3469 26.3932 19.3708 26.22 19.3404 26.0522L18.487 19.7812" stroke="#0050C8" stroke-linecap="round" stroke-linejoin="round"/>
<path d="M15.8 20.6C18.451 20.6 20.6 18.451 20.6 15.8C20.6 13.149 18.451 11 15.8 11C13.149 11 11 13.149 11 15.8C11 18.451 13.149 20.6 15.8 20.6Z" stroke="#0050C8" stroke-linecap="round" stroke-linejoin="round"/>
<path d="M15.8004 15.4004C15.7213 15.4004 15.6439 15.4239 15.5782 15.4678C15.5124 15.5118 15.4611 15.5742 15.4308 15.6473C15.4006 15.7204 15.3926 15.8008 15.4081 15.8784C15.4235 15.956 15.4616 16.0273 15.5175 16.0832C15.5735 16.1392 15.6448 16.1773 15.7224 16.1927C15.7999 16.2081 15.8804 16.2002 15.9535 16.1699C16.0266 16.1397 16.089 16.0884 16.133 16.0226C16.1769 15.9568 16.2004 15.8795 16.2004 15.8004C16.2004 15.6943 16.1582 15.5926 16.0832 15.5175C16.0082 15.4425 15.9065 15.4004 15.8004 15.4004Z" stroke="#0050C8" stroke-linecap="round" stroke-linejoin="round"/>
</svg>
