<svg xmlns="http://www.w3.org/2000/svg" viewBox="0 0 1867.75 2340.32"><defs><style>.cls-1{fill:#2655a2;}.cls-2{fill:#52c3f1;}.cls-3{fill:#b3cbeb;}</style></defs><g id="Layer_2" data-name="Layer 2"><g id="Layer_1-2" data-name="Layer 1"><path class="cls-1" d="M1867.75,116.16V1144a116.17,116.17,0,0,1-52,96.73l-276.26,182.71V885.63a116.24,116.24,0,0,0-54.14-98.13L974.68,464.87a95,95,0,0,1,49.36-83.4l672.14-367C1773.41-27.94,1867.75,28,1867.75,116.16Z"/><path class="cls-2" d="M1539.47,885.63v537.78l-529.42,350.3c-15.13,10-35.43-1-35.43-19.31V464.87L1485.34,787.5A116.26,116.26,0,0,1,1539.47,885.63Z"/><path class="cls-3" d="M1539.47,1423.41v569.64c0,90.76-99.32,146.29-176.74,98.91l-333-204.4a116.15,116.15,0,0,1-55.13-98.92V1754.4c0,18.32,20.3,29.26,35.43,19.31Z"/><path class="cls-3" d="M885.76,450.36,311,767V250.74c0-91.56,100.91-146.89,178.13-97.93l358.06,227.5A83.78,83.78,0,0,1,885.76,450.36Z"/><path class="cls-2" d="M885.7,450.36V1743.68a22.87,22.87,0,0,1-35,19.51l-485-300.94a116.06,116.06,0,0,1-54.73-98.52V767Z"/><path class="cls-1" d="M885.7,1743.68v44.19a115.93,115.93,0,0,1-51.55,96.53L180.33,2320.68C103.1,2372,0,2316.7,0,2224.15V1006.86a116,116,0,0,1,59.91-101.7L310.89,767v596.7a116.06,116.06,0,0,0,54.73,98.52l485.05,300.94A22.87,22.87,0,0,0,885.7,1743.68Z"/></g></g></svg>