<svg width="16" height="22" viewBox="0 0 16 22" fill="none" xmlns="http://www.w3.org/2000/svg">
<path d="M15.5555 5.66536H11.1111C10.8658 5.66536 10.6667 5.46536 10.6667 5.22091V0.77649C10.6667 0.531156 10.4675 0.332031 10.2222 0.332031H1.33333C0.598208 0.332031 0 0.93024 0 1.66536V20.332C0 21.0672 0.598208 21.6654 1.33333 21.6654H14.6667C15.4018 21.6654 16 21.0672 16 20.332V6.10982C16 5.86449 15.8009 5.66536 15.5555 5.66536ZM15.1111 20.332C15.1111 20.5765 14.912 20.7765 14.6667 20.7765H1.33333C1.088 20.7765 0.888875 20.5765 0.888875 20.332V1.66536C0.888875 1.42091 1.088 1.22091 1.33333 1.22091H9.77779V5.22091C9.77779 5.95603 10.376 6.55424 11.1111 6.55424H15.1111V20.332Z" fill="#393A4A"/>
<path d="M15.8691 5.79536L10.5358 0.462031C10.3625 0.288698 10.0807 0.288698 9.90734 0.462031C9.73401 0.635365 9.73401 0.917156 9.90734 1.09049L15.2407 6.42382C15.3278 6.51003 15.4416 6.55361 15.5553 6.55361C15.6691 6.55361 15.7829 6.51007 15.8691 6.42382C16.0425 6.25049 16.0425 5.9687 15.8691 5.79536Z" fill="#393A4A"/>
<path d="M11.9991 8.33203H3.99915C3.75381 8.33203 3.55469 8.53116 3.55469 8.77649C3.55469 9.02182 3.75381 9.22095 3.99915 9.22095H11.9991C12.2445 9.22095 12.4436 9.02182 12.4436 8.77649C12.4436 8.53116 12.2445 8.33203 11.9991 8.33203Z" fill="#393A4A"/>
<path d="M11.9991 11.8867H3.99915C3.75381 11.8867 3.55469 12.0858 3.55469 12.3312C3.55469 12.5765 3.75381 12.7756 3.99915 12.7756H11.9991C12.2445 12.7756 12.4436 12.5765 12.4436 12.3312C12.4436 12.0858 12.2445 11.8867 11.9991 11.8867Z" fill="#393A4A"/>
<path d="M11.9991 15.4414H3.99915C3.75381 15.4414 3.55469 15.6405 3.55469 15.8859C3.55469 16.1312 3.75381 16.3303 3.99915 16.3303H11.9991C12.2445 16.3303 12.4436 16.1312 12.4436 15.8859C12.4436 15.6405 12.2445 15.4414 11.9991 15.4414Z" fill="#393A4A"/>
</svg>
