<svg width="13" height="13" viewBox="0 0 13 13" fill="none" xmlns="http://www.w3.org/2000/svg">
<g clip-path="url(#clip0_13020_99304)">
<path d="M4.44922 10.0564L6.48072 12.2434L8.52122 10.0469" stroke="#565D66" stroke-width="0.5" stroke-linecap="round" stroke-linejoin="round"/>
<path d="M6.4147 2.7275C6.47126 2.7375 6.52914 2.7375 6.5857 2.7275L11.5422 1.8655C11.571 1.86028 11.5971 1.84511 11.6159 1.82263C11.6346 1.80015 11.6449 1.77179 11.6449 1.7425C11.6449 1.71321 11.6346 1.68485 11.6159 1.66237C11.5971 1.63989 11.571 1.62472 11.5422 1.6195L6.5857 0.757502C6.52914 0.747499 6.47126 0.747499 6.4147 0.757502L1.4582 1.6195C1.42938 1.62472 1.4033 1.63989 1.38453 1.66237C1.36575 1.68485 1.35547 1.71321 1.35547 1.7425C1.35547 1.77179 1.36575 1.80015 1.38453 1.82263C1.4033 1.84511 1.42938 1.86028 1.4582 1.8655L6.4147 2.7275Z" stroke="#565D66" stroke-width="0.5" stroke-linecap="round" stroke-linejoin="round"/>
<path d="M1.49933 4.74219C1.09078 5.42898 0.837835 6.19703 0.758325 6.99219C0.756203 7.02422 0.760681 7.05635 0.77148 7.08658C0.78228 7.11681 0.799171 7.1445 0.821108 7.16794C0.843045 7.19137 0.86956 7.21006 0.899012 7.22283C0.928463 7.2356 0.960224 7.24219 0.992325 7.24219H1.99233C2.02682 7.24229 2.06096 7.23525 2.0926 7.22151C2.12424 7.20778 2.15269 7.18765 2.17617 7.16238C2.19966 7.13711 2.21765 7.10726 2.22904 7.0747C2.24042 7.04214 2.24495 7.00758 2.24233 6.97319C2.15917 6.18448 1.90565 5.42326 1.49933 4.74219V4.74219Z" stroke="#565D66" stroke-width="0.5" stroke-linecap="round" stroke-linejoin="round"/>
<path d="M1.5 1.87305V4.74255" stroke="#565D66" stroke-width="0.5" stroke-linecap="round" stroke-linejoin="round"/>
<path d="M3.5 5.7422V2.2207" stroke="#565D66" stroke-width="0.5" stroke-linecap="round" stroke-linejoin="round"/>
<path d="M9.5 2.2207V5.7422" stroke="#565D66" stroke-width="0.5" stroke-linecap="round" stroke-linejoin="round"/>
<path d="M3.5 4.24219C5.44735 4.89118 7.55265 4.89118 9.5 4.24219" stroke="#565D66" stroke-width="0.5" stroke-linecap="round" stroke-linejoin="round"/>
<path d="M5.74023 7.94336C5.94245 8.13594 6.21099 8.24336 6.49023 8.24336C6.76948 8.24336 7.03802 8.13594 7.24023 7.94336" stroke="#565D66" stroke-width="0.5" stroke-linecap="round" stroke-linejoin="round"/>
<path d="M6 5.99178C5.94704 5.90881 5.87258 5.84174 5.78453 5.79772C5.69649 5.7537 5.59816 5.73437 5.5 5.74178C5.40184 5.73437 5.30351 5.7537 5.21547 5.79772C5.12742 5.84174 5.05296 5.90881 5 5.99178" stroke="#565D66" stroke-width="0.5" stroke-linecap="round" stroke-linejoin="round"/>
<path d="M8 5.99178C7.94704 5.90881 7.87258 5.84174 7.78453 5.79772C7.69649 5.7537 7.59816 5.73437 7.5 5.74178C7.40184 5.73437 7.30351 5.7537 7.21547 5.79772C7.12742 5.84174 7.05296 5.90881 7 5.99178" stroke="#565D66" stroke-width="0.5" stroke-linecap="round" stroke-linejoin="round"/>
<path d="M3.49037 5.74219C3.05337 5.96069 3.19037 6.94219 3.72987 7.18669C3.80464 7.22053 3.86994 7.27226 3.92 7.33731C3.97005 7.40236 4.00332 7.47873 4.01687 7.55969C4.23837 8.88169 5.79437 9.74219 6.49037 9.74219C7.18637 9.74219 8.74037 8.88169 8.96387 7.55969C8.97741 7.47873 9.01068 7.40236 9.06074 7.33731C9.11079 7.27226 9.17609 7.22053 9.25087 7.18669C9.79137 6.94169 9.92687 5.96069 9.49037 5.74219" stroke="#565D66" stroke-width="0.5" stroke-linecap="round" stroke-linejoin="round"/>
<path d="M8.52148 10.0469L11 10.8694L11.009 10.8724C11.3108 10.9844 11.5811 11.1675 11.7971 11.4061C12.0131 11.6448 12.1685 11.932 12.25 12.2434" stroke="#565D66" stroke-width="0.5" stroke-linecap="round" stroke-linejoin="round"/>
<path d="M4.45 10.0547L2 10.8677L1.991 10.8707C1.68922 10.9827 1.41888 11.1658 1.20286 11.4044C0.986839 11.6431 0.831502 11.9303 0.75 12.2417" stroke="#565D66" stroke-width="0.5" stroke-linecap="round" stroke-linejoin="round"/>
</g>
<defs>
<clipPath id="clip0_13020_99304">
<rect width="12" height="12" fill="white" transform="translate(0.5 0.5)"/>
</clipPath>
</defs>
</svg>
