<svg width="54" height="57" viewBox="0 0 54 57" fill="none" xmlns="http://www.w3.org/2000/svg">
<g filter="url(#filter0_d_17004_67780)">
<rect x="3" y="2" width="47.5" height="50.5001" rx="8" fill="white"/>
<path d="M23.8485 26.8751C23.7743 26.8757 23.702 26.8983 23.6406 26.94C23.5793 26.9818 23.5317 27.0408 23.5039 27.1096C23.4761 27.1784 23.4693 27.2539 23.4844 27.3266C23.4996 27.3992 23.5359 27.4657 23.5889 27.5177C23.6418 27.5697 23.709 27.6048 23.782 27.6186C23.8549 27.6323 23.9302 27.6242 23.9985 27.5951C24.0668 27.566 24.1249 27.5173 24.1655 27.4552C24.2061 27.3931 24.2273 27.3203 24.2265 27.2461C24.2267 27.1968 24.2171 27.148 24.1983 27.1024C24.1795 27.0569 24.1518 27.0155 24.117 26.9806C24.0822 26.9458 24.0408 26.9182 23.9952 26.8994C23.9496 26.8806 23.9008 26.871 23.8515 26.8711V26.8711" stroke="#083A55" stroke-width="1.5" stroke-linecap="round" stroke-linejoin="round"/>
<path d="M30.5 18.2461H35C35.3978 18.2461 35.7794 18.4041 36.0607 18.6854C36.342 18.9667 36.5 19.3483 36.5 19.7461V34.7461C36.5 35.1439 36.342 35.5254 36.0607 35.8068C35.7794 36.0881 35.3978 36.2461 35 36.2461H30.5" stroke="#083A55" stroke-width="1.5" stroke-linecap="round" stroke-linejoin="round"/>
<path d="M26.644 38.4926L17.644 37.2066C17.4653 37.1813 17.3017 37.0923 17.1833 36.956C17.065 36.8196 16.9999 36.6451 17 36.4646V18.9716C16.9999 18.7999 17.0587 18.6333 17.1666 18.4997C17.2745 18.3661 17.4251 18.2736 17.593 18.2376L26.593 16.0166C26.7024 15.9932 26.8156 15.9945 26.9244 16.0206C27.0332 16.0466 27.1348 16.0966 27.2218 16.167C27.3088 16.2374 27.3789 16.3263 27.427 16.4273C27.4752 16.5283 27.5001 16.6387 27.5 16.7506V37.7506C27.4999 37.858 27.4768 37.9642 27.4322 38.0619C27.3875 38.1596 27.3224 38.2465 27.2412 38.3169C27.1601 38.3872 27.0648 38.4393 26.9617 38.4696C26.8587 38.5 26.7503 38.5078 26.644 38.4926V38.4926Z" stroke="#083A55" stroke-width="1.5" stroke-linecap="round" stroke-linejoin="round"/>
<rect x="3.5" y="2.5" width="46.5" height="49.5001" rx="7.5" stroke="#CDCED9"/>
</g>
<defs>
<filter id="filter0_d_17004_67780" x="0" y="0" width="53.5" height="56.5" filterUnits="userSpaceOnUse" color-interpolation-filters="sRGB">
<feFlood flood-opacity="0" result="BackgroundImageFix"/>
<feColorMatrix in="SourceAlpha" type="matrix" values="0 0 0 0 0 0 0 0 0 0 0 0 0 0 0 0 0 0 127 0" result="hardAlpha"/>
<feOffset dy="1"/>
<feGaussianBlur stdDeviation="1.5"/>
<feColorMatrix type="matrix" values="0 0 0 0 0 0 0 0 0 0 0 0 0 0 0 0 0 0 0.1 0"/>
<feBlend mode="normal" in2="BackgroundImageFix" result="effect1_dropShadow_17004_67780"/>
<feBlend mode="normal" in="SourceGraphic" in2="effect1_dropShadow_17004_67780" result="shape"/>
</filter>
</defs>
</svg>
