<svg width="54" height="57" viewBox="0 0 54 57" fill="none" xmlns="http://www.w3.org/2000/svg">
<g filter="url(#filter0_d)">
<path d="M3 10C3 5.58172 6.58172 2 11 2H42.5C46.9183 2 50.5 5.58172 50.5 10V44.5001C50.5 48.9184 46.9183 52.5001 42.5 52.5001H11C6.58172 52.5001 3 48.9184 3 44.5001V10Z" fill="white"/>
<path d="M23.8505 26.8756C23.7763 26.8762 23.7039 26.8988 23.6426 26.9405C23.5812 26.9823 23.5336 27.0413 23.5058 27.1101C23.478 27.1789 23.4713 27.2544 23.4864 27.327C23.5015 27.3997 23.5379 27.4662 23.5908 27.5182C23.6438 27.5702 23.711 27.6053 23.7839 27.6191C23.8568 27.6328 23.9322 27.6247 24.0005 27.5956C24.0687 27.5665 24.1269 27.5178 24.1674 27.4557C24.208 27.3936 24.2293 27.3208 24.2285 27.2466C24.2286 27.1973 24.219 27.1485 24.2002 27.1029C24.1814 27.0574 24.1538 27.016 24.119 26.9811C24.0841 26.9463 24.0427 26.9187 23.9972 26.8999C23.9516 26.8811 23.9028 26.8715 23.8535 26.8716V26.8716" stroke="#DA1414" stroke-width="1.5" stroke-linecap="round" stroke-linejoin="round"/>
<path d="M30.5 18.2466H35C35.3978 18.2466 35.7794 18.4046 36.0607 18.6859C36.342 18.9672 36.5 19.3488 36.5 19.7466V34.7466C36.5 35.1444 36.342 35.5259 36.0607 35.8072C35.7794 36.0885 35.3978 36.2466 35 36.2466H30.5" stroke="#DA1414" stroke-width="1.5" stroke-linecap="round" stroke-linejoin="round"/>
<path d="M26.644 38.4926L17.644 37.2066C17.4653 37.1813 17.3017 37.0923 17.1833 36.956C17.065 36.8196 16.9999 36.6451 17 36.4646V18.9716C16.9999 18.7999 17.0587 18.6333 17.1666 18.4997C17.2745 18.3661 17.4251 18.2736 17.593 18.2376L26.593 16.0166C26.7024 15.9932 26.8156 15.9945 26.9244 16.0206C27.0332 16.0466 27.1348 16.0966 27.2218 16.167C27.3088 16.2374 27.3789 16.3263 27.427 16.4273C27.4752 16.5283 27.5001 16.6387 27.5 16.7506V37.7506C27.4999 37.858 27.4768 37.9642 27.4322 38.0619C27.3875 38.1596 27.3224 38.2465 27.2412 38.3169C27.1601 38.3872 27.0648 38.4393 26.9617 38.4696C26.8587 38.5 26.7503 38.5078 26.644 38.4926V38.4926Z" stroke="#DA1414" stroke-width="1.5" stroke-linecap="round" stroke-linejoin="round"/>
<path d="M11 3H42.5V1H11V3ZM49.5 10V44.5001H51.5V10H49.5ZM42.5 51.5001H11V53.5001H42.5V51.5001ZM4 44.5001V10H2V44.5001H4ZM11 51.5001C7.13401 51.5001 4 48.3661 4 44.5001H2C2 49.4707 6.02944 53.5001 11 53.5001V51.5001ZM49.5 44.5001C49.5 48.3661 46.366 51.5001 42.5 51.5001V53.5001C47.4706 53.5001 51.5 49.4707 51.5 44.5001H49.5ZM42.5 3C46.366 3 49.5 6.13401 49.5 10H51.5C51.5 5.02944 47.4706 1 42.5 1V3ZM11 1C6.02944 1 2 5.02944 2 10H4C4 6.13401 7.13401 3 11 3V1Z" fill="#CDCED9"/>
</g>
<defs>
<filter id="filter0_d" x="0" y="0" width="53.5" height="56.5001" filterUnits="userSpaceOnUse" color-interpolation-filters="sRGB">
<feFlood flood-opacity="0" result="BackgroundImageFix"/>
<feColorMatrix in="SourceAlpha" type="matrix" values="0 0 0 0 0 0 0 0 0 0 0 0 0 0 0 0 0 0 127 0"/>
<feOffset dy="1"/>
<feGaussianBlur stdDeviation="1.5"/>
<feColorMatrix type="matrix" values="0 0 0 0 0 0 0 0 0 0 0 0 0 0 0 0 0 0 0.1 0"/>
<feBlend mode="normal" in2="BackgroundImageFix" result="effect1_dropShadow"/>
<feBlend mode="normal" in="SourceGraphic" in2="effect1_dropShadow" result="shape"/>
</filter>
</defs>
</svg>
