<svg width="40" height="40" viewBox="0 0 40 40" fill="none" xmlns="http://www.w3.org/2000/svg">
<circle cx="20" cy="20" r="20" fill="white"/>
<g clip-path="url(#clip0)">
<path d="M24.3429 22.6995L17.7119 25.3365L24.3789 27.6895C24.5944 27.7656 24.8294 27.7656 25.0449 27.6895L31.0829 25.5585C31.1309 25.5415 31.1725 25.5103 31.2023 25.4691C31.232 25.4278 31.2485 25.3785 31.2495 25.3276C31.2505 25.2767 31.2359 25.2268 31.2078 25.1844C31.1796 25.142 31.1392 25.1093 31.0919 25.0905L25.0809 22.6995C24.8439 22.6054 24.5799 22.6054 24.3429 22.6995Z" stroke="#0050C8" stroke-linecap="round" stroke-linejoin="round"/>
<path d="M17.7119 25.3359V28.9989" stroke="#0050C8" stroke-linecap="round" stroke-linejoin="round"/>
<path d="M20.7119 26.4004V29.5504C20.7111 29.701 20.7557 29.8484 20.8399 29.9732C20.9241 30.0981 21.044 30.1947 21.1839 30.2504L24.4339 31.4504C24.6126 31.5224 24.8122 31.5224 24.9909 31.4504L28.2409 30.2504C28.3806 30.1944 28.5002 30.0977 28.5842 29.9729C28.6682 29.8481 28.7127 29.7009 28.7119 29.5504V26.4004" stroke="#0050C8" stroke-linecap="round" stroke-linejoin="round"/>
<path d="M15.7119 17C18.0591 17 19.9619 15.0972 19.9619 12.75C19.9619 10.4028 18.0591 8.5 15.7119 8.5C13.3647 8.5 11.4619 10.4028 11.4619 12.75C11.4619 15.0972 13.3647 17 15.7119 17Z" stroke="#0050C8" stroke-linecap="round" stroke-linejoin="round"/>
<path d="M14.7119 25.5001H8.71191C8.71189 24.0636 9.15382 22.6619 9.97773 21.4851C10.8016 20.3084 11.9676 19.4136 13.3175 18.9223C14.6673 18.4309 16.1357 18.3667 17.5233 18.7384C18.9108 19.1101 20.1505 19.8998 21.0739 21.0001" stroke="#0050C8" stroke-linecap="round" stroke-linejoin="round"/>
</g>
<defs>
<clipPath id="clip0">
<rect width="24" height="24" fill="white" transform="translate(8 8)"/>
</clipPath>
</defs>
</svg>
