<svg width="25" height="24" viewBox="0 0 25 24" fill="none" xmlns="http://www.w3.org/2000/svg">
<g clip-path="url(#clip0)">
<path d="M16.6779 14.6995L10.0469 17.3365L16.7139 19.6895C16.9294 19.7656 17.1644 19.7656 17.3799 19.6895L23.4179 17.5585C23.4658 17.5415 23.5075 17.5103 23.5372 17.4691C23.567 17.4278 23.5835 17.3785 23.5845 17.3276C23.5854 17.2767 23.5709 17.2268 23.5427 17.1844C23.5146 17.142 23.4741 17.1093 23.4269 17.0905L17.4159 14.6995C17.1789 14.6054 16.9149 14.6054 16.6779 14.6995Z" stroke="#0050C8" stroke-linecap="round" stroke-linejoin="round"/>
<path d="M10.0469 17.3359V20.9989" stroke="#0050C8" stroke-linecap="round" stroke-linejoin="round"/>
<path d="M13.0469 18.4004V21.5504C13.0461 21.701 13.0907 21.8484 13.1749 21.9732C13.2591 22.0981 13.379 22.1947 13.5189 22.2504L16.7689 23.4504C16.9476 23.5224 17.1472 23.5224 17.3259 23.4504L20.5759 22.2504C20.7156 22.1944 20.8352 22.0977 20.9192 21.9729C21.0031 21.8481 21.0477 21.7009 21.0469 21.5504V18.4004" stroke="#0050C8" stroke-linecap="round" stroke-linejoin="round"/>
<path d="M8.04688 9C10.3941 9 12.2969 7.09721 12.2969 4.75C12.2969 2.40279 10.3941 0.5 8.04688 0.5C5.69966 0.5 3.79688 2.40279 3.79688 4.75C3.79688 7.09721 5.69966 9 8.04688 9Z" stroke="#0050C8" stroke-linecap="round" stroke-linejoin="round"/>
<path d="M7.04688 17.5001H1.04688C1.04685 16.0636 1.48878 14.6619 2.31269 13.4851C3.1366 12.3084 4.3026 11.4136 5.65245 10.9223C7.00231 10.4309 8.47065 10.3667 9.85823 10.7384C11.2458 11.1101 12.4854 11.8998 13.4089 13.0001" stroke="#0050C8" stroke-linecap="round" stroke-linejoin="round"/>
</g>
<defs>
<clipPath id="clip0">
<rect width="24" height="24" fill="white" transform="translate(0.333984)"/>
</clipPath>
</defs>
</svg>
