<svg width="17" height="17" viewBox="0 0 17 17" fill="none" xmlns="http://www.w3.org/2000/svg">
<path d="M4.48242 6.48831H3.48438V7.48636H4.48242V6.48831Z" fill="#267939"/>
<path d="M5.48047 6.48831H6.47852V7.48636H5.48047V6.48831Z" fill="#267939"/>
<path d="M8.47461 6.48831H7.47656V7.48636H8.47461V6.48831Z" fill="#267939"/>
<path d="M9.47266 6.48831H10.4707V7.48636H9.47266V6.48831Z" fill="#267939"/>
<path d="M12.4668 6.48831H11.4688V7.48636H12.4668V6.48831Z" fill="#267939"/>
<path d="M3.48438 8.48441H4.48242V9.48245H3.48438V8.48441Z" fill="#267939"/>
<path d="M6.47852 8.48441H5.48047V9.48245H6.47852V8.48441Z" fill="#267939"/>
<path d="M7.47656 8.48441H8.47461V9.48245H7.47656V8.48441Z" fill="#267939"/>
<path d="M10.4707 8.48441H9.47266V9.48245H10.4707V8.48441Z" fill="#267939"/>
<path d="M11.4688 8.48441H12.4668V9.48245H11.4688V8.48441Z" fill="#267939"/>
<path d="M4.48242 10.4805H3.48438V11.4785H4.48242V10.4805Z" fill="#267939"/>
<path d="M3.48438 12.4766H4.48242V13.4747H3.48438V12.4766Z" fill="#267939"/>
<path d="M6.47852 12.4766H5.48047V13.4747H6.47852V12.4766Z" fill="#267939"/>
<path d="M5.48047 10.4805H6.47852V11.4785H5.48047V10.4805Z" fill="#267939"/>
<path d="M8.47461 10.4805H7.47656V11.4785H8.47461V10.4805Z" fill="#267939"/>
<path fill-rule="evenodd" clip-rule="evenodd" d="M14.4727 3.49414C15.5645 3.49414 16.4502 4.37991 16.4502 5.47153V13.4778L13.4561 16.4719H2.47754C1.38574 16.4719 0.5 15.4302 0.5 14.3386V5.47153C0.5 4.37991 1.38574 3.49414 2.47754 3.49414H2.48633V1.49805C2.48633 0.946014 2.93262 0.5 3.48438 0.5C4.03711 0.5 4.48242 0.946014 4.48242 1.49805V3.49414H7.47656V1.49805C7.47656 0.946014 7.92285 0.5 8.47461 0.5C9.02734 0.5 9.47266 0.946014 9.47266 1.49805V3.49414H12.4668V1.49805C12.4668 0.946014 12.9131 0.5 13.4648 0.5C14.0176 0.5 14.4629 0.946014 14.4629 1.49805V3.49414H14.4727ZM12.458 14.4727L14.4541 12.4766H12.458V14.4727ZM14.4541 10.4805H10.4619V14.4727H2.55859C2.52734 14.4353 2.49609 14.376 2.49609 14.3355V5.49026H14.4541V10.4805Z" fill="#267939"/>
</svg>
