<svg width="41" height="40" viewBox="0 0 41 40" fill="none" xmlns="http://www.w3.org/2000/svg">
<path fill-rule="evenodd" clip-rule="evenodd" d="M8 35.0001H36.3333C37.714 35.0001 38.8333 33.8808 38.8333 32.5001V14.1667C38.8333 12.786 37.714 11.6667 36.3333 11.6667H18.8333L14.5656 7.39898C14.0967 6.93014 13.4608 6.66675 12.7978 6.66675H8C6.61929 6.66675 5.5 7.78604 5.5 9.16675V32.5001C5.5 33.8808 6.61929 35.0001 8 35.0001Z" fill="#D1822C"/>
<path fill-rule="evenodd" clip-rule="evenodd" d="M4.66602 31.6666H32.9993C34.3801 31.6666 35.4993 30.5473 35.4993 29.1666V10.8333C35.4993 9.45254 34.3801 8.33325 32.9993 8.33325H15.4993L11.2316 4.06549C10.7627 3.59664 10.1269 3.33325 9.46382 3.33325H4.66602C3.2853 3.33325 2.16602 4.45254 2.16602 5.83325V29.1666C2.16602 30.5473 3.2853 31.6666 4.66602 31.6666Z" fill="#F3B357"/>
<path fill-rule="evenodd" clip-rule="evenodd" d="M24.5611 22.5095H21.3003V25.8556C21.3003 26.3159 20.9272 26.689 20.4669 26.689H18.7614C18.3012 26.689 17.9281 26.3159 17.9281 25.8556V22.5095H14.6673C14.2071 22.5095 13.834 22.1364 13.834 21.6762C13.834 21.479 13.9039 21.2882 14.0313 21.1377L18.9782 15.2949C19.2756 14.9437 19.8014 14.9 20.1527 15.1974C20.1878 15.2272 20.2204 15.2598 20.2502 15.2949L25.1971 21.1377C25.4944 21.489 25.4508 22.0148 25.0995 22.3122C24.949 22.4396 24.7582 22.5095 24.5611 22.5095Z" fill="#EB9B2C"/>
</svg>
