<svg width="16" height="11" viewBox="0 0 16 11" fill="none" xmlns="http://www.w3.org/2000/svg">
<path d="M7.99941 0.28125C6.65672 0.28125 5.56445 1.37348 5.56445 2.7162C5.56445 4.05892 6.65669 5.15116 7.99941 5.15116C9.34212 5.15116 10.4344 4.05889 10.4344 2.7162C10.4344 1.37352 9.34212 0.28125 7.99941 0.28125ZM7.99941 4.45544C7.04075 4.45544 6.26017 3.67486 6.26017 2.7162C6.26017 1.75754 7.04075 0.97697 7.99941 0.97697C8.95807 0.97697 9.73864 1.75754 9.73864 2.7162C9.73864 3.67486 8.9581 4.45544 7.99941 4.45544Z" fill="#6B6C7E"/>
<path d="M12.8701 3.06445C11.9114 3.06445 11.1309 3.84503 11.1309 4.80369C11.1309 5.76235 11.9114 6.54292 12.8701 6.54292C13.8288 6.54292 14.6093 5.76235 14.6093 4.80369C14.6093 3.84503 13.8288 3.06445 12.8701 3.06445ZM12.8701 5.84723C12.2947 5.84723 11.8265 5.37904 11.8265 4.80369C11.8265 4.22833 12.2947 3.76014 12.8701 3.76014C13.4454 3.76014 13.9136 4.22833 13.9136 4.80369C13.9136 5.37904 13.4454 5.84723 12.8701 5.84723Z" fill="#6B6C7E"/>
<path d="M3.17869 3.06445C2.21931 3.06445 1.43945 3.84503 1.43945 4.80369C1.43945 5.76235 2.22003 6.54292 3.17869 6.54292C4.13735 6.54292 4.91792 5.76235 4.91792 4.80369C4.91792 3.84503 4.13803 3.06445 3.17869 3.06445ZM3.17869 5.84723C2.60333 5.84723 2.13514 5.37904 2.13514 4.80369C2.13514 4.22833 2.60333 3.76014 3.17869 3.76014C3.75404 3.76014 4.22223 4.22833 4.22223 4.80369C4.22223 5.37904 3.75401 5.84723 3.17869 5.84723Z" fill="#6B6C7E"/>
<path d="M8.00252 5.8457C5.50912 5.8457 3.48047 7.87436 3.48047 10.3677C3.48047 10.5598 3.63632 10.7156 3.82833 10.7156C4.02034 10.7156 4.17619 10.5598 4.17619 10.3677C4.17619 8.2577 5.89246 6.54142 8.00252 6.54142C10.1126 6.54142 11.8288 8.2577 11.8288 10.3677C11.8288 10.5598 11.9847 10.7156 12.1767 10.7156C12.3687 10.7156 12.5246 10.5598 12.5246 10.3677C12.5246 7.87436 10.4959 5.8457 8.00252 5.8457Z" fill="#6B6C7E"/>
<path d="M12.8689 7.24219C12.2964 7.24219 11.7356 7.39872 11.2472 7.6944C11.0838 7.79458 11.0309 8.00815 11.1304 8.17235C11.2312 8.33654 11.4441 8.38872 11.6083 8.28922C11.9874 8.05893 12.423 7.93787 12.8689 7.93787C14.2116 7.93787 15.3039 9.03011 15.3039 10.3728C15.3039 10.5648 15.4597 10.7207 15.6517 10.7207C15.8437 10.7207 15.9996 10.5648 15.9996 10.3728C15.9995 8.6468 14.5949 7.24219 12.8689 7.24219Z" fill="#6B6C7E"/>
<path d="M4.75163 7.69368C4.26393 7.39872 3.70322 7.24219 3.13064 7.24219C1.40461 7.24219 0 8.6468 0 10.3728C0 10.5648 0.155847 10.7207 0.34786 10.7207C0.539872 10.7207 0.69572 10.5648 0.69572 10.3728C0.695687 9.03011 1.78795 7.93787 3.13064 7.93787C3.57659 7.93787 4.01208 8.05893 4.39056 8.28851C4.55404 8.388 4.76832 8.33582 4.8685 8.17163C4.96869 8.00743 4.91579 7.79387 4.75163 7.69368Z" fill="#6B6C7E"/>
</svg>
