<svg width="16" height="17" viewBox="0 0 16 17" fill="none" xmlns="http://www.w3.org/2000/svg">
<g clip-path="url(#clip0)">
<path d="M9.86633 8.87256L9.93299 8.93922C10.2134 9.21963 10.5938 9.37717 10.9903 9.37717C11.3869 9.37717 11.7672 9.21963 12.0477 8.93922L15.0117 5.97256C15.4302 5.55084 15.6651 4.98074 15.6651 4.38656C15.6651 3.79237 15.4302 3.22227 15.0117 2.80056L13.697 1.48656C13.2757 1.06736 12.7056 0.832031 12.1113 0.832031C11.517 0.832031 10.9469 1.06736 10.5257 1.48656L7.56099 4.45056C7.28058 4.73098 7.12305 5.11132 7.12305 5.50789C7.12305 5.90446 7.28058 6.28479 7.56099 6.56522L7.62766 6.63189" stroke="#A7A9BC" stroke-linecap="round" stroke-linejoin="round"/>
<path d="M6.13402 8.12571L6.06735 8.05904C5.78693 7.77863 5.40659 7.62109 5.01002 7.62109C4.61345 7.62109 4.23311 7.77863 3.95269 8.05904L0.988019 11.0257C0.569107 11.4473 0.333984 12.0174 0.333984 12.6117C0.333984 13.206 0.569107 13.7762 0.988019 14.1977L2.30202 15.5117C2.72322 15.9313 3.29351 16.1668 3.88802 16.1668C4.48253 16.1668 5.05282 15.9313 5.47402 15.5117L8.43802 12.5477C8.57702 12.4089 8.6873 12.2441 8.76255 12.0627C8.83779 11.8813 8.87652 11.6868 8.87652 11.4904C8.87652 11.294 8.83779 11.0995 8.76255 10.918C8.6873 10.7366 8.57702 10.5718 8.43802 10.433L8.37135 10.3664" stroke="#A7A9BC" stroke-linecap="round" stroke-linejoin="round"/>
<path d="M5.0918 11.4058L10.9065 5.58984" stroke="#A7A9BC" stroke-linecap="round" stroke-linejoin="round"/>
</g>
<defs>
<clipPath id="clip0">
<rect width="16" height="16" fill="white" transform="translate(0 0.5)"/>
</clipPath>
</defs>
</svg>
