<svg width="14" height="15" viewBox="0 0 14 15" fill="none" xmlns="http://www.w3.org/2000/svg">
<path fill-rule="evenodd" clip-rule="evenodd" d="M2.05078 12.4492C3.37402 13.7726 5.12988 14.5 7 14.5C8.87012 14.5 10.6289 13.7726 11.9492 12.4492C13.2725 11.1258 14 9.3703 14 7.5C14 5.6297 13.2725 3.87146 11.9492 2.55078C10.6289 1.22736 8.87012 0.5 7 0.5C5.12988 0.5 3.37109 1.22736 2.05078 2.55078C0.727539 3.87146 0 5.6297 0 7.5C0 9.3703 0.727539 11.1285 2.05078 12.4492ZM6.125 4C6.125 3.51599 6.51562 3.125 7 3.125C7.48438 3.125 7.875 3.51599 7.875 4V8.375C7.875 8.85901 7.48438 9.25 7 9.25C6.51562 9.25 6.125 8.85901 6.125 8.375V4ZM7.875 11C7.875 10.516 7.48438 10.125 7 10.125C6.51562 10.125 6.125 10.516 6.125 11C6.125 11.484 6.51562 11.875 7 11.875C7.48438 11.875 7.875 11.484 7.875 11Z" fill="#0050C8"/>
</svg>
