<svg xmlns="http://www.w3.org/2000/svg" width="20" height="16" viewBox="0 0 20 16" fill="none">
<path d="M0.960378 15.3365C0.840032 15.3365 0.727368 15.3148 0.617265 15.2738C0.12308 15.0843 -0.125293 14.5287 0.0629071 14.0345L1.77847 9.45881V5.09436C1.77847 5.02011 1.79255 4.94713 1.822 4.87031C1.82584 4.85879 1.84248 4.82166 1.84761 4.81142C1.87321 4.76149 1.90266 4.71668 1.93979 4.67443C1.94747 4.66547 1.97691 4.63346 1.98459 4.62578C2.04093 4.57329 2.09982 4.5336 2.16639 4.50544L10.6239 0.880987C10.8633 0.778566 11.1181 0.726074 11.3805 0.726074C11.643 0.726074 11.8977 0.778566 12.1372 0.880987L19.2222 3.91651C19.5269 4.04582 19.7663 4.28523 19.8969 4.59122C20.0313 4.90616 20.0339 5.2544 19.9071 5.5719C19.7791 5.88941 19.5358 6.13778 19.2209 6.27093L17.1417 7.16328V11.1001C17.1417 11.5879 16.8716 12.0258 16.435 12.2447L12.2383 14.3418C11.9733 14.4736 11.6775 14.5428 11.3792 14.5428C11.0809 14.5428 10.7852 14.4736 10.5214 14.3418L6.326 12.2447C5.8907 12.027 5.61929 11.5879 5.61929 11.1001V7.162L3.05874 6.06481V9.45881L4.77559 14.0396C4.81656 14.1484 4.83832 14.265 4.83704 14.3853C4.83448 14.9089 4.40431 15.3365 3.87812 15.3365H0.960378ZM3.41466 14.0563L2.41861 11.3984L1.42256 14.0563H3.41466ZM6.89956 11.1001L11.095 13.1972C11.1821 13.2407 11.2819 13.2638 11.3805 13.2638C11.4791 13.2638 11.579 13.2407 11.666 13.1972L15.8615 11.1001V7.71124L12.1372 9.30646C11.8977 9.40888 11.6442 9.46137 11.3805 9.46137C11.1181 9.46137 10.8633 9.40888 10.6239 9.30646L6.89956 7.71124V11.1001ZM11.1283 8.13117C11.2077 8.16445 11.2922 8.18238 11.3805 8.18238C11.4688 8.18238 11.5533 8.16445 11.634 8.13117L18.7177 5.09436L11.6327 2.05756C11.5533 2.02427 11.4676 2.00635 11.3805 2.00635C11.2935 2.00635 11.2077 2.02427 11.1283 2.05756L4.04327 5.09436L11.1283 8.13117Z" fill="#565D66"/>
</svg>