<svg width="30" height="31" viewBox="0 0 30 31" fill="none" xmlns="http://www.w3.org/2000/svg">
<circle cx="15" cy="15.5" r="14.5" stroke="#CDCED9"/>
<path d="M21 19.4987H11C10.8232 19.4987 10.6536 19.5689 10.5286 19.694C10.4036 19.819 10.3333 19.9886 10.3333 20.1654C10.3333 20.3422 10.4036 20.5117 10.5286 20.6368C10.6536 20.7618 10.8232 20.832 11 20.832H21V22.1654H11C10.4696 22.1654 9.96086 21.9546 9.58579 21.5796C9.21071 21.2045 9 20.6958 9 20.1654V10.1654C9 9.81174 9.14048 9.4726 9.39052 9.22256C9.64057 8.97251 9.97971 8.83203 10.3333 8.83203H21V19.4987ZM17.6667 13.4987V12.1654H12.3333V13.4987H17.6667Z" fill="#0050C8"/>
</svg>
