<svg width="34" height="31" viewBox="0 0 34 31" fill="none" xmlns="http://www.w3.org/2000/svg">
<path d="M16.7922 7.16667V0.5H0.298828V30.5H33.2857V7.16667H16.7922ZM6.89619 27.1667H3.59751V23.8333H6.89619V27.1667ZM6.89619 20.5H3.59751V17.1667H6.89619V20.5ZM6.89619 13.8333H3.59751V10.5H6.89619V13.8333ZM6.89619 7.16667H3.59751V3.83333H6.89619V7.16667ZM13.4936 27.1667H10.1949V23.8333H13.4936V27.1667ZM13.4936 20.5H10.1949V17.1667H13.4936V20.5ZM13.4936 13.8333H10.1949V10.5H13.4936V13.8333ZM13.4936 7.16667H10.1949V3.83333H13.4936V7.16667ZM29.987 27.1667H16.7922V23.8333H20.0909V20.5H16.7922V17.1667H20.0909V13.8333H16.7922V10.5H29.987V27.1667ZM26.6883 13.8333H23.3896V17.1667H26.6883V13.8333ZM26.6883 20.5H23.3896V23.8333H26.6883V20.5Z" fill="#767B7F"/>
</svg>
