<svg width="33" height="34" viewBox="0 0 33 34" fill="none" xmlns="http://www.w3.org/2000/svg">
<path d="M8.76125 0H21.8934C22.4845 0 23.0565 0.209474 23.5079 0.591233L31.4472 7.30657C32.0088 7.78158 32.3327 8.4798 32.3327 9.21534V30.1389C32.3327 33.1231 32.2986 33.3333 29.2374 33.3333H8.76125C5.7001 33.3333 5.66602 33.1231 5.66602 30.1389V3.19444C5.66602 0.210208 5.7001 0 8.76125 0Z" fill="#E9EAEE"/>
<rect y="17.666" width="19" height="11" rx="2" fill="#CDCED9"/>
<path d="M4.30713 21.088C4.17646 21.088 4.06913 21.053 3.98513 20.983C3.9058 20.9083 3.86613 20.8127 3.86613 20.696C3.86613 20.5793 3.9058 20.486 3.98513 20.416C4.06913 20.3413 4.17646 20.304 4.30713 20.304C4.43313 20.304 4.5358 20.3413 4.61513 20.416C4.69446 20.486 4.73413 20.5793 4.73413 20.696C4.73413 20.8127 4.69446 20.9083 4.61513 20.983C4.5358 21.053 4.43313 21.088 4.30713 21.088ZM3.23613 26.926H3.50213C3.67013 26.926 3.79146 26.8887 3.86613 26.814C3.94546 26.7393 3.98513 26.611 3.98513 26.429V21.823H4.62913V26.45C4.62913 27.1407 4.27913 27.486 3.57913 27.486H3.23613V26.926ZM7.76628 21.774C8.10694 21.774 8.41028 21.8533 8.67628 22.012C8.94228 22.1707 9.14994 22.3993 9.29928 22.698C9.45328 22.9967 9.53028 23.3467 9.53028 23.748C9.53028 24.1493 9.45328 24.4993 9.29928 24.798C9.14994 25.092 8.94228 25.3183 8.67628 25.477C8.41028 25.6357 8.10694 25.715 7.76628 25.715C7.39294 25.715 7.07561 25.6217 6.81428 25.435C6.55761 25.2437 6.38028 24.994 6.28228 24.686V27.486H5.64528V21.823H6.28228V22.803C6.38028 22.495 6.55761 22.2477 6.81428 22.061C7.07561 21.8697 7.39294 21.774 7.76628 21.774ZM7.58428 22.341C7.33694 22.341 7.11294 22.3993 6.91228 22.516C6.71161 22.628 6.55528 22.7913 6.44328 23.006C6.33128 23.2207 6.27528 23.468 6.27528 23.748C6.27528 24.028 6.33128 24.2753 6.44328 24.49C6.55528 24.7 6.71161 24.8633 6.91228 24.98C7.11294 25.0967 7.33694 25.155 7.58428 25.155C7.98094 25.155 8.29594 25.0313 8.52928 24.784C8.76728 24.532 8.88628 24.1867 8.88628 23.748C8.88628 23.3093 8.76728 22.9663 8.52928 22.719C8.29594 22.467 7.98094 22.341 7.58428 22.341ZM11.9371 21.774C12.3104 21.774 12.6254 21.8673 12.8821 22.054C13.1434 22.2407 13.3254 22.4903 13.4281 22.803V21.823H14.0651V25.729C14.0651 26.0837 13.9904 26.3987 13.8411 26.674C13.6917 26.9493 13.4817 27.164 13.2111 27.318C12.9404 27.472 12.6254 27.549 12.2661 27.549C11.7481 27.549 11.3257 27.423 10.9991 27.171C10.6724 26.9237 10.4647 26.5877 10.3761 26.163H11.0061C11.0807 26.4197 11.2207 26.6203 11.4261 26.765C11.6361 26.9143 11.9044 26.989 12.2311 26.989C12.5764 26.989 12.8611 26.877 13.0851 26.653C13.3137 26.4337 13.4281 26.1257 13.4281 25.729V24.686C13.3254 24.9987 13.1434 25.2483 12.8821 25.435C12.6254 25.6217 12.3104 25.715 11.9371 25.715C11.5964 25.715 11.2931 25.6357 11.0271 25.477C10.7611 25.3183 10.5511 25.092 10.3971 24.798C10.2477 24.4993 10.1731 24.1493 10.1731 23.748C10.1731 23.3467 10.2477 22.9967 10.3971 22.698C10.5511 22.3993 10.7611 22.1707 11.0271 22.012C11.2931 21.8533 11.5964 21.774 11.9371 21.774ZM12.1191 22.341C11.7271 22.341 11.4121 22.467 11.1741 22.719C10.9407 22.9663 10.8241 23.3093 10.8241 23.748C10.8241 24.1867 10.9407 24.532 11.1741 24.784C11.4121 25.0313 11.7271 25.155 12.1191 25.155C12.3711 25.155 12.5951 25.0967 12.7911 24.98C12.9917 24.8633 13.1481 24.7 13.2601 24.49C13.3721 24.2753 13.4281 24.028 13.4281 23.748C13.4281 23.468 13.3721 23.2207 13.2601 23.006C13.1481 22.7913 12.9917 22.628 12.7911 22.516C12.5951 22.3993 12.3711 22.341 12.1191 22.341Z" fill="white"/>
</svg>
