<svg width="30" height="31" viewBox="0 0 30 31" fill="none" xmlns="http://www.w3.org/2000/svg">
<circle cx="15" cy="15.5" r="14.5" stroke="#CDCED9"/>
<g clip-path="url(#clip0)">
<path d="M7.33333 16.324H9.33333C9.42174 16.324 9.50652 16.2889 9.56904 16.2264C9.63155 16.1639 9.66667 16.0791 9.66667 15.9907C9.63307 14.9144 9.35445 13.8598 8.852 12.9074C8.83998 12.8838 8.83358 12.8578 8.83333 12.8314V10.4707C8.83333 10.3381 8.78066 10.2109 8.68689 10.1171C8.59312 10.0234 8.46594 9.9707 8.33333 9.9707C8.20073 9.9707 8.07355 10.0234 7.97978 10.1171C7.88601 10.2109 7.83333 10.3381 7.83333 10.4707V12.8314C7.83339 12.8578 7.82722 12.8838 7.81533 12.9074C7.31233 13.8597 7.03346 14.9143 7 15.9907C7 16.0791 7.03512 16.1639 7.09763 16.2264C7.16014 16.2889 7.24493 16.324 7.33333 16.324Z" fill="#0050C8"/>
<path d="M21.1243 20.5148L21.113 20.5108L17.7996 19.4128C17.7424 19.3942 17.6812 19.3914 17.6225 19.4048C17.5638 19.4182 17.5098 19.4472 17.4663 19.4888L15.2283 21.6428C15.1663 21.7021 15.0838 21.7352 14.998 21.7352C14.9122 21.7352 14.8297 21.7021 14.7676 21.6428L12.501 19.4975C12.4573 19.4561 12.4033 19.4273 12.3446 19.4142C12.2859 19.4011 12.2248 19.404 12.1676 19.4228L8.87565 20.5148C8.42211 20.6827 8.01569 20.9574 7.69077 21.3157C7.36585 21.6739 7.132 22.1051 7.00898 22.5728C6.99604 22.6221 6.99456 22.6737 7.00468 22.7236C7.01479 22.7736 7.03622 22.8205 7.06731 22.8609C7.09841 22.9013 7.13835 22.934 7.18405 22.9565C7.22976 22.979 7.28002 22.9908 7.33098 22.9908H22.6643C22.7152 22.9907 22.7654 22.979 22.811 22.9565C22.8567 22.934 22.8966 22.9014 22.9276 22.8611C22.9587 22.8208 22.9802 22.774 22.9903 22.7241C23.0005 22.6742 22.9991 22.6227 22.9863 22.5735C22.8642 22.106 22.6312 21.6748 22.3071 21.3164C21.983 20.9581 21.5773 20.6831 21.1243 20.5148Z" fill="#0050C8"/>
<path d="M22.7238 8.32849L15.2858 7.03449C15.0966 7.00152 14.9031 7.00152 14.7138 7.03449L7.27582 8.32849C7.19856 8.34202 7.12855 8.38236 7.0781 8.44242C7.02766 8.50247 7 8.57839 7 8.65682C7 8.73525 7.02766 8.81117 7.0781 8.87123C7.12855 8.93128 7.19856 8.97162 7.27582 8.98515L14.7138 10.2785C14.903 10.3123 15.0966 10.3123 15.2858 10.2785L22.7238 8.98515C22.8011 8.97162 22.8711 8.93128 22.9215 8.87123C22.972 8.81117 22.9996 8.73525 22.9996 8.65682C22.9996 8.57839 22.972 8.50247 22.9215 8.44242C22.8711 8.38236 22.8011 8.34202 22.7238 8.32849Z" fill="#0050C8"/>
<path d="M19.3056 10.5962L15.2289 11.3049C15.0778 11.3307 14.9234 11.3307 14.7723 11.3049L10.6956 10.5962C10.6717 10.5921 10.6471 10.5932 10.6236 10.5995C10.6002 10.6058 10.5784 10.6172 10.5598 10.6328C10.5412 10.6484 10.5262 10.6679 10.5159 10.6899C10.5056 10.7119 10.5003 10.7359 10.5003 10.7602V13.6676C10.5003 13.7084 10.4854 13.7478 10.4583 13.7782C10.2342 14.0501 10.1209 14.3965 10.1409 14.7482C10.1374 15.0796 10.2245 15.4056 10.3929 15.6911C10.5613 15.9765 10.8045 16.2104 11.0963 16.3676L11.1969 16.4956C11.5369 18.5269 13.8769 19.8222 14.9876 19.8222C16.0983 19.8222 18.4376 18.5269 18.7776 16.4962L18.8783 16.3682C19.1698 16.2106 19.4128 15.9765 19.5811 15.691C19.7495 15.4056 19.8368 15.0796 19.8336 14.7482C19.8509 14.4104 19.7464 14.0775 19.5389 13.8102C19.5142 13.7805 19.5005 13.743 19.5003 13.7042V10.7602C19.5003 10.736 19.4951 10.712 19.4849 10.69C19.4747 10.6679 19.4598 10.6484 19.4412 10.6328C19.4227 10.6172 19.4009 10.6058 19.3775 10.5995C19.354 10.5932 19.3295 10.5921 19.3056 10.5962ZM18.4616 15.4629C18.2877 15.5424 18.136 15.6634 18.0198 15.8152C17.9036 15.967 17.8264 16.145 17.7949 16.3336C17.5436 17.8329 15.6789 18.8262 14.9903 18.8262C14.3016 18.8262 12.4336 17.8316 12.1823 16.3342C12.1506 16.1457 12.0733 15.9678 11.9571 15.8161C11.8409 15.6643 11.6893 15.5433 11.5156 15.4636C11.3966 15.3835 11.2998 15.2746 11.2342 15.1471C11.1686 15.0196 11.1363 14.8776 11.1403 14.7342C11.1272 14.6331 11.1508 14.5307 11.2069 14.4456C11.2937 14.406 11.3674 14.3425 11.4191 14.2623C11.4709 14.1822 11.4986 14.089 11.4989 13.9936V12.6996C11.4989 12.6737 11.5049 12.6482 11.5165 12.625C11.528 12.6019 11.5449 12.5817 11.5656 12.5662C11.5858 12.5508 11.6093 12.5402 11.6342 12.5351C11.6592 12.53 11.6849 12.5306 11.7096 12.5369C12.7835 12.8211 13.8894 12.9663 15.0003 12.9689C16.1113 12.9668 17.2174 12.8221 18.2916 12.5382C18.3163 12.5318 18.342 12.5311 18.367 12.5362C18.392 12.5413 18.4154 12.5521 18.4356 12.5677C18.4557 12.5833 18.472 12.6032 18.4832 12.6261C18.4945 12.649 18.5003 12.6741 18.5003 12.6996V13.9136C18.4825 14.0177 18.4985 14.1247 18.5458 14.2191C18.5932 14.3135 18.6695 14.3903 18.7636 14.4382C18.8229 14.5238 18.8479 14.6285 18.8336 14.7316C18.8381 14.8747 18.8063 15.0167 18.7413 15.1443C18.6763 15.2719 18.5801 15.3811 18.4616 15.4616V15.4629Z" fill="#0050C8"/>
<path d="M15.6265 16.5376C15.576 16.5647 15.5231 16.587 15.4685 16.6043C15.344 16.6409 15.2149 16.6591 15.0851 16.6583C14.9543 16.6592 14.824 16.6408 14.6985 16.6036C14.6436 16.5865 14.5905 16.5641 14.5398 16.5369C14.423 16.4741 14.286 16.4602 14.159 16.4983C14.032 16.5365 13.9253 16.6235 13.8625 16.7403C13.7996 16.8571 13.7857 16.994 13.8239 17.1211C13.862 17.2481 13.949 17.3548 14.0658 17.4176C14.1741 17.4756 14.288 17.5226 14.4058 17.5576C14.6257 17.6239 14.8541 17.6574 15.0838 17.6569H15.0885C15.3174 17.6581 15.5453 17.6251 15.7645 17.5589C15.8823 17.523 15.9964 17.4757 16.1051 17.4176C16.1638 17.3869 16.2158 17.3448 16.2581 17.2938C16.3004 17.2428 16.3322 17.1839 16.3515 17.1206C16.3709 17.0572 16.3774 16.9906 16.3708 16.9247C16.3642 16.8588 16.3445 16.7948 16.313 16.7366C16.2815 16.6783 16.2387 16.6269 16.1871 16.5853C16.1355 16.5438 16.0762 16.5128 16.0125 16.4944C15.9489 16.4759 15.8823 16.4703 15.8164 16.4779C15.7506 16.4854 15.6869 16.5059 15.6291 16.5383L15.6265 16.5376Z" fill="#0050C8"/>
<path d="M14.4598 15.0004C14.5485 14.902 14.5945 14.7722 14.5876 14.6399C14.5807 14.5075 14.5216 14.3832 14.4231 14.2944C14.1742 14.0938 13.8641 13.9844 13.5444 13.9844C13.2247 13.9844 12.9147 14.0938 12.6658 14.2944C12.5754 14.3849 12.5231 14.5065 12.5197 14.6344C12.5163 14.7622 12.5619 14.8864 12.6473 14.9816C12.7327 15.0768 12.8513 15.1357 12.9787 15.1461C13.1061 15.1566 13.2327 15.1178 13.3324 15.0378C13.3963 15.0015 13.4684 14.9825 13.5418 14.9825C13.6152 14.9825 13.6873 15.0015 13.7511 15.0378C13.8 15.0821 13.8571 15.1163 13.9193 15.1384C13.9814 15.1605 14.0473 15.1701 14.1132 15.1666C14.1791 15.1632 14.2436 15.1467 14.3031 15.1182C14.3626 15.0896 14.4158 15.0496 14.4598 15.0004Z" fill="#0050C8"/>
<path d="M15.7087 14.2962C15.6184 14.3867 15.5661 14.5083 15.5627 14.6361C15.5592 14.7639 15.6049 14.8882 15.6903 14.9834C15.7756 15.0786 15.8942 15.1374 16.0217 15.1479C16.1491 15.1583 16.2757 15.1196 16.3754 15.0395C16.4392 15.0033 16.5114 14.9843 16.5847 14.9843C16.6581 14.9843 16.7303 15.0033 16.7941 15.0395C16.8421 15.0876 16.8994 15.1254 16.9626 15.1506C17.0257 15.1758 17.0933 15.1878 17.1613 15.186C17.2292 15.1842 17.2961 15.1685 17.3578 15.14C17.4195 15.1114 17.4747 15.0706 17.5201 15.02C17.5654 14.9694 17.6 14.9101 17.6217 14.8457C17.6434 14.7813 17.6517 14.7131 17.6462 14.6454C17.6406 14.5776 17.6213 14.5117 17.5894 14.4517C17.5575 14.3916 17.5138 14.3387 17.4607 14.2962C17.2123 14.0969 16.9033 13.9883 16.5847 13.9883C16.2662 13.9883 15.9572 14.0969 15.7087 14.2962Z" fill="#0050C8"/>
</g>
<defs>
<clipPath id="clip0">
<rect width="16" height="16" fill="white" transform="translate(7 7)"/>
</clipPath>
</defs>
</svg>
