<svg width="264" height="146" viewBox="0 0 264 146" fill="none" xmlns="http://www.w3.org/2000/svg">
<mask id="mask0" mask-type="alpha" maskUnits="userSpaceOnUse" x="0" y="0" width="264" height="146">
<path d="M0 8C0 3.58173 3.58172 0 8 0H256C260.418 0 264 3.58172 264 8V146H0V8Z" fill="#B3CDFF"/>
</mask>
<g mask="url(#mask0)">
<path d="M0 8C0 3.58173 3.58172 0 8 0H256C260.418 0 264 3.58172 264 8V146H0V8Z" fill="#EDF9F0"/>
<path d="M30.1729 -29.155C31.7316 -33.2892 36.3466 -35.3771 40.4808 -33.8184L62.002 -25.7045C66.1362 -24.1458 68.2241 -19.5308 66.6655 -15.3966L4.99256 148.184L-31.5 134.426L30.1729 -29.155Z" fill="url(#paint0_linear)" fill-opacity="0.2"/>
<path d="M69.6729 -29.155C71.2316 -33.2892 75.8466 -35.3771 79.9808 -33.8184L101.502 -25.7045C105.636 -24.1458 107.724 -19.5308 106.165 -15.3966L44.4926 148.184L7.99998 134.426L69.6729 -29.155Z" fill="url(#paint1_linear)" fill-opacity="0.2"/>
<path d="M111.673 -29.155C113.232 -33.2892 117.847 -35.3771 121.981 -33.8184L143.502 -25.7045C147.636 -24.1458 149.724 -19.5308 148.165 -15.3966L86.4926 148.184L50 134.426L111.673 -29.155Z" fill="url(#paint2_linear)" fill-opacity="0.2"/>
<path d="M139.673 -29.155C141.232 -33.2892 145.847 -35.3771 149.981 -33.8184L171.502 -25.7045C175.636 -24.1458 177.724 -19.5308 176.165 -15.3966L114.493 148.184L78 134.426L139.673 -29.155Z" fill="url(#paint3_linear)" fill-opacity="0.2"/>
<path d="M100.893 153.979C99.2947 158.098 101.338 162.733 105.457 164.332L126.899 172.652C131.018 174.25 135.653 172.207 137.252 168.088L200.495 5.1074L164.136 -9.00116L100.893 153.979Z" fill="url(#paint4_linear)" fill-opacity="0.2"/>
<path d="M134.893 153.979C133.295 158.098 135.338 162.733 139.457 164.332L160.899 172.652C165.018 174.25 169.653 172.207 171.252 168.088L234.495 5.1074L198.136 -9.00116L134.893 153.979Z" fill="url(#paint5_linear)" fill-opacity="0.2"/>
<path d="M167.893 153.979C166.295 158.098 168.338 162.733 172.457 164.332L193.899 172.652C198.018 174.25 202.653 172.207 204.252 168.088L267.495 5.1074L231.136 -9.00116L167.893 153.979Z" fill="url(#paint6_linear)" fill-opacity="0.2"/>
<path d="M202.893 153.979C201.295 158.098 203.338 162.733 207.457 164.332L228.899 172.652C233.018 174.25 237.653 172.207 239.252 168.088L302.495 5.1074L266.136 -9.00116L202.893 153.979Z" fill="url(#paint7_linear)" fill-opacity="0.2"/>
</g>
<path d="M138.146 40.7994C136.949 40.1588 135.497 40.2289 134.367 40.9822L113.203 55.0909H94.6819C92.6485 55.0909 91 56.7394 91 58.7728V73.5001V88.2274C91 90.2608 92.6485 91.9092 94.6819 91.9092H113.203L134.367 106.018C134.983 106.429 135.695 106.637 136.409 106.637C137.005 106.637 137.602 106.492 138.146 106.201C139.344 105.56 140.091 104.313 140.091 102.955V73.5001V44.0455C140.091 42.6877 139.344 41.4401 138.146 40.7994Z" fill="#287D3C"/>
<path d="M134.644 41.3983L134.644 41.3982C135.62 40.7472 136.876 40.6866 137.911 41.2402C138.945 41.7939 139.591 42.8721 139.591 44.0455V73.5001V102.955C139.591 104.128 138.945 105.206 137.911 105.76L137.91 105.76C137.44 106.012 136.924 106.137 136.409 106.137C135.792 106.137 135.177 105.957 134.644 105.602L134.644 105.602L113.481 91.4932L113.355 91.4092H113.203H94.6819C92.9246 91.4092 91.5 89.9846 91.5 88.2274V73.5001V58.7728C91.5 57.0156 92.9246 55.5909 94.6819 55.5909H113.203H113.355L113.481 55.507L134.644 41.3983Z" stroke="white" stroke-opacity="0.3"/>
<path d="M151.136 91.9091H153.59C155.624 91.9091 157.272 90.2607 157.272 88.2273C157.272 86.1939 155.624 84.5454 153.59 84.5454H151.136C149.103 84.5454 147.454 86.1939 147.454 88.2273C147.454 90.2607 149.103 91.9091 151.136 91.9091Z" fill="#272833"/>
<path d="M151.136 77.1816H160.954C162.988 77.1816 164.636 75.5331 164.636 73.4997C164.636 71.4664 162.988 69.8179 160.954 69.8179H151.136C149.103 69.8179 147.454 71.4664 147.454 73.4997C147.454 75.5331 149.103 77.1816 151.136 77.1816Z" fill="#272833"/>
<path d="M168.318 55.0908H151.136C149.103 55.0908 147.454 56.7393 147.454 58.7727C147.454 60.8061 149.103 62.4545 151.136 62.4545H168.318C170.351 62.4545 172 60.8061 172 58.7727C172 56.7393 170.351 55.0908 168.318 55.0908Z" fill="#272833"/>
<defs>
<linearGradient id="paint0_linear" x1="51.2414" y1="-29.7615" x2="-13.2537" y2="141.305" gradientUnits="userSpaceOnUse">
<stop stop-color="#5ACA75"/>
<stop offset="1" stop-color="#5ACA75" stop-opacity="0"/>
</linearGradient>
<linearGradient id="paint1_linear" x1="90.7414" y1="-29.7615" x2="26.2463" y2="141.305" gradientUnits="userSpaceOnUse">
<stop stop-color="#5ACA75"/>
<stop offset="1" stop-color="#5ACA75" stop-opacity="0"/>
</linearGradient>
<linearGradient id="paint2_linear" x1="132.741" y1="-29.7615" x2="68.2463" y2="141.305" gradientUnits="userSpaceOnUse">
<stop stop-color="#5ACA75"/>
<stop offset="1" stop-color="#5ACA75" stop-opacity="0"/>
</linearGradient>
<linearGradient id="paint3_linear" x1="160.741" y1="-29.7615" x2="96.2463" y2="141.305" gradientUnits="userSpaceOnUse">
<stop stop-color="#5ACA75"/>
<stop offset="1" stop-color="#5ACA75" stop-opacity="0"/>
</linearGradient>
<linearGradient id="paint4_linear" x1="116.178" y1="168.492" x2="182.315" y2="-1.94688" gradientUnits="userSpaceOnUse">
<stop stop-color="#5ACA75"/>
<stop offset="1" stop-color="#5ACA75" stop-opacity="0"/>
</linearGradient>
<linearGradient id="paint5_linear" x1="150.178" y1="168.492" x2="216.315" y2="-1.94688" gradientUnits="userSpaceOnUse">
<stop stop-color="#5ACA75"/>
<stop offset="1" stop-color="#5ACA75" stop-opacity="0"/>
</linearGradient>
<linearGradient id="paint6_linear" x1="183.178" y1="168.492" x2="249.315" y2="-1.94688" gradientUnits="userSpaceOnUse">
<stop stop-color="#5ACA75"/>
<stop offset="1" stop-color="#5ACA75" stop-opacity="0"/>
</linearGradient>
<linearGradient id="paint7_linear" x1="218.178" y1="168.492" x2="284.315" y2="-1.94688" gradientUnits="userSpaceOnUse">
<stop stop-color="#5ACA75"/>
<stop offset="1" stop-color="#5ACA75" stop-opacity="0"/>
</linearGradient>
</defs>
</svg>
