<svg width="264" height="146" viewBox="0 0 264 146" fill="none" xmlns="http://www.w3.org/2000/svg">
<mask id="mask0" mask-type="alpha" maskUnits="userSpaceOnUse" x="0" y="0" width="264" height="146">
<path d="M0 8C0 3.58173 3.58172 0 8 0H256C260.418 0 264 3.58172 264 8V146H0V8Z" fill="#B3CDFF"/>
</mask>
<g mask="url(#mask0)">
<path d="M0 8C0 3.58173 3.58172 0 8 0H256C260.418 0 264 3.58172 264 8V146H0V8Z" fill="#FEEFEF"/>
<path d="M30.1739 -29.155C31.7325 -33.2892 36.3475 -35.3771 40.4818 -33.8184L62.003 -25.7045C66.1372 -24.1458 68.2251 -19.5308 66.6664 -15.3966L4.99354 148.184L-31.499 134.426L30.1739 -29.155Z" fill="url(#paint0_linear)"/>
<path d="M69.6739 -29.155C71.2325 -33.2892 75.8475 -35.3771 79.9818 -33.8184L101.503 -25.7045C105.637 -24.1458 107.725 -19.5308 106.166 -15.3966L44.4935 148.184L8.00096 134.426L69.6739 -29.155Z" fill="url(#paint1_linear)"/>
<path d="M111.674 -29.155C113.233 -33.2892 117.848 -35.3771 121.982 -33.8184L143.503 -25.7045C147.637 -24.1458 149.725 -19.5308 148.166 -15.3966L86.4935 148.184L50.001 134.426L111.674 -29.155Z" fill="url(#paint2_linear)"/>
<path d="M139.674 -29.155C141.233 -33.2892 145.848 -35.3771 149.982 -33.8184L171.503 -25.7045C175.637 -24.1458 177.725 -19.5308 176.166 -15.3966L114.494 148.184L78.001 134.426L139.674 -29.155Z" fill="url(#paint3_linear)"/>
<path d="M100.894 153.979C99.2957 158.098 101.339 162.733 105.458 164.332L126.9 172.652C131.019 174.25 135.654 172.207 137.253 168.088L200.495 5.1074L164.137 -9.00116L100.894 153.979Z" fill="url(#paint4_linear)"/>
<path d="M134.894 153.979C133.296 158.098 135.339 162.733 139.458 164.332L160.9 172.652C165.019 174.25 169.654 172.207 171.253 168.088L234.495 5.1074L198.137 -9.00116L134.894 153.979Z" fill="url(#paint5_linear)"/>
<path d="M167.894 153.979C166.296 158.098 168.339 162.733 172.458 164.332L193.9 172.652C198.019 174.25 202.654 172.207 204.253 168.088L267.495 5.1074L231.137 -9.00116L167.894 153.979Z" fill="url(#paint6_linear)"/>
<path d="M202.894 153.979C201.296 158.098 203.339 162.733 207.458 164.332L228.9 172.652C233.019 174.25 237.654 172.207 239.253 168.088L302.495 5.1074L266.137 -9.00116L202.894 153.979Z" fill="url(#paint7_linear)"/>
</g>
<path d="M149.888 53.5135L137.987 41.6115C136.955 40.58 135.557 40.0003 134.098 40H102C100.541 40 99.1424 40.5795 98.1109 41.6109C97.0795 42.6424 96.5 44.0413 96.5 45.5V100.5C96.5 101.959 97.0795 103.358 98.1109 104.389C99.1424 105.421 100.541 106 102 106H146C147.459 106 148.858 105.421 149.889 104.389C150.921 103.358 151.5 101.959 151.5 100.5V57.4047C151.5 56.6821 151.358 55.9664 151.081 55.2988C150.805 54.6311 150.4 54.0244 149.888 53.5135ZM137.062 75.75C137.062 76.297 136.845 76.8216 136.458 77.2084C136.072 77.5952 135.547 77.8125 135 77.8125C134.453 77.8125 133.928 77.5952 133.542 77.2084C133.155 76.8216 132.938 76.297 132.938 75.75V73C132.938 72.8177 132.865 72.6428 132.736 72.5139C132.607 72.3849 132.432 72.3125 132.25 72.3125H126.75C126.568 72.3125 126.393 72.3849 126.264 72.5139C126.135 72.6428 126.062 72.8177 126.062 73V90.875C126.062 91.0573 126.135 91.2322 126.264 91.3611C126.393 91.4901 126.568 91.5625 126.75 91.5625H129.5C130.047 91.5625 130.572 91.7798 130.958 92.1666C131.345 92.5534 131.562 93.078 131.562 93.625C131.562 94.172 131.345 94.6966 130.958 95.0834C130.572 95.4702 130.047 95.6875 129.5 95.6875H118.5C117.953 95.6875 117.428 95.4702 117.042 95.0834C116.655 94.6966 116.438 94.172 116.438 93.625C116.438 93.078 116.655 92.5534 117.042 92.1666C117.428 91.7798 117.953 91.5625 118.5 91.5625H121.25C121.432 91.5625 121.607 91.4901 121.736 91.3611C121.865 91.2322 121.938 91.0573 121.938 90.875V73C121.938 72.8177 121.865 72.6428 121.736 72.5139C121.607 72.3849 121.432 72.3125 121.25 72.3125H115.75C115.568 72.3125 115.393 72.3849 115.264 72.5139C115.135 72.6428 115.062 72.8177 115.062 73V75.75C115.062 76.297 114.845 76.8216 114.458 77.2084C114.072 77.5952 113.547 77.8125 113 77.8125C112.453 77.8125 111.928 77.5952 111.542 77.2084C111.155 76.8216 110.938 76.297 110.938 75.75V71.625C110.938 70.7133 111.3 69.839 111.944 69.1943C112.589 68.5497 113.463 68.1875 114.375 68.1875H133.625C134.537 68.1875 135.411 68.5497 136.056 69.1943C136.7 69.839 137.062 70.7133 137.062 71.625V75.75Z" fill="#333A75"/>
<defs>
<linearGradient id="paint0_linear" x1="51.2424" y1="-29.7615" x2="-13.2528" y2="141.305" gradientUnits="userSpaceOnUse">
<stop stop-color="#CCAAD5"/>
<stop offset="1" stop-opacity="0"/>
</linearGradient>
<linearGradient id="paint1_linear" x1="90.7424" y1="-29.7615" x2="26.2472" y2="141.305" gradientUnits="userSpaceOnUse">
<stop stop-color="#CCAAD5"/>
<stop offset="1" stop-opacity="0"/>
</linearGradient>
<linearGradient id="paint2_linear" x1="132.742" y1="-29.7615" x2="68.2472" y2="141.305" gradientUnits="userSpaceOnUse">
<stop stop-color="#CCAAD5"/>
<stop offset="1" stop-opacity="0"/>
</linearGradient>
<linearGradient id="paint3_linear" x1="160.742" y1="-29.7615" x2="96.2472" y2="141.305" gradientUnits="userSpaceOnUse">
<stop stop-color="#CCAAD5"/>
<stop offset="1" stop-opacity="0"/>
</linearGradient>
<linearGradient id="paint4_linear" x1="116.179" y1="168.492" x2="182.316" y2="-1.94688" gradientUnits="userSpaceOnUse">
<stop stop-color="#CCAAD5"/>
<stop offset="1" stop-opacity="0"/>
</linearGradient>
<linearGradient id="paint5_linear" x1="150.179" y1="168.492" x2="216.316" y2="-1.94688" gradientUnits="userSpaceOnUse">
<stop stop-color="#CCAAD5"/>
<stop offset="1" stop-opacity="0"/>
</linearGradient>
<linearGradient id="paint6_linear" x1="183.179" y1="168.492" x2="249.316" y2="-1.94688" gradientUnits="userSpaceOnUse">
<stop stop-color="#CCAAD5"/>
<stop offset="1" stop-opacity="0"/>
</linearGradient>
<linearGradient id="paint7_linear" x1="218.179" y1="168.492" x2="284.316" y2="-1.94688" gradientUnits="userSpaceOnUse">
<stop stop-color="#CCAAD5"/>
<stop offset="1" stop-opacity="0"/>
</linearGradient>
</defs>
</svg>
