<svg width="264" height="146" viewBox="0 0 264 146" fill="none" xmlns="http://www.w3.org/2000/svg">
<mask id="mask0" mask-type="alpha" maskUnits="userSpaceOnUse" x="0" y="0" width="264" height="146">
<path d="M0 8C0 3.58173 3.58172 0 8 0H256C260.418 0 264 3.58172 264 8V146H0V8Z" fill="#B3CDFF"/>
</mask>
<g mask="url(#mask0)">
<path d="M0 8C0 3.58173 3.58172 0 8 0H256C260.418 0 264 3.58172 264 8V146H0V8Z" fill="#B3CDFF"/>
<path d="M30.1729 -29.155C31.7316 -33.2892 36.3466 -35.3771 40.4808 -33.8184L62.002 -25.7045C66.1362 -24.1458 68.2241 -19.5308 66.6655 -15.3966L4.99256 148.184L-31.5 134.426L30.1729 -29.155Z" fill="url(#paint0_linear)" fill-opacity="0.2"/>
<path d="M69.6729 -29.155C71.2316 -33.2892 75.8466 -35.3771 79.9808 -33.8184L101.502 -25.7045C105.636 -24.1458 107.724 -19.5308 106.165 -15.3966L44.4926 148.184L7.99998 134.426L69.6729 -29.155Z" fill="url(#paint1_linear)" fill-opacity="0.2"/>
<path d="M111.673 -29.155C113.232 -33.2892 117.847 -35.3771 121.981 -33.8184L143.502 -25.7045C147.636 -24.1458 149.724 -19.5308 148.165 -15.3966L86.4926 148.184L50 134.426L111.673 -29.155Z" fill="url(#paint2_linear)" fill-opacity="0.2"/>
<path d="M139.673 -29.155C141.232 -33.2892 145.847 -35.3771 149.981 -33.8184L171.502 -25.7045C175.636 -24.1458 177.724 -19.5308 176.165 -15.3966L114.493 148.184L78 134.426L139.673 -29.155Z" fill="url(#paint3_linear)" fill-opacity="0.2"/>
<path d="M100.893 153.979C99.2947 158.098 101.338 162.733 105.457 164.332L126.899 172.652C131.018 174.25 135.653 172.207 137.252 168.088L200.495 5.1074L164.136 -9.00116L100.893 153.979Z" fill="url(#paint4_linear)" fill-opacity="0.2"/>
<path d="M134.893 153.979C133.295 158.098 135.338 162.733 139.457 164.332L160.899 172.652C165.018 174.25 169.653 172.207 171.252 168.088L234.495 5.1074L198.136 -9.00116L134.893 153.979Z" fill="url(#paint5_linear)" fill-opacity="0.2"/>
<path d="M167.893 153.979C166.295 158.098 168.338 162.733 172.457 164.332L193.899 172.652C198.018 174.25 202.653 172.207 204.252 168.088L267.495 5.1074L231.136 -9.00116L167.893 153.979Z" fill="url(#paint6_linear)" fill-opacity="0.2"/>
<path d="M202.893 153.979C201.295 158.098 203.338 162.733 207.457 164.332L228.899 172.652C233.018 174.25 237.653 172.207 239.252 168.088L302.495 5.1074L266.136 -9.00116L202.893 153.979Z" fill="url(#paint7_linear)" fill-opacity="0.2"/>
</g>
<path d="M103.687 36H143.515L164.625 57.0282V106.313C164.625 108.902 162.525 111 159.937 111H103.687C101.1 111 99 108.902 99 106.313V40.6875C99 38.0977 101.1 36 103.687 36Z" fill="#0050C8"/>
<path d="M103.687 36.5H143.308L164.125 57.2359V106.313C164.125 108.626 162.249 110.5 159.937 110.5H103.687C101.376 110.5 99.5 108.626 99.5 106.313V40.6875C99.5 38.374 101.376 36.5 103.687 36.5Z" stroke="white" stroke-opacity="0.3"/>
<path d="M164.557 57.0937H148.219C145.631 57.0937 143.531 54.9939 143.531 52.4063V36.0469L164.557 57.0937Z" fill="#80ACFF"/>
<path d="M144.031 37.2548L163.351 56.5937H148.219C145.907 56.5937 144.031 54.7177 144.031 52.4063V37.2548Z" stroke="white" stroke-opacity="0.3"/>
<g clip-path="url(#clip0)">
<path d="M137.19 69.3541L135.646 67.8096L125.809 77.6457L127.354 79.1902L137.19 69.3541Z" fill="white"/>
<path d="M142.881 62.1191L141.336 63.6639C142.29 64.6179 142.816 65.8858 142.816 67.2351C142.816 68.5844 142.29 69.8529 141.336 70.8068L135.844 76.299L137.388 77.8438L142.881 72.351C144.247 70.9848 145 69.1676 145 67.2351C145 65.3026 144.247 63.4859 142.881 62.1191Z" fill="white"/>
<path d="M137.765 60C135.832 60 134.015 60.7525 132.649 62.1192L127.156 67.6119L128.7 69.1562L134.193 63.6635C135.147 62.7095 136.416 62.1842 137.765 62.1842C139.114 62.1842 140.382 62.7095 141.336 63.664C141.337 63.664 142.881 62.1192 142.881 62.1192C141.514 60.7525 139.697 60 137.765 60Z" fill="white"/>
<path d="M128.807 83.3365C127.853 84.2904 126.584 84.8157 125.235 84.8157C123.886 84.8157 122.618 84.2904 121.664 83.3359L120.119 84.8807C121.486 86.2475 123.303 86.9999 125.235 86.9999C127.168 86.9999 128.985 86.2475 130.351 84.8807L135.844 79.388L134.299 77.8438L128.807 83.3365Z" fill="white"/>
<path d="M121.663 83.3361C120.71 82.3821 120.184 81.1142 120.184 79.7649C120.184 78.4156 120.71 77.1471 121.663 76.1932L127.156 70.701L125.612 69.1562L120.119 74.649C118.752 76.0152 118 77.8324 118 79.7649C118 81.6974 118.752 83.5141 120.119 84.8809C120.119 84.8809 121.664 83.3361 121.663 83.3361Z" fill="white"/>
</g>
<defs>
<linearGradient id="paint0_linear" x1="51.2414" y1="-29.7615" x2="-13.2537" y2="141.305" gradientUnits="userSpaceOnUse">
<stop stop-color="#80ACFF"/>
<stop offset="1" stop-color="#80ACFF" stop-opacity="0"/>
</linearGradient>
<linearGradient id="paint1_linear" x1="90.7414" y1="-29.7615" x2="26.2463" y2="141.305" gradientUnits="userSpaceOnUse">
<stop stop-color="#80ACFF"/>
<stop offset="1" stop-color="#80ACFF" stop-opacity="0"/>
</linearGradient>
<linearGradient id="paint2_linear" x1="132.741" y1="-29.7615" x2="68.2463" y2="141.305" gradientUnits="userSpaceOnUse">
<stop stop-color="#80ACFF"/>
<stop offset="1" stop-color="#80ACFF" stop-opacity="0"/>
</linearGradient>
<linearGradient id="paint3_linear" x1="160.741" y1="-29.7615" x2="96.2463" y2="141.305" gradientUnits="userSpaceOnUse">
<stop stop-color="#80ACFF"/>
<stop offset="1" stop-color="#80ACFF" stop-opacity="0"/>
</linearGradient>
<linearGradient id="paint4_linear" x1="116.178" y1="168.492" x2="182.315" y2="-1.94688" gradientUnits="userSpaceOnUse">
<stop stop-color="#80ACFF"/>
<stop offset="1" stop-color="#80ACFF" stop-opacity="0"/>
</linearGradient>
<linearGradient id="paint5_linear" x1="150.178" y1="168.492" x2="216.315" y2="-1.94688" gradientUnits="userSpaceOnUse">
<stop stop-color="#80ACFF"/>
<stop offset="1" stop-color="#80ACFF" stop-opacity="0"/>
</linearGradient>
<linearGradient id="paint6_linear" x1="183.178" y1="168.492" x2="249.315" y2="-1.94688" gradientUnits="userSpaceOnUse">
<stop stop-color="#80ACFF"/>
<stop offset="1" stop-color="#80ACFF" stop-opacity="0"/>
</linearGradient>
<linearGradient id="paint7_linear" x1="218.178" y1="168.492" x2="284.315" y2="-1.94688" gradientUnits="userSpaceOnUse">
<stop stop-color="#80ACFF"/>
<stop offset="1" stop-color="#80ACFF" stop-opacity="0"/>
</linearGradient>
<clipPath id="clip0">
<rect width="27" height="27" fill="white" transform="translate(118 60)"/>
</clipPath>
</defs>
</svg>
