<svg width="264" height="146" viewBox="0 0 264 146" fill="none" xmlns="http://www.w3.org/2000/svg">
<mask id="mask0" mask-type="alpha" maskUnits="userSpaceOnUse" x="0" y="0" width="264" height="146">
<path d="M0 8C0 3.58173 3.58172 0 8 0H256C260.418 0 264 3.58172 264 8V146H0V8Z" fill="#B3CDFF"/>
</mask>
<g mask="url(#mask0)">
<path d="M0 8C0 3.58173 3.58172 0 8 0H256C260.418 0 264 3.58172 264 8V146H0V8Z" fill="#FEEFEF"/>
<path d="M30.1729 -29.155C31.7316 -33.2892 36.3466 -35.3771 40.4808 -33.8184L62.002 -25.7045C66.1362 -24.1458 68.2241 -19.5308 66.6655 -15.3966L4.99256 148.184L-31.5 134.426L30.1729 -29.155Z" fill="url(#paint0_linear)" fill-opacity="0.2"/>
<path d="M69.6729 -29.155C71.2316 -33.2892 75.8466 -35.3771 79.9808 -33.8184L101.502 -25.7045C105.636 -24.1458 107.724 -19.5308 106.165 -15.3966L44.4926 148.184L7.99998 134.426L69.6729 -29.155Z" fill="url(#paint1_linear)" fill-opacity="0.2"/>
<path d="M111.673 -29.155C113.232 -33.2892 117.847 -35.3771 121.981 -33.8184L143.502 -25.7045C147.636 -24.1458 149.724 -19.5308 148.165 -15.3966L86.4926 148.184L50 134.426L111.673 -29.155Z" fill="url(#paint2_linear)" fill-opacity="0.2"/>
<path d="M139.673 -29.155C141.232 -33.2892 145.847 -35.3771 149.981 -33.8184L171.502 -25.7045C175.636 -24.1458 177.724 -19.5308 176.165 -15.3966L114.493 148.184L78 134.426L139.673 -29.155Z" fill="url(#paint3_linear)" fill-opacity="0.2"/>
<path d="M100.893 153.979C99.2947 158.098 101.338 162.733 105.457 164.332L126.899 172.652C131.018 174.25 135.653 172.207 137.252 168.088L200.495 5.1074L164.136 -9.00116L100.893 153.979Z" fill="url(#paint4_linear)" fill-opacity="0.2"/>
<path d="M134.893 153.979C133.295 158.098 135.338 162.733 139.457 164.332L160.899 172.652C165.018 174.25 169.653 172.207 171.252 168.088L234.495 5.1074L198.136 -9.00116L134.893 153.979Z" fill="url(#paint5_linear)" fill-opacity="0.2"/>
<path d="M167.893 153.979C166.295 158.098 168.338 162.733 172.457 164.332L193.899 172.652C198.018 174.25 202.653 172.207 204.252 168.088L267.495 5.1074L231.136 -9.00116L167.893 153.979Z" fill="url(#paint6_linear)" fill-opacity="0.2"/>
<path d="M202.893 153.979C201.295 158.098 203.338 162.733 207.457 164.332L228.899 172.652C233.018 174.25 237.653 172.207 239.252 168.088L302.495 5.1074L266.136 -9.00116L202.893 153.979Z" fill="url(#paint7_linear)" fill-opacity="0.2"/>
</g>
<path d="M103.687 36H143.515L164.625 57.0282V106.313C164.625 108.902 162.525 111 159.937 111H103.687C101.1 111 99 108.902 99 106.313V40.6875C99 38.0977 101.1 36 103.687 36Z" fill="#DA1414"/>
<path d="M103.687 36.5H143.308L164.125 57.2359V106.313C164.125 108.626 162.249 110.5 159.937 110.5H103.687C101.376 110.5 99.5 108.626 99.5 106.313V40.6875C99.5 38.374 101.376 36.5 103.687 36.5Z" stroke="white" stroke-opacity="0.3"/>
<path d="M164.557 57.0937H148.219C145.631 57.0937 143.531 54.9939 143.531 52.4063V36.0469L164.557 57.0937Z" fill="#F48989"/>
<path d="M147.042 71.5382C147.827 71.5382 148.212 70.8539 148.212 70.1906C148.212 69.5038 147.811 68.8406 147.042 68.8406H142.57C141.696 68.8406 141.209 69.5647 141.209 70.364V81.3538C141.209 82.3335 141.766 82.8772 142.521 82.8772C143.271 82.8772 143.831 82.3335 143.831 81.3538V78.3375H146.536C147.375 78.3375 147.795 77.6507 147.795 76.9687C147.795 76.3009 147.375 75.6374 146.536 75.6374H143.831V71.5382H147.042ZM131.927 68.8406H128.655C127.767 68.8406 127.137 69.45 127.137 70.3546V81.3633C127.137 82.4858 128.044 82.8375 128.693 82.8375H132.126C136.19 82.8375 138.874 80.1633 138.874 76.0358C138.872 71.6719 136.345 68.8406 131.927 68.8406ZM132.084 80.1235H130.09V71.5547H131.888C134.609 71.5547 135.792 73.3806 135.792 75.9C135.792 78.2579 134.63 80.1235 132.084 80.1235ZM120.098 68.8406H116.857C115.941 68.8406 115.43 69.4452 115.43 70.364V81.3538C115.43 82.3335 116.016 82.8772 116.803 82.8772C117.59 82.8772 118.176 82.3335 118.176 81.3538V78.1452H120.208C122.716 78.1452 124.786 76.3685 124.786 73.5115C124.786 70.7157 122.789 68.8406 120.098 68.8406ZM120.045 75.5673H118.177V71.4211H120.045C121.198 71.4211 121.931 72.3211 121.931 73.4953C121.929 74.6673 121.198 75.5673 120.045 75.5673Z" fill="white"/>
<defs>
<linearGradient id="paint0_linear" x1="51.2414" y1="-29.7615" x2="-13.2537" y2="141.305" gradientUnits="userSpaceOnUse">
<stop stop-color="#F48989"/>
<stop offset="1" stop-color="#F48989" stop-opacity="0"/>
</linearGradient>
<linearGradient id="paint1_linear" x1="90.7414" y1="-29.7615" x2="26.2463" y2="141.305" gradientUnits="userSpaceOnUse">
<stop stop-color="#F48989"/>
<stop offset="1" stop-color="#F48989" stop-opacity="0"/>
</linearGradient>
<linearGradient id="paint2_linear" x1="132.741" y1="-29.7615" x2="68.2463" y2="141.305" gradientUnits="userSpaceOnUse">
<stop stop-color="#F48989"/>
<stop offset="1" stop-color="#F48989" stop-opacity="0"/>
</linearGradient>
<linearGradient id="paint3_linear" x1="160.741" y1="-29.7615" x2="96.2463" y2="141.305" gradientUnits="userSpaceOnUse">
<stop stop-color="#F48989"/>
<stop offset="1" stop-color="#F48989" stop-opacity="0"/>
</linearGradient>
<linearGradient id="paint4_linear" x1="116.178" y1="168.492" x2="182.315" y2="-1.94688" gradientUnits="userSpaceOnUse">
<stop stop-color="#F48989"/>
<stop offset="1" stop-color="#F48989" stop-opacity="0"/>
</linearGradient>
<linearGradient id="paint5_linear" x1="150.178" y1="168.492" x2="216.315" y2="-1.94688" gradientUnits="userSpaceOnUse">
<stop stop-color="#F48989"/>
<stop offset="1" stop-color="#F48989" stop-opacity="0"/>
</linearGradient>
<linearGradient id="paint6_linear" x1="183.178" y1="168.492" x2="249.315" y2="-1.94688" gradientUnits="userSpaceOnUse">
<stop stop-color="#F48989"/>
<stop offset="1" stop-color="#F48989" stop-opacity="0"/>
</linearGradient>
<linearGradient id="paint7_linear" x1="218.178" y1="168.492" x2="284.315" y2="-1.94688" gradientUnits="userSpaceOnUse">
<stop stop-color="#F48989"/>
<stop offset="1" stop-color="#F48989" stop-opacity="0"/>
</linearGradient>
</defs>
</svg>
