<svg width="264" height="146" viewBox="0 0 264 146" fill="none" xmlns="http://www.w3.org/2000/svg">
<mask id="mask0" mask-type="alpha" maskUnits="userSpaceOnUse" x="0" y="0" width="264" height="146">
<path d="M0 8C0 3.58173 3.58172 0 8 0H256C260.418 0 264 3.58172 264 8V146H0V8Z" fill="#B3CDFF"/>
</mask>
<g mask="url(#mask0)">
<path d="M0 8C0 3.58173 3.58172 0 8 0H256C260.418 0 264 3.58172 264 8V146H0V8Z" fill="#FEEFEF"/>
<path d="M30.1729 -29.155C31.7316 -33.2892 36.3466 -35.3771 40.4808 -33.8184L62.002 -25.7045C66.1362 -24.1458 68.2241 -19.5308 66.6655 -15.3966L4.99256 148.184L-31.5 134.426L30.1729 -29.155Z" fill="url(#paint0_linear)" fill-opacity="0.2"/>
<path d="M69.6729 -29.155C71.2316 -33.2892 75.8466 -35.3771 79.9808 -33.8184L101.502 -25.7045C105.636 -24.1458 107.724 -19.5308 106.165 -15.3966L44.4926 148.184L7.99998 134.426L69.6729 -29.155Z" fill="url(#paint1_linear)" fill-opacity="0.2"/>
<path d="M111.673 -29.155C113.232 -33.2892 117.847 -35.3771 121.981 -33.8184L143.502 -25.7045C147.636 -24.1458 149.724 -19.5308 148.165 -15.3966L86.4926 148.184L50 134.426L111.673 -29.155Z" fill="url(#paint2_linear)" fill-opacity="0.2"/>
<path d="M139.673 -29.155C141.232 -33.2892 145.847 -35.3771 149.981 -33.8184L171.502 -25.7045C175.636 -24.1458 177.724 -19.5308 176.165 -15.3966L114.493 148.184L78 134.426L139.673 -29.155Z" fill="url(#paint3_linear)" fill-opacity="0.2"/>
<path d="M100.893 153.979C99.2947 158.098 101.338 162.733 105.457 164.332L126.899 172.652C131.018 174.25 135.653 172.207 137.252 168.088L200.495 5.1074L164.136 -9.00116L100.893 153.979Z" fill="url(#paint4_linear)" fill-opacity="0.2"/>
<path d="M134.893 153.979C133.295 158.098 135.338 162.733 139.457 164.332L160.899 172.652C165.018 174.25 169.653 172.207 171.252 168.088L234.495 5.1074L198.136 -9.00116L134.893 153.979Z" fill="url(#paint5_linear)" fill-opacity="0.2"/>
<path d="M167.893 153.979C166.295 158.098 168.338 162.733 172.457 164.332L193.899 172.652C198.018 174.25 202.653 172.207 204.252 168.088L267.495 5.1074L231.136 -9.00116L167.893 153.979Z" fill="url(#paint6_linear)" fill-opacity="0.2"/>
<path d="M202.893 153.979C201.295 158.098 203.338 162.733 207.457 164.332L228.899 172.652C233.018 174.25 237.653 172.207 239.252 168.088L302.495 5.1074L266.136 -9.00116L202.893 153.979Z" fill="url(#paint7_linear)" fill-opacity="0.2"/>
</g>
<path d="M143 77.1995C143 77.8584 143.162 78.5072 143.473 79.0881C143.784 79.669 144.234 80.1642 144.782 80.5295L164.782 93.8515C165.384 94.2526 166.083 94.483 166.806 94.5181C167.528 94.5532 168.247 94.3917 168.885 94.0509C169.523 93.71 170.057 93.2025 170.429 92.5824C170.801 91.9624 170.999 91.2529 171 90.5295V57.4695C171 56.7455 170.804 56.035 170.432 55.4138C170.06 54.7925 169.527 54.2839 168.888 53.9421C168.25 53.6003 167.531 53.4381 166.808 53.4729C166.085 53.5076 165.385 53.7381 164.782 54.1395L144.782 67.4615C144.233 67.8276 143.782 68.324 143.471 68.9065C143.16 69.4889 142.998 70.1393 143 70.7995V77.1995Z" fill="#DA1414"/>
<path d="M166.989 94.5359L166.989 93.5359H166.989C168.437 93.5359 170 92.3864 170 90.5292V57.4706C170 55.6134 168.437 54.4639 166.989 54.4639C166.401 54.4639 165.845 54.6354 165.337 54.9738L145.337 68.2963C144.5 68.8539 144 69.7872 144 70.793V77.2068C144 78.2126 144.5 79.1459 145.337 79.7035L165.337 93.026C165.838 93.3596 166.409 93.5359 166.989 93.5359L166.989 94.5359ZM166.989 94.5359C166.245 94.5359 165.482 94.3245 164.782 93.8583L144.782 80.5358C143.669 79.7941 143 78.5447 143 77.2068V70.793C143 69.4551 143.669 68.2057 144.782 67.464L164.782 54.1415C165.483 53.6752 166.245 53.4639 166.989 53.4639C169.069 53.4639 171 55.1177 171 57.4706V90.5292C171 92.8823 169.069 94.5361 166.989 94.5359Z" fill="#FF0000"/>
<path d="M151 50H95C92.7909 50 91 51.7909 91 54V94C91 96.2091 92.7909 98 95 98H151C153.209 98 155 96.2091 155 94V54C155 51.7909 153.209 50 151 50Z" fill="#272833"/>
<path d="M151 50.5H95C93.067 50.5 91.5 52.067 91.5 54V94C91.5 95.933 93.067 97.5 95 97.5H151C152.933 97.5 154.5 95.933 154.5 94V54C154.5 52.067 152.933 50.5 151 50.5Z" stroke="white" stroke-opacity="0.3" stroke-width="0.5" stroke-miterlimit="10"/>
<path d="M113 63C113 62.0111 113.293 61.0444 113.843 60.2222C114.392 59.3999 115.173 58.759 116.087 58.3806C117 58.0022 118.006 57.9031 118.975 58.0961C119.945 58.289 120.836 58.7652 121.536 59.4645C122.235 60.1637 122.711 61.0546 122.904 62.0246C123.097 62.9945 122.998 63.9998 122.619 64.9134C122.241 65.8271 121.6 66.6079 120.778 67.1573C119.956 67.7068 118.989 68 118 68C116.674 68 115.402 67.4732 114.464 66.5355C113.527 65.5979 113 64.3261 113 63ZM99 63C99 62.0111 99.2932 61.0444 99.8427 60.2222C100.392 59.3999 101.173 58.759 102.087 58.3806C103 58.0022 104.006 57.9031 104.975 58.0961C105.945 58.289 106.836 58.7652 107.536 59.4645C108.235 60.1637 108.711 61.0546 108.904 62.0246C109.097 62.9945 108.998 63.9998 108.619 64.9134C108.241 65.8271 107.6 66.6079 106.778 67.1573C105.956 67.7068 104.989 68 104 68C102.674 68 101.402 67.4732 100.464 66.5355C99.5268 65.5979 99 64.3261 99 63V63Z" fill="white"/>
<defs>
<linearGradient id="paint0_linear" x1="51.2414" y1="-29.7615" x2="-13.2537" y2="141.305" gradientUnits="userSpaceOnUse">
<stop stop-color="#F48989"/>
<stop offset="1" stop-color="#F48989" stop-opacity="0"/>
</linearGradient>
<linearGradient id="paint1_linear" x1="90.7414" y1="-29.7615" x2="26.2463" y2="141.305" gradientUnits="userSpaceOnUse">
<stop stop-color="#F48989"/>
<stop offset="1" stop-color="#F48989" stop-opacity="0"/>
</linearGradient>
<linearGradient id="paint2_linear" x1="132.741" y1="-29.7615" x2="68.2463" y2="141.305" gradientUnits="userSpaceOnUse">
<stop stop-color="#F48989"/>
<stop offset="1" stop-color="#F48989" stop-opacity="0"/>
</linearGradient>
<linearGradient id="paint3_linear" x1="160.741" y1="-29.7615" x2="96.2463" y2="141.305" gradientUnits="userSpaceOnUse">
<stop stop-color="#F48989"/>
<stop offset="1" stop-color="#F48989" stop-opacity="0"/>
</linearGradient>
<linearGradient id="paint4_linear" x1="116.178" y1="168.492" x2="182.315" y2="-1.94688" gradientUnits="userSpaceOnUse">
<stop stop-color="#F48989"/>
<stop offset="1" stop-color="#F48989" stop-opacity="0"/>
</linearGradient>
<linearGradient id="paint5_linear" x1="150.178" y1="168.492" x2="216.315" y2="-1.94688" gradientUnits="userSpaceOnUse">
<stop stop-color="#F48989"/>
<stop offset="1" stop-color="#F48989" stop-opacity="0"/>
</linearGradient>
<linearGradient id="paint6_linear" x1="183.178" y1="168.492" x2="249.315" y2="-1.94688" gradientUnits="userSpaceOnUse">
<stop stop-color="#F48989"/>
<stop offset="1" stop-color="#F48989" stop-opacity="0"/>
</linearGradient>
<linearGradient id="paint7_linear" x1="218.178" y1="168.492" x2="284.315" y2="-1.94688" gradientUnits="userSpaceOnUse">
<stop stop-color="#F48989"/>
<stop offset="1" stop-color="#F48989" stop-opacity="0"/>
</linearGradient>
</defs>
</svg>
