<svg width="576" height="480" viewBox="0 0 576 480" fill="none" xmlns="http://www.w3.org/2000/svg">
<rect width="576" height="480" fill="#E7E7ED"/>
<rect x="16" y="16" width="544.906" height="240" rx="4" fill="#F7F8F9"/>
<rect x="212" y="95" width="266" height="8" rx="4" fill="#A7A9BC"/>
<rect x="212" y="119" width="314" height="8" rx="4" fill="#A7A9BC"/>
<rect x="212" y="136" width="314" height="8" rx="4" fill="#A7A9BC"/>
<rect x="212" y="153" width="314" height="8" rx="4" fill="#A7A9BC"/>
<rect x="212" y="170" width="314" height="8" rx="4" fill="#A7A9BC"/>
<path fill-rule="evenodd" clip-rule="evenodd" d="M92.8722 174.82C85.1594 167.107 84.6976 156.577 92.7798 148.495L112.824 128.451L118.181 133.809L97.9986 153.991C92.9184 159.071 93.2878 165.075 97.9524 169.74C102.617 174.404 108.575 174.728 113.655 169.647L133.838 149.465L139.195 154.822L119.151 174.866C111.069 182.948 100.585 182.533 92.8722 174.82Z" fill="black"/>
<path fill-rule="evenodd" clip-rule="evenodd" d="M168.034 100.109C160.321 92.3963 149.791 91.9344 141.709 100.017L121.665 120.061L127.022 125.418L147.205 105.235C152.285 100.155 158.289 100.525 162.954 105.189C167.618 109.854 167.942 115.812 162.861 120.892L142.679 141.074L148.036 146.432L168.08 126.388C176.162 118.306 175.747 107.822 168.034 100.109Z" fill="black"/>
<path opacity="0.3" d="M146.506 117.199L114.177 149.528C112.902 150.804 112.902 152.871 114.177 154.147C115.452 155.422 117.52 155.422 118.795 154.147L151.124 121.818C152.4 120.542 152.4 118.475 151.124 117.199C149.849 115.924 147.781 115.924 146.506 117.199Z" fill="black"/>
<rect x="16" y="288" width="545" height="8" rx="4" fill="#A7A9BC"/>
<rect x="16" y="312" width="545" height="8" rx="4" fill="#A7A9BC"/>
<rect x="16" y="336" width="545" height="8" rx="4" fill="#A7A9BC"/>
<rect x="16" y="360" width="461.967" height="8" rx="4" fill="#A7A9BC"/>
<rect x="88" y="400" width="176" height="8" rx="4" fill="#A7A9BC"/>
<rect x="88" y="424" width="176" height="8" rx="4" fill="#A7A9BC"/>
<rect x="88" y="448" width="104" height="8" rx="4" fill="#A7A9BC"/>
<circle cx="44" cy="428" r="28" fill="#A7A9BC"/>
</svg>
