<svg width="56" height="56" viewBox="0 0 56 56" fill="none" xmlns="http://www.w3.org/2000/svg">
<path fill-rule="evenodd" clip-rule="evenodd" d="M10.1227 45.7349C6.55313 42.1653 6.33939 37.292 10.0799 33.5514L19.3564 24.2749L21.8359 26.7543L12.4952 36.095C10.144 38.4462 10.315 41.2249 12.4739 43.3837C14.6327 45.5425 17.39 45.6921 19.7412 43.3409L29.0818 34.0003L31.5613 36.4797L22.2847 45.7562C18.5442 49.4968 13.6922 49.3044 10.1227 45.7349Z" fill="black"/>
<path fill-rule="evenodd" clip-rule="evenodd" d="M44.9082 11.1578C41.3387 7.58829 36.4653 7.37455 32.7248 11.1151L23.4482 20.3916L25.9277 22.871L35.2683 13.5304C37.6195 11.1792 40.3982 11.3502 42.557 13.509C44.7158 15.6678 44.8655 18.4251 42.5143 20.7763L33.1736 30.117L35.6531 32.5964L44.9296 23.3199C48.6701 19.5794 48.4777 14.7274 44.9082 11.1578Z" fill="black"/>
<path opacity="0.3" d="M34.9449 19.0673L19.9828 34.0294C19.3925 34.6197 19.3925 35.5766 19.9828 36.1669C20.573 36.7571 21.53 36.7571 22.1202 36.1669L37.0824 21.2047C37.6726 20.6145 37.6726 19.6575 37.0824 19.0673C36.4921 18.477 35.5352 18.477 34.9449 19.0673Z" fill="black"/>
</svg>
