<svg width="150" height="50" viewBox="0 0 150 50" fill="none" xmlns="http://www.w3.org/2000/svg">
<path fill-rule="evenodd" clip-rule="evenodd" d="M31.2055 35.1831C34.4623 32.7488 38.7536 30.5989 44.0793 28.7336C44.0497 28.623 42.3676 22.3453 39.033 9.90049L39.033 9.9005C38.9117 9.44805 38.4467 9.17954 37.9942 9.30077C37.9873 9.30263 37.9804 9.30457 37.9735 9.30659C33.3693 10.6661 29.0254 12.997 24.9418 16.2995C24.9613 16.3724 26.6068 22.5136 29.8784 34.7233L29.8784 34.7233C29.9996 35.1758 30.4647 35.4443 30.9172 35.323C31.0213 35.2951 31.1192 35.2477 31.2055 35.1831Z" fill="#0050C8"/>
<path opacity="0.3" fill-rule="evenodd" clip-rule="evenodd" d="M25.6826 36.6627C21.6449 36.1829 16.8537 36.4667 11.3088 37.5142C11.2792 37.4036 9.59707 31.1259 6.26248 18.6811L6.26252 18.681C6.14129 18.2286 6.40979 17.7635 6.86225 17.6423C6.86916 17.6404 6.8761 17.6387 6.88305 17.637C11.5502 16.5122 16.4776 16.3589 21.6653 17.1771C21.6849 17.25 23.3304 23.3913 26.602 35.6009L26.602 35.6009C26.7232 36.0534 26.4547 36.5185 26.0022 36.6397C25.8981 36.6676 25.7896 36.6754 25.6826 36.6627Z" fill="#0050C8"/>
<path d="M66.7551 34.4312C72.5165 34.4312 75.9327 30.8672 75.9327 24.9581C75.9327 19.0675 72.5165 15.5221 66.8844 15.5221H60.3475V34.4312H66.7551ZM63.7729 31.4674V18.4858H66.6905C70.5314 18.4858 72.535 20.6279 72.535 24.9581C72.535 29.3069 70.5314 31.4674 66.589 31.4674H63.7729ZM89.4636 20.7202H92.7598C92.6951 17.5256 89.9714 15.2635 85.9458 15.2635C81.9757 15.2635 78.9934 17.4979 79.0027 20.8402C79.0027 23.5547 80.9324 25.1151 84.0439 25.9184L86.1951 26.4723C88.2356 26.9894 89.5836 27.6265 89.5929 29.0945C89.5836 30.7103 88.051 31.7905 85.8166 31.7905C83.6745 31.7905 82.0126 30.8303 81.8741 28.8452H78.5041C78.6426 32.603 81.4402 34.7174 85.8443 34.7174C90.3777 34.7174 93.0091 32.4553 93.0183 29.1222C93.0091 25.8445 90.3038 24.3488 87.46 23.6748L85.6873 23.2316C84.1362 22.8623 82.4558 22.2067 82.4743 20.6279C82.4835 19.206 83.7576 18.1627 85.8997 18.1627C87.9402 18.1627 89.2882 19.1137 89.4636 20.7202ZM96.0721 34.4312H107.826V31.5597H99.4975V15.5221H96.0721V34.4312ZM110.799 15.5221V34.4312H114.086V21.4127H114.261L119.487 34.3758H121.943L127.169 21.4404H127.344V34.4312H130.631V15.5221H126.439L120.826 29.2238H120.604L114.99 15.5221H110.799ZM144.637 20.7202H147.934C147.869 17.5256 145.145 15.2635 141.12 15.2635C137.15 15.2635 134.167 17.4979 134.176 20.8402C134.176 23.5547 136.106 25.1151 139.218 25.9184L141.369 26.4723C143.409 26.9894 144.757 27.6265 144.767 29.0945C144.757 30.7103 143.225 31.7905 140.99 31.7905C138.848 31.7905 137.186 30.8303 137.048 28.8452H133.678C133.816 32.603 136.614 34.7174 141.018 34.7174C145.551 34.7174 148.183 32.4553 148.192 29.1222C148.183 25.8445 145.478 24.3488 142.634 23.6748L140.861 23.2316C139.31 22.8623 137.63 22.2067 137.648 20.6279C137.657 19.206 138.931 18.1627 141.074 18.1627C143.114 18.1627 144.462 19.1137 144.637 20.7202Z" fill="#0050C8"/>
</svg>
