<svg width="56" height="56" viewBox="0 0 56 56" fill="none" xmlns="http://www.w3.org/2000/svg">
<circle cx="28" cy="28" r="28" fill="#F0F5FF"/>
<g clip-path="url(#clip0_13448_71483)">
<rect width="24" height="24" transform="translate(13 20) rotate(-16.8494)" fill="#F0F5FF"/>
<path d="M15.6623 28.8453L17.2849 34.2029L19.5811 33.5075L20.972 38.1L21.7372 37.8683L20.3463 33.2758L26.2337 31.4927L33.194 34.3233L28.7898 19.7813L24.5759 26.1457L15.6623 28.8453ZM17.8188 33.2051L16.6599 29.3785L19.7213 28.4513L20.8802 32.2779L17.8188 33.2051ZM25.2425 26.5872L28.517 21.6412L31.9422 32.9509L26.2726 30.6456L21.6449 32.0471L20.486 28.2205L25.0828 26.8283L25.242 26.5881L25.2425 26.5872Z" fill="#137EE0"/>
<path d="M34.2976 18.8731L33.9138 19.5904C36.1293 20.4499 37.9462 22.2756 38.6869 24.7212C39.4473 27.232 38.9004 29.8277 37.4498 31.7912L38.1718 32.1776C39.715 30.0308 40.2784 27.2154 39.4528 24.4892C38.6471 21.829 36.6928 19.8318 34.2983 18.8729L34.2976 18.8731Z" fill="#137EE0"/>
<path d="M32.5831 22.0779L32.1953 22.8027C33.6029 23.1914 34.7896 24.266 35.2433 25.7641C35.717 27.3282 35.271 28.9529 34.221 30.0632L34.9476 30.452C36.083 29.1474 36.5474 27.3094 36.0092 25.5321C35.4909 23.8209 34.1699 22.5745 32.5838 22.0777L32.5831 22.0779Z" fill="#137EE0"/>
</g>
<defs>
<clipPath id="clip0_13448_71483">
<rect width="24" height="24" fill="white" transform="translate(13 20) rotate(-16.8494)"/>
</clipPath>
</defs>
</svg>
