<svg width="604" height="489" viewBox="0 0 604 489" fill="none" xmlns="http://www.w3.org/2000/svg">
<g filter="url(#filter0_d)">
<path d="M159.849 273.769H191.402V307.812H159.849V364.274H117.503V307.812H7.84119L6.5957 281.954L116.08 110.374H159.849V273.769ZM51.0772 273.769H117.503V167.784L114.36 173.359L51.0772 273.769Z" fill="white"/>
</g>
<g filter="url(#filter1_d)">
<path d="M384.928 257.4C384.928 293.875 378.108 321.394 364.467 339.958C350.826 358.521 330.008 367.773 302.133 367.773C274.673 367.773 254.034 358.759 240.156 340.669C226.278 322.58 219.161 295.832 218.805 260.365V216.418C218.805 179.943 225.625 152.542 239.266 134.275C252.907 116.008 273.784 106.875 301.778 106.875C329.534 106.875 350.292 115.771 363.933 133.563C377.574 151.356 384.573 177.986 384.928 213.393V257.4ZM342.582 209.953C342.582 186.111 339.32 168.674 332.796 157.583C326.272 146.493 315.952 140.918 301.778 140.918C287.959 140.918 277.758 146.196 271.293 156.694C264.769 167.191 261.329 183.62 261.032 205.92V263.449C261.032 287.173 264.354 304.847 270.996 316.471C277.639 328.096 288.018 333.908 302.193 333.908C315.774 333.908 325.857 328.511 332.381 317.776C338.905 307.041 342.345 290.198 342.641 267.305V209.953H342.582Z" fill="white"/>
</g>
<g filter="url(#filter2_d)">
<path d="M565.758 273.769H597.311V307.812H565.758V364.274H523.412V307.812H413.691L412.445 282.013L521.988 110.433H565.758V273.769ZM456.927 273.769H523.353V167.785L520.209 173.36L456.927 273.769Z" fill="white"/>
</g>
<path d="M140.752 234.21C139.15 231.778 135.117 229.169 133.042 227.745C130.788 226.144 133.872 224.958 135.177 224.602C135.414 224.543 135.533 224.246 135.355 224.009C135.355 224.009 134.999 223.357 134.821 223.238C133.931 222.823 130.847 223.712 130.847 223.712C132.093 219.976 127.763 214.52 127.763 214.52C127.526 214.46 122.366 213.096 120.112 218.315C117.859 223.712 125.331 238.717 118.155 243.225C110.919 247.732 99.3543 261.195 103.328 274.065C107.302 286.935 89.4497 289.782 88.9159 300.814C88.3228 311.845 104.811 330.231 121.892 323.588C127.17 321.512 131.262 318.784 134.346 315.937C134.346 315.759 134.287 315.641 134.287 315.463C133.872 311.786 133.338 306.092 133.042 299.45C132.508 286.935 132.864 270.922 136.837 258.527C136.956 257.933 137.075 257.34 137.253 256.747C137.371 256.095 137.549 255.443 137.727 254.849C137.846 254.256 138.024 253.723 138.201 253.129C138.32 252.714 138.439 252.299 138.557 251.943C138.676 251.469 138.854 251.054 138.972 250.579C139.091 250.164 139.21 249.808 139.388 249.393C139.566 248.8 139.803 248.266 139.981 247.673C140.159 247.139 140.396 246.546 140.633 246.012C140.752 241.802 140.989 238.48 141.523 236.701C141.582 235.93 141.345 235.04 140.752 234.21Z" fill="#354750"/>
<path d="M128.947 310.125C128.947 310.125 133.455 406.68 133.811 410.416C134.107 413.441 132.506 423.939 131.023 427.675C130.667 428.506 131.379 429.395 132.269 429.277C133.395 429.099 134.997 428.624 137.191 427.319C141.817 424.532 145.198 408.874 146.858 396.835C148.519 384.795 164.473 319.733 164.473 319.733L128.947 310.125Z" fill="#A86955"/>
<path d="M204.448 418.838H196.619V482.714H204.448V418.838Z" fill="#2B0800"/>
<path d="M206.048 422.041H195.55C193.534 422.041 191.873 420.38 191.873 418.364V408.044H209.725V418.364C209.725 420.38 208.064 422.041 206.048 422.041Z" fill="#460D00"/>
<path d="M147.987 404.901C147.987 404.901 126.576 322.343 123.136 295.12C121.891 285.216 128.949 282.784 131.202 292.57C134.286 305.855 159.374 395.886 159.078 399.682C158.781 403.477 147.987 404.901 147.987 404.901Z" fill="#572A4D"/>
<path d="M250.708 399.504C254.266 399.385 256.045 409.112 250.708 409.289C244.065 409.527 156.822 410.476 153.204 410.238C146.206 409.705 145.791 400.868 153.857 399.919C160.677 399.088 240.507 399.859 250.708 399.504Z" fill="#572A4D"/>
<path d="M220.522 485.086H180.548C179.896 485.086 179.303 484.552 179.303 483.84C179.303 483.188 179.777 482.713 180.37 482.595L200.357 480.4C200.417 480.4 200.535 480.4 200.654 480.4L220.641 482.595C221.234 482.654 221.708 483.188 221.708 483.84C221.768 484.493 221.234 485.086 220.522 485.086Z" fill="#79476A"/>
<path d="M112.579 485.976C112.579 485.976 112.163 472.513 115.544 464.743C120.289 453.89 123.729 442.502 123.729 442.502C123.729 442.502 136.895 470.911 131.498 485.916H112.579V485.976Z" fill="#00893D"/>
<path d="M121.119 485.857C121.653 482.951 122.127 480.045 122.483 477.08C122.839 474.114 123.195 471.208 123.373 468.243C123.61 465.277 123.788 462.312 123.847 459.346C123.966 456.381 123.907 453.416 123.907 450.45C124.025 453.416 124.144 456.381 124.085 459.346C124.085 462.312 123.966 465.277 123.788 468.243C123.61 471.208 123.373 474.174 123.076 477.139C122.78 480.105 122.424 483.07 121.89 485.976L121.119 485.857Z" fill="#0E0403"/>
<path d="M117.562 485.976C117.562 485.976 123.078 428.268 90.9326 396.479C90.9326 396.479 91.9409 404.248 89.6871 412.077C87.4334 419.965 94.3725 426.311 94.3725 426.311L90.6361 427.913C89.8057 428.506 88.9161 429.455 89.272 430.404C101.727 458.694 91.7629 471.564 97.4566 486.035L117.562 485.976Z" fill="#00C75B"/>
<path d="M108.13 485.917C108.189 478.859 107.892 471.801 107.418 464.744C106.884 457.686 106.113 450.687 105.046 443.689C103.919 436.691 102.495 429.811 100.716 422.931C98.8182 416.11 96.5052 409.468 93.4805 403.062C96.5645 409.409 98.9369 416.11 100.953 422.872C102.851 429.692 104.334 436.631 105.52 443.57C106.647 450.569 107.477 457.567 108.07 464.625C108.663 471.683 109.019 478.74 109.019 485.857L108.13 485.917Z" fill="#0E0403"/>
<path d="M98.4049 485.976C98.4049 485.976 100.599 475.893 93.0078 464.269C89.2714 458.516 91.8809 447.069 86.0687 441.197C83.1626 438.291 79.7227 436.156 79.7227 436.156C79.7227 436.156 81.9764 440.96 81.9764 445.468C81.9764 449.975 80.2564 457.211 82.9846 466.997C85.7128 476.783 81.9764 485.916 81.9764 485.916H98.4049V485.976Z" fill="#009D47"/>
<path d="M90.4 485.917C90.4593 482.24 90.3407 478.562 90.0442 474.945C89.8662 473.106 89.6883 471.267 89.2731 469.547C89.0952 468.658 88.7394 467.828 88.5021 466.879C88.2649 465.989 88.0277 465.099 87.7904 464.21C86.9601 460.592 86.367 456.974 85.9519 453.297C85.8332 452.407 85.7739 451.458 85.7146 450.569C85.6553 449.62 85.6553 448.73 85.596 447.84C85.4181 446.002 85.0622 444.163 84.1133 442.562C85.0622 444.163 85.4774 446.002 85.7146 447.84C85.8332 448.789 85.8332 449.679 85.8925 450.569C85.9519 451.458 86.0705 452.407 86.1891 453.297C86.6636 456.915 87.3753 460.533 88.2056 464.15C88.4428 465.04 88.6801 465.93 88.9173 466.819C89.1545 467.709 89.5104 468.539 89.7476 469.488C90.2221 471.327 90.4593 473.165 90.6372 475.004C90.9931 478.681 91.171 482.358 91.2303 486.095L90.4 485.917Z" fill="#0E0403"/>
<path d="M530.29 485.086H73.6133V489H530.29V485.086Z" fill="#0E0403"/>
<path d="M293.174 178.994C294.063 182.967 297.681 185.933 301.952 185.933C306.222 185.933 309.78 182.967 310.729 178.994H293.174Z" fill="#FFE150"/>
<path d="M303.079 0H300.766V142.756H303.079V0Z" fill="#041E44"/>
<path d="M306.34 153.195V145.069C306.34 143.765 305.273 142.756 304.027 142.756H303.138H300.765H299.876C298.571 142.756 297.562 143.824 297.562 145.069V153.195C298.986 153.017 300.469 152.957 301.951 152.957C303.434 152.957 304.917 153.076 306.34 153.195Z" fill="#041E44"/>
<path d="M315.651 178.993C315.889 177.748 315.948 176.502 315.948 175.197C315.948 164.107 307.882 154.973 297.266 153.253C297.384 153.253 297.444 153.253 297.503 153.194C298.926 153.016 300.409 152.957 301.892 152.957C303.374 152.957 304.857 153.075 306.281 153.194C321.582 154.973 333.385 165.827 333.385 178.934H315.651V178.993Z" fill="#041E44"/>
<path d="M316.007 175.198C316.007 176.503 315.889 177.748 315.711 178.994H270.518C270.518 176.384 270.992 173.834 271.882 171.462C275.322 161.972 285.226 154.737 297.384 153.254C307.882 154.974 316.007 164.107 316.007 175.198Z" fill="#0050C8"/>
<path d="M370.219 290.909H369.744L377.514 194.948C380.835 194.948 383.148 199.87 382.673 205.861L376.624 280.827C376.15 286.461 373.362 290.909 370.219 290.909Z" fill="#0050C8"/>
<path d="M394.831 310.125C389.612 310.125 368.083 309.947 367.846 309.947V306.922C368.024 306.922 389.553 307.1 394.772 307.1C395.365 307.1 396.373 307.041 396.729 306.507C397.085 305.914 396.788 304.787 396.67 304.431L396.61 304.254L381.605 253.011C381.368 251.706 380.36 250.757 379.114 250.639L379.292 247.614H379.411C381.902 247.851 384.037 249.808 384.571 252.358L399.517 303.364C399.754 303.898 400.525 306.329 399.279 308.227C398.449 309.473 396.907 310.125 394.831 310.125Z" fill="#0050C8"/>
<path d="M318.084 310.125V308.821L358.058 306.448V310.125H318.084Z" fill="#0050C8"/>
<path d="M326.443 458.812C326.443 458.812 332.849 482.002 337.534 480.104C342.219 478.206 381.6 437.164 381.6 437.164C381.6 437.164 381.067 431.767 370.925 437.164C360.783 442.561 349.455 447.721 345.6 446.476C341.686 445.171 326.443 458.812 326.443 458.812Z" fill="#354750"/>
<path d="M237.422 461.006C237.422 461.006 225.204 484.077 230.186 484.848C235.583 485.679 291.749 484.848 291.749 484.848C291.749 484.848 295.426 479.748 284.394 476.545C273.363 473.343 261.679 469.132 259.781 465.514C257.883 461.896 237.422 461.006 237.422 461.006Z" fill="#354750"/>
<path d="M162.635 352.649C162.635 352.649 268.916 331.061 281.311 344.287C293.707 357.513 345.602 446.416 345.602 446.416C345.602 446.416 342.577 450.034 337.536 453.889C331.961 458.219 326.327 458.99 326.327 458.99C326.327 458.99 278.524 402.706 254.978 399.503C240.27 397.487 188.553 406.324 175.268 397.487C163.762 389.895 162.635 352.649 162.635 352.649Z" fill="#1D2733"/>
<path d="M259.782 465.574C259.782 465.574 253.852 466.997 247.328 465.574C240.804 464.15 237.423 461.066 237.423 461.066C237.423 461.066 260.553 402.172 254.089 393.098C247.565 384.024 230.069 396.004 191.34 399.978C179.36 401.224 172.065 397.131 167.676 391.022C157.831 377.204 162.635 352.768 162.635 352.768L247.209 334.323C247.209 334.323 302.485 321.869 313.635 353.124C321.819 375.899 259.782 465.574 259.782 465.574Z" fill="#1D2733"/>
<path d="M145.495 236.582C143.716 235.871 144.546 233.261 140.75 234.21C139.149 231.778 135.116 229.169 133.04 227.746C130.786 226.144 133.871 224.958 135.175 224.602C135.413 224.543 135.531 224.246 135.353 224.009C135.353 224.009 134.997 223.357 134.819 223.238C133.93 222.823 130.846 223.713 130.846 223.713C132.091 219.976 127.762 214.52 127.762 214.52C129.422 213.749 131.261 213.333 133.04 213.333C138.793 213.393 147.571 214.638 148.994 222.408C149.943 227.508 162.042 225.314 163.288 225.077H163.347H163.406C169.218 231.304 147.63 237.472 145.495 236.582Z" fill="#B97964"/>
<path d="M247.148 334.205C241.04 356.861 207.708 357.098 191.873 367.892C182.68 374.119 167.615 390.963 167.615 390.963C157.77 377.144 162.574 352.709 162.574 352.709L247.148 334.205Z" fill="#041E44"/>
<path d="M247.148 334.204C236.414 348.023 216.189 352.768 198.159 354.013C179.121 355.318 162.574 352.709 162.574 352.709C152.907 341.321 146.205 329.282 141.816 317.301C140.927 314.87 140.156 312.497 139.444 310.066C132.03 285.037 134.403 261.255 140.511 246.012C141.994 242.335 143.655 239.192 145.493 236.641C147.569 237.531 169.217 231.363 163.405 225.017C176.037 221.814 188.492 225.313 188.492 225.313C264.882 243.581 247.148 334.204 247.148 334.204Z" fill="#00B0F1"/>
<path d="M198.16 353.954C185.943 354.785 174.793 354.014 168.328 353.361C169.396 342.448 170.345 332.662 170.878 327.74C171.116 325.545 171.234 324.241 171.234 324.241C171.234 324.241 176.691 304.609 178.292 284.148C178.292 285.571 177.521 345.592 198.16 353.954Z" fill="#0050C8"/>
<path d="M153.5 420.202C153.5 420.202 150.06 426.311 148.992 425.362C147.925 424.413 152.669 414.865 152.729 415.042C153.085 416.822 153.322 417.949 153.381 418.304C153.5 418.779 153.559 419.431 153.5 420.202Z" fill="#FDCCBB"/>
<path d="M143.181 320.682L134.818 319.615C134.818 319.615 136.005 326.079 137.843 335.747C142.291 359.589 150.357 402.766 152.789 415.042C153.145 416.822 153.382 417.949 153.441 418.304C153.56 418.779 153.56 419.431 153.56 420.202C153.382 424.295 151.543 432.005 150.713 435.207C150.535 436.038 151.247 436.749 152.077 436.512C153.145 436.216 154.746 435.504 156.822 433.843C161.033 430.463 164.473 415.161 164.473 403.003C164.473 396.301 166.549 372.874 168.446 353.361C169.514 342.449 170.463 332.663 170.997 327.74C171.234 325.546 171.353 324.241 171.353 324.241L143.181 320.682Z" fill="#B97964"/>
<path d="M171.234 324.241C171.234 324.241 171.115 325.486 170.878 327.74C157.296 326.079 138.377 335.509 137.843 335.806C136.064 326.138 134.818 319.674 134.818 319.674L171.234 324.241Z" fill="#A86955"/>
<path d="M156.584 239.251C146.205 239.904 140.215 247.851 136.775 258.527C130.666 277.802 133.157 305.855 134.284 315.938C134.581 318.31 134.759 319.674 134.759 319.674L143.121 320.742L171.234 324.3C171.234 324.3 176.69 304.669 178.291 284.207C180.071 261.552 177.105 237.947 156.584 239.251Z" fill="#00B0F1"/>
<path d="M488.181 319.615H295.072C293.648 319.615 292.521 318.488 292.521 317.064V312.616C292.521 311.193 293.648 310.066 295.072 310.066H488.181C489.604 310.066 490.731 311.193 490.731 312.616V317.064C490.731 318.488 489.604 319.615 488.181 319.615Z" fill="#79476A"/>
<path d="M461.255 485.263H455.324L445.301 319.614H451.232L461.255 485.263Z" fill="#572A4D"/>
<path d="M323.895 485.263H329.825L339.849 319.614H333.918L323.895 485.263Z" fill="#572A4D"/>
<path d="M430.711 485.679C430.711 485.679 431.126 481.29 431.245 474.113C431.245 473.046 444.352 471.919 444.352 470.733C444.352 469.843 431.304 468.953 431.245 468.064C431.186 464.09 431.008 459.583 430.652 454.779C430.593 453.77 440.319 453.533 440.201 452.525C440.141 451.576 430.237 449.915 430.118 448.966C429.999 447.78 429.881 446.653 429.703 445.467C429.584 444.281 436.642 444.281 436.464 443.036C436.346 442.146 428.991 440.07 428.813 439.181C426.738 425.48 422.823 410.772 415.943 398.08C415.943 398.08 421.993 402.053 429.94 409.467C430.533 410.06 429.584 413.025 430.237 413.618C430.83 414.212 432.965 412.373 433.617 412.966C439.133 418.482 445.242 425.421 450.758 433.724C451.351 434.554 447.673 437.698 448.207 438.528C448.622 439.181 453.249 437.579 453.664 438.232C456.985 443.688 460.01 449.619 462.501 456.024C462.916 457.151 451.944 462.963 452.359 464.149C452.715 465.276 464.517 461.659 464.873 462.845C465.822 465.929 466.593 469.072 467.245 472.334C467.423 473.105 455.739 476.011 455.858 476.782C455.977 477.435 467.898 475.952 467.957 476.664C468.372 479.51 468.669 482.357 468.847 485.323L430.711 485.679Z" fill="#00893D"/>
<path d="M449.216 485.204C448.919 478.383 448.03 471.503 446.784 464.742C445.539 457.981 443.937 451.279 441.862 444.696C439.904 438.113 437.235 431.707 434.27 425.48L431.898 420.854C431.067 419.312 430.178 417.888 429.288 416.406L427.983 414.211C427.509 413.5 426.975 412.788 426.501 412.076L423.535 407.865L426.56 412.076C427.034 412.788 427.568 413.44 428.043 414.211L429.407 416.406C430.296 417.888 431.245 419.312 432.076 420.854L434.448 425.421C437.473 431.589 440.201 437.994 442.217 444.577C444.353 451.161 446.013 457.862 447.318 464.624C448.623 471.444 449.572 478.265 449.928 485.204H449.216Z" fill="#0E0403"/>
<path d="M446.605 485.204C446.605 485.204 447.139 479.807 448.741 471.326C449.156 469.131 465.288 462.192 465.288 462.192C465.762 459.998 451.232 459.642 451.825 457.21C452.24 455.609 452.655 453.948 453.129 452.228C453.426 451.101 453.782 449.915 454.138 448.729C455.561 443.806 457.281 438.706 459.298 433.487C459.891 432.004 470.981 434.495 471.574 433.012C471.574 433.012 462.441 425.717 463.212 424.116C467.126 415.457 471.93 406.916 477.743 399.206C478.395 398.376 488.833 400.748 488.833 400.748C489.426 400.037 480.886 395.233 481.538 394.521C489.901 384.854 500.221 377.025 512.853 372.814C512.853 372.814 511.193 376.906 508.82 384.201C506.685 390.725 504.076 399.799 501.644 410.772C501.347 412.017 489.486 412.61 489.189 413.915C489.189 413.915 500.339 416.762 500.102 417.948C499.687 420.142 499.272 422.396 498.856 424.709C498.738 425.539 491.561 424.768 491.443 425.599C491.265 426.607 498.145 429.157 497.967 430.165C496.603 438.765 495.535 448.077 494.942 457.863C494.883 458.634 481.301 460.176 481.242 460.947C481.242 460.947 494.705 461.718 494.705 462.429C494.645 463.971 494.586 465.573 494.527 467.115C494.468 468.42 477.505 469.784 477.505 471.088C477.505 472.156 494.408 473.105 494.408 474.173C494.408 477.79 494.527 481.527 494.646 485.263H446.605V485.204Z" fill="#25C168"/>
<path d="M471.574 485.204C471.871 476.129 472.82 467.055 474.124 458.1C475.429 449.144 477.268 440.188 479.581 431.47C480.767 427.081 482.072 422.752 483.555 418.481C485.097 414.211 486.698 410 488.596 405.849C490.494 401.756 492.569 397.664 494.883 393.809C497.255 389.954 499.864 386.217 502.711 382.718C499.864 386.217 497.314 390.013 494.942 393.868C492.629 397.783 490.612 401.816 488.714 405.967C486.876 410.119 485.275 414.33 483.792 418.6C482.309 422.87 481.064 427.259 479.937 431.589C477.683 440.366 475.963 449.263 474.718 458.218C473.472 467.174 472.582 476.189 472.345 485.263L471.574 485.204Z" fill="#0E0403"/>
<path d="M449.631 485.204C449.631 485.204 447.674 473.935 444.946 468.657C444.234 467.293 432.135 465.869 432.135 465.869C431.364 464.505 440.972 461.362 440.083 459.879C439.489 458.871 438.837 457.862 438.244 456.854C437.829 456.142 437.354 455.431 436.88 454.719C434.923 451.754 432.788 448.67 430.415 445.645C429.763 444.755 422.883 448.61 422.171 447.78C422.171 447.78 426.797 441.137 425.967 440.188C422.527 436.215 418.731 432.419 414.58 429.038C414.224 428.742 409.123 432.953 408.767 432.656C408.471 432.419 412.86 427.674 412.563 427.437C412.148 427.141 411.792 426.844 411.377 426.547C410.784 426.132 404.319 429.809 404.319 429.809C403.786 429.454 408.471 424.59 407.937 424.234C400.464 419.49 392.042 416.346 382.85 416.05C382.85 416.05 384.807 418.422 387.772 422.811C388.187 423.404 391.983 422.989 392.398 423.701C392.695 424.116 389.611 425.598 389.907 426.014C392.22 429.513 394.949 433.902 397.795 439.002C398.211 439.773 406.217 437.816 406.692 438.587C406.692 438.587 399.871 442.739 400.227 443.45C400.939 444.815 401.65 446.238 402.421 447.661C402.659 448.195 403.845 450.508 404.141 451.101C406.751 456.558 409.301 462.489 411.674 468.835C411.852 469.368 421.163 467.648 421.341 468.123C421.341 468.123 412.563 471.326 412.741 471.8C413.097 472.808 413.453 473.816 413.809 474.884C414.105 475.714 425.611 473.283 425.908 474.172C426.145 474.884 415.114 478.858 415.291 479.569C416.003 482.001 416.715 484.433 417.308 486.983L449.631 485.204Z" fill="#009D47"/>
<path d="M436.225 486.093C433.794 479.866 430.947 473.816 427.981 467.826C424.957 461.895 421.695 456.024 418.077 450.389C414.518 444.755 410.604 439.299 406.215 434.198C401.886 429.098 397.022 424.472 391.447 420.676C397.022 424.412 401.945 429.038 406.334 434.08C410.782 439.121 414.756 444.518 418.373 450.152C422.051 455.787 425.372 461.599 428.456 467.53C431.54 473.461 434.387 479.569 436.937 485.797L436.225 486.093Z" fill="#0E0403"/>
<path d="M476.202 297.611H419.918V299.271H470.152C471.042 299.271 471.754 300.043 471.754 301.051V306.566C471.754 307.575 471.042 308.346 470.152 308.346H419.918V310.066H476.202C477.625 310.066 478.752 308.82 478.752 307.219V300.458C478.752 298.916 477.625 297.611 476.202 297.611Z" fill="#354750"/>
<path d="M472.464 306.566V301.05C472.464 300.042 471.753 299.271 470.863 299.271H420.807V308.345H470.863C471.753 308.345 472.464 307.574 472.464 306.566Z" fill="white"/>
<path d="M424.072 285.868H474.187V287.469H427.096C426.266 287.469 425.554 288.24 425.554 289.13V294.29C425.554 295.238 426.207 295.95 427.096 295.95H474.247V297.611H424.131C422.826 297.611 421.699 296.425 421.699 294.942V288.537C421.699 287.054 422.767 285.868 424.072 285.868Z" fill="#FF6555"/>
<path d="M425.555 294.289V289.129C425.555 288.18 426.207 287.469 427.037 287.469H473.417V295.95H427.037C426.207 295.95 425.555 295.238 425.555 294.289Z" fill="white"/>
<path d="M432.967 282.487V277.327C432.967 276.378 433.619 275.667 434.509 275.667H466.001V274.065H432.018C430.713 274.065 429.586 275.252 429.586 276.734V283.14C429.586 284.622 430.653 285.809 432.018 285.809H466.001V284.148H434.509C433.678 284.148 432.967 283.436 432.967 282.487Z" fill="#24A69B"/>
<path d="M434.388 275.667C433.617 275.667 432.965 276.438 432.965 277.327V282.487C432.965 283.436 433.617 284.148 434.388 284.148H464.517V275.667H434.388Z" fill="white"/>
<path d="M136.124 164.997C133.099 164.226 129.956 163.692 126.813 163.336C126.279 163.277 125.923 163.336 125.627 163.514C125.33 163.692 125.211 163.929 125.152 164.226C125.152 164.522 125.211 164.76 125.449 164.997C125.686 165.175 126.042 165.353 126.575 165.412C128.948 165.709 131.32 166.064 133.633 166.598C130.371 168.674 127.347 170.987 124.618 173.478C124.5 173.597 124.322 173.715 124.144 173.893C123.966 174.071 123.847 174.19 123.729 174.308C123.61 174.427 123.551 174.546 123.491 174.664C123.432 174.783 123.373 174.901 123.373 175.079C123.314 175.494 123.491 175.91 123.729 176.147C124.025 176.443 124.44 176.621 125.033 176.681C127.999 176.977 130.905 177.57 133.693 178.282C134.108 178.401 134.404 178.401 134.701 178.282C134.938 178.163 135.116 177.926 135.235 177.63C135.294 177.333 135.294 177.096 135.116 176.859C134.938 176.621 134.641 176.443 134.226 176.325C131.854 175.672 129.422 175.198 126.931 174.842C129.541 172.648 132.328 170.572 135.412 168.733C136.124 168.318 136.599 168.022 136.895 167.784C137.132 167.606 137.37 167.251 137.429 166.835C137.785 165.946 137.31 165.293 136.124 164.997Z" fill="#572A4D"/>
<path d="M151.069 174.605C149.112 173.537 147.036 172.588 145.019 171.758C144.604 171.58 144.308 171.58 144.011 171.639C143.714 171.699 143.537 171.877 143.418 172.173C143.299 172.529 143.359 172.826 143.596 173.004C143.833 173.182 144.248 173.419 144.782 173.656C146.087 174.19 147.392 174.783 148.637 175.435C148.4 175.554 148.044 175.672 147.688 175.791C147.273 175.91 146.799 176.088 146.265 176.325C145.672 176.562 145.079 176.74 144.426 177.037C143.774 177.274 143.062 177.57 142.291 177.926C141.579 178.223 141.105 178.519 140.868 178.638C140.63 178.757 140.453 178.934 140.393 179.172C140.275 179.528 140.275 179.824 140.453 180.061C140.571 180.358 140.868 180.595 141.342 180.773C143.418 181.663 145.494 182.612 147.51 183.738C147.866 183.916 148.163 184.035 148.459 183.976C148.696 183.916 148.934 183.798 149.052 183.561C149.171 183.323 149.23 183.027 149.112 182.79C148.993 182.552 148.815 182.315 148.459 182.078C146.976 181.247 145.434 180.476 143.892 179.824C146.028 178.934 148.281 178.163 150.594 177.511C150.832 177.452 151.069 177.392 151.247 177.333C151.425 177.274 151.543 177.214 151.662 177.214C151.78 177.155 151.899 177.096 152.018 177.037C152.136 176.918 152.255 176.859 152.314 176.74C152.492 176.384 152.492 176.088 152.314 175.791C151.958 175.198 151.603 174.901 151.069 174.605Z" fill="#572A4D"/>
<path d="M165.837 185.518C165.719 185.162 165.422 184.806 164.948 184.391C163.287 182.849 161.508 181.425 159.728 180.121C159.373 179.883 159.076 179.765 158.78 179.765C158.483 179.765 158.246 179.883 158.127 180.121C157.89 180.417 157.89 180.714 158.068 180.951C158.246 181.188 158.602 181.485 159.076 181.84C160.203 182.671 161.33 183.56 162.397 184.509C162.101 184.569 161.804 184.628 161.389 184.628C160.974 184.687 160.499 184.747 159.847 184.806C159.254 184.865 158.602 184.925 157.89 185.043C157.178 185.102 156.467 185.221 155.636 185.399C154.865 185.518 154.331 185.636 154.094 185.755C153.857 185.814 153.62 185.933 153.501 186.111C153.323 186.407 153.205 186.704 153.323 187C153.382 187.297 153.62 187.593 154.035 187.89C155.873 189.254 157.653 190.737 159.313 192.279C159.61 192.575 159.906 192.694 160.144 192.694C160.44 192.694 160.618 192.635 160.855 192.397C161.033 192.16 161.152 191.923 161.152 191.686C161.152 191.389 160.974 191.093 160.677 190.855C159.432 189.669 158.127 188.542 156.763 187.534C159.076 187.178 161.448 187 163.88 186.941C164.117 186.941 164.355 186.941 164.532 186.941C164.71 186.941 164.888 186.941 165.007 186.941C165.126 186.941 165.244 186.882 165.422 186.822C165.541 186.763 165.659 186.704 165.778 186.585C165.897 186.17 165.956 185.814 165.837 185.518Z" fill="#572A4D"/>
<defs>
<filter id="filter0_d" x="0.595703" y="107.374" width="196.806" height="265.901" filterUnits="userSpaceOnUse" color-interpolation-filters="sRGB">
<feFlood flood-opacity="0" result="BackgroundImageFix"/>
<feColorMatrix in="SourceAlpha" type="matrix" values="0 0 0 0 0 0 0 0 0 0 0 0 0 0 0 0 0 0 127 0"/>
<feOffset dy="3"/>
<feGaussianBlur stdDeviation="3"/>
<feColorMatrix type="matrix" values="0 0 0 0 0 0 0 0 0 0 0 0 0 0 0 0 0 0 0.1 0"/>
<feBlend mode="normal" in2="BackgroundImageFix" result="effect1_dropShadow"/>
<feBlend mode="normal" in="SourceGraphic" in2="effect1_dropShadow" result="shape"/>
</filter>
<filter id="filter1_d" x="212.805" y="103.875" width="178.124" height="272.899" filterUnits="userSpaceOnUse" color-interpolation-filters="sRGB">
<feFlood flood-opacity="0" result="BackgroundImageFix"/>
<feColorMatrix in="SourceAlpha" type="matrix" values="0 0 0 0 0 0 0 0 0 0 0 0 0 0 0 0 0 0 127 0"/>
<feOffset dy="3"/>
<feGaussianBlur stdDeviation="3"/>
<feColorMatrix type="matrix" values="0 0 0 0 0 0 0 0 0 0 0 0 0 0 0 0 0 0 0.1 0"/>
<feBlend mode="normal" in2="BackgroundImageFix" result="effect1_dropShadow"/>
<feBlend mode="normal" in="SourceGraphic" in2="effect1_dropShadow" result="shape"/>
</filter>
<filter id="filter2_d" x="406.445" y="107.433" width="196.865" height="265.841" filterUnits="userSpaceOnUse" color-interpolation-filters="sRGB">
<feFlood flood-opacity="0" result="BackgroundImageFix"/>
<feColorMatrix in="SourceAlpha" type="matrix" values="0 0 0 0 0 0 0 0 0 0 0 0 0 0 0 0 0 0 127 0"/>
<feOffset dy="3"/>
<feGaussianBlur stdDeviation="3"/>
<feColorMatrix type="matrix" values="0 0 0 0 0 0 0 0 0 0 0 0 0 0 0 0 0 0 0.1 0"/>
<feBlend mode="normal" in2="BackgroundImageFix" result="effect1_dropShadow"/>
<feBlend mode="normal" in="SourceGraphic" in2="effect1_dropShadow" result="shape"/>
</filter>
</defs>
</svg>
