<svg width="20" height="24" viewBox="0 0 20 24" fill="none" xmlns="http://www.w3.org/2000/svg">
<path d="M18.1251 4H15.625C15.28 4 15 4.21335 15 4.47621C15 4.73906 15.28 4.95237 15.625 4.95237H18.1251C18.4688 4.95237 18.7501 5.16665 18.7501 5.42857V14V22.5714C18.7501 22.8333 18.4688 23.0476 18.1251 23.0476H1.875C1.53123 23.0476 1.24998 22.8333 1.24998 22.5714V5.42857C1.24998 5.16665 1.53123 4.95237 1.875 4.95237H4.37502C4.72002 4.95237 5.00004 4.73902 5.00004 4.47616C5.00004 4.2133 4.72002 4 4.37502 4H1.875C0.841231 4 0 4.64094 0 5.42857V22.5714C0 23.3591 0.841231 24 1.875 24H18.125C19.1588 24 20 23.3591 20 22.5714V5.42857C20.0001 4.64094 19.1588 4 18.1251 4Z" fill="#565D66"/>
<path d="M14.5411 2.50002H12.6661C12.6661 1.12125 11.5448 0 10.166 0C8.78728 0 7.66602 1.12125 7.66602 2.50002H5.79102C4.75725 2.50002 3.91602 3.34125 3.91602 4.37502V5.62501C3.91602 5.97001 4.19604 6.25003 4.54104 6.25003H15.7911C16.1361 6.25003 16.4161 5.97001 16.4161 5.62501V4.37502C16.4161 3.34125 15.5748 2.50002 14.5411 2.50002ZM15.166 4.99999H5.16606V4.37502C5.16606 4.03125 5.44731 3.75 5.79108 3.75H8.29105C8.63605 3.75 8.91607 3.46998 8.91607 3.12498V2.50002C8.91607 1.81002 9.47605 1.25004 10.166 1.25004C10.8561 1.25004 11.416 1.81002 11.416 2.50002V3.12504C11.416 3.46998 11.6961 3.75 12.0411 3.75H14.5411C14.8848 3.75 15.1661 4.03125 15.1661 4.37502V4.99999H15.166Z" fill="#565D66"/>
<path d="M4.54104 17.25C4.88623 17.25 5.16606 16.9702 5.16606 16.625C5.16606 16.2798 4.88623 16 4.54104 16C4.19585 16 3.91602 16.2798 3.91602 16.625C3.91602 16.9702 4.19585 17.25 4.54104 17.25Z" fill="#565D66"/>
<path d="M15.791 16H7.04104C6.69604 16 6.41602 16.28 6.41602 16.625C6.41602 16.97 6.69604 17.25 7.04104 17.25H15.791C16.136 17.25 16.416 16.97 16.416 16.625C16.416 16.28 16.136 16 15.791 16Z" fill="#565D66"/>
<path d="M4.54104 12.25C4.88623 12.25 5.16606 11.9702 5.16606 11.625C5.16606 11.2798 4.88623 11 4.54104 11C4.19585 11 3.91602 11.2798 3.91602 11.625C3.91602 11.9702 4.19585 12.25 4.54104 12.25Z" fill="#565D66"/>
<path d="M15.791 11H7.04104C6.69604 11 6.41602 11.28 6.41602 11.625C6.41602 11.97 6.69604 12.25 7.04104 12.25H15.791C16.136 12.25 16.416 11.97 16.416 11.625C16.416 11.28 16.136 11 15.791 11Z" fill="#565D66"/>
</svg>
