<svg width="30" height="31" viewBox="0 0 30 31" fill="none" xmlns="http://www.w3.org/2000/svg">
<circle cx="15" cy="15.5" r="14.5" stroke="#CDCED9"/>
<g clip-path="url(#clip0)">
<path d="M12.6947 23.4L13.194 20.9027C13.2454 20.6419 13.3741 20.4026 13.5633 20.216L18.6453 15.134C19.1047 14.6756 19.7129 14.3965 20.36 14.3473C20.4437 14.3406 20.5218 14.3026 20.5787 14.2408C20.6355 14.179 20.667 14.098 20.6667 14.014V12C20.6667 11.6926 20.5606 11.3947 20.3662 11.1566C20.1719 10.9184 19.9012 10.7548 19.6 10.6933C19.5248 10.678 19.4573 10.6372 19.4087 10.5778C19.3601 10.5184 19.3335 10.4441 19.3333 10.3673V9.33333C19.3333 8.97971 19.1929 8.64057 18.9428 8.39052C18.6928 8.14048 18.3536 8 18 8H9.66602C9.13558 8 8.62687 8.21071 8.2518 8.58579C7.87673 8.96086 7.66602 9.46957 7.66602 10V22C7.66602 22.5304 7.87673 23.0391 8.2518 23.4142C8.62687 23.7893 9.13558 24 9.66602 24H12.3327C12.4211 24 12.5059 23.9649 12.5684 23.9024C12.6309 23.8399 12.666 23.7551 12.666 23.6667C12.6659 23.577 12.6755 23.4876 12.6947 23.4ZM8.99935 10C8.99935 9.82319 9.06959 9.65362 9.19461 9.5286C9.31964 9.40357 9.4892 9.33333 9.66602 9.33333H17.8327C17.8769 9.33333 17.9193 9.35089 17.9505 9.38215C17.9818 9.41341 17.9993 9.4558 17.9993 9.5V10.5C17.9993 10.5442 17.9818 10.5866 17.9505 10.6179C17.9193 10.6491 17.8769 10.6667 17.8327 10.6667H9.66602C9.4892 10.6667 9.31964 10.5964 9.19461 10.4714C9.06959 10.3464 8.99935 10.1768 8.99935 10Z" fill="#0050C8"/>
<path d="M14.0926 23.9856L16.1592 23.3963C16.215 23.3804 16.2657 23.3502 16.3063 23.3087C16.3469 23.2672 16.3759 23.2158 16.3905 23.1597C16.4051 23.1035 16.4048 23.0445 16.3896 22.9885C16.3744 22.9325 16.3449 22.8814 16.3039 22.8403L14.8272 21.3636C14.7862 21.3225 14.7351 21.2928 14.6791 21.2774C14.623 21.2621 14.5639 21.2617 14.5077 21.2762C14.4514 21.2908 14.3999 21.3198 14.3583 21.3604C14.3167 21.401 14.2865 21.4517 14.2706 21.5076L13.6806 23.5743C13.6644 23.6314 13.6638 23.6918 13.6788 23.7492C13.6938 23.8066 13.7238 23.859 13.7658 23.9009C13.8078 23.9429 13.8602 23.9728 13.9177 23.9877C13.9751 24.0026 14.0355 24.0019 14.0926 23.9856Z" fill="#0050C8"/>
<path d="M15.0351 20.1609C14.9726 20.2234 14.9375 20.3082 14.9375 20.3966C14.9375 20.485 14.9726 20.5697 15.0351 20.6323L17.0351 22.6323C17.0976 22.6947 17.1824 22.7298 17.2708 22.7298C17.3592 22.7298 17.4439 22.6947 17.5064 22.6323L20.8471 19.2923C20.8781 19.2613 20.9028 19.2245 20.9196 19.184C20.9364 19.1435 20.945 19.1001 20.945 19.0563C20.945 19.0124 20.9364 18.969 20.9196 18.9285C20.9028 18.888 20.8781 18.8512 20.8471 18.8203L18.8471 16.8203C18.7846 16.7578 18.6998 16.7227 18.6114 16.7227C18.523 16.7227 18.4383 16.7578 18.3758 16.8203L15.0351 20.1609Z" fill="#0050C8"/>
<path d="M19.2227 16.113C19.2226 16.1569 19.2311 16.2002 19.2478 16.2407C19.2645 16.2812 19.2891 16.318 19.32 16.349L21.32 18.349C21.3901 18.4077 21.4801 18.4373 21.5713 18.4317C21.6661 18.4259 21.7555 18.3856 21.8227 18.3184C22.1499 17.9904 22.3337 17.546 22.3337 17.0827C22.3337 16.6194 22.1499 16.175 21.8227 15.847C21.4869 15.5192 21.0347 15.3383 20.5654 15.3439C20.0962 15.3495 19.6485 15.5413 19.3207 15.877C19.2896 15.908 19.265 15.9448 19.2481 15.9853C19.2313 16.0258 19.2227 16.0692 19.2227 16.113Z" fill="#0050C8"/>
</g>
<defs>
<clipPath id="clip0">
<rect width="16" height="16" fill="white" transform="translate(7 8)"/>
</clipPath>
</defs>
</svg>
