<svg width="16" height="18" viewBox="0 0 16 18" fill="none" xmlns="http://www.w3.org/2000/svg">
<path d="M14.9562 6.91406H1.04315C0.851149 6.91406 0.695312 7.0699 0.695312 7.2619V17.001C0.695312 17.193 0.851149 17.3488 1.04315 17.3488H14.9562C15.1482 17.3488 15.304 17.193 15.304 17.001V7.2619C15.304 7.0699 15.1482 6.91406 14.9562 6.91406ZM14.6084 16.6532H1.39095V7.6097H14.6083V16.6532H14.6084Z" fill="#393A4A"/>
<path d="M15.6522 4.12891H0.347837C0.155837 4.12891 0 4.28474 0 4.47674V7.25934C0 7.45134 0.155837 7.60718 0.347837 7.60718H15.6522C15.8442 7.60718 16 7.45134 16 7.25934V4.47674C16 4.28471 15.8442 4.12891 15.6522 4.12891ZM15.3044 6.9115H0.695673V4.82455H15.3044V6.9115Z" fill="#393A4A"/>
<path d="M8.00018 4.12891C7.80818 4.12891 7.65234 4.28474 7.65234 4.47674V16.9985C7.65234 17.1905 7.80818 17.3463 8.00018 17.3463C8.19218 17.3463 8.34802 17.1905 8.34802 16.9985V4.47674C8.34802 4.28471 8.19218 4.12891 8.00018 4.12891Z" fill="#393A4A"/>
<path d="M8.35606 4.39634C7.9985 2.71911 5.86564 0.919474 4.44442 0.678789C4.35677 0.661376 4.26703 0.652344 4.17452 0.652344C3.4072 0.652344 2.7832 1.27634 2.7832 2.04366C2.7832 2.36436 2.89521 2.67741 3.09833 2.92576C3.10111 2.92784 3.10319 2.93133 3.10528 2.9341C4.13832 4.25374 7.57694 4.7595 7.96788 4.81305C7.9839 4.81514 7.99987 4.81654 8.0152 4.81654C8.11188 4.81654 8.20371 4.77689 8.27049 4.70524C8.34771 4.62242 8.37973 4.50695 8.35606 4.39634ZM3.64371 2.49235C3.63745 2.48332 3.63051 2.47566 3.62353 2.46799C3.52893 2.34627 3.47884 2.19946 3.47884 2.04366C3.47884 1.65966 3.7912 1.34802 4.17448 1.34802C4.2204 1.34802 4.26563 1.35288 4.31917 1.36263C5.36196 1.53933 6.93621 2.80122 7.50178 4.03253C6.29069 3.80922 4.24616 3.28817 3.64371 2.49235Z" fill="#393A4A"/>
<path d="M11.8252 0.652344C11.7327 0.652344 11.643 0.661376 11.565 0.676702C10.1348 0.919474 8.00191 2.71911 7.64436 4.39634C7.62072 4.50695 7.6527 4.62242 7.72992 4.70521C7.79602 4.77617 7.88853 4.8165 7.98453 4.8165C7.99982 4.8165 8.01583 4.8151 8.03113 4.81373C8.42207 4.76016 11.8607 4.25443 12.8937 2.93479C12.8965 2.93202 12.8986 2.92853 12.9014 2.92576C13.1045 2.67738 13.2165 2.36433 13.2165 2.04366C13.2165 1.27634 12.5925 0.652344 11.8252 0.652344ZM12.3762 2.46868C12.3692 2.47634 12.3622 2.48397 12.356 2.49304C11.7543 3.28748 9.70973 3.80991 8.49789 4.03321C9.06414 2.80051 10.6391 1.5393 11.6902 1.36122C11.7341 1.35288 11.7793 1.34802 11.8252 1.34802C12.2085 1.34802 12.5209 1.65966 12.5209 2.04366C12.5209 2.19946 12.4708 2.34555 12.3762 2.46868Z" fill="#393A4A"/>
</svg>
