<svg width="576" height="480" viewBox="0 0 576 480" fill="none" xmlns="http://www.w3.org/2000/svg">
<rect width="576" height="480" fill="#E7E7ED"/>
<rect x="16" y="16" width="544.906" height="240" rx="4" fill="#F7F8F9"/>
<path opacity="0.3" d="M84.5272 85.0796H124.252C126.04 85.0796 127.77 85.7132 129.136 86.8681L153.152 107.182C154.851 108.619 155.831 110.731 155.831 112.956V176.25C155.831 185.277 155.728 185.913 146.468 185.913H84.5272C75.2672 185.913 75.1641 185.277 75.1641 176.25V94.7428C75.1641 85.7155 75.2672 85.0796 84.5272 85.0796Z" fill="black"/>
<path d="M85.25 154.455H89.7324V146.345H94.4685C100.183 146.345 103.252 143.017 103.252 138.4C103.252 133.818 100.219 130.455 94.5289 130.455H85.25V154.455ZM89.7324 142.771V134.087H93.8402C97.199 134.087 98.6851 135.845 98.6851 138.4C98.6851 140.955 97.199 142.771 93.8644 142.771H89.7324Z" fill="black"/>
<path d="M115.53 154.455C123.069 154.455 127.54 149.931 127.54 142.431C127.54 134.955 123.069 130.455 115.699 130.455H107.145V154.455H115.53ZM111.628 150.693V134.216H115.446C120.472 134.216 123.094 136.935 123.094 142.431C123.094 147.951 120.472 150.693 115.313 150.693H111.628Z" fill="black"/>
<path d="M131.799 154.455H136.281V144.259H146.563V140.615H136.281V134.099H147.65V130.455H131.799V154.455Z" fill="black"/>
<rect x="176" y="85" width="355" height="101" rx="4" fill="#A7A9BC"/>
<rect x="16" y="288" width="545" height="8" rx="4" fill="#A7A9BC"/>
<rect x="16" y="312" width="545" height="8" rx="4" fill="#A7A9BC"/>
<rect x="16" y="336" width="545" height="8" rx="4" fill="#A7A9BC"/>
<rect x="16" y="360" width="461.967" height="8" rx="4" fill="#A7A9BC"/>
<rect x="88" y="400" width="176" height="8" rx="4" fill="#A7A9BC"/>
<rect x="88" y="424" width="176" height="8" rx="4" fill="#A7A9BC"/>
<rect x="88" y="448" width="104" height="8" rx="4" fill="#A7A9BC"/>
<circle cx="44" cy="428" r="28" fill="#A7A9BC"/>
</svg>
