<svg width="48" height="48" viewBox="0 0 48 48" fill="none" xmlns="http://www.w3.org/2000/svg">
<path opacity="0.3" d="M11.7133 3.99854H27.4718C28.1812 3.99854 28.8676 4.2499 29.4092 4.70801L38.9364 12.7664C39.6103 13.3364 39.999 14.1743 39.999 15.0569V40.1652C39.999 43.7463 39.9581 43.9985 36.2847 43.9985H11.7133C8.03992 43.9985 7.99902 43.7463 7.99902 40.1652V7.83187C7.99902 4.25079 8.03992 3.99854 11.7133 3.99854Z" fill="black"/>
<path d="M12 31.9985H13.8677V28.6196H15.841C18.2222 28.6196 19.5008 27.2329 19.5008 25.3091C19.5008 23.3999 18.2373 21.9985 15.8662 21.9985H12V31.9985ZM13.8677 27.1304V23.5122H15.5793C16.9788 23.5122 17.5979 24.2446 17.5979 25.3091C17.5979 26.3735 16.9788 27.1304 15.5893 27.1304H13.8677Z" fill="black"/>
<path d="M24.6168 31.9985C27.7581 31.9985 29.6207 30.1138 29.6207 26.9888C29.6207 23.8735 27.7581 21.9985 24.6873 21.9985H21.1231V31.9985H24.6168ZM22.9908 30.4312V23.5659H24.5815C26.6757 23.5659 27.7681 24.6987 27.7681 26.9888C27.7681 29.2886 26.6757 30.4312 24.5262 30.4312H22.9908Z" fill="black"/>
<path d="M31.3952 31.9985H33.2629V27.7505H37.5469V26.2319H33.2629V23.5171H38V21.9985H31.3952V31.9985Z" fill="black"/>
</svg>
