<svg width="33" height="34" viewBox="0 0 33 34" fill="none" xmlns="http://www.w3.org/2000/svg">
<path d="M8.76125 0H21.8934C22.4845 0 23.0565 0.209474 23.5079 0.591233L31.4472 7.30657C32.0088 7.78158 32.3327 8.4798 32.3327 9.21534V30.1389C32.3327 33.1231 32.2986 33.3333 29.2374 33.3333H8.76125C5.7001 33.3333 5.66602 33.1231 5.66602 30.1389V3.19444C5.66602 0.210208 5.7001 0 8.76125 0Z" fill="#E9EAEE"/>
<rect y="17.666" width="19" height="11" rx="2" fill="#DA1414"/>
<path d="M5.71891 21.774C6.05958 21.774 6.36291 21.8533 6.62891 22.012C6.89491 22.1707 7.10258 22.3993 7.25191 22.698C7.40591 22.9967 7.48291 23.3467 7.48291 23.748C7.48291 24.1493 7.40591 24.4993 7.25191 24.798C7.10258 25.092 6.89491 25.3183 6.62891 25.477C6.36291 25.6357 6.05958 25.715 5.71891 25.715C5.34558 25.715 5.02825 25.6217 4.76691 25.435C4.51025 25.2437 4.33291 24.994 4.23491 24.686V27.486H3.59791V21.823H4.23491V22.803C4.33291 22.495 4.51025 22.2477 4.76691 22.061C5.02825 21.8697 5.34558 21.774 5.71891 21.774ZM5.53691 22.341C5.28958 22.341 5.06558 22.3993 4.86491 22.516C4.66425 22.628 4.50791 22.7913 4.39591 23.006C4.28391 23.2207 4.22791 23.468 4.22791 23.748C4.22791 24.028 4.28391 24.2753 4.39591 24.49C4.50791 24.7 4.66425 24.8633 4.86491 24.98C5.06558 25.0967 5.28958 25.155 5.53691 25.155C5.93358 25.155 6.24858 25.0313 6.48191 24.784C6.71991 24.532 6.83891 24.1867 6.83891 23.748C6.83891 23.3093 6.71991 22.9663 6.48191 22.719C6.24858 22.467 5.93358 22.341 5.53691 22.341ZM9.88971 21.774C10.263 21.774 10.578 21.8673 10.8347 22.054C11.096 22.2407 11.278 22.4903 11.3807 22.803V20.486H12.0177V25.666H11.3807V24.686C11.278 24.9987 11.096 25.2483 10.8347 25.435C10.578 25.6217 10.263 25.715 9.88971 25.715C9.54904 25.715 9.24571 25.6357 8.97971 25.477C8.71371 25.3183 8.50371 25.092 8.34971 24.798C8.20038 24.4993 8.12571 24.1493 8.12571 23.748C8.12571 23.3467 8.20038 22.9967 8.34971 22.698C8.50371 22.3993 8.71371 22.1707 8.97971 22.012C9.24571 21.8533 9.54904 21.774 9.88971 21.774ZM10.0717 22.341C9.67971 22.341 9.36471 22.467 9.12671 22.719C8.89338 22.9663 8.77671 23.3093 8.77671 23.748C8.77671 24.1867 8.89338 24.532 9.12671 24.784C9.36471 25.0313 9.67971 25.155 10.0717 25.155C10.3237 25.155 10.5477 25.0967 10.7437 24.98C10.9444 24.8633 11.1007 24.7 11.2127 24.49C11.3247 24.2753 11.3807 24.028 11.3807 23.748C11.3807 23.468 11.3247 23.2207 11.2127 23.006C11.1007 22.7913 10.9444 22.628 10.7437 22.516C10.5477 22.3993 10.3237 22.341 10.0717 22.341ZM14.7325 20.913C14.3918 20.9083 14.1538 20.9667 14.0185 21.088C13.8878 21.2093 13.8225 21.4193 13.8225 21.718V21.823H14.7325V22.383H13.8225V25.666H13.1855V22.383H12.6325V21.823H13.1855V21.669C13.1855 20.7497 13.7012 20.311 14.7325 20.353V20.913Z" fill="white"/>
</svg>
