<svg width="24" height="16" viewBox="0 0 24 16" fill="none" xmlns="http://www.w3.org/2000/svg">
<path d="M12 0.169922C9.98603 0.169922 8.34766 1.80824 8.34766 3.82229C8.34766 5.83633 9.98598 7.47465 12 7.47465C14.0141 7.47465 15.6524 5.83628 15.6524 3.82229C15.6524 1.80829 14.0141 0.169922 12 0.169922ZM12 6.43109C10.5621 6.43109 9.39122 5.26025 9.39122 3.82229C9.39122 2.38432 10.5621 1.21348 12 1.21348C13.438 1.21348 14.6088 2.38432 14.6088 3.82229C14.6088 5.26025 13.438 6.43109 12 6.43109Z" fill="#6B6C7E"/>
<path d="M19.3041 4.34375C17.8661 4.34375 16.6953 5.51459 16.6953 6.95255C16.6953 8.39052 17.8661 9.56136 19.3041 9.56136C20.7421 9.56136 21.9129 8.39052 21.9129 6.95255C21.9129 5.51459 20.7421 4.34375 19.3041 4.34375ZM19.3041 8.51784C18.4411 8.51784 17.7388 7.81557 17.7388 6.95255C17.7388 6.08954 18.4411 5.38726 19.3041 5.38726C20.1671 5.38726 20.8694 6.08954 20.8694 6.95255C20.8694 7.81557 20.1671 8.51784 19.3041 8.51784Z" fill="#6B6C7E"/>
<path d="M4.76896 4.34375C3.32992 4.34375 2.16016 5.51459 2.16016 6.95255C2.16016 8.39052 3.33099 9.56136 4.76896 9.56136C6.20692 9.56136 7.37776 8.39052 7.37776 6.95255C7.37776 5.51459 6.20795 4.34375 4.76896 4.34375ZM4.76896 8.51784C3.90595 8.51784 3.20367 7.81557 3.20367 6.95255C3.20367 6.08954 3.90595 5.38726 4.76896 5.38726C5.63197 5.38726 6.33425 6.08954 6.33425 6.95255C6.33425 7.81557 5.63192 8.51784 4.76896 8.51784Z" fill="#6B6C7E"/>
<path d="M12.0036 8.51562C8.26363 8.51562 5.2207 11.5586 5.2207 15.2986C5.2207 15.5866 5.45447 15.8204 5.74248 15.8204C6.0305 15.8204 6.26426 15.5866 6.26426 15.2986C6.26426 12.1336 8.83863 9.55919 12.0036 9.55919C15.1687 9.55919 17.743 12.1336 17.743 15.2986C17.743 15.5866 17.9768 15.8204 18.2648 15.8204C18.5528 15.8204 18.7866 15.5866 18.7866 15.2986C18.7866 11.5586 15.7437 8.51562 12.0036 8.51562Z" fill="#6B6C7E"/>
<path d="M19.3043 10.6113C18.4455 10.6113 17.6044 10.8461 16.8718 11.2896C16.6266 11.4399 16.5473 11.7603 16.6965 12.0065C16.8478 12.2528 17.1671 12.3311 17.4134 12.1819C17.9821 11.8364 18.6354 11.6548 19.3043 11.6548C21.3183 11.6548 22.9567 13.2932 22.9567 15.3072C22.9567 15.5952 23.1904 15.829 23.4784 15.829C23.7664 15.829 24.0002 15.5952 24.0002 15.3072C24.0002 12.7182 21.8933 10.6113 19.3043 10.6113Z" fill="#6B6C7E"/>
<path d="M7.12731 11.2886C6.39578 10.8461 5.55473 10.6113 4.69587 10.6113C2.10688 10.6113 0 12.7182 0 15.3072C0 15.5952 0.233767 15.829 0.52178 15.829C0.809794 15.829 1.04356 15.5952 1.04356 15.3072C1.04351 13.2932 2.68188 11.6548 4.69587 11.6548C5.36479 11.6548 6.01801 11.8364 6.58572 12.1808C6.83093 12.33 7.15236 12.2518 7.30262 12.0055C7.45289 11.7592 7.37355 11.4388 7.12731 11.2886Z" fill="#6B6C7E"/>
</svg>
