<svg width="12" height="13" viewBox="0 0 12 13" fill="none" xmlns="http://www.w3.org/2000/svg">
<g clip-path="url(#clip0_13020_99728)">
<path d="M3.94922 10.0564L5.98072 12.2434L8.02122 10.0469" stroke="#565D66" stroke-width="0.5" stroke-linecap="round" stroke-linejoin="round"/>
<path d="M5.9147 2.7275C5.97126 2.7375 6.02914 2.7375 6.0857 2.7275L11.0422 1.8655C11.071 1.86028 11.0971 1.84511 11.1159 1.82263C11.1346 1.80015 11.1449 1.77179 11.1449 1.7425C11.1449 1.71321 11.1346 1.68485 11.1159 1.66237C11.0971 1.63989 11.071 1.62472 11.0422 1.6195L6.0857 0.757502C6.02914 0.747499 5.97126 0.747499 5.9147 0.757502L0.958198 1.6195C0.929377 1.62472 0.903304 1.63989 0.884529 1.66237C0.865754 1.68485 0.855469 1.71321 0.855469 1.7425C0.855469 1.77179 0.865754 1.80015 0.884529 1.82263C0.903304 1.84511 0.929377 1.86028 0.958198 1.8655L5.9147 2.7275Z" stroke="#565D66" stroke-width="0.5" stroke-linecap="round" stroke-linejoin="round"/>
<path d="M0.999325 4.74219C0.590777 5.42898 0.337835 6.19703 0.258325 6.99219C0.256203 7.02422 0.260681 7.05635 0.27148 7.08658C0.28228 7.11681 0.299171 7.1445 0.321108 7.16794C0.343045 7.19137 0.36956 7.21006 0.399012 7.22283C0.428463 7.2356 0.460224 7.24219 0.492325 7.24219H1.49233C1.52682 7.24229 1.56096 7.23525 1.5926 7.22151C1.62424 7.20778 1.65269 7.18765 1.67617 7.16238C1.69966 7.13711 1.71765 7.10726 1.72904 7.0747C1.74042 7.04214 1.74495 7.00758 1.74233 6.97319C1.65917 6.18448 1.40565 5.42326 0.999325 4.74219V4.74219Z" stroke="#565D66" stroke-width="0.5" stroke-linecap="round" stroke-linejoin="round"/>
<path d="M1 1.87305V4.74255" stroke="#565D66" stroke-width="0.5" stroke-linecap="round" stroke-linejoin="round"/>
<path d="M3 5.7422V2.2207" stroke="#565D66" stroke-width="0.5" stroke-linecap="round" stroke-linejoin="round"/>
<path d="M9 2.2207V5.7422" stroke="#565D66" stroke-width="0.5" stroke-linecap="round" stroke-linejoin="round"/>
<path d="M3 4.24219C4.94735 4.89118 7.05265 4.89118 9 4.24219" stroke="#565D66" stroke-width="0.5" stroke-linecap="round" stroke-linejoin="round"/>
<path d="M5.24023 7.94336C5.44245 8.13594 5.71099 8.24336 5.99023 8.24336C6.26948 8.24336 6.53802 8.13594 6.74023 7.94336" stroke="#565D66" stroke-width="0.5" stroke-linecap="round" stroke-linejoin="round"/>
<path d="M5.5 5.99178C5.44704 5.90881 5.37258 5.84174 5.28453 5.79772C5.19649 5.7537 5.09816 5.73437 5 5.74178C4.90184 5.73437 4.80351 5.7537 4.71547 5.79772C4.62742 5.84174 4.55296 5.90881 4.5 5.99178" stroke="#565D66" stroke-width="0.5" stroke-linecap="round" stroke-linejoin="round"/>
<path d="M7.5 5.99178C7.44704 5.90881 7.37258 5.84174 7.28453 5.79772C7.19649 5.7537 7.09816 5.73437 7 5.74178C6.90184 5.73437 6.80351 5.7537 6.71547 5.79772C6.62742 5.84174 6.55296 5.90881 6.5 5.99178" stroke="#565D66" stroke-width="0.5" stroke-linecap="round" stroke-linejoin="round"/>
<path d="M2.99037 5.74219C2.55337 5.96069 2.69037 6.94219 3.22987 7.18669C3.30464 7.22053 3.36994 7.27226 3.42 7.33731C3.47005 7.40236 3.50332 7.47873 3.51687 7.55969C3.73837 8.88169 5.29437 9.74219 5.99037 9.74219C6.68637 9.74219 8.24037 8.88169 8.46387 7.55969C8.47741 7.47873 8.51068 7.40236 8.56074 7.33731C8.61079 7.27226 8.67609 7.22053 8.75087 7.18669C9.29137 6.94169 9.42687 5.96069 8.99037 5.74219" stroke="#565D66" stroke-width="0.5" stroke-linecap="round" stroke-linejoin="round"/>
<path d="M8.02148 10.0469L10.5 10.8694L10.509 10.8724C10.8108 10.9844 11.0811 11.1675 11.2971 11.4061C11.5131 11.6448 11.6685 11.932 11.75 12.2434" stroke="#565D66" stroke-width="0.5" stroke-linecap="round" stroke-linejoin="round"/>
<path d="M3.95 10.0547L1.5 10.8677L1.491 10.8707C1.18922 10.9827 0.918879 11.1658 0.702859 11.4044C0.486839 11.6431 0.331502 11.9303 0.25 12.2417" stroke="#565D66" stroke-width="0.5" stroke-linecap="round" stroke-linejoin="round"/>
</g>
<defs>
<clipPath id="clip0_13020_99728">
<rect width="12" height="12" fill="white" transform="translate(0 0.5)"/>
</clipPath>
</defs>
</svg>
