<svg width="16" height="16" viewBox="0 0 16 16" fill="none" xmlns="http://www.w3.org/2000/svg">
<path d="M14.9944 7.00109H8.98156V1.00391C8.98156 0.453906 8.53156 0.00390625 7.98156 0.00390625C7.43156 0.00390625 6.98156 0.453906 6.98156 1.00391V7.00109H1C0.45 7.00109 0 7.45109 0 8.00109C0 8.55109 0.45 9.00109 1 9.00109H6.98156V14.9983C6.98156 15.5483 7.43156 15.9983 7.98156 15.9983C8.53156 15.9983 8.98156 15.5483 8.98156 14.9983V9.00113H14.9944C15.5444 9.00113 15.9944 8.55112 15.9944 8.00112C15.9944 7.45112 15.5444 7.00112 14.9944 7.00112V7.00109Z" fill="#267939"/>
</svg>
