<svg width="16" height="17" viewBox="0 0 16 17" fill="none" xmlns="http://www.w3.org/2000/svg">
<path d="M14.9944 7.50012H8.98156V1.50293C8.98156 0.95293 8.53156 0.50293 7.98156 0.50293C7.43156 0.50293 6.98156 0.95293 6.98156 1.50293V7.50012H1C0.45 7.50012 0 7.95012 0 8.50012C0 9.05012 0.45 9.50012 1 9.50012H6.98156V15.4973C6.98156 16.0473 7.43156 16.4973 7.98156 16.4973C8.53156 16.4973 8.98156 16.0473 8.98156 15.4973V9.50015H14.9944C15.5444 9.50015 15.9944 9.05015 15.9944 8.50015C15.9944 7.95015 15.5444 7.50015 14.9944 7.50015V7.50012Z" fill="#0050C8"/>
</svg>
