<svg width="33" height="34" viewBox="0 0 33 34" fill="none" xmlns="http://www.w3.org/2000/svg">
<path d="M8.76125 0H21.8934C22.4845 0 23.0565 0.209474 23.5079 0.591233L31.4472 7.30657C32.0088 7.78158 32.3327 8.4798 32.3327 9.21534V30.1389C32.3327 33.1231 32.2986 33.3333 29.2374 33.3333H8.76125C5.7001 33.3333 5.66602 33.1231 5.66602 30.1389V3.19444C5.66602 0.210208 5.7001 0 8.76125 0Z" fill="#E9EAEE"/>
<rect y="17.666" width="19" height="11" rx="2" fill="#E0B878"/>
<path d="M4.66618 21.774C5.00685 21.774 5.31018 21.8533 5.57618 22.012C5.84218 22.1707 6.04985 22.3993 6.19918 22.698C6.35318 22.9967 6.43018 23.3467 6.43018 23.748C6.43018 24.1493 6.35318 24.4993 6.19918 24.798C6.04985 25.092 5.84218 25.3183 5.57618 25.477C5.31018 25.6357 5.00685 25.715 4.66618 25.715C4.29285 25.715 3.97551 25.6217 3.71418 25.435C3.45751 25.2437 3.28018 24.994 3.18218 24.686V27.486H2.54518V21.823H3.18218V22.803C3.28018 22.495 3.45751 22.2477 3.71418 22.061C3.97551 21.8697 4.29285 21.774 4.66618 21.774ZM4.48418 22.341C4.23685 22.341 4.01285 22.3993 3.81218 22.516C3.61151 22.628 3.45518 22.7913 3.34318 23.006C3.23118 23.2207 3.17518 23.468 3.17518 23.748C3.17518 24.028 3.23118 24.2753 3.34318 24.49C3.45518 24.7 3.61151 24.8633 3.81218 24.98C4.01285 25.0967 4.23685 25.155 4.48418 25.155C4.88085 25.155 5.19585 25.0313 5.42918 24.784C5.66718 24.532 5.78618 24.1867 5.78618 23.748C5.78618 23.3093 5.66718 22.9663 5.42918 22.719C5.19585 22.467 4.88085 22.341 4.48418 22.341ZM9.28498 21.76C9.73298 21.76 10.0946 21.9047 10.37 22.194C10.6453 22.4787 10.783 22.8917 10.783 23.433V25.666H10.146V23.489C10.146 23.1063 10.048 22.8123 9.85198 22.607C9.65598 22.4017 9.38998 22.299 9.05398 22.299C8.70398 22.299 8.42398 22.4133 8.21398 22.642C8.00398 22.866 7.89898 23.195 7.89898 23.629V25.666H7.26198V21.823H7.89898V22.733C7.99698 22.4203 8.16964 22.18 8.41698 22.012C8.66898 21.844 8.95831 21.76 9.28498 21.76ZM13.335 21.774C13.7084 21.774 14.0234 21.8673 14.28 22.054C14.5414 22.2407 14.7234 22.4903 14.826 22.803V21.823H15.463V25.729C15.463 26.0837 15.3884 26.3987 15.239 26.674C15.0897 26.9493 14.8797 27.164 14.609 27.318C14.3384 27.472 14.0234 27.549 13.664 27.549C13.146 27.549 12.7237 27.423 12.397 27.171C12.0704 26.9237 11.8627 26.5877 11.774 26.163H12.404C12.4787 26.4197 12.6187 26.6203 12.824 26.765C13.034 26.9143 13.3024 26.989 13.629 26.989C13.9744 26.989 14.259 26.877 14.483 26.653C14.7117 26.4337 14.826 26.1257 14.826 25.729V24.686C14.7234 24.9987 14.5414 25.2483 14.28 25.435C14.0234 25.6217 13.7084 25.715 13.335 25.715C12.9944 25.715 12.691 25.6357 12.425 25.477C12.159 25.3183 11.949 25.092 11.795 24.798C11.6457 24.4993 11.571 24.1493 11.571 23.748C11.571 23.3467 11.6457 22.9967 11.795 22.698C11.949 22.3993 12.159 22.1707 12.425 22.012C12.691 21.8533 12.9944 21.774 13.335 21.774ZM13.517 22.341C13.125 22.341 12.81 22.467 12.572 22.719C12.3387 22.9663 12.222 23.3093 12.222 23.748C12.222 24.1867 12.3387 24.532 12.572 24.784C12.81 25.0313 13.125 25.155 13.517 25.155C13.769 25.155 13.993 25.0967 14.189 24.98C14.3897 24.8633 14.546 24.7 14.658 24.49C14.77 24.2753 14.826 24.028 14.826 23.748C14.826 23.468 14.77 23.2207 14.658 23.006C14.546 22.7913 14.3897 22.628 14.189 22.516C13.993 22.3993 13.769 22.341 13.517 22.341Z" fill="white"/>
</svg>
