<svg width="33" height="34" viewBox="0 0 33 34" fill="none" xmlns="http://www.w3.org/2000/svg">
<path d="M8.76125 0H21.8934C22.4845 0 23.0565 0.209474 23.5079 0.591233L31.4472 7.30657C32.0088 7.78158 32.3327 8.4798 32.3327 9.21534V30.1389C32.3327 33.1231 32.2986 33.3333 29.2374 33.3333H8.76125C5.7001 33.3333 5.66602 33.1231 5.66602 30.1389V3.19444C5.66602 0.210208 5.7001 0 8.76125 0Z" fill="#E9EAEE"/>
<rect y="17.666" width="19" height="11" rx="2" fill="#FFB321"/>
<path d="M6.10954 21.774C6.45021 21.774 6.75354 21.8533 7.01954 22.012C7.28554 22.1707 7.49321 22.3993 7.64254 22.698C7.79654 22.9967 7.87354 23.3467 7.87354 23.748C7.87354 24.1493 7.79654 24.4993 7.64254 24.798C7.49321 25.092 7.28554 25.3183 7.01954 25.477C6.75354 25.6357 6.45021 25.715 6.10954 25.715C5.73621 25.715 5.41887 25.6217 5.15754 25.435C4.90087 25.2437 4.72354 24.994 4.62554 24.686V27.486H3.98854V21.823H4.62554V22.803C4.72354 22.495 4.90087 22.2477 5.15754 22.061C5.41887 21.8697 5.73621 21.774 6.10954 21.774ZM5.92754 22.341C5.68021 22.341 5.45621 22.3993 5.25554 22.516C5.05487 22.628 4.89854 22.7913 4.78654 23.006C4.67454 23.2207 4.61854 23.468 4.61854 23.748C4.61854 24.028 4.67454 24.2753 4.78654 24.49C4.89854 24.7 5.05487 24.8633 5.25554 24.98C5.45621 25.0967 5.68021 25.155 5.92754 25.155C6.32421 25.155 6.63921 25.0313 6.87254 24.784C7.11054 24.532 7.22954 24.1867 7.22954 23.748C7.22954 23.3093 7.11054 22.9663 6.87254 22.719C6.63921 22.467 6.32421 22.341 5.92754 22.341ZM10.8263 21.774C11.167 21.774 11.4703 21.8533 11.7363 22.012C12.0023 22.1707 12.21 22.3993 12.3593 22.698C12.5133 22.9967 12.5903 23.3467 12.5903 23.748C12.5903 24.1493 12.5133 24.4993 12.3593 24.798C12.21 25.092 12.0023 25.3183 11.7363 25.477C11.4703 25.6357 11.167 25.715 10.8263 25.715C10.453 25.715 10.1357 25.6217 9.87434 25.435C9.61767 25.2437 9.44034 24.994 9.34234 24.686V27.486H8.70534V21.823H9.34234V22.803C9.44034 22.495 9.61767 22.2477 9.87434 22.061C10.1357 21.8697 10.453 21.774 10.8263 21.774ZM10.6443 22.341C10.397 22.341 10.173 22.3993 9.97234 22.516C9.77167 22.628 9.61534 22.7913 9.50334 23.006C9.39134 23.2207 9.33534 23.468 9.33534 23.748C9.33534 24.028 9.39134 24.2753 9.50334 24.49C9.61534 24.7 9.77167 24.8633 9.97234 24.98C10.173 25.0967 10.397 25.155 10.6443 25.155C11.041 25.155 11.356 25.0313 11.5893 24.784C11.8273 24.532 11.9463 24.1867 11.9463 23.748C11.9463 23.3093 11.8273 22.9663 11.5893 22.719C11.356 22.467 11.041 22.341 10.6443 22.341ZM15.2561 25.106V25.666H14.7801C14.3881 25.666 14.0941 25.5727 13.8981 25.386C13.7068 25.1993 13.6111 24.8867 13.6111 24.448V22.376H13.0371V21.823H13.6111V20.864H14.2551V21.823H15.2491V22.376H14.2551V24.462C14.2551 24.7093 14.2995 24.8797 14.3881 24.973C14.4815 25.0617 14.6401 25.106 14.8641 25.106H15.2561Z" fill="white"/>
</svg>
