<svg width="46" height="46" viewBox="0 0 46 46" fill="none" xmlns="http://www.w3.org/2000/svg">
<circle cx="23" cy="23" r="23" fill="#F0F5FF"/>
<path d="M32.2 34.9996H15.4C14.7635 34.9996 14.153 34.7468 13.7029 34.2967C13.2529 33.8466 13 33.2361 13 32.5996" stroke="#0050C8" stroke-linecap="round" stroke-linejoin="round"/>
<path d="M16.2 11C15.3513 11 14.5374 11.3371 13.9373 11.9373C13.3371 12.5374 13 13.3513 13 14.2V32.6C13 31.9635 13.2529 31.353 13.7029 30.9029C14.153 30.4529 14.7635 30.2 15.4 30.2H31.4C31.6122 30.2 31.8157 30.1157 31.9657 29.9657C32.1157 29.8157 32.2 29.6122 32.2 29.4V11.8C32.2 11.5878 32.1157 11.3843 31.9657 11.2343C31.8157 11.0843 31.6122 11 31.4 11H16.2Z" stroke="#0050C8" stroke-linecap="round" stroke-linejoin="round"/>
<path d="M30.5996 34.9992V30.1992" stroke="#0050C8" stroke-linecap="round" stroke-linejoin="round"/>
</svg>
