<svg width="16" height="20" viewBox="0 0 16 20" fill="none" xmlns="http://www.w3.org/2000/svg">
<path d="M8.30331 2.13126C8.50552 2.33347 8.50552 2.53568 8.30331 2.7379L6.59715 4.40614C6.52132 4.48197 6.42653 4.51988 6.31279 4.51988C6.19904 4.51988 6.10426 4.48197 6.02843 4.40614C5.82622 4.20393 5.82622 4.00171 6.02843 3.7995L7.39336 2.43457L6.02843 1.03173C5.82622 0.829519 5.8199 0.627307 6.00947 0.425096C6.19904 0.222885 6.39494 0.222885 6.59715 0.425096L8.30331 2.13126ZM8.60662 17.6004L9.97155 19.0032C10.1738 19.2055 10.1738 19.4077 9.97155 19.6099C9.89573 19.6857 9.80094 19.7236 9.68719 19.7236C9.57345 19.7236 9.47866 19.6857 9.40284 19.6099L7.69668 17.9037C7.49446 17.7015 7.49446 17.4993 7.69668 17.2971L9.40284 15.6288C9.60505 15.4266 9.80094 15.4266 9.99051 15.6288C10.1801 15.8311 10.1738 16.0333 9.97155 16.2355L8.60662 17.6004ZM7.99999 2.01751C8.12637 2.01751 8.22748 2.05542 8.30331 2.13125C8.37914 2.20708 8.41705 2.30187 8.41705 2.41561C8.41705 2.52935 8.37914 2.63046 8.30331 2.71893C8.22748 2.80739 8.12637 2.85163 7.99999 2.85163C6.02843 2.85163 4.34123 3.55305 2.93838 4.95589C1.53554 6.35873 0.834123 8.04593 0.834123 10.0175C0.834123 11.711 1.35229 13.2086 2.38862 14.5104C3.42495 15.8121 4.7646 16.6399 6.40757 16.9938C6.68562 17.0696 6.79936 17.2466 6.74881 17.5246C6.69825 17.7268 6.55923 17.8279 6.33175 17.8279C6.30647 17.8279 6.28119 17.8279 6.25592 17.8279C4.41074 17.4235 2.90679 16.4946 1.74407 15.0412C0.581357 13.5878 0 11.9132 0 10.0175C0 7.81845 0.783569 5.93535 2.35071 4.36822C3.91784 2.80108 5.80094 2.01751 7.99999 2.01751L7.99999 2.01751ZM9.74406 2.20708C11.5892 2.6115 13.0932 3.54041 14.2559 4.9938C15.4186 6.4472 16 8.12176 16 10.0175C16 12.2165 15.2164 14.0996 13.6493 15.6668C12.0821 17.2339 10.199 18.0175 7.99999 18.0175C7.87361 18.0175 7.7725 17.9796 7.69667 17.9037C7.62084 17.8279 7.58293 17.7331 7.58293 17.6194C7.58293 17.5056 7.62084 17.4045 7.69667 17.3161C7.7725 17.2276 7.87361 17.1834 7.99999 17.1834C9.28909 17.1834 10.4897 16.8674 11.6019 16.2355C12.714 15.6036 13.5861 14.7315 14.218 13.6194C14.8499 12.5072 15.1659 11.3066 15.1659 10.0175C15.1659 8.32397 14.6477 6.82634 13.6114 5.52461C12.575 4.22287 11.2354 3.39507 9.59241 3.0412C9.31437 2.96537 9.20694 2.78843 9.27013 2.51039C9.33332 2.23235 9.4913 2.13125 9.74407 2.20708L9.74406 2.20708Z" fill="#393A4A"/>
</svg>
