<svg xmlns="http://www.w3.org/2000/svg" width="20" height="21" viewBox="0 0 20 21" fill="none">
<path d="M10.2945 5.87507L4.87778 0.458303C4.71528 0.2958 4.45109 0.2958 4.28859 0.458303L0.121877 4.62505C-0.0406257 4.78756 -0.0406257 5.05174 0.121877 5.21424L5.53865 10.631C5.62033 10.7118 5.72697 10.7527 5.83365 10.7527C5.94034 10.7527 6.04698 10.7119 6.12784 10.6302C6.29034 10.4677 6.29034 10.2035 6.12784 10.041L1.00603 4.9192L4.58359 1.34164L9.70536 6.46423C9.86786 6.62673 10.132 6.62673 10.2946 6.46423C10.4571 6.30172 10.4571 6.03758 10.2945 5.87507Z" fill="#565D66"/>
<path d="M19.8781 15.4586L14.4613 10.0418C14.2988 9.8793 14.0346 9.8793 13.8721 10.0418C13.7096 10.2043 13.7096 10.4685 13.8721 10.631L18.9939 15.7528L15.4163 19.3303L10.2946 14.2085C10.1321 14.046 9.86788 14.046 9.70537 14.2085C9.54287 14.3711 9.54287 14.6352 9.70537 14.7977L15.1221 20.2145C15.2038 20.2953 15.3105 20.3362 15.4172 20.3362C15.5238 20.3362 15.6305 20.2954 15.7113 20.2145L19.8781 16.0478C20.0406 15.8853 20.0406 15.6211 19.8781 15.4586Z" fill="#565D66"/>
<path d="M6.12784 1.7083C5.96533 1.5458 5.70115 1.5458 5.53865 1.7083L4.28863 2.95832C4.12612 3.12083 4.12612 3.38501 4.28863 3.54752C4.37031 3.62834 4.47695 3.6692 4.58363 3.6692C4.69031 3.6692 4.79695 3.62838 4.87782 3.54752L6.12784 2.29749C6.29034 2.13499 6.29034 1.87081 6.12784 1.7083Z" fill="#565D66"/>
<path d="M7.3779 2.9583C7.2154 2.7958 6.95121 2.7958 6.78871 2.9583L5.95537 3.79164C5.79287 3.95414 5.79287 4.21832 5.95537 4.38083C6.03705 4.46165 6.1437 4.50251 6.25038 4.50251C6.35706 4.50251 6.4637 4.46169 6.54456 4.38083L7.3779 3.54749C7.5404 3.38499 7.5404 3.12081 7.3779 2.9583Z" fill="#565D66"/>
<path d="M8.62784 4.2083C8.46533 4.0458 8.20115 4.0458 8.03865 4.2083L6.78863 5.45832C6.62612 5.62083 6.62612 5.88501 6.78863 6.04751C6.87031 6.12833 6.97695 6.16919 7.08363 6.16919C7.19031 6.16919 7.29695 6.12837 7.37782 6.04751L8.62784 4.79749C8.79034 4.63499 8.79034 4.37081 8.62784 4.2083Z" fill="#565D66"/>
<path d="M16.1281 11.7083C15.9656 11.5458 15.7014 11.5458 15.5389 11.7083L14.2889 12.9583C14.1264 13.1208 14.1264 13.385 14.2889 13.5475C14.3705 13.6283 14.4772 13.6692 14.5839 13.6692C14.6906 13.6692 14.7972 13.6284 14.8781 13.5475L16.1281 12.2975C16.2906 12.135 16.2906 11.8708 16.1281 11.7083Z" fill="#565D66"/>
<path d="M17.3781 12.9583C17.2156 12.7958 16.9515 12.7958 16.789 12.9583L15.9556 13.7916C15.7931 13.9541 15.7931 14.2183 15.9556 14.3808C16.0373 14.4617 16.1439 14.5025 16.2506 14.5025C16.3573 14.5025 16.4639 14.4617 16.5448 14.3808L17.3781 13.5475C17.5406 13.385 17.5406 13.1208 17.3781 12.9583Z" fill="#565D66"/>
<path d="M18.6281 14.2083C18.4656 14.0458 18.2014 14.0458 18.0389 14.2083L16.7889 15.4583C16.6264 15.6208 16.6264 15.885 16.7889 16.0475C16.8705 16.1283 16.9772 16.1692 17.0839 16.1692C17.1906 16.1692 17.2972 16.1284 17.3781 16.0475L18.6281 14.7975C18.7906 14.635 18.7906 14.3708 18.6281 14.2083Z" fill="#565D66"/>
<path d="M19.3906 2.75584L17.5805 0.945811C16.7689 0.133297 15.4472 0.133297 14.6347 0.945811L1.7886 13.7919C1.7386 13.8419 1.70192 13.9035 1.68277 13.9719L0.0160662 19.8053C-0.0256142 19.9511 0.0152458 20.1078 0.121888 20.2145C0.20189 20.2937 0.307712 20.3362 0.416893 20.3362C0.455214 20.3362 0.493574 20.3312 0.531895 20.3204L6.36532 18.6537C6.43364 18.6345 6.49532 18.5978 6.54532 18.5478L19.3906 5.70171C20.2031 4.89006 20.2031 3.56836 19.3906 2.75584ZM18.8014 5.11256L6.03203 17.8819L1.02358 19.3128L2.45443 14.3044L15.2238 1.535C15.7113 1.04749 16.5038 1.04749 16.9914 1.535L18.8014 3.34503C19.2889 3.83254 19.2889 4.62505 18.8014 5.11256Z" fill="#565D66"/>
<path d="M19.3905 2.75584L17.5804 0.945811C16.7688 0.133297 15.4471 0.133297 14.6346 0.945811L1.78936 13.7919C1.62685 13.9544 1.62685 14.2185 1.78936 14.381C1.95186 14.5435 2.21604 14.5435 2.37855 14.381L15.2237 1.535C15.7112 1.04749 16.5037 1.04749 16.9913 1.535L18.8013 3.34503C19.2888 3.83254 19.2888 4.62505 18.8013 5.11256L5.95525 17.9586C5.79275 18.1211 5.79275 18.3853 5.95525 18.5478C6.03693 18.6286 6.14357 18.6695 6.25025 18.6695C6.35694 18.6695 6.46358 18.6287 6.54526 18.5478L19.3905 5.70171C20.203 4.89006 20.203 3.56836 19.3905 2.75584Z" fill="#565D66"/>
<path d="M6.54453 17.9586L2.37782 13.7918C2.21531 13.6293 1.95113 13.6293 1.78863 13.7918C1.62612 13.9543 1.62612 14.2185 1.78863 14.381L5.95538 18.5477C6.03706 18.6286 6.1437 18.6694 6.25038 18.6694C6.35706 18.6694 6.46371 18.6286 6.54457 18.5477C6.70707 18.3852 6.70707 18.1211 6.54453 17.9586Z" fill="#565D66"/>
<path d="M17.3779 2.9583C17.2154 2.7958 16.9512 2.7958 16.7887 2.9583L5.12188 14.6252C4.95937 14.7877 4.95937 15.0519 5.12188 15.2144C5.20356 15.2952 5.3102 15.3361 5.41688 15.3361C5.52356 15.3361 5.63021 15.2952 5.71107 15.2144L17.3779 3.54749C17.5404 3.38499 17.5404 3.12081 17.3779 2.9583Z" fill="#565D66"/>
</svg>