<svg width="193" height="200" viewBox="0 0 193 200" fill="none" xmlns="http://www.w3.org/2000/svg">
<g clip-path="url(#clip0_17805_103684)">
<path opacity="0.7" d="M11.6893 62.2917C11.6893 62.2917 -0.896693 94.793 16.7896 127.533C34.4759 160.273 70.913 177.558 100.075 192.343C129.236 207.127 159.518 199.927 173.908 175.711C188.298 151.495 168.56 134.207 168.536 99.6727C168.513 65.1386 173.705 55.9954 155.008 26.8192C136.312 -2.35694 90.4197 -8.81434 55.7272 12.8249C21.0348 34.4642 11.6893 62.2917 11.6893 62.2917Z" fill="white"/>
<path d="M9.77461 49.6842C21.8361 26.2799 44.2118 8.57367 72.1059 6.08025C91.2805 4.40745 110.391 9.93592 125.711 21.5877C133.323 27.4401 140.089 34.9281 144.579 43.4588C149.737 53.2571 151.238 64.5525 156.544 74.3031C163.142 86.4274 175.53 91.4264 183.849 101.903C190.7 110.531 193.05 122.091 192.264 133.08C190.828 153.14 179.076 172.185 161.79 182.465C147.177 191.155 129.56 193.553 112.577 192.764C86.3933 191.547 60.3232 182.914 39.7002 166.736C19.0773 150.557 4.25201 126.643 0.741447 100.668C-1.64483 83.0143 1.82415 65.1114 9.77461 49.6842Z" fill="#92E3A9"/>
<path opacity="0.7" d="M9.77461 49.6842C21.8361 26.2799 44.2118 8.57367 72.1059 6.08025C91.2805 4.40745 110.391 9.93592 125.711 21.5877C133.323 27.4401 140.089 34.9281 144.579 43.4588C149.737 53.2571 151.238 64.5525 156.544 74.3031C163.142 86.4274 175.53 91.4264 183.849 101.903C190.7 110.531 193.05 122.091 192.264 133.08C190.828 153.14 179.076 172.185 161.79 182.465C147.177 191.155 129.56 193.553 112.577 192.764C86.3933 191.547 60.3232 182.914 39.7002 166.736C19.0773 150.557 4.25201 126.643 0.741447 100.668C-1.64483 83.0143 1.82415 65.1114 9.77461 49.6842Z" fill="white"/>
<path d="M1.82031 58.2423C2.35306 60.3518 2.09066 56.4686 3.13513 51.7169C4.17959 46.9652 5.96765 48.8925 5.96765 48.8925" stroke="#263238" stroke-linecap="round" stroke-linejoin="round"/>
<path d="M1.49219 53.3875L4.76613 52.0449" stroke="#263238" stroke-linecap="round" stroke-linejoin="round"/>
<path d="M7.47227 50.4355C7.47227 50.4355 5.51513 54.4822 8.46554 56.2023" stroke="#263238" stroke-linecap="round" stroke-linejoin="round"/>
<path d="M10.25 49.2969C10.25 49.2969 13.4802 51.0915 11.4566 54.9761" stroke="#263238" stroke-linecap="round" stroke-linejoin="round"/>
<path d="M8.03516 51.8066L10.3494 53.4966" stroke="#263238" stroke-linecap="round" stroke-linejoin="round"/>
<path d="M9.84997 51.0625L8.03906 53.9453" stroke="#263238" stroke-linecap="round" stroke-linejoin="round"/>
<path d="M20.2523 94.295C20.6926 91.6107 18.8736 89.0777 16.1894 88.6374C13.5051 88.197 10.9721 90.016 10.5317 92.7003C10.0914 95.3845 11.9104 97.9175 14.5946 98.3579C17.2789 98.7983 19.8119 96.9792 20.2523 94.295Z" stroke="#263238" stroke-linecap="round" stroke-linejoin="round"/>
<path d="M23.1793 100.777C26.136 100.17 28.0412 97.2815 27.4345 94.3248C26.8279 91.3681 23.9392 89.4629 20.9825 90.0696C18.0258 90.6762 16.1207 93.5649 16.7273 96.5216C17.3339 99.4783 20.2226 101.383 23.1793 100.777Z" stroke="#263238" stroke-linecap="round" stroke-linejoin="round"/>
<path d="M19.8798 91.4688L17.6094 92.279" stroke="#263238" stroke-linecap="round" stroke-linejoin="round"/>
<path d="M20.1974 92.4043L16.9375 93.5829" stroke="#263238" stroke-linecap="round" stroke-linejoin="round"/>
<path d="M20.318 93.5312L16.6797 94.9303" stroke="#263238" stroke-linecap="round" stroke-linejoin="round"/>
<path d="M20.0588 95.0723L16.7422 96.5878" stroke="#263238" stroke-linecap="round" stroke-linejoin="round"/>
<path d="M19.4723 96.2578L16.9492 97.3045" stroke="#263238" stroke-linecap="round" stroke-linejoin="round"/>
<path d="M17.7728 85.9971C17.6299 85.569 16.0335 85.2654 15.9556 86.4473C15.8778 87.6291 17.6407 86.6475 18.1349 86.018C18.1349 86.018 17.2284 87.2354 17.6128 87.4758" stroke="#263238" stroke-linecap="round" stroke-linejoin="round"/>
<path d="M26.6135 87.4688L25.1953 90.4159C25.1953 90.4159 25.9044 88.9423 26.663 89.0772C27.5975 89.2433 26.9766 90.7721 25.8469 90.2096" stroke="#263238" stroke-linecap="round" stroke-linejoin="round"/>
<path d="M180.895 135.605L183.122 137.713" stroke="#263238" stroke-linecap="round" stroke-linejoin="round"/>
<path d="M183.123 135.055L181.258 137.841" stroke="#263238" stroke-linecap="round" stroke-linejoin="round"/>
<path d="M185.312 135.854L187.54 135.025" stroke="#263238" stroke-linecap="round" stroke-linejoin="round"/>
<path d="M188.609 132.703L189.964 133.902" stroke="#263238" stroke-linecap="round" stroke-linejoin="round"/>
<path d="M191.001 131.262L189.285 137.15" stroke="#263238" stroke-linecap="round" stroke-linejoin="round"/>
<path d="M87.1016 102.536L93.0923 98.4141L101.027 98.9703L101.522 109.027L95.6983 113.191L88.512 112.667L87.1016 102.536Z" stroke="#263238" stroke-linecap="round" stroke-linejoin="round"/>
<path d="M88.5117 112.666L94.3115 108.49L101.522 109.026" stroke="#263238" stroke-linecap="round" stroke-linejoin="round"/>
<path d="M94.3133 108.491L93.0938 98.4141" stroke="#263238" stroke-linecap="round" stroke-linejoin="round"/>
<path d="M87.1016 102.536L95.0183 103.453L101.027 98.9707" stroke="#263238" stroke-linecap="round" stroke-linejoin="round"/>
<path d="M95.0195 103.453L95.6997 113.191" stroke="#263238" stroke-linecap="round" stroke-linejoin="round"/>
<path d="M157.029 68.7422L154.375 76.9908L162.636 75.8761L157.029 68.7422Z" stroke="#263238" stroke-linecap="round" stroke-linejoin="round"/>
<path d="M157.031 68.7422L158.508 76.3853" stroke="#263238" stroke-linecap="round" stroke-linejoin="round"/>
<path d="M158.27 75.1613L159.235 75.0078L159.461 76.3054" stroke="#263238" stroke-linecap="round" stroke-linejoin="round"/>
<path d="M52.9805 144.225L57.1088 146.252" stroke="#263238" stroke-linecap="round" stroke-linejoin="round"/>
<path d="M55.7749 142.676L54.5938 146.987" stroke="#263238" stroke-linecap="round" stroke-linejoin="round"/>
<path d="M56.3477 140.575C56.4154 140.505 56.4985 140.452 56.5904 140.42C56.6822 140.388 56.7803 140.377 56.8768 140.39C56.9734 140.402 57.0657 140.437 57.1465 140.491C57.2273 140.545 57.2944 140.617 57.3425 140.702C57.7552 141.354 56.9442 142.716 56.9442 142.716L58.6001 142.086" stroke="#263238" stroke-linecap="round" stroke-linejoin="round"/>
<path d="M85.3796 2.2207C89.3195 4.43469 84.8047 9.85251 84.8047 13.0129C84.8047 16.1733 89.3195 15.7218 91.577 16.6248C92.4799 16.6248 94.2859 16.6248 94.237 18.9211" stroke="#263238" stroke-linecap="round" stroke-linejoin="round"/>
<path d="M80.9883 5.08203C81.6733 8.81798 85.9607 7.49237 88.5835 8.34568C93.0909 9.81224 90.5919 14.473 89.2439 17.2883C88.4379 18.9718 87.6352 21.3245 89.076 22.9214" stroke="#263238" stroke-linecap="round" stroke-linejoin="round"/>
<path d="M81.5625 6.53121L86.2622 2.62695" stroke="#263238" stroke-linecap="round" stroke-linejoin="round"/>
<path d="M83.4062 7.69563L86.9455 4.75977" stroke="#263238" stroke-linecap="round" stroke-linejoin="round"/>
<path d="M85.4883 10.6649L88.4779 8.31641" stroke="#263238" stroke-linecap="round" stroke-linejoin="round"/>
<path d="M84.8711 14.1806L90.7137 9.97852" stroke="#263238" stroke-linecap="round" stroke-linejoin="round"/>
<path d="M87.1094 15.8199L91.1816 12.8301" stroke="#263238" stroke-linecap="round" stroke-linejoin="round"/>
<path d="M88.8398 22.1714L93.93 18.0273" stroke="#263238" stroke-linecap="round" stroke-linejoin="round"/>
<path d="M88.9648 18.91L92.2858 16.5762" stroke="#263238" stroke-linecap="round" stroke-linejoin="round"/>
<path d="M22.533 146.478C27.382 144.539 29.7407 139.036 27.8015 134.187C25.8622 129.338 20.3592 126.979 15.5103 128.918C10.6613 130.858 8.30257 136.361 10.2419 141.209C12.1811 146.058 17.6841 148.417 22.533 146.478Z" stroke="#263238" stroke-linecap="round" stroke-linejoin="round"/>
<path d="M21.4011 128.549C24.6965 124.681 27.4988 122.489 28.5797 123.202C30.2207 124.284 27.2722 131.651 21.994 139.658C16.7158 147.664 11.1066 153.277 9.46564 152.196C8.38469 151.483 9.29511 148.043 11.551 143.49" stroke="#263238" stroke-linecap="round" stroke-linejoin="round"/>
<path d="M9.76818 139.636C5.17491 138.315 2.23958 136.771 2.42211 135.537C2.70976 133.593 10.6332 133.155 20.1196 134.558C29.606 135.961 37.0632 138.675 36.7755 140.619C36.5766 141.964 32.7254 142.589 27.2311 142.382" stroke="#263238" stroke-linecap="round" stroke-linejoin="round"/>
<path d="M10.973 132.789C7.5063 126.532 5.77296 121.65 6.94885 120.889C8.49175 119.89 14.4599 126.364 20.2788 135.349C26.0978 144.335 29.5642 152.429 28.0211 153.428C27.0005 154.089 24.044 151.481 20.4751 147.038" stroke="#263238" stroke-linecap="round" stroke-linejoin="round"/>
<path d="M29.9111 127.295C29.7419 127.552 29.5003 127.752 29.217 127.872C28.9337 127.991 28.6213 128.024 28.3194 127.966C28.0175 127.908 27.7396 127.761 27.5208 127.545C27.3021 127.329 27.1523 127.053 27.0904 126.752C27.0285 126.451 27.0573 126.138 27.1732 125.853C27.2891 125.569 27.4868 125.325 27.7414 125.152C27.9959 124.98 28.2959 124.887 28.6033 124.885C28.9108 124.883 29.2119 124.972 29.4686 125.141C29.6391 125.254 29.7858 125.398 29.9003 125.568C30.0147 125.737 30.0948 125.926 30.1359 126.126C30.177 126.326 30.1783 126.533 30.1397 126.733C30.1011 126.934 30.0234 127.124 29.9111 127.295Z" fill="#263238"/>
<path d="M24.7665 151.084C24.5973 151.341 24.3558 151.541 24.0725 151.661C23.7892 151.78 23.4768 151.813 23.1749 151.755C22.873 151.697 22.5951 151.551 22.3763 151.334C22.1575 151.118 22.0077 150.842 21.9459 150.541C21.884 150.24 21.9128 149.927 22.0287 149.643C22.1446 149.358 22.3423 149.114 22.5968 148.941C22.8514 148.769 23.1513 148.676 23.4588 148.674C23.7662 148.672 24.0674 148.761 24.3241 148.93C24.6683 149.157 24.9083 149.512 24.9913 149.916C25.0743 150.319 24.9934 150.74 24.7665 151.084Z" fill="#263238"/>
<path d="M16.4697 134.951C16.3005 135.208 16.0589 135.409 15.7756 135.528C15.4923 135.647 15.1799 135.68 14.878 135.622C14.5761 135.564 14.2982 135.418 14.0794 135.202C13.8607 134.986 13.7109 134.71 13.649 134.408C13.5871 134.107 13.6159 133.795 13.7318 133.51C13.8477 133.225 14.0454 132.981 14.2999 132.808C14.5545 132.636 14.8545 132.543 15.1619 132.541C15.4694 132.539 15.7705 132.628 16.0272 132.798C16.1977 132.91 16.3444 133.055 16.4588 133.224C16.5733 133.393 16.6534 133.583 16.6945 133.783C16.7356 133.983 16.7369 134.189 16.6983 134.389C16.6597 134.59 16.582 134.781 16.4697 134.951Z" fill="#263238"/>
<path d="M115.484 67.3682H120.803L123.463 62.7613L120.803 58.1543H115.484L112.824 62.7613L115.484 67.3682Z" stroke="#263238" stroke-linecap="round" stroke-linejoin="round"/>
<path d="M114.714 77.4741L112.054 72.8672H106.734" stroke="#263238" stroke-linecap="round" stroke-linejoin="round"/>
<path d="M107.449 62.7608H112.768L115.428 58.1538L112.768 53.5469H107.449L104.789 58.1538L107.449 62.7608Z" stroke="#263238" stroke-linecap="round" stroke-linejoin="round"/>
<path d="M115.484 58.1534H120.803L123.463 53.5464L120.803 48.9395H115.484L112.824 53.5464L115.484 58.1534Z" stroke="#263238" stroke-linecap="round" stroke-linejoin="round"/>
<path d="M115.425 58.8683C115.82 58.8683 116.14 58.5485 116.14 58.1539C116.14 57.7593 115.82 57.4395 115.425 57.4395C115.031 57.4395 114.711 57.7593 114.711 58.1539C114.711 58.5485 115.031 58.8683 115.425 58.8683Z" fill="#263238"/>
<path d="M104.32 49.1984C104.714 49.1984 105.034 48.8785 105.034 48.484C105.034 48.0894 104.714 47.7695 104.32 47.7695C103.925 47.7695 103.605 48.0894 103.605 48.484C103.605 48.8785 103.925 49.1984 104.32 49.1984Z" fill="#263238"/>
<path d="M114 77.4742C114 77.3329 114.042 77.1948 114.12 77.0773C114.199 76.9598 114.31 76.8682 114.441 76.8141C114.572 76.7601 114.715 76.7459 114.854 76.7735C114.992 76.8011 115.12 76.8691 115.22 76.969C115.32 77.0689 115.388 77.1962 115.415 77.3348C115.443 77.4734 115.429 77.617 115.374 77.7476C115.32 77.8781 115.229 77.9897 115.111 78.0682C114.994 78.1467 114.856 78.1886 114.714 78.1886C114.621 78.1886 114.528 78.1701 114.441 78.1342C114.354 78.0983 114.276 78.0457 114.209 77.9794C114.143 77.913 114.09 77.8343 114.054 77.7476C114.018 77.6609 114 77.568 114 77.4742Z" fill="#263238"/>
<path d="M106.734 73.5812C107.129 73.5812 107.448 73.2613 107.448 72.8668C107.448 72.4722 107.129 72.1523 106.734 72.1523C106.339 72.1523 106.02 72.4722 106.02 72.8668C106.02 73.2613 106.339 73.5812 106.734 73.5812Z" fill="#263238"/>
<path d="M128.609 53.6676C128.609 53.5263 128.651 53.3881 128.73 53.2706C128.808 53.1532 128.92 53.0616 129.05 53.0075C129.181 52.9534 129.325 52.9393 129.463 52.9669C129.602 52.9944 129.729 53.0625 129.829 53.1624C129.929 53.2623 129.997 53.3896 130.025 53.5282C130.052 53.6668 130.038 53.8105 129.984 53.941C129.93 54.0716 129.838 54.1832 129.721 54.2617C129.603 54.3402 129.465 54.3821 129.324 54.3821C129.23 54.3821 129.137 54.3636 129.05 54.3277C128.964 54.2918 128.885 54.2391 128.819 54.1728C128.752 54.1065 128.7 54.0277 128.664 53.941C128.628 53.8543 128.609 53.7614 128.609 53.6676Z" fill="#263238"/>
<path d="M112 73.5812C112.394 73.5812 112.714 73.2613 112.714 72.8668C112.714 72.4722 112.394 72.1523 112 72.1523C111.605 72.1523 111.285 72.4722 111.285 72.8668C111.285 73.2613 111.605 73.5812 112 73.5812Z" fill="#263238"/>
<path d="M122.75 53.6675C122.75 53.5262 122.792 53.3881 122.87 53.2706C122.949 53.1531 123.061 53.0616 123.191 53.0075C123.322 52.9534 123.465 52.9393 123.604 52.9669C123.742 52.9944 123.87 53.0625 123.97 53.1624C124.07 53.2623 124.138 53.3896 124.165 53.5282C124.193 53.6668 124.179 53.8104 124.124 53.941C124.07 54.0715 123.979 54.1831 123.861 54.2616C123.744 54.3401 123.606 54.382 123.464 54.382C123.371 54.382 123.278 54.3635 123.191 54.3276C123.104 54.2917 123.026 54.2391 122.959 54.1727C122.893 54.1064 122.84 54.0276 122.804 53.9409C122.768 53.8542 122.75 53.7613 122.75 53.6675Z" fill="#263238"/>
<path d="M114.711 67.3667C114.711 67.2254 114.753 67.0873 114.831 66.9698C114.91 66.8523 115.021 66.7608 115.152 66.7067C115.283 66.6526 115.426 66.6385 115.565 66.6661C115.703 66.6937 115.831 66.7617 115.931 66.8616C116.03 66.9615 116.099 67.0888 116.126 67.2274C116.154 67.366 116.139 67.5096 116.085 67.6402C116.031 67.7707 115.94 67.8823 115.822 67.9608C115.705 68.0393 115.567 68.0812 115.425 68.0812C115.332 68.0812 115.239 68.0627 115.152 68.0268C115.065 67.9909 114.987 67.9383 114.92 67.8719C114.854 67.8056 114.801 67.7268 114.765 67.6402C114.729 67.5535 114.711 67.4606 114.711 67.3667Z" fill="#263238"/>
<path d="M123.465 53.668H129.324" stroke="#263238" stroke-linecap="round" stroke-linejoin="round"/>
<path d="M115.429 67.3672L112 72.8665" stroke="#263238" stroke-linecap="round" stroke-linejoin="round"/>
<path d="M107.449 53.5473L104.32 48.4844" stroke="#263238" stroke-linecap="round" stroke-linejoin="round"/>
<path d="M145.172 35.3906C145.784 33.3164 147.062 31.5014 148.808 30.2258C150.555 28.9501 152.673 28.2848 154.835 28.3325C156.997 28.3801 159.083 29.1382 160.772 30.4895C162.46 31.8409 163.657 33.7104 164.177 35.8096" stroke="#263238" stroke-linecap="round" stroke-linejoin="round"/>
<path d="M153.503 47.9585C151.1 47.6841 148.883 46.5354 147.273 44.7312C145.663 42.9271 144.774 40.5937 144.773 38.1758" stroke="#263238" stroke-linecap="round" stroke-linejoin="round"/>
<path d="M164.463 38.1758C164.463 40.7869 163.425 43.2911 161.579 45.1375C159.733 46.9838 157.228 48.0211 154.617 48.0211" stroke="#263238" stroke-linecap="round" stroke-linejoin="round"/>
<path d="M165.022 31.9351C168.102 31.54 170.166 31.7545 170.484 32.6717C171.121 34.5065 164.534 38.4587 155.772 41.4993C147.009 44.5399 139.39 45.5175 138.753 43.6827C138.413 42.7019 140.137 41.116 143.154 39.3878" stroke="#263238" stroke-linecap="round" stroke-linejoin="round"/>
<path d="M111.998 25.1855L112.942 27.0971L115.052 27.4037L113.525 28.8918L113.885 30.993L111.998 30.0011L110.111 30.993L110.472 28.8918L108.945 27.4037L111.055 27.0971L111.998 25.1855Z" stroke="#263238" stroke-linecap="round" stroke-linejoin="round"/>
<path d="M45.3432 20.0972C45.3415 21.795 44.6666 23.4228 43.4665 24.6238C42.2663 25.8248 40.639 26.5008 38.9412 26.5037C38.7335 26.5037 38.5303 26.4947 38.3317 26.4766C37.0961 26.3593 35.9213 25.8856 34.9499 25.1131C33.9786 24.3406 33.2525 23.3026 32.86 22.1253C32.4675 20.9479 32.4255 19.6818 32.739 18.481C33.0526 17.2802 33.7082 16.1963 34.6261 15.3611C35.5441 14.5259 36.6849 13.9753 37.9099 13.7763C39.1349 13.5772 40.3914 13.7384 41.5266 14.24C42.6617 14.7417 43.6267 15.5622 44.3043 16.6021C44.9819 17.6419 45.3428 18.8561 45.3432 20.0972V20.0972Z" stroke="#263238" stroke-linecap="round" stroke-linejoin="round"/>
<path d="M44.3168 21.256C44.3168 21.4519 44.2587 21.6434 44.1499 21.8063C44.0411 21.9691 43.8864 22.0961 43.7054 22.1711C43.5244 22.246 43.3253 22.2657 43.1331 22.2274C42.941 22.1892 42.7645 22.0949 42.626 21.9564C42.4875 21.8179 42.3932 21.6414 42.355 21.4493C42.3168 21.2571 42.3364 21.058 42.4113 20.877C42.4863 20.696 42.6133 20.5413 42.7761 20.4325C42.939 20.3237 43.1305 20.2656 43.3264 20.2656C43.5891 20.2656 43.841 20.37 44.0267 20.5557C44.2124 20.7414 44.3168 20.9933 44.3168 21.256V21.256Z" stroke="#263238" stroke-linecap="round" stroke-linejoin="round"/>
<path d="M35.4035 23.772C35.4037 24.0073 35.352 24.2397 35.2521 24.4528C35.1522 24.6658 35.0066 24.8542 34.8256 25.0045C33.9902 24.3074 33.3481 23.4073 32.9609 22.3905C33.2094 22.2379 33.4956 22.1581 33.7872 22.1602C33.9991 22.1599 34.2091 22.2013 34.4051 22.2821C34.601 22.3629 34.7791 22.4816 34.9292 22.6313C35.0793 22.7809 35.1985 22.9587 35.2798 23.1544C35.3612 23.3502 35.4032 23.56 35.4035 23.772Z" stroke="#263238" stroke-linecap="round" stroke-linejoin="round"/>
<path d="M43.325 24.7601C42.141 25.8814 40.5717 26.5052 38.941 26.5029C38.7334 26.5029 38.5302 26.4938 38.3315 26.4758C38.2952 26.3021 38.277 26.125 38.2774 25.9476C38.2759 25.3465 38.478 24.7626 38.8507 24.2909C39.2233 23.8193 39.7446 23.4877 40.3298 23.35C40.9149 23.2124 41.5294 23.2768 42.0732 23.5329C42.6171 23.7889 43.0582 24.2215 43.325 24.7601Z" stroke="#263238" stroke-linecap="round" stroke-linejoin="round"/>
<path d="M37.3875 17.5582C38.2012 17.5582 38.8609 16.8985 38.8609 16.0847C38.8609 15.271 38.2012 14.6113 37.3875 14.6113C36.5737 14.6113 35.9141 15.271 35.9141 16.0847C35.9141 16.8985 36.5737 17.5582 37.3875 17.5582Z" stroke="#263238" stroke-linecap="round" stroke-linejoin="round"/>
<path d="M38.7502 20.2657C38.7502 20.4006 38.7102 20.5324 38.6353 20.6445C38.5604 20.7566 38.4539 20.844 38.3294 20.8956C38.2048 20.9472 38.0677 20.9607 37.9355 20.9344C37.8032 20.9081 37.6817 20.8431 37.5864 20.7478C37.4911 20.6524 37.4261 20.531 37.3998 20.3987C37.3735 20.2665 37.387 20.1294 37.4386 20.0048C37.4902 19.8803 37.5776 19.7738 37.6897 19.6989C37.8018 19.624 37.9336 19.584 38.0685 19.584C38.2493 19.584 38.4227 19.6558 38.5505 19.7837C38.6784 19.9115 38.7502 20.0849 38.7502 20.2657V20.2657Z" stroke="#263238" stroke-linecap="round" stroke-linejoin="round"/>
<path d="M44.1399 16.3592C43.9608 16.418 43.7732 16.447 43.5846 16.445C43.3381 16.4451 43.0941 16.3965 42.8664 16.3021C42.6388 16.2077 42.432 16.0693 42.2579 15.8948C42.0838 15.7203 41.9459 15.5132 41.8521 15.2853C41.7582 15.0574 41.7102 14.8133 41.7109 14.5668C41.7108 14.4883 41.7153 14.41 41.7245 14.332C42.6866 14.795 43.5171 15.492 44.1399 16.3592V16.3592Z" stroke="#263238" stroke-linecap="round" stroke-linejoin="round"/>
<path d="M191.342 94.4419L192.032 92.889L190.914 92.2715C190.954 91.9983 190.961 91.7214 190.936 91.4465L192.084 90.888L191.475 89.3015L190.248 89.6555C190.083 89.4345 189.892 89.2339 189.679 89.0578L190.096 87.8501L188.543 87.1593L187.926 88.2779C187.653 88.2379 187.376 88.2303 187.101 88.2553L186.542 87.1074L184.956 87.7169L185.31 88.9434C185.089 89.1089 184.888 89.3 184.712 89.5125L183.504 89.0954L182.814 90.6482L183.932 91.2658C183.892 91.539 183.885 91.8159 183.91 92.0908L182.762 92.6493L183.371 94.2357L184.598 93.8818C184.763 94.1027 184.954 94.3033 185.167 94.4795L184.75 95.6873L186.303 96.378L186.92 95.2595C187.193 95.2994 187.47 95.307 187.745 95.282L188.304 96.4299L189.89 95.8204L189.536 94.5939C189.757 94.4284 189.958 94.2374 190.134 94.0248L191.342 94.4419ZM186.62 93.5733C186.263 93.4145 185.961 93.1535 185.753 92.8233C185.544 92.493 185.438 92.1083 185.448 91.7179C185.459 91.3274 185.584 90.9487 185.809 90.6296C186.035 90.3106 186.35 90.0655 186.714 89.9254C187.079 89.7853 187.477 89.7564 187.858 89.8425C188.239 89.9285 188.586 90.1256 188.855 90.4089C189.124 90.6921 189.303 91.0487 189.369 91.4337C189.435 91.8186 189.386 92.2145 189.227 92.5714C189.014 93.05 188.62 93.4244 188.131 93.6123C187.642 93.8002 187.099 93.7861 186.62 93.5733V93.5733Z" stroke="#263238" stroke-linecap="round" stroke-linejoin="round"/>
<path d="M183.09 102.41L184.028 100.301L182.509 99.4621C182.563 99.0911 182.573 98.7151 182.539 98.3417L184.098 97.5832L183.27 95.4288L181.604 95.9094C181.38 95.6093 181.12 95.3369 180.832 95.0977L181.398 93.4574L179.289 92.5194L178.45 94.0386C178.079 93.9844 177.703 93.9742 177.33 94.0082L176.572 92.4492L174.417 93.2772L174.898 94.9429C174.598 95.1676 174.325 95.4271 174.086 95.7158L172.446 95.1493L171.508 97.2582L173.027 98.097C172.973 98.4679 172.962 98.844 172.996 99.2174L171.438 99.9759L172.265 102.13L173.931 101.65C174.156 101.95 174.415 102.222 174.704 102.461L174.138 104.102L176.246 105.04L177.085 103.52C177.456 103.575 177.832 103.585 178.206 103.551L178.964 105.11L181.119 104.282L180.638 102.616C180.938 102.391 181.21 102.132 181.45 101.843L183.09 102.41ZM176.678 101.23C176.193 101.014 175.783 100.66 175.5 100.211C175.217 99.7629 175.073 99.2404 175.087 98.7101C175.1 98.1798 175.271 97.6655 175.577 97.2322C175.883 96.7989 176.311 96.466 176.806 96.2758C177.301 96.0855 177.841 96.0463 178.359 96.1632C178.876 96.2801 179.347 96.5478 179.713 96.9324C180.078 97.3171 180.321 97.8014 180.411 98.3242C180.501 98.847 180.434 99.3847 180.218 99.8694C180.075 100.191 179.87 100.482 179.615 100.724C179.359 100.967 179.059 101.157 178.73 101.283C178.401 101.409 178.051 101.47 177.699 101.461C177.346 101.451 177 101.373 176.678 101.23V101.23Z" stroke="#263238" stroke-linecap="round" stroke-linejoin="round"/>
<path d="M89.4988 82.3927C87.757 85.7036 85.3795 88.6385 82.5022 91.0296C79.625 93.4207 76.3045 95.221 72.7308 96.3275C69.1571 97.4341 65.4003 97.8251 61.6753 97.4783C57.9503 97.1314 54.3303 96.0535 51.0223 94.3062C50.3953 93.9757 49.7842 93.6225 49.1935 93.2527C48.6042 92.8876 48.0343 92.5029 47.4838 92.0986C46.814 91.6133 46.1724 91.1014 45.5591 90.5629C45.556 90.5613 45.5546 90.5567 45.5516 90.555C45.5126 90.5239 45.4758 90.4902 45.4414 90.4542C45.4374 90.4498 45.4329 90.4461 45.4279 90.4431C41.4263 86.9022 38.5015 82.3072 36.9875 77.1829C35.4736 72.0586 35.4316 66.6118 36.8663 61.4648C38.3011 56.3179 41.1548 51.6782 45.1013 48.0761C49.0478 44.474 53.928 42.0546 59.1842 41.0945C64.4405 40.1343 69.8608 40.6721 74.826 42.6463C79.7911 44.6206 84.1007 47.9517 87.2625 52.259C90.4243 56.5664 92.3107 61.6763 92.7062 67.0048C93.1016 72.3334 91.9902 77.6658 89.4989 82.3927H89.4988Z" fill="#92E3A9"/>
<g opacity="0.6">
<path opacity="0.6" d="M89.5016 82.3942C88.8828 83.5664 88.1844 84.6948 87.4112 85.7714L86.8604 85.3379L85.9123 84.8368L84.9145 84.3131L85.0815 83.1076L85.0273 82.0195C84.9687 80.9314 85.7542 81.8209 86.4044 81.4913C86.8915 81.1465 87.2868 80.6877 87.5557 80.1549C87.5557 80.1549 88.0162 78.7056 87.8582 78.1232C87.6151 77.4521 87.3285 76.7976 87.0003 76.1638L85.384 78.4076L84.0521 78.3038L82.7248 77.6085L82.5577 75.8251L81.8986 75.482L81.6232 74.4571L78.0609 73.4594L77.6546 72.746C77.2483 72.0327 75.6094 71.667 75.6094 71.667L76.0112 70.7369L76.6433 69.6985C77.2799 68.6601 77.939 70.3848 77.939 70.3848L78.693 70.7776L80.0926 69.6037L80.4628 67.9197L82.7428 68.0506C82.698 67.8227 82.7328 67.5863 82.8412 67.3809C82.9497 67.1754 83.1253 67.0134 83.3388 66.9219C84.0973 66.6239 83.7632 64.976 83.4742 64.3665C83.1763 63.7615 82.1378 64.2491 82.1378 64.2491C82.1378 64.2491 80.9775 62.4838 80.8195 61.7795C80.6615 61.0797 83.0318 61.3099 84.0476 60.6192C85.0589 59.9329 84.7158 58.5017 84.2192 58.4701C83.7271 58.434 85.1899 55.2645 88.0117 56.1359C88.7972 56.3797 89.2939 56.2939 89.6009 56.023C91.7154 60.0999 92.8108 64.6283 92.7935 69.2209C92.7762 73.8134 91.6467 78.3334 89.5016 82.3942Z" fill="white"/>
<path opacity="0.6" d="M69.7578 70.1819L68.7916 71.3964C68.7916 71.3964 68.3807 70.4167 67.7938 70.9494C67.2069 71.4822 66.9089 71.753 66.9089 71.753L66.2542 73.5861L65.0804 74.3446L64.3625 73.9698L63.6853 73.6087L62.9494 73.2204L62.2451 74.5568L61.6717 75.6403C61.9511 76.1723 62.2987 76.6655 62.7056 77.1077L63.9517 79.3064L65.4371 80.0875C66.0698 80.1109 66.6994 80.1864 67.3198 80.3132L68.3627 80.8595L67.9925 83.1214C67.9925 83.1214 67.2069 84.3991 66.6832 84.047L66.1549 83.6993L65.2971 86.6701L65.261 88.3045C65.261 88.3045 64.7508 88.5167 64.2361 88.6882C63.7169 88.8598 64.0465 88.7695 62.9674 89.1036C61.8884 89.4377 61.9742 89.4242 61.0983 89.6725C60.3516 89.9338 59.6332 90.2696 58.9537 90.6748L59.0305 92.2459L56.9672 92.5484L55.8114 91.9344L56.0958 90.9411L56.2313 89.388L56.0733 88.2277L55.5766 87.2029L56.9672 85.9432L56.6602 85.1531L55.8701 83.582L54.1996 84.4849L53.3418 84.9454L51.4004 84.0741L51.1882 82.8957L50.529 80.7692L49.924 79.4509L48.8495 77.9971L48.5786 76.7465L49.1836 75.5997L49.5042 74.9947L48.5154 73.6628L48.2445 72.7147L46.5785 71.2022C46.5785 71.2022 47.0616 71.1706 46.9533 70.4979C46.8449 69.8252 47.9059 68.692 47.9059 68.692C48.5064 69.008 50.3078 70.2632 50.3078 70.2632L51.8835 70.4799C51.9016 70.4799 52.1995 70.4708 52.5065 69.8839C52.8652 69.3357 53.2864 68.8312 53.7617 68.3805C53.7617 68.3805 53.0348 65.8567 53.554 65.518C54.0687 65.1704 54.6014 63.527 54.6014 63.527L55.0168 62.7369C55.0168 62.7369 54.0371 62.308 53.852 61.7888C53.6669 61.2651 51.2514 61.9604 51.2514 61.9604L49.5854 63.1162L48.3122 64.1275L47.7434 65.2065C47.7434 65.2065 46.5831 63.8114 46.5785 64.5925C46.49 65.3933 46.3144 66.182 46.0548 66.9447C46.0548 66.9447 46.2941 67.0712 45.9781 67.6761C45.6575 68.2766 45.3189 68.2495 44.6056 68.3353C43.7052 68.3435 42.8055 68.2816 41.9147 68.1502C41.9147 68.1502 41.4632 69.8207 41.7748 70.1096L42.0818 70.3896C42.0818 70.3896 41.5987 71.6041 41.1201 71.3512C40.637 71.0939 39.9553 70.7372 39.9553 70.7372L38.3254 71.3964L36.5375 73.3919L36.1357 73.3107C35.0288 65.8868 36.8974 58.3261 41.3352 52.2726C45.7731 46.2192 52.4212 42.1624 59.8341 40.9844C59.938 41.4449 60.0508 41.8603 60.0508 41.8603L59.6129 44.0906L59.035 45.1922L58.5384 46.1358L57.8386 47.4632L59.5813 49.1156L59.1975 51.0705L58.2269 51.68L57.9469 53.1474L59.6129 56.4026L60.0825 57.6803C59.8037 58.292 59.6664 58.9586 59.6806 59.6307C59.6806 59.6307 59.8838 60.8497 60.7732 61.3328C61.6627 61.8114 62.832 62.3847 62.832 62.3847L62.7372 64.1997L62.3354 64.6693L63.0036 66.6152C65.0398 67.4143 64.8456 68.0825 65.0398 67.4143L65.2384 66.7506L66.6245 66.2495L68.3898 68.3579C68.5952 68.3549 68.7981 68.4039 68.9796 68.5001C69.1611 68.5964 69.3154 68.7369 69.4282 68.9087C69.9248 69.5317 70.7285 68.9674 69.7578 70.1819Z" fill="white"/>
<path opacity="0.6" d="M45.8304 85.9078C45.8801 86.5489 45.0674 87.3526 45.0674 87.3526L45.7311 87.7002L45.9342 89.4881L45.4331 90.4452C41.882 87.3081 39.1735 83.3314 37.5547 78.8782L37.9159 76.9639L39.5096 76.7382C39.5096 76.7382 40.9363 75.79 41.5684 76.0429C42.2005 76.3047 42.7784 77.8353 42.7784 77.8353C42.7784 77.8353 43.2434 79.9302 43.1712 79.8895L43.1621 79.885L43.135 79.9031L43.1712 79.8895L43.8213 80.2327L44.0064 81.0589L43.0989 82.7745L41.6451 82.779C41.6451 82.779 41.3562 82.6255 41.3291 83.3795C41.3525 83.6412 41.432 83.8947 41.5621 84.123C41.6922 84.3512 41.8699 84.5488 42.0831 84.7023L43.6542 84.3005L44.0741 82.6752L45.6182 82.3727C45.6182 82.3727 45.397 83.3705 45.7582 83.5601L46.1239 83.7542L46.3406 84.9461C46.1773 85.0462 46.0439 85.1882 45.9542 85.3573C45.8644 85.5264 45.8217 85.7165 45.8304 85.9078Z" fill="white"/>
<path opacity="0.6" d="M53.2957 88.4607C53.1562 88.076 53.0973 87.7377 52.1353 87.2307C51.1766 86.7253 51.225 86.9064 50.8528 87.3248C50.6899 87.5414 50.4669 87.7053 50.2116 87.7962C49.9562 87.887 49.6798 87.9008 49.4167 87.8357C48.7872 87.6944 49.115 88.4078 49.115 88.4078L49.266 90.3348L47.4844 92.0988C48.0344 92.5016 48.6043 92.8862 49.1941 93.2529L49.5747 92.0883L52.5368 92.9692C51.9083 92.7818 52.2792 91.9233 52.2792 91.9233L51.6461 91.5895C51.6461 91.5895 53.4368 88.8424 53.2957 88.4607Z" fill="white"/>
<path opacity="0.6" d="M71.949 78.4368L70.9781 77.457L69.8697 77.8083L69.3962 78.7065L69.0547 79.3544L69.5131 80.236L70.4232 81.3312L70.941 80.3488C70.941 80.3488 72.3722 80.3583 73.1207 79.522C73.8692 78.6857 71.949 78.4368 71.949 78.4368Z" fill="white"/>
<path opacity="0.6" d="M69.1016 74.0169L70.9075 74.969L70.9775 74.5443C71.0732 74.2035 71.2401 73.8868 71.4672 73.6153L70.0833 72.1543L69.1016 74.0169Z" fill="white"/>
<path opacity="0.6" d="M68.4824 95.0354L67.9616 94.2747L67.3589 93.957L65.5105 93.9589L64.4596 95.9525C64.4596 95.9525 63.4545 95.8155 62.1303 95.7008C60.8077 95.5831 61.1346 96.1288 61.1346 96.1288L60.7891 97.3819C64.1274 97.7955 67.5126 97.6139 70.7875 96.8456C70.406 96.5822 70.0111 96.3389 69.6042 96.1168L68.4824 95.0354Z" fill="white"/>
</g>
<path d="M89.4988 82.3927C87.757 85.7036 85.3795 88.6385 82.5022 91.0296C79.625 93.4207 76.3045 95.221 72.7308 96.3275C69.1571 97.4341 65.4003 97.8251 61.6753 97.4783C57.9503 97.1314 54.3303 96.0535 51.0223 94.3062C50.3953 93.9757 49.7842 93.6225 49.1935 93.2527C48.6042 92.8876 48.0343 92.5029 47.4838 92.0986C46.814 91.6133 46.1724 91.1014 45.5591 90.5629C45.556 90.5613 45.5546 90.5567 45.5516 90.555C45.5126 90.5239 45.4758 90.4902 45.4414 90.4542C45.4374 90.4498 45.4329 90.4461 45.4279 90.4431C41.4263 86.9022 38.5015 82.3072 36.9875 77.1829C35.4736 72.0586 35.4316 66.6118 36.8663 61.4648C38.3011 56.3179 41.1548 51.6782 45.1013 48.0761C49.0478 44.474 53.928 42.0546 59.1842 41.0945C64.4405 40.1343 69.8608 40.6721 74.8259 42.6463C79.7911 44.6206 84.1007 47.9517 87.2625 52.259C90.4243 56.5664 92.3107 61.6763 92.7062 67.0048C93.1016 72.3334 91.9902 77.6658 89.4989 82.3927H89.4988Z" stroke="#263238" stroke-linecap="round" stroke-linejoin="round"/>
<path d="M70.7874 96.8456C67.5125 97.6139 64.1273 97.7954 60.7891 97.3818L61.1345 96.1288C61.1345 96.1288 60.8077 95.5831 62.1302 95.7008C63.4544 95.8154 64.4596 95.9524 64.4596 95.9524L65.5105 93.9589L67.3589 93.957L67.9615 94.2747L68.4823 95.0354L69.6041 96.1168C70.011 96.3389 70.406 96.5821 70.7874 96.8456V96.8456Z" stroke="#263238" stroke-linecap="round" stroke-linejoin="round"/>
<path d="M89.5989 56.0243C89.293 56.2948 88.7971 56.3796 88.0113 56.1364C85.189 55.2632 83.7234 58.4345 84.2182 58.4697C84.7149 58.5019 85.058 59.9314 84.0458 60.6191C83.0291 61.3083 80.6608 61.0789 80.8166 61.7794C80.9754 62.4816 82.1333 64.2471 82.1333 64.2471C82.1333 64.2471 83.1718 63.76 83.4697 64.3682C83.7629 64.9777 84.0969 66.624 83.3364 66.9232C83.123 67.015 82.9475 67.1771 82.8392 67.3826C82.7309 67.5881 82.6963 67.8245 82.7411 68.0524L80.4585 67.9187L80.0914 69.6038L78.6903 70.7787L77.9385 70.3824C77.9385 70.3824 77.2783 68.6614 76.6419 69.6989L76.0102 70.735L75.6055 71.6651C75.6055 71.6651 77.2444 72.0312 77.6538 72.7448L78.0601 73.4569L81.62 74.4583L81.8981 75.4801L82.5555 75.8267L82.722 77.6063L84.0506 78.3028L85.3796 78.4083L86.9993 76.1622C87.327 76.7965 87.6131 77.4515 87.8559 78.1229C88.0157 78.705 87.5552 80.1541 87.5552 80.1541C87.2859 80.6876 86.8891 81.1464 86.4 81.4898C85.7543 81.8222 84.9668 80.9327 85.0234 82.0204L85.077 83.1066L84.9126 84.3112L85.911 84.8375L86.8575 85.3365L87.4069 85.7699" stroke="#263238" stroke-linecap="round" stroke-linejoin="round"/>
<path d="M36.1367 73.3122L36.5352 73.39L38.3265 71.3939L39.9535 70.7347L41.1192 71.3492C41.6001 71.6027 42.0833 70.3911 42.0833 70.3911L41.7738 70.1074C41.4614 69.8221 41.9159 68.148 41.9159 68.148C42.8061 68.2813 43.7053 68.3444 44.6053 68.3366C45.3197 68.2503 45.6592 68.2779 45.9769 67.675C46.2945 67.0721 46.0541 66.9456 46.0541 66.9456C46.3148 66.183 46.4907 65.394 46.5787 64.5929C46.5816 63.8127 47.7414 65.2058 47.7414 65.2058L48.3109 64.1253L49.587 63.114L51.2493 61.9601C51.2493 61.9601 53.6651 61.2655 53.8524 61.7882C54.0367 62.3093 55.0173 62.7367 55.0173 62.7367L54.6019 63.525C54.6019 63.525 54.0695 65.1695 53.5526 65.5155C53.0343 65.8568 53.762 68.3795 53.762 68.3795C53.2866 68.8308 52.8652 69.3356 52.5061 69.8839C52.1884 70.4865 51.8838 70.4815 51.8838 70.4815L50.3063 70.2645C50.3063 70.2645 48.5064 69.0084 47.9038 68.6908C47.9038 68.6908 46.8467 69.8254 46.9524 70.4956C47.0595 71.1705 46.5801 71.2017 46.5801 71.2017L48.2453 72.7134L48.5157 73.6611L49.506 74.9922L49.1851 75.6009L48.5801 76.7483L48.8472 77.9976L49.9257 79.449L50.53 80.7671L51.1891 82.8959L51.4009 84.0732L53.3413 84.9446L54.1992 84.4828L55.8684 83.5814L56.658 85.1528L56.9688 85.9429L55.5783 87.2012L56.0718 88.2276L56.2331 89.3899L56.095 90.943L55.809 91.9357L56.9686 92.547L59.0281 92.248L58.9559 90.6736C59.6351 90.2695 60.3527 89.9337 61.0982 89.6713C61.9762 89.4223 61.8866 89.4374 62.968 89.1051C64.0479 88.7681 63.7151 88.861 64.2344 88.6875C64.7491 88.5154 65.2599 88.3063 65.2599 88.3063L65.2981 86.6696L66.153 83.6976L66.6813 84.046C67.2077 84.3974 67.9923 83.123 67.9923 83.123L68.3611 80.8593L67.3202 80.3106C66.6998 80.186 66.0704 80.1118 65.4381 80.0886L63.9497 79.304L62.7072 77.1088C62.3003 76.6664 61.9524 76.1732 61.6722 75.6414L62.2434 74.5579L62.9477 73.2217L63.6842 73.61L64.3629 73.9678L65.0812 74.3464L66.2534 73.5836L66.9084 71.7506C66.9084 71.7506 67.2067 71.48 67.7936 70.9493C68.3823 70.4156 68.7922 71.394 68.7922 71.394L69.7586 70.1805C70.7281 68.9685 69.9265 69.53 69.4304 68.9068C69.3172 68.7351 69.1624 68.5948 68.9804 68.4988C68.7985 68.4029 68.5952 68.3545 68.3896 68.3581L66.6234 66.2486L65.2382 66.7513L65.0408 67.4135C64.8449 68.0803 65.0408 67.4135 63.005 66.6125L62.3342 64.6682L62.7367 64.1997L62.8342 62.3842C62.8342 62.3842 61.6614 61.8127 60.7745 61.3334C59.886 60.8495 59.6814 59.6293 59.6814 59.6293C59.6664 58.9583 59.8033 58.2925 60.0818 57.6818L59.6138 56.4005L57.9461 53.145L58.2285 51.6797L59.1958 51.0695L59.5796 49.117L57.8375 47.4636L58.537 46.1366L59.0344 45.193L59.6152 44.0913L60.0495 41.8583C60.0495 41.8583 59.9398 41.4465 59.8343 40.9824" stroke="#263238" stroke-linecap="round" stroke-linejoin="round"/>
<path d="M45.5579 90.5624C45.5236 90.5212 45.484 90.4846 45.4402 90.4537C45.4362 90.4494 45.4317 90.4457 45.4266 90.4427L45.9304 89.487L45.7287 87.7004L45.065 87.3507C45.065 87.3507 45.8732 86.5477 45.8255 85.908C45.8164 85.7164 45.8588 85.5259 45.9482 85.3562C46.0377 85.1865 46.1709 85.0439 46.3342 84.9432L46.1181 83.7519L45.7559 83.561C45.3937 83.3701 45.6137 82.3698 45.6137 82.3698L44.0697 82.6723L43.6485 84.2976L42.0792 84.6995C41.8662 84.5464 41.6886 84.3493 41.5583 84.1216C41.4281 83.8939 41.3482 83.6409 41.3242 83.3797C41.3528 82.6246 41.6419 82.777 41.6419 82.777L43.0948 82.7729L43.9997 81.0563L43.8189 80.2336L43.1645 79.8887" stroke="#263238" stroke-linecap="round" stroke-linejoin="round"/>
<path d="M43.1604 79.885L43.1665 79.8882C43.2395 79.9267 42.7751 77.8343 42.7751 77.8343C42.7751 77.8343 42.1985 76.3014 41.5654 76.0415C40.9338 75.7863 39.5067 76.7376 39.5067 76.7376L37.9135 76.9633L37.5508 78.8762" stroke="#263238" stroke-linecap="round" stroke-linejoin="round"/>
<path d="M49.5746 92.0882L49.1941 93.2528C48.6048 92.8877 48.0349 92.503 47.4844 92.0987L49.266 90.3347L49.115 88.4077C49.115 88.4077 48.7871 87.6943 49.4166 87.8355C49.6797 87.9006 49.9562 87.887 50.2116 87.7961C50.4669 87.7053 50.69 87.5414 50.8529 87.3247C51.2251 86.9064 51.1766 86.7253 52.1354 87.2307C53.097 87.7377 53.1561 88.076 53.2957 88.4607C53.4368 88.8423 51.6464 91.5895 51.6464 91.5895L52.2795 91.9232C52.2795 91.9232 51.9086 92.7818 52.5371 92.9692L49.5746 92.0882Z" stroke="#263238" stroke-linecap="round" stroke-linejoin="round"/>
<path d="M69.8698 77.8083L70.9781 77.457L71.9491 78.4368C71.9491 78.4368 73.8693 78.6858 73.1208 79.5221C72.3722 80.3585 70.9411 80.3489 70.9411 80.3489L70.4232 81.3313L69.5132 80.2361L69.0547 79.3545L69.3962 78.7066L69.8698 77.8083Z" stroke="#263238" stroke-linecap="round" stroke-linejoin="round"/>
<path d="M71.4633 73.6153C71.2362 73.8868 71.0692 74.2035 70.9736 74.5443L70.9036 74.9689L69.0977 74.0169L70.0795 72.1543L71.4633 73.6153Z" stroke="#263238" stroke-linecap="round" stroke-linejoin="round"/>
<path d="M169.44 180.112C167.02 182.126 148.379 194.92 121.777 192.859C120.346 180.75 114.887 131.001 121.095 123.204C121.095 123.204 136.157 116.02 150.031 119.036C163.905 122.052 169.305 124.942 170.294 127.443C171.043 129.335 169.973 164.559 169.44 180.112Z" fill="#263238"/>
<path d="M149.568 124.35C141.576 131.271 131.282 129.809 131.508 124.495C131.544 123.664 132.434 122.635 132.434 122.635C132.434 122.635 132.316 122.458 132.122 122.156C131.824 121.705 131.341 120.969 130.781 120.111C129.792 118.58 128.555 116.657 127.693 115.257C126.971 114.065 144.98 102.986 144.98 109.356C144.98 118.332 149.387 120.02 149.387 120.02C151.035 120.689 152.579 121.745 149.568 124.35Z" fill="white" stroke="#263238" stroke-linecap="round" stroke-linejoin="round"/>
<path d="M154.618 138.059C154.618 138.059 153.007 143.583 153.773 145.167" stroke="white" stroke-linecap="round" stroke-linejoin="round"/>
<path d="M152.74 122.01C152.74 127.343 136.833 132.565 132.172 127.217" stroke="white" stroke-linecap="round" stroke-linejoin="round"/>
<path d="M139.653 115.857C139.653 115.857 138.582 119.874 133.626 123.015C133.389 122.608 133.006 122.306 132.556 122.169C132.413 122.143 132.267 122.139 132.122 122.156C131.824 121.704 131.341 120.968 130.781 120.11C133.314 118.273 139.653 115.857 139.653 115.857Z" fill="#263238"/>
<path d="M141.884 110.919C141.884 110.919 141.832 114.884 140.993 115.689C134.693 121.731 128.536 122.208 127.52 120.614C120.681 109.89 122.297 107.062 121.6 105.236C120.368 102.01 118.856 96.7475 119.523 93.5589C121.012 86.4368 134.432 80.9341 141.485 88.0757C144.87 91.5042 145.941 98.9411 145.225 105.135" fill="white"/>
<path d="M141.884 110.919C141.884 110.919 141.832 114.884 140.993 115.689C134.693 121.731 128.536 122.208 127.52 120.614C120.681 109.89 122.297 107.062 121.6 105.236C120.368 102.01 118.856 96.7475 119.523 93.5589C121.012 86.4368 134.432 80.9341 141.485 88.0757C144.87 91.5042 145.941 98.9411 145.225 105.135" stroke="#263238" stroke-linecap="round" stroke-linejoin="round"/>
<path d="M122.452 101.919C122.452 101.919 120.572 101.075 120.164 102.082" stroke="#263238" stroke-linecap="round" stroke-linejoin="round"/>
<path d="M127.02 101.963C127.02 101.963 130.934 100.324 132.694 102.313" stroke="#263238" stroke-linecap="round" stroke-linejoin="round"/>
<path d="M131.347 104.758C131.411 105.346 131.124 105.859 130.706 105.904C130.288 105.95 129.897 105.511 129.833 104.923C129.769 104.336 130.056 103.822 130.474 103.777C130.892 103.731 131.283 104.17 131.347 104.758Z" fill="#263238"/>
<path d="M123.683 104.936C123.747 105.523 123.46 106.037 123.042 106.082C122.624 106.128 122.233 105.688 122.169 105.101C122.105 104.513 122.392 104 122.81 103.954C123.228 103.909 123.619 104.348 123.683 104.936Z" fill="#263238"/>
<path d="M123.879 103.395C124.425 104.275 124.126 105.777 123.407 107.838C122.687 109.899 123.321 110.648 126.091 110.856" fill="white"/>
<path d="M123.879 103.395C124.425 104.275 124.126 105.777 123.407 107.838C122.687 109.899 123.321 110.648 126.091 110.856" stroke="#263238" stroke-linecap="round" stroke-linejoin="round"/>
<path d="M126.09 114.427C126.09 114.427 129.711 114.096 131.356 113.189" stroke="#263238" stroke-linecap="round" stroke-linejoin="round"/>
<path d="M148.967 93.9562C148.966 91.273 146.321 85.7698 141.676 85.1523C139.011 82.3614 135.206 81.3355 130.592 82.3961C119.931 84.847 116.686 95.3728 116.217 97.1177C116.172 97.28 116.152 97.3698 116.152 97.3698L119.006 96.6451L117.775 99.0459L119.272 100.033L118.929 100.413L120.661 102.083L120.119 99.0328C120.454 97.0604 122.719 94.3094 122.719 94.3094C121.893 95.3821 121.378 96.6616 121.232 98.0075C122.126 95.6627 127.553 93.5093 127.553 93.5093C125.795 94.9341 124.859 97.7265 124.859 97.7265C126.532 95.6677 130.447 94.3341 132.951 93.6263C133.797 95.665 135.137 97.7912 137.052 98.9695C138.855 100.079 138.792 102.37 138.792 102.37C140.733 103.722 142.161 105.689 142.847 107.952L145.032 110.941C145.032 110.941 148.971 106.086 148.967 93.9562Z" fill="#263238"/>
<path d="M139.777 103.121C139.046 101.552 141.701 97.3103 143.58 97.8358C144.637 98.1313 146.018 100.059 146.287 102.084C146.556 104.11 145.125 107.935 143.598 108.787C142.63 109.327 141.832 107.855 141.832 107.855" fill="white"/>
<path d="M139.777 103.121C139.046 101.552 141.701 97.3103 143.58 97.8358C144.637 98.1313 146.018 100.059 146.287 102.084C146.556 104.11 145.125 107.935 143.598 108.787C142.63 109.327 141.832 107.855 141.832 107.855" stroke="#263238" stroke-linecap="round" stroke-linejoin="round"/>
<path d="M24.5938 179.751L75.6052 167.826L182.011 180.112L154.619 198.85L24.5938 179.751Z" fill="white"/>
<path d="M24.5938 179.751L75.6052 167.826L182.011 180.112" fill="white"/>
<path d="M24.5938 179.751L75.6052 167.826L182.011 180.112" stroke="#263238" stroke-linecap="round" stroke-linejoin="round"/>
<path d="M68.7422 182.144L89.3926 173.018L115.501 174.365L103.891 184.292L68.7422 182.144Z" fill="white" stroke="#263238" stroke-linecap="round" stroke-linejoin="round"/>
<path d="M122.104 122.758C115.48 125.467 114.051 131.555 102.799 155.623C102.799 155.623 97.798 156.649 95.1188 162.722C92.4396 168.795 96.9049 173.591 102.085 173.425C102.085 173.425 104.155 175.225 108.389 175.046C112.622 174.867 131.432 146.128 131.432 146.128L122.104 122.758Z" fill="#263238"/>
<path d="M104.766 157.031C107.729 159.671 109.429 163.539 108.526 167.826" stroke="white" stroke-linecap="round" stroke-linejoin="round"/>
<path d="M107.625 158.301C107.625 158.301 111.267 159.095 111.827 163.758" stroke="white" stroke-linecap="round" stroke-linejoin="round"/>
<path d="M118.281 144.667C116.562 140.425 115.968 135.811 116.557 131.271" stroke="white" stroke-linecap="round" stroke-linejoin="round"/>
<path d="M117.757 138.527C117.481 140.424 119.44 150.517 119.427 161.134" stroke="white" stroke-linecap="round" stroke-linejoin="round"/>
<path d="M167.268 124.746C175.554 128.91 176.539 141.72 168.72 157.032C163.2 167.842 155.577 183.802 150.755 184.874C145.933 185.945 141.232 182.941 141.232 182.941C141.232 182.941 137.166 182.75 135.94 179.863C132.582 171.946 141.12 161.987 144.479 164.373C144.479 164.373 155.205 141.046 157.16 139.576" fill="#263238"/>
<path d="M135.169 175.059C134.058 169.612 142.631 163.182 144.476 164.372C144.476 164.372 150.847 164.73 151.8 169.136" stroke="white" stroke-linecap="round" stroke-linejoin="round"/>
<path d="M158.508 176.223C162.238 169.644 168.719 157.031 168.719 157.031" stroke="white" stroke-linecap="round" stroke-linejoin="round"/>
<path d="M144.477 164.373C144.477 164.373 148.942 161.703 152.276 164.229" stroke="white" stroke-linecap="round" stroke-linejoin="round"/>
<path d="M145.984 161.136C145.984 161.136 148.451 155.728 150.962 150.738C153.473 145.747 159.185 138.416 161.566 138.059" stroke="white" stroke-linecap="round" stroke-linejoin="round"/>
<path d="M98.9286 170.868C98.3924 170.841 97.8684 170.698 97.3935 170.448C89.7048 166.443 83.7497 159.824 80.1559 155.075C78.758 153.254 77.4719 151.349 76.3047 149.372L78.1467 141.48C78.1467 141.48 79.8804 145.977 86.8469 150.433C93.8087 154.89 102.089 156.334 104.766 160.799C107.137 164.754 102.96 171.071 98.9286 170.868Z" fill="white"/>
<path opacity="0.4" d="M98.9286 170.868C98.84 170.296 98.6855 169.737 98.4681 169.202C96.8563 165.165 87.1042 157.142 87.1042 157.142C84.7836 157.07 82.2327 156.104 80.1559 155.075C78.758 153.254 77.4719 151.349 76.3047 149.372L78.1467 141.48C78.1467 141.48 79.8804 145.977 86.8469 150.433C93.8087 154.89 102.089 156.334 104.766 160.799C107.137 164.754 102.96 171.071 98.9286 170.868Z" fill="#92E3A9"/>
<path d="M98.9286 170.868C98.3924 170.841 97.8684 170.698 97.3935 170.448C89.7048 166.443 83.7497 159.824 80.1559 155.075C78.758 153.254 77.4719 151.349 76.3047 149.372L78.1467 141.48C78.1467 141.48 79.8804 145.977 86.8468 150.433C93.8087 154.89 102.089 156.334 104.766 160.799C107.137 164.754 102.96 171.071 98.9286 170.868Z" stroke="#263238" stroke-linecap="round" stroke-linejoin="round"/>
<path d="M81.5496 148.909C81.5496 148.909 80.597 153.121 78.0867 152.177C76.7258 151.665 74.1217 147.619 73.6289 145.58L81.5496 148.909Z" fill="white" stroke="#263238" stroke-linecap="round" stroke-linejoin="round"/>
<path d="M70.4844 123.002L72.5338 121.941C72.5338 121.941 78.3274 121.993 81.921 124.914C85.1853 127.567 86.8388 131.727 86.8388 131.727C86.8388 131.727 99.5236 124.723 112.474 128.742L117.76 158.185L93.4746 159.788L78.3167 145.374L70.4844 123.002Z" fill="white" stroke="#263238" stroke-linecap="round" stroke-linejoin="round"/>
<path d="M119.427 159.363C119.427 159.363 116.578 159.277 112.767 159.404C107.007 159.584 99.0469 160.235 95.4079 162.352L95.2363 162.293L91.9044 161.133C91.9044 161.133 91.8818 161.101 91.8367 161.034C91.2226 160.122 86.2699 153.02 79.2041 150.126L69.1992 122.17C69.1992 122.17 79.5879 122.635 85.2585 132.003L88.1074 133.033C88.1074 133.033 105.061 128.012 114.551 129.818L119.427 159.363Z" fill="#92E3A9"/>
<path opacity="0.3" d="M91.8367 161.034C91.2226 160.122 86.2699 153.02 79.2041 150.126L69.1992 122.17C69.1992 122.17 79.5879 122.635 85.2585 132.003L91.8367 161.034Z" fill="black" fill-opacity="0.7"/>
<path opacity="0.3" d="M112.768 159.404C107.007 159.585 99.0474 160.235 95.4085 162.353L95.2369 162.294L88.582 134.049C88.582 134.049 94.0259 132.826 95.7019 133.444C95.7019 133.444 106.768 141.613 112.768 159.404Z" fill="black" fill-opacity="0.7"/>
<path d="M119.427 159.363C119.427 159.363 116.578 159.277 112.767 159.404C107.007 159.584 99.0469 160.235 95.4079 162.352L95.2363 162.293L91.9044 161.133C91.9044 161.133 91.8818 161.101 91.8367 161.034C91.2226 160.122 86.2699 153.02 79.2041 150.126L69.1992 122.17C69.1992 122.17 79.5879 122.635 85.2585 132.003L88.1074 133.033C88.1074 133.033 105.061 128.012 114.551 129.818L119.427 159.363Z" stroke="#263238" stroke-linecap="round" stroke-linejoin="round"/>
<path d="M88.1055 133.033L94.64 160.136" stroke="#263238" stroke-linecap="round" stroke-linejoin="round"/>
<path d="M91.9058 161.135L85.5586 134.049" stroke="#263238" stroke-linecap="round" stroke-linejoin="round"/>
<path d="M75.7773 149.415C74.3263 149.011 71.4062 140.3 72.7446 136.552C72.7446 136.552 74.3338 133.793 74.9805 133.604C75.9939 133.308 80.0753 133.395 79.8778 134.081C79.4214 135.669 76.2904 135.642 76.2904 135.642L75.2743 137.502L75.3181 138.529C75.3181 138.529 76.7917 137.454 77.3357 137.483C78.329 137.843 79.2893 138.288 80.2058 138.814C81.1869 139.334 81.786 139.614 81.5665 140.087C80.8404 141.648 77.7435 140.552 77.7435 140.552L76.5814 142.305C76.5814 142.305 77.7051 142.499 78.1987 142.556C78.7383 142.619 82.7761 145.33 82.6526 145.67C82.1707 146.998 78.2955 145.562 78.2955 145.562L77.6089 146.133C77.6089 146.133 80.4653 146.871 80.7553 146.978C81.2101 147.146 82.9485 148.485 82.9214 148.637C82.7122 149.81 80.3141 148.947 80.3141 148.947L78.2163 148.862C77.8946 149.143 77.5093 149.342 77.0937 149.442" fill="white"/>
<path d="M75.7773 149.415C74.3263 149.011 71.4062 140.3 72.7446 136.552C72.7446 136.552 74.3338 133.793 74.9805 133.604C75.9939 133.308 80.0753 133.395 79.8778 134.081C79.4214 135.669 76.2904 135.642 76.2904 135.642L75.2743 137.502L75.3181 138.529C75.3181 138.529 76.7917 137.454 77.3357 137.483C78.329 137.843 79.2893 138.288 80.2058 138.814C81.1869 139.334 81.786 139.614 81.5665 140.087C80.8404 141.648 77.7435 140.552 77.7435 140.552L76.5814 142.305C76.5814 142.305 77.7051 142.499 78.1987 142.556C78.7383 142.619 82.7761 145.33 82.6526 145.67C82.1707 146.998 78.2955 145.562 78.2955 145.562L77.6089 146.133C77.6089 146.133 80.4653 146.871 80.7553 146.978C81.2101 147.146 82.9485 148.485 82.9214 148.637C82.7122 149.81 80.3141 148.947 80.3141 148.947L78.2163 148.862C77.8946 149.143 77.5093 149.342 77.0937 149.442" stroke="#263238" stroke-linecap="round" stroke-linejoin="round"/>
<path d="M75.3208 138.527C75.3208 138.527 73.9811 139.666 73.6157 139.994C73.2502 140.321 73.3532 141.371 73.3532 141.371" stroke="#263238" stroke-linecap="round" stroke-linejoin="round"/>
<path d="M74.336 143.682C74.3275 144.832 75.1044 145.525 75.4581 145.895C75.8118 146.266 74.8925 147.274 75.9064 147.997" stroke="#263238" stroke-linecap="round" stroke-linejoin="round"/>
<path d="M141.213 180.032C138.346 180.813 135.231 175.775 131.429 170.276V170.271C128.919 166.641 126.111 162.808 122.883 160.325C122.625 160.131 122.363 159.941 122.102 159.761L123.989 150.293C127.908 152.347 130.337 155.639 134.405 159.02C140.951 164.47 146.753 167.815 148.36 170.226C149.967 172.637 146.125 178.691 141.213 180.032Z" fill="white"/>
<path opacity="0.4" d="M131.429 170.271C128.919 166.641 126.111 162.808 122.883 160.324C123.308 160.346 123.734 160.281 124.133 160.135C124.133 160.135 129.235 164.288 131.429 170.271Z" fill="#92E3A9"/>
<path d="M141.213 180.032C138.346 180.813 135.231 175.775 131.429 170.276V170.271C128.919 166.641 126.111 162.808 122.883 160.325C122.625 160.131 122.363 159.941 122.102 159.761L123.989 150.293C127.908 152.347 130.337 155.639 134.405 159.02C140.951 164.47 146.753 167.815 148.36 170.226C149.967 172.637 146.125 178.691 141.213 180.032Z" stroke="#263238" stroke-linecap="round" stroke-linejoin="round"/>
<path d="M125.049 159.402C124.85 159.756 124.521 160.018 124.133 160.134C124.031 160.174 123.927 160.209 123.821 160.238C123.798 160.242 123.767 160.247 123.735 160.256C120.706 161.046 113.888 159.402 113.888 159.402C113.888 159.402 109.423 157.28 109.152 156.779C108.964 156.382 108.796 155.975 108.651 155.56C108.579 155.348 108.529 155.204 108.529 155.204C108.529 155.204 106.922 154.31 106.741 153.596C106.565 152.883 106.204 152.702 107.188 152.567C108.173 152.436 113.527 152.567 113.527 152.567L107.726 150.201C107.726 150.201 103.883 148.264 103.527 147.583C103.17 146.896 102.723 146.449 104.687 146.72C106.651 146.987 110.94 148.237 110.94 148.237L114.299 148.951L110.94 147.519C110.94 147.519 104.33 146.72 105.581 144.666H109.333C111.464 144.759 113.585 145.028 115.672 145.47C116.764 145.804 123.988 150.292 123.988 150.292" fill="white"/>
<path opacity="0.4" d="M123.736 160.256C120.707 161.046 113.89 159.403 113.89 159.403C113.89 159.403 109.424 157.281 109.153 156.78C108.965 156.382 108.797 155.976 108.652 155.561L114.133 156.175C113.943 156.519 113.844 156.906 113.844 157.299C113.844 157.692 113.943 158.079 114.133 158.423C114.743 159.516 121.687 160.626 123.736 160.256Z" fill="#92E3A9"/>
<path d="M125.049 159.402C124.85 159.756 124.521 160.018 124.133 160.134C124.031 160.174 123.927 160.209 123.821 160.238C123.798 160.242 123.767 160.247 123.735 160.256C120.706 161.046 113.888 159.402 113.888 159.402C113.888 159.402 109.423 157.28 109.152 156.779C108.964 156.382 108.796 155.975 108.651 155.56C108.579 155.348 108.529 155.204 108.529 155.204C108.529 155.204 106.922 154.31 106.741 153.596C106.565 152.883 106.204 152.702 107.188 152.567C108.173 152.436 113.527 152.567 113.527 152.567L107.726 150.201C107.726 150.201 103.883 148.264 103.527 147.583C103.17 146.896 102.723 146.449 104.687 146.72C106.651 146.987 110.94 148.237 110.94 148.237L114.299 148.951L110.94 147.519C110.94 147.519 104.33 146.72 105.581 144.666H109.333C111.464 144.759 113.585 145.028 115.672 145.47C116.764 145.804 123.988 150.292 123.988 150.292" stroke="#263238" stroke-linecap="round" stroke-linejoin="round"/>
<path d="M108.527 155.205L115.126 156.175" stroke="#263238" stroke-linecap="round" stroke-linejoin="round"/>
<path d="M42.7773 175.402L59.3086 180.384L89.5633 173.481C89.5633 173.481 71.0841 168.222 70.9106 168.348C70.7371 168.474 42.7773 175.402 42.7773 175.402Z" fill="#92E3A9"/>
<path opacity="0.3" d="M42.7773 175.402L59.3086 180.384L89.5633 173.481C89.5633 173.481 71.0841 168.222 70.9106 168.348C70.7371 168.474 42.7773 175.402 42.7773 175.402Z" fill="black" fill-opacity="0.7"/>
<path d="M42.7773 175.402L59.3086 180.384L89.5633 173.481C89.5633 173.481 71.0841 168.222 70.9106 168.348C70.7371 168.474 42.7773 175.402 42.7773 175.402Z" stroke="#263238" stroke-linecap="round" stroke-linejoin="round"/>
<path d="M43.0148 169.579C41.8562 169.66 41.5653 173.843 42.7771 175.402L69.4828 169.86L71.6256 164.793L43.0148 169.579Z" fill="#92E3A9"/>
<path opacity="0.3" d="M43.0148 169.579C41.8562 169.66 41.5653 173.843 42.7771 175.402L69.4828 169.86L71.6256 164.793L43.0148 169.579Z" fill="black" fill-opacity="0.7"/>
<path d="M43.0148 169.579C41.8562 169.66 41.5653 173.843 42.7771 175.402L69.4828 169.86L71.6256 164.793L43.0148 169.579Z" stroke="#263238" stroke-linecap="round" stroke-linejoin="round"/>
<path d="M88.2641 169.521C88.2641 169.521 87.8665 171.722 88.1241 173.074L59.2776 179.605L44.072 175.135C44.072 175.135 42.4906 172.339 43.8683 170.175L71.6538 165.459L88.2641 169.521Z" fill="white" stroke="#263238" stroke-linecap="round" stroke-linejoin="round"/>
<path d="M43.0156 169.58L71.6267 164.793L89.3921 169.294L59.5106 175.249L43.0156 169.58Z" fill="#92E3A9" stroke="#263238" stroke-linecap="round" stroke-linejoin="round"/>
<path d="M44.0273 172.253L59.157 176.756L83.9196 171.773" stroke="#263238" stroke-linecap="round" stroke-linejoin="round"/>
<path d="M88.0384 172.234L61.4102 177.916" stroke="#263238" stroke-linecap="round" stroke-linejoin="round"/>
<path d="M44.3906 174.025C44.6174 174.048 55.7947 177.49 55.7947 177.49" stroke="#263238" stroke-linecap="round" stroke-linejoin="round"/>
<path d="M85.8633 171.191L87.9823 170.848" stroke="#263238" stroke-linecap="round" stroke-linejoin="round"/>
<path d="M58.663 178.326L57.543 178.074" stroke="#263238" stroke-linecap="round" stroke-linejoin="round"/>
<path d="M43.8682 170.174C44.4579 170.856 44.7991 171.718 44.8361 172.618C44.873 173.519 44.6037 174.406 44.0719 175.134C43.5784 174.409 43.2978 173.56 43.2618 172.683C43.2258 171.806 43.4358 170.937 43.8682 170.174Z" fill="#263238"/>
<path opacity="0.3" d="M43.8682 170.174C44.4579 170.856 44.7991 171.718 44.8361 172.618C44.873 173.519 44.6037 174.406 44.0719 175.134C43.5784 174.409 43.2978 173.56 43.2618 172.683C43.2258 171.806 43.4358 170.937 43.8682 170.174Z" fill="white" fill-opacity="0.7"/>
<path d="M43.8682 170.174C44.4579 170.856 44.7991 171.718 44.8361 172.618C44.873 173.519 44.6037 174.406 44.0719 175.134C43.5784 174.409 43.2978 173.56 43.2618 172.683C43.2258 171.806 43.4358 170.937 43.8682 170.174Z" stroke="#263238" stroke-linecap="round" stroke-linejoin="round"/>
<path d="M105.661 176.756L134.534 177.941L131.718 187.88L96.2031 186.525L105.661 176.756Z" fill="white"/>
<path opacity="0.4" d="M105.661 176.756L134.534 177.941L131.718 187.88L96.2031 186.525L105.661 176.756Z" fill="#92E3A9"/>
<path d="M105.661 176.756L134.534 177.941L131.718 187.88L96.2031 186.525L105.661 176.756Z" stroke="#263238" stroke-linecap="round" stroke-linejoin="round"/>
</g>
<defs>
<clipPath id="clip0_17805_103684">
<rect width="192.409" height="200" fill="white"/>
</clipPath>
</defs>
</svg>
