<svg width="18" height="18" viewBox="0 0 18 18" fill="none" xmlns="http://www.w3.org/2000/svg">
<path d="M6.14697 13.6836L8.97341 16.7264L11.8124 13.6704" stroke="#6B6C7E" stroke-linecap="round" stroke-linejoin="round"/>
<path d="M8.88098 3.48813C8.95967 3.50204 9.0402 3.50204 9.11889 3.48813L16.0149 2.28882C16.055 2.28156 16.0913 2.26045 16.1174 2.22917C16.1435 2.1979 16.1578 2.15844 16.1578 2.11769C16.1578 2.07694 16.1435 2.03748 16.1174 2.00621C16.0913 1.97493 16.055 1.95382 16.0149 1.94656L9.11889 0.747253C9.0402 0.733337 8.95967 0.733337 8.88098 0.747253L1.98497 1.94656C1.94487 1.95382 1.90859 1.97493 1.88247 2.00621C1.85635 2.03748 1.84204 2.07694 1.84204 2.11769C1.84204 2.15844 1.85635 2.1979 1.88247 2.22917C1.90859 2.26045 1.94487 2.28156 1.98497 2.28882L8.88098 3.48813Z" stroke="#6B6C7E" stroke-linecap="round" stroke-linejoin="round"/>
<path d="M2.04363 6.2915C1.47522 7.24705 1.1233 8.31563 1.01268 9.42194C1.00972 9.46651 1.01595 9.51121 1.03098 9.55327C1.046 9.59533 1.06951 9.63385 1.10003 9.66646C1.13055 9.69907 1.16744 9.72506 1.20841 9.74283C1.24939 9.7606 1.29358 9.76977 1.33824 9.76977H2.72955C2.77754 9.76991 2.82504 9.76012 2.86906 9.74101C2.91308 9.7219 2.95267 9.69388 2.98534 9.65873C3.01801 9.62358 3.04305 9.58205 3.05889 9.53675C3.07473 9.49145 3.08102 9.44336 3.07738 9.39551C2.96168 8.29818 2.60896 7.23909 2.04363 6.2915V6.2915Z" stroke="#6B6C7E" stroke-linecap="round" stroke-linejoin="round"/>
<path d="M2.04346 2.29932V6.29167" stroke="#6B6C7E" stroke-linecap="round" stroke-linejoin="round"/>
<path d="M4.82617 7.68269V2.7832" stroke="#6B6C7E" stroke-linecap="round" stroke-linejoin="round"/>
<path d="M13.1738 2.7832V7.68269" stroke="#6B6C7E" stroke-linecap="round" stroke-linejoin="round"/>
<path d="M4.82617 5.5957C7.53553 6.49865 10.4646 6.49865 13.174 5.5957" stroke="#6B6C7E" stroke-linecap="round" stroke-linejoin="round"/>
<path d="M7.94263 10.7437C8.22397 11.0116 8.59759 11.161 8.98611 11.161C9.37462 11.161 9.74825 11.0116 10.0296 10.7437" stroke="#6B6C7E" stroke-linecap="round" stroke-linejoin="round"/>
<path d="M8.30439 8.03064C8.23071 7.9152 8.12711 7.82189 8.00461 7.76064C7.88211 7.69939 7.7453 7.6725 7.60874 7.68282C7.47217 7.6725 7.33536 7.69939 7.21287 7.76064C7.09037 7.82189 6.98677 7.9152 6.91309 8.03064" stroke="#6B6C7E" stroke-linecap="round" stroke-linejoin="round"/>
<path d="M11.0869 8.03064C11.0132 7.9152 10.9096 7.82189 10.7871 7.76064C10.6646 7.69939 10.5278 7.6725 10.3912 7.68282C10.2546 7.6725 10.1178 7.69939 9.99534 7.76064C9.87284 7.82189 9.76924 7.9152 9.69556 8.03064" stroke="#6B6C7E" stroke-linecap="round" stroke-linejoin="round"/>
<path d="M4.81228 7.68262C4.20428 7.98662 4.39489 9.35218 5.1455 9.69236C5.24954 9.73944 5.34039 9.81141 5.41003 9.90192C5.47967 9.99243 5.52595 10.0987 5.5448 10.2113C5.85298 12.0506 8.01785 13.2478 8.9862 13.2478C9.95455 13.2478 12.1166 12.0506 12.4276 10.2113C12.4464 10.0987 12.4927 9.99243 12.5624 9.90192C12.632 9.81141 12.7229 9.73944 12.8269 9.69236C13.5789 9.35149 13.7674 7.98662 13.1601 7.68262" stroke="#6B6C7E" stroke-linecap="round" stroke-linejoin="round"/>
<path d="M11.8125 13.6704L15.2609 14.8148L15.2734 14.8189C15.6932 14.9748 16.0694 15.2295 16.3699 15.5616C16.6705 15.8936 16.8866 16.2931 17 16.7264" stroke="#6B6C7E" stroke-linecap="round" stroke-linejoin="round"/>
<path d="M6.14783 13.6836L2.73913 14.8147L2.72661 14.8189C2.30675 14.9748 1.93062 15.2295 1.63007 15.5615C1.32952 15.8936 1.11339 16.2931 1 16.7264" stroke="#6B6C7E" stroke-linecap="round" stroke-linejoin="round"/>
</svg>
