<svg width="56" height="56" viewBox="0 0 56 56" fill="none" xmlns="http://www.w3.org/2000/svg">
<path d="M56 12.5649V10.7305H48.1123V12.5649H51.1389V43.4335H48.1123V45.2679H56V43.4335H52.9733V12.5649H56Z" fill="#333E48" fill-opacity="0.3"/>
<path d="M0.340336 37.8001L9.57205 16.9526C10.2157 15.515 11.3882 14.6445 12.9777 14.6445H13.3182C14.9068 14.6445 16.0422 15.5149 16.6852 16.9526L25.9172 37.8001C26.1064 38.2163 26.2202 38.5945 26.2202 38.973C26.2202 40.5242 25.0093 41.7728 23.458 41.7728C22.096 41.7728 21.1878 40.9783 20.6582 39.7673L18.8802 35.6057H7.22675L5.37276 39.9568C4.88078 41.0918 3.89732 41.7728 2.68646 41.7728C1.17249 41.7728 0 40.5621 0 39.0486C0 38.6324 0.151151 38.2163 0.340336 37.8001ZM16.7234 30.46L13.0531 21.72L9.3832 30.46H16.7234Z" fill="#1E252B"/>
<path d="M28.9805 35.7193V35.6435C28.9805 31.2169 32.3479 29.1737 37.153 29.1737C39.1963 29.1737 40.6721 29.5142 42.1098 30.0062V29.6657C42.1098 27.2818 40.634 25.9579 37.7586 25.9579C36.1695 25.9579 34.8831 26.1848 33.7858 26.5254C33.4455 26.6389 33.2183 26.6766 32.953 26.6766C31.6292 26.6766 30.5699 25.6551 30.5699 24.331C30.5699 23.3093 31.2128 22.4391 32.1207 22.0984C33.9368 21.4174 35.9046 21.0391 38.5909 21.0391C41.731 21.0391 44.0013 21.8714 45.4392 23.3091C46.9526 24.8224 47.6336 27.055 47.6336 29.7791V39.0108C47.6336 40.5624 46.385 41.7729 44.8337 41.7729C43.1689 41.7729 42.0718 40.6001 42.0718 39.3892V39.3513C40.6719 40.9025 38.7419 41.924 35.9425 41.924C32.1207 41.9244 28.9805 39.7302 28.9805 35.7193ZM42.1851 34.395V33.3735C41.2014 32.9195 39.915 32.6167 38.5151 32.6167C36.0556 32.6167 34.5424 33.6005 34.5424 35.4165V35.4922C34.5424 37.0436 35.8288 37.9515 37.6827 37.9515C40.369 37.9516 42.1851 36.4762 42.1851 34.395Z" fill="#1E252B"/>
</svg>
