<svg width="16" height="16" viewBox="0 0 16 16" fill="none" xmlns="http://www.w3.org/2000/svg">
<path d="M8 0C3.5888 0 0 3.5888 0 8C0 12.4112 3.5888 16 8 16C12.4112 16 16 12.4112 16 8C16 3.5888 12.4112 0 8 0ZM8 15.4667C3.88293 15.4667 0.533333 12.1171 0.533333 8C0.533333 3.88293 3.88293 0.533333 8 0.533333C12.1171 0.533333 15.4667 3.88293 15.4667 8C15.4667 12.1171 12.1171 15.4667 8 15.4667Z" fill="#6B6C7E"/>
<path d="M8.00013 1.59961C7.85293 1.59961 7.73346 1.71881 7.73346 1.86628V7.99961H3.73346C3.58626 7.99961 3.4668 8.11881 3.4668 8.26628C3.4668 8.41374 3.58626 8.53294 3.73346 8.53294H8.00013C8.14733 8.53294 8.2668 8.41374 8.2668 8.26628V1.86628C8.2668 1.71881 8.14733 1.59961 8.00013 1.59961Z" fill="#6B6C7E"/>
</svg>
