<svg width="41" height="40" viewBox="0 0 41 40" fill="none" xmlns="http://www.w3.org/2000/svg">
<path fill-rule="evenodd" clip-rule="evenodd" d="M8 35H36.3333C37.714 35 38.8333 33.8807 38.8333 32.5V14.1667C38.8333 12.786 37.714 11.6667 36.3333 11.6667H18.8333L14.5656 7.3989C14.0967 6.93006 13.4608 6.66667 12.7978 6.66667H8C6.61929 6.66667 5.5 7.78596 5.5 9.16667V32.5C5.5 33.8807 6.61929 35 8 35Z" fill="#D1822C"/>
<path fill-rule="evenodd" clip-rule="evenodd" d="M4.66672 31.6667H33C34.3808 31.6667 35.5 30.5474 35.5 29.1667V10.8333C35.5 9.45262 34.3808 8.33333 33 8.33333H15.5001L11.2323 4.06556C10.7634 3.59672 10.1276 3.33333 9.46452 3.33333H4.66672C3.28601 3.33333 2.16672 4.45262 2.16672 5.83333V29.1667C2.16672 30.5474 3.28601 31.6667 4.66672 31.6667Z" fill="#F3B357"/>
<path fill-rule="evenodd" clip-rule="evenodd" d="M24.5604 22.5094H21.2996V25.8555C21.2996 26.3158 20.9265 26.6889 20.4662 26.6889H18.7607C18.3005 26.6889 17.9274 26.3158 17.9274 25.8555V22.5094H14.6666C14.2064 22.5094 13.8333 22.1363 13.8333 21.6761C13.8333 21.4789 13.9032 21.2881 14.0306 21.1376L18.9775 15.2948C19.2749 14.9436 19.8007 14.8999 20.152 15.1973C20.1871 15.2271 20.2197 15.2597 20.2495 15.2948L25.1964 21.1376C25.4937 21.4889 25.4501 22.0147 25.0988 22.3121C24.9483 22.4395 24.7575 22.5094 24.5604 22.5094Z" fill="#EB9B2C"/>
</svg>
