<svg width="56" height="56" viewBox="0 0 56 56" fill="none" xmlns="http://www.w3.org/2000/svg">
<path opacity="0.3" fill-rule="evenodd" clip-rule="evenodd" d="M28 49C16.402 49 7 39.598 7 28C7 16.402 16.402 7 28 7C39.598 7 49 16.402 49 28C49 39.598 39.598 49 28 49ZM27.4756 31.0168C28.7643 31.0168 29.8089 29.9721 29.8089 28.6834C29.8089 27.3948 28.7643 26.3501 27.4756 26.3501C26.1869 26.3501 25.1423 27.3948 25.1423 28.6834C25.1423 29.9721 26.1869 31.0168 27.4756 31.0168ZM26.1883 21.2385C28.6778 20.5715 30.1552 18.0126 29.4881 15.523C28.821 13.0335 26.2621 11.5561 23.7726 12.2232C21.2831 12.8903 19.8057 15.4492 20.4728 17.9387C21.1399 20.4282 23.6988 21.9056 26.1883 21.2385ZM32.2274 43.7768C34.7169 43.1097 36.1943 40.5508 35.5272 38.0613C34.8601 35.5718 32.3012 34.0944 29.8117 34.7615C27.3222 35.4285 25.8448 37.9874 26.5119 40.477C27.179 42.9665 29.7379 44.4438 32.2274 43.7768ZM17.9387 35.5272C20.4282 34.8601 21.9056 32.3012 21.2385 29.8117C20.5715 27.3222 18.0126 25.8448 15.523 26.5119C13.0335 27.179 11.5561 29.7379 12.2232 32.2274C12.8903 34.7169 15.4492 36.1943 17.9387 35.5272ZM40.477 29.4881C42.9665 28.821 44.4438 26.2621 43.7768 23.7726C43.1097 21.2831 40.5508 19.8057 38.0613 20.4728C35.5718 21.1399 34.0944 23.6988 34.7615 26.1883C35.4285 28.6778 37.9874 30.1552 40.477 29.4881Z" fill="black"/>
<path fill-rule="evenodd" clip-rule="evenodd" d="M41.2004 44.3335H49C50.2887 44.3335 51.3333 45.3782 51.3333 46.6668C51.3333 47.9555 50.2887 49.0001 49 49.0001H28C33.001 49.0001 37.5938 47.252 41.2004 44.3335Z" fill="black"/>
</svg>
