<svg width="576" height="480" viewBox="0 0 576 480" fill="none" xmlns="http://www.w3.org/2000/svg">
<rect width="576" height="480" fill="#E7E7ED"/>
<rect x="16" y="16" width="544.906" height="240" rx="4" fill="#F7F8F9"/>
<path opacity="0.3" fill-rule="evenodd" clip-rule="evenodd" d="M288.5 181.875C263.44 181.875 243.125 161.56 243.125 136.5C243.125 111.44 263.44 91.125 288.5 91.125C313.56 91.125 333.875 111.44 333.875 136.5C333.875 161.56 313.56 181.875 288.5 181.875ZM287.367 143.018C290.151 143.018 292.409 140.761 292.409 137.977C292.409 135.192 290.151 132.935 287.367 132.935C284.582 132.935 282.325 135.192 282.325 137.977C282.325 140.761 284.582 143.018 287.367 143.018ZM284.585 121.89C289.964 120.449 293.157 114.92 291.715 109.541C290.274 104.162 284.745 100.97 279.366 102.411C273.987 103.852 270.795 109.381 272.236 114.76C273.677 120.139 279.206 123.332 284.585 121.89ZM297.634 170.589C303.013 169.148 306.205 163.619 304.764 158.24C303.323 152.861 297.794 149.668 292.415 151.11C287.036 152.551 283.843 158.08 285.285 163.459C286.726 168.838 292.255 172.03 297.634 170.589ZM266.76 152.764C272.139 151.323 275.332 145.794 273.89 140.415C272.449 135.036 266.92 131.843 261.541 133.285C256.162 134.726 252.97 140.255 254.411 145.634C255.852 151.013 261.381 154.205 266.76 152.764ZM315.459 139.715C320.838 138.274 324.03 132.745 322.589 127.366C321.148 121.987 315.619 118.795 310.24 120.236C304.861 121.677 301.668 127.206 303.11 132.585C304.551 137.964 310.08 141.157 315.459 139.715Z" fill="black"/>
<path fill-rule="evenodd" clip-rule="evenodd" d="M317.022 171.792H333.875C336.659 171.792 338.917 174.049 338.917 176.834C338.917 179.618 336.659 181.875 333.875 181.875H288.5C299.306 181.875 309.229 178.098 317.022 171.792Z" fill="black"/>
<rect x="16" y="288" width="545" height="8" rx="4" fill="#A7A9BC"/>
<rect x="16" y="312" width="545" height="8" rx="4" fill="#A7A9BC"/>
<rect x="16" y="336" width="545" height="8" rx="4" fill="#A7A9BC"/>
<rect x="16" y="360" width="461.967" height="8" rx="4" fill="#A7A9BC"/>
<rect x="88" y="400" width="176" height="8" rx="4" fill="#A7A9BC"/>
<rect x="88" y="424" width="176" height="8" rx="4" fill="#A7A9BC"/>
<rect x="88" y="448" width="104" height="8" rx="4" fill="#A7A9BC"/>
<circle cx="44" cy="428" r="28" fill="#A7A9BC"/>
</svg>
