<svg width="16" height="14" viewBox="0 0 16 14" fill="none" xmlns="http://www.w3.org/2000/svg">
<path d="M10.0796 6.76698L7.04509 4.83594C6.96013 4.78215 6.85254 4.77856 6.76399 4.82684C6.67599 4.87539 6.62109 4.96808 6.62109 5.06877V8.93084C6.62109 9.03153 6.67599 9.12422 6.76427 9.17277C6.80565 9.19539 6.85116 9.2067 6.89696 9.2067C6.94854 9.2067 7.00013 9.19208 7.04509 9.16367L10.0796 7.23263C10.159 7.18188 10.2073 7.09415 10.2073 6.99981C10.2073 6.90546 10.159 6.81774 10.0796 6.76698ZM7.17282 8.4285V5.57112L9.41751 6.99981L7.17282 8.4285Z" fill="#393A4A"/>
<path d="M15.7241 0.65625H12.9655H3.03448H0.275862C0.123586 0.65625 0 0.77956 0 0.932112V3.96659V7.00108V10.0356V13.07C0 13.2226 0.123586 13.3459 0.275862 13.3459H3.03448H12.9655H15.7241C15.8764 13.3459 16 13.2226 16 13.07V10.0356V7.00108V3.96659V0.932112C16 0.77956 15.8764 0.65625 15.7241 0.65625ZM2.75862 6.72522H0.551724V4.24246H2.75862V6.72522ZM0.551724 7.27694H2.75862V9.7597H0.551724V7.27694ZM3.31034 10.0356V7.00108V3.96659V1.20797H12.6897V3.96659V7.00108V10.0356V12.7942H3.31034V10.0356ZM15.4483 6.72522H13.2414V4.24246H15.4483V6.72522ZM13.2414 7.27694H15.4483V9.7597H13.2414V7.27694ZM15.4483 1.20797V3.69073H13.2414V1.20797H15.4483ZM0.551724 1.20797H2.75862V3.69073H0.551724V1.20797ZM0.551724 12.7942V10.3114H2.75862V12.7942H0.551724ZM15.4483 12.7942H13.2414V10.3114H15.4483V12.7942Z" fill="#393A4A"/>
</svg>
