<svg width="249" height="180" viewBox="0 0 249 180" fill="none" xmlns="http://www.w3.org/2000/svg">
<path d="M204.248 0.740335H30.9132C26.1186 0.740335 22.2109 4.64676 22.2109 9.44273V13.0844H212.95V9.44273C212.955 8.29837 212.734 7.16426 212.299 6.10594C211.863 5.04762 211.223 4.08608 210.413 3.27688C209.604 2.46769 208.643 1.82688 207.584 1.3915C206.526 0.956125 205.392 0.734807 204.248 0.740335Z" fill="#D4F7DC"/>
<path d="M22.2109 13.084V154.188C22.2109 158.982 26.1186 162.89 30.9132 162.89H204.248C209.042 162.89 212.95 158.982 212.95 154.188V13.084H22.2109Z" fill="white"/>
<path d="M57.8213 3.84776C58.2188 3.84445 58.613 3.92034 58.981 4.071C59.3489 4.22165 59.6831 4.44406 59.9642 4.72524C60.2452 5.00643 60.4675 5.34076 60.618 5.70875C60.7685 6.07673 60.8442 6.471 60.8407 6.86855C60.844 7.26594 60.7682 7.66001 60.6176 8.02777C60.467 8.39553 60.2447 8.72962 59.9636 9.01057C59.6826 9.29151 59.3484 9.51367 58.9806 9.6641C58.6127 9.81453 58.2186 9.89022 57.8213 9.88675C56.1348 9.88675 54.8462 8.55503 54.8018 6.86855C54.7575 5.18207 56.1348 3.84776 57.8213 3.84776Z" fill="#083A55"/>
<path d="M45.7461 3.76182C45.3487 3.75852 44.9546 3.83437 44.5867 3.98494C44.2189 4.13552 43.8847 4.35781 43.6037 4.63885C43.3226 4.9199 43.1003 5.25408 42.9498 5.62191C42.7992 5.98974 42.7234 6.38387 42.7267 6.78132C42.7234 7.1787 42.7992 7.57277 42.9498 7.94053C43.1004 8.30829 43.3227 8.64238 43.6038 8.92333C43.8848 9.20427 44.219 9.42644 44.5868 9.57687C44.9546 9.7273 45.3487 9.80298 45.7461 9.7995C46.1434 9.80298 46.5375 9.72729 46.9052 9.57684C47.273 9.4264 47.6071 9.20421 47.888 8.92325C48.169 8.64229 48.3912 8.30819 48.5416 7.94043C48.692 7.57268 48.7677 7.17864 48.7643 6.78132C48.8542 5.18223 47.4326 3.76182 45.7461 3.76182Z" fill="#267939"/>
<path d="M33.7617 3.76183C34.1592 3.75835 34.5534 3.83408 34.9213 3.98459C35.2892 4.1351 35.6235 4.35739 35.9046 4.63847C36.1856 4.91955 36.4079 5.2538 36.5584 5.62171C36.7089 5.98963 36.7847 6.38383 36.7812 6.78133C36.7845 7.17871 36.7086 7.57278 36.558 7.94054C36.4075 8.3083 36.1852 8.6424 35.9041 8.92334C35.623 9.20428 35.2888 9.42645 34.921 9.57688C34.5532 9.72731 34.1591 9.80299 33.7617 9.79952C33.3644 9.80299 32.9703 9.72731 32.6024 9.57688C32.2346 9.42645 31.9004 9.20428 31.6194 8.92334C31.3383 8.6424 31.116 8.3083 30.9654 7.94054C30.8148 7.57278 30.739 7.17871 30.7423 6.78133C30.739 6.38388 30.8148 5.98975 30.9654 5.62192C31.116 5.25409 31.3383 4.91991 31.6193 4.63886C31.9003 4.35782 32.2345 4.13553 32.6023 3.98495C32.9702 3.83438 33.3643 3.75853 33.7617 3.76183Z" fill="#3CAE5C"/>
<path d="M204.251 163.453H30.9169C28.4368 163.45 26.0591 162.464 24.3054 160.71C22.5517 158.956 21.5653 156.579 21.5625 154.098V9.35586C21.5625 4.19729 25.7584 0 30.9169 0H204.251C209.41 0 213.606 4.19729 213.606 9.35586V154.098C213.606 159.256 209.409 163.453 204.251 163.453ZM30.9169 1.30562C28.7825 1.30838 26.7363 2.15759 25.2272 3.66699C23.7181 5.17639 22.8692 7.22273 22.8668 9.35717V154.1C22.8696 156.234 23.7186 158.28 25.2277 159.789C26.7368 161.298 28.7827 162.147 30.9169 162.15H204.251C206.386 162.148 208.432 161.299 209.941 159.789C211.45 158.28 212.299 156.234 212.302 154.1V9.35586C212.299 7.22143 211.45 5.17509 209.941 3.66569C208.432 2.15629 206.386 1.30708 204.251 1.30432L30.9169 1.30562Z" fill="#083A55"/>
<path d="M202.883 15.0098L194.217 39.8961L181.188 18.9449C189.073 17.9901 196.398 16.7015 202.883 15.0098Z" fill="#3CAE5C"/>
<path d="M175.046 19.6074L166.66 42.776L153.543 20.9652C160.947 20.7109 168.177 20.2739 175.047 19.6087L175.046 19.6074Z" fill="#3CAE5C"/>
<path d="M146.611 21.1582L139.881 43.7046L126.457 21.1752C133.204 21.2808 139.96 21.2808 146.611 21.1582Z" fill="#3CAE5C"/>
<path d="M119.169 21.0183L110.091 43.8986L98.6641 20.1953C105.359 20.554 112.238 20.8344 119.169 21.0183Z" fill="#3CAE5C"/>
<path d="M94.7574 19.9887L83.0148 42.4386L74.3047 18.6035C80.7896 19.1122 87.6594 19.5857 94.7574 19.9887Z" fill="#3CAE5C"/>
<path d="M69.8165 18.2505L58.0309 39.5005L49.7852 16.4102C55.7354 17.0154 62.4916 17.6453 69.8165 18.2505Z" fill="#3CAE5C"/>
<path d="M45.5439 15.9712L32.5231 35.7746L26.582 13.7969C29.9993 14.2351 36.6499 15.0425 45.5439 15.9712Z" fill="#3CAE5C"/>
<path d="M136.178 21.9065C101.142 21.9065 53.7088 18.1632 23.907 14.1119C23.8195 14.1036 23.7346 14.0777 23.6573 14.0358C23.5801 13.9939 23.5121 13.9367 23.4575 13.8679C23.4029 13.799 23.3628 13.7198 23.3396 13.635C23.3164 13.5503 23.3105 13.4617 23.3224 13.3746C23.3343 13.2875 23.3636 13.2037 23.4087 13.1283C23.4538 13.0528 23.5136 12.9873 23.5847 12.9355C23.6557 12.8838 23.7365 12.8469 23.8221 12.8272C23.9078 12.8075 23.9965 12.8052 24.083 12.8207C39.3198 14.9232 53.5458 16.1858 74.3506 17.9506C110.465 21.0157 173.677 23.82 208.006 12.8442C208.168 12.8016 208.34 12.8227 208.486 12.9033C208.633 12.9838 208.743 13.1175 208.794 13.2769C208.845 13.4363 208.833 13.6092 208.761 13.76C208.688 13.9107 208.56 14.0278 208.404 14.0872C187.65 20.7222 157.968 21.9065 136.178 21.9065Z" fill="#083A55"/>
<path d="M186.26 59.2071C185.821 60.9419 172.107 67.4322 170.444 67.1296C171.045 64.727 169.618 58.2902 169.875 54.2247C169.969 52.7873 170.612 49.7835 169.987 48.4022C171.162 48.3278 185.711 47.3105 185.644 47.6274C185.245 49.55 180.891 53.1316 180.81 53.5895C180.703 54.1947 186.3 59.0493 186.26 59.2071Z" fill="#267939"/>
<path d="M169.876 54.2231C169.606 58.5156 170.944 62.7024 170.482 66.8945C170.09 70.4514 167.655 72.2787 164.287 73.5661C158.399 75.8434 152.175 76.2256 146.194 76.5517C125.553 77.6812 104.148 79.892 83.6762 77.2143C79.0668 76.6169 74.4574 76.356 69.9784 74.8065C68.1772 74.1817 65.6703 73.313 64.7717 70.6535C63.7635 67.6706 66.8181 63.8972 67.8133 59.6986C68.4511 57.0456 66.4047 50.7497 68.9324 47.1576C70.8015 44.5033 80.1767 54.6131 123.323 53.027C146.815 52.1662 166.995 43.6529 169.894 48.2219C170.66 49.4284 169.967 52.804 169.876 54.2231Z" fill="#267939"/>
<path d="M68.5792 47.7282C66.5823 51.3855 68.4109 57.2184 67.8135 59.7018C66.9983 63.14 64.7602 66.3773 64.5854 68.9755C63.9319 68.7055 52.2963 63.7399 52.5024 63.406C53.7676 61.34 59.6721 57.0123 59.5665 56.1736C59.5026 55.6701 51.0885 48.932 51.0938 48.4194C51.0977 47.9721 68.2922 47.6055 68.5805 47.7295L68.5792 47.7282Z" fill="#267939"/>
<path d="M170.526 54.265C170.617 52.8459 171.382 49.2317 170.451 47.8869C167.29 42.6449 147.603 51.4868 123.298 52.3764C78.4383 54.0289 70.9281 43.207 68.3978 46.7848C65.681 50.6599 67.7717 57.0836 67.1783 59.5488C66.204 63.6548 63.0385 67.573 64.1523 70.8624C65.1488 73.8206 67.9204 74.7832 69.7634 75.4236C74.305 76.994 79.0044 77.2679 83.5903 77.8627C104.087 80.5444 125.619 78.3323 146.228 77.204C151.937 76.8923 158.407 76.5388 164.518 74.178C168.186 72.7733 170.655 70.8559 171.129 66.9573C171.54 62.6531 170.258 58.4923 170.524 54.2663L170.526 54.265ZM169.832 66.836C169.417 70.1581 167.215 71.7481 164.051 72.9572C158.132 75.2462 151.771 75.5932 146.157 75.8997C125.647 77.0227 104.141 79.2335 83.7598 76.5662C79.0409 75.9571 74.5906 75.7106 70.1834 74.1871C61.1472 71.0503 66.9344 66.2321 68.4474 59.8527C69.1191 57.0589 67.0818 50.9364 69.466 47.5347C70.8121 45.637 81.0834 55.2354 123.348 53.6794C146.409 52.8329 166.93 44.5452 169.393 48.6682C169.923 49.8355 169.314 52.8068 169.225 54.1802C168.954 58.4819 170.22 62.7783 169.833 66.8347L169.832 66.836Z" fill="white"/>
<path d="M81.9666 70.8C81.4696 70.6944 81.4605 70.6918 79.8901 65.6793C79.4599 64.2863 79.0147 62.898 78.5545 61.5146C77.7328 63.7071 76.0581 68.524 74.8529 70.1218C74.7657 70.2349 74.645 70.3177 74.5081 70.3584C74.3711 70.3991 74.2248 70.3957 74.0899 70.3487C73.5734 70.1583 73.4808 70.1244 73.3713 63.4032C73.3165 60.0681 73.3139 56.6638 73.3634 55.816C73.3738 55.6434 73.4523 55.482 73.5817 55.3673C73.7111 55.2526 73.8808 55.1939 74.0534 55.2043C74.226 55.2147 74.3875 55.2932 74.5022 55.4226C74.6169 55.552 74.6755 55.7217 74.6651 55.8943C74.5895 57.1673 74.6469 64.0971 74.7799 67.5744C75.5273 65.9519 76.3425 63.7411 76.9463 62.1015C77.9011 59.5125 77.9585 59.3573 78.3719 59.2333C79.431 58.9164 79.5354 60.5507 82.1414 68.4562C83.1078 65.7445 84.7408 60.282 85.5221 57.7242C85.5453 57.6401 85.5852 57.5614 85.6393 57.4929C85.6935 57.4244 85.7609 57.3674 85.8375 57.3255C85.9141 57.2835 85.9983 57.2574 86.0852 57.2486C86.1721 57.2398 86.2599 57.2485 86.3433 57.2743C86.4267 57.3001 86.5042 57.3424 86.571 57.3986C86.6377 57.4549 86.6926 57.524 86.7321 57.6019C86.7717 57.6797 86.7953 57.7647 86.8014 57.8518C86.8075 57.9389 86.796 58.0264 86.7677 58.109C83.0713 70.1961 82.8365 70.9813 81.9666 70.8Z" fill="white"/>
<path d="M99.1207 57.614C96.6347 57.0961 93.7952 57.1731 91.8766 57.2761C91.7337 57.2838 91.5973 57.3383 91.4884 57.4311C91.3795 57.524 91.3042 57.6501 91.274 57.79C90.9923 59.0944 88.6406 70.6115 92.6188 72.8719C94.0326 73.6727 97.0912 72.9501 98.612 72.4479C98.6955 72.4229 98.7732 72.3814 98.8404 72.3258C98.9076 72.2702 98.9629 72.2018 99.0032 72.1244C99.0435 72.0471 99.0678 71.9624 99.0748 71.8755C99.0818 71.7886 99.0713 71.7012 99.0439 71.6184C99.0165 71.5356 98.9728 71.4591 98.9153 71.3935C98.8579 71.328 98.7879 71.2745 98.7094 71.2365C98.631 71.1984 98.5457 71.1765 98.4586 71.172C98.3715 71.1674 98.2844 71.1804 98.2024 71.2101C96.7677 71.6836 94.1578 72.2445 93.2618 71.7384C92.0214 71.0341 91.6144 68.578 91.6484 65.7425L98.7385 65.3981C98.8241 65.3939 98.908 65.3729 98.9854 65.3363C99.0628 65.2997 99.1323 65.2482 99.1898 65.1847C99.2474 65.1212 99.2918 65.0471 99.3207 64.9664C99.3496 64.8858 99.3622 64.8002 99.3581 64.7146C99.3539 64.6291 99.3328 64.5452 99.2962 64.4678C99.2596 64.3903 99.2081 64.3209 99.1446 64.2633C99.0812 64.2058 99.007 64.1613 98.9263 64.1325C98.8457 64.1036 98.7602 64.0909 98.6746 64.0951L91.6927 64.4342C91.8023 62.4047 92.0983 60.2917 92.4466 58.5544C94.2622 58.4709 96.7195 58.4474 98.8533 58.8909C98.9371 58.9084 99.0236 58.9093 99.1078 58.8934C99.192 58.8776 99.2722 58.8453 99.3439 58.7984C99.4156 58.7515 99.4774 58.691 99.5257 58.6203C99.574 58.5495 99.6079 58.47 99.6254 58.3861C99.643 58.3023 99.6439 58.2158 99.628 58.1316C99.6121 58.0474 99.5798 57.9672 99.533 57.8955C99.4861 57.8238 99.4256 57.762 99.3548 57.7137C99.2841 57.6654 99.2045 57.6315 99.1207 57.614Z" fill="white"/>
<path d="M103.754 72.3289C103.666 72.329 103.579 72.3113 103.498 72.2767C103.417 72.2422 103.344 72.1915 103.283 72.1279C103.222 72.0643 103.174 71.9889 103.143 71.9065C103.112 71.824 103.098 71.7361 103.102 71.6481C103.122 71.1955 103.572 60.5549 103.778 58.8684C103.799 58.6966 103.887 58.5402 104.023 58.4336C104.16 58.3269 104.333 58.2788 104.504 58.2997C104.676 58.3206 104.832 58.4089 104.939 58.5452C105.046 58.6814 105.094 58.8545 105.073 59.0262C104.903 60.4192 104.542 68.5634 104.435 71.009C106.3 70.9712 111.321 70.8707 111.949 70.8551C112.295 70.8198 112.608 71.1303 112.617 71.4916C112.619 71.5772 112.604 71.6624 112.573 71.7424C112.543 71.8223 112.496 71.8953 112.437 71.9574C112.378 72.0194 112.307 72.0691 112.229 72.1038C112.151 72.1385 112.066 72.1574 111.981 72.1594C111.206 72.1776 103.754 72.3289 103.754 72.3289Z" fill="white"/>
<path d="M114.873 66.8186C115.592 60.7457 118.623 58.681 124.358 59.4271C124.525 59.4549 124.674 59.5462 124.775 59.6819C124.876 59.8176 124.92 59.987 124.898 60.1546C124.876 60.3221 124.79 60.4746 124.658 60.58C124.526 60.6854 124.358 60.7355 124.19 60.7197C119.189 60.0675 116.804 61.6079 116.169 66.97C115.682 71.102 119.827 75.1715 124.094 73.0376C124.17 72.9994 124.254 72.9765 124.339 72.9705C124.425 72.9645 124.51 72.9753 124.592 73.0025C124.673 73.0296 124.748 73.0725 124.813 73.1286C124.877 73.1848 124.93 73.2531 124.969 73.3298C125.007 73.4064 125.03 73.4899 125.036 73.5754C125.042 73.6608 125.031 73.7466 125.004 73.8279C124.977 73.9092 124.934 73.9843 124.878 74.049C124.822 74.1137 124.753 74.1667 124.677 74.205C119.452 76.8162 114.27 71.9407 114.872 66.8173L114.873 66.8186Z" fill="white"/>
<path d="M131.514 59.7839C129.296 61.1299 127.942 63.839 127.892 67.0319C127.83 70.491 130.774 72.964 133.611 72.964C136.428 72.964 139.39 70.2119 139.607 65.7628C139.888 59.9743 135.207 57.5391 131.514 59.7839ZM138.304 65.6976C138.203 67.765 137.224 70.5119 134.794 71.4444C132.467 72.3405 129.141 70.294 129.196 67.0541C129.337 58.6334 138.683 57.9174 138.304 65.6976Z" fill="white"/>
<path d="M142.553 72.3616C142.39 72.3613 142.233 72.2999 142.112 72.1896C141.992 72.0793 141.918 71.9281 141.903 71.7656C140.812 59.0954 141.365 58.7276 141.602 58.5711C143.084 57.585 145.812 63.8105 146.552 65.4605C147.158 63.864 148.127 61.0337 148.667 59.4541C149.321 57.542 149.811 56.5859 150.139 56.5859C150.829 56.6864 151.294 56.7594 153.339 69.8834C153.364 70.0533 153.32 70.226 153.218 70.364C153.116 70.502 152.964 70.5942 152.794 70.6206C152.625 70.6471 152.452 70.6056 152.312 70.5052C152.173 70.4048 152.079 70.2536 152.051 70.0843C151.294 65.2336 150.594 61.3089 150.122 59.2285C147.453 67.0322 147.246 67.6687 146.554 67.6687C146.106 67.6687 146.039 67.5213 145.528 66.3709C145.006 65.1983 143.651 62.1541 142.533 60.585C142.593 63.3788 143.043 69.8143 143.201 71.6547C143.209 71.7448 143.198 71.8356 143.169 71.9212C143.139 72.0068 143.093 72.0855 143.032 72.1521C142.97 72.2187 142.896 72.2718 142.813 72.3081C142.73 72.3444 142.641 72.3631 142.55 72.3629L142.553 72.3616Z" fill="white"/>
<path d="M162.646 67.7155C162.609 67.5468 162.507 67.3995 162.362 67.3059C162.217 67.2122 162.04 67.1799 161.871 67.216C161.38 67.3229 158.83 67.4051 156.965 67.4416C156.957 66.4556 156.945 64.4887 156.943 62.4031L161.98 61.3048C162.064 61.2873 162.144 61.2533 162.215 61.2046C162.287 61.1559 162.347 61.0937 162.394 61.0214C162.441 60.9491 162.473 60.8682 162.489 60.7834C162.504 60.6986 162.503 60.6116 162.484 60.5273C162.466 60.4431 162.431 60.3634 162.382 60.2927C162.332 60.2221 162.27 60.1619 162.197 60.1157C162.124 60.0695 162.043 60.0382 161.958 60.0236C161.873 60.0089 161.786 60.0113 161.702 60.0305L156.943 61.0674C156.946 59.1044 156.963 57.2001 157.006 56.0628C159.097 55.8893 161.798 56.488 161.588 55.1889C161.561 55.0182 161.467 54.8654 161.327 54.7642C161.186 54.6629 161.012 54.6214 160.841 54.6489C159.402 54.8811 157.889 54.5863 156.283 54.8354C156.136 54.858 156.001 54.93 155.901 55.0396C155.8 55.1492 155.74 55.2897 155.731 55.438C155.573 57.9149 155.66 67.696 155.664 68.1107C155.666 68.2826 155.736 68.4468 155.858 68.5677C155.98 68.6886 156.145 68.7564 156.316 68.7564C156.821 68.7525 161.287 68.6755 162.145 68.489C162.229 68.4711 162.308 68.4368 162.379 68.3881C162.449 68.3394 162.51 68.2773 162.556 68.2053C162.602 68.1333 162.634 68.0529 162.649 67.9686C162.665 67.8844 162.663 67.7979 162.645 67.7142L162.646 67.7155Z" fill="white"/>
<path d="M216.361 117.021L215.371 120.298L222.926 122.58L223.916 119.304L216.361 117.021Z" fill="#083A55"/>
<path d="M213.534 37.7059L210.958 47.8091L207.602 46.9483L210.196 36.8555L213.534 37.7059Z" fill="#267939"/>
<path d="M175.701 163.829C176.169 163.828 176.631 163.735 177.062 163.555C177.493 163.376 177.885 163.113 178.215 162.781C178.544 162.45 178.805 162.058 178.983 161.625C179.161 161.193 179.252 160.73 179.25 160.263C179.252 159.796 179.161 159.333 178.983 158.901C178.805 158.469 178.544 158.076 178.215 157.745C177.885 157.414 177.493 157.151 177.062 156.971C176.631 156.791 176.169 156.698 175.701 156.697C175.234 156.698 174.772 156.791 174.341 156.971C173.909 157.151 173.518 157.414 173.188 157.745C172.859 158.076 172.597 158.469 172.42 158.901C172.242 159.333 172.151 159.796 172.152 160.263C172.151 160.73 172.242 161.193 172.42 161.625C172.597 162.058 172.859 162.45 173.188 162.781C173.518 163.113 173.909 163.376 174.341 163.555C174.772 163.735 175.234 163.828 175.701 163.829Z" fill="#083A55"/>
<path d="M166.829 131.74C167.55 131.74 168.242 132.027 168.753 132.537C169.263 133.047 169.55 133.739 169.55 134.461C169.55 135.183 169.263 135.875 168.753 136.385C168.242 136.895 167.55 137.182 166.829 137.182C166.109 137.179 165.419 136.89 164.912 136.379C164.404 135.869 164.12 135.177 164.121 134.457C164.121 132.958 165.339 131.74 166.829 131.74Z" fill="#D4F7DC"/>
<path d="M140.439 108.919C140.872 109.952 141.412 113.142 140.01 113.809C137.827 114.843 138.383 110.756 137.688 110.041C135.778 108.078 133.015 108.266 132.141 105.142C131.928 104.38 129.652 99.2006 134.559 100.603C134.62 102.417 134.848 103.845 136.251 105.186C137.644 106.518 139.64 107.015 140.439 108.919Z" fill="#267939"/>
<path d="M124.058 137.184L123.383 140.881L133.031 142.642L133.705 138.944L124.058 137.184Z" fill="#3CAE5C"/>
<path d="M129.041 165.32L126.456 175.423L121.875 173.924L124.468 163.828L129.041 165.32Z" fill="white"/>
<path d="M115.952 83.875L108.922 87.4227L110.341 90.2375L117.372 86.6897L115.953 83.875H115.952Z" fill="#3CAE5C"/>
<path d="M100.412 122.58C100.949 122.58 101.464 122.793 101.844 123.173C102.223 123.553 102.437 124.067 102.437 124.604C102.437 125.141 102.223 125.656 101.844 126.036C101.464 126.415 100.949 126.629 100.412 126.629C99.8783 126.625 99.3677 126.409 98.9919 126.03C98.6161 125.651 98.4055 125.138 98.4063 124.604C98.4055 124.07 98.6161 123.558 98.9919 123.179C99.3677 122.799 99.8783 122.584 100.412 122.58Z" fill="#D4F7DC"/>
<path d="M83.2277 162.898C83.6608 163.931 84.2007 167.121 82.7986 167.788C80.6165 168.822 81.1722 164.734 80.477 164.019C78.5675 162.056 75.8037 162.244 74.9298 159.12C74.7172 158.359 72.4412 153.179 77.348 154.581C77.4093 156.396 77.6375 157.824 79.0396 159.165C80.4326 160.496 82.4295 160.993 83.2277 162.898Z" fill="#267939"/>
<path d="M77.7445 94.7709C80.0283 95.1896 78.4266 98.8769 78.2492 99.5108C77.3754 102.633 74.6207 102.446 72.7021 104.41C72.0095 105.119 72.5625 109.212 70.3804 108.178C68.9783 107.512 69.5248 104.324 69.9604 103.288C70.7626 101.38 72.7464 100.878 74.1407 99.5552C77.0323 96.79 74.3677 94.1514 77.7445 94.7709Z" fill="#267939"/>
<path d="M36.5211 95.7064L33.2603 103.566L29.4844 102.008L32.7438 94.1465L36.5211 95.7064Z" fill="#083A55"/>
<path d="M28.5594 43.8997C32.6954 46.8971 27.2108 48.3018 26.4739 48.6057C23.4818 49.837 21.9271 47.5544 19.2011 47.2557C18.2111 47.1475 15.3365 50.1122 14.8017 47.7553C14.46 46.2397 17.3073 44.6928 18.3859 44.3993C20.3815 43.8567 22.0053 45.1167 23.907 45.3984C25.8348 45.6697 27.096 44.9693 28.5594 43.8997Z" fill="#267939"/>
<path d="M24.92 123.867L23.604 128.006L16.0508 125.736L17.3577 121.598L24.92 123.867Z" fill="white"/>
<path d="M22.4304 73.4941C23.9199 73.4941 25.1381 74.7124 25.1381 76.211C25.1399 76.9313 24.8557 77.6227 24.348 78.1336C23.8403 78.6445 23.1506 78.933 22.4304 78.9357C22.0736 78.9351 21.7204 78.864 21.3911 78.7266C21.0618 78.5892 20.7628 78.3882 20.5113 78.1351C20.2598 77.882 20.0606 77.5818 19.9253 77.2516C19.79 76.9215 19.7211 76.5679 19.7227 76.211C19.7227 74.7124 20.9318 73.4941 22.4304 73.4941Z" fill="#3CAE5C"/>
<path d="M23.6 128.659C23.4578 128.659 23.93 128.78 15.859 126.362C15.7763 126.337 15.6993 126.296 15.6326 126.241C15.5659 126.186 15.5107 126.119 15.4703 126.042C15.4299 125.966 15.4051 125.882 15.3972 125.796C15.3894 125.71 15.3987 125.624 15.4246 125.541L16.7315 121.403C16.7832 121.239 16.8972 121.103 17.0488 121.023C17.2004 120.943 17.3774 120.926 17.5415 120.975L25.1038 123.245C25.4521 123.349 25.6477 123.719 25.5381 124.068L24.2221 128.206C24.1801 128.338 24.0974 128.453 23.9858 128.535C23.8743 128.617 23.7396 128.661 23.6013 128.661L23.6 128.659ZM16.8672 125.303L23.1722 127.198L24.093 124.302L17.7815 122.408L16.8672 125.303Z" fill="#083A55"/>
<path d="M126.249 176.043L121.668 174.542C121.511 174.49 121.379 174.38 121.299 174.235C121.22 174.09 121.198 173.92 121.239 173.759L123.833 163.664C123.856 163.577 123.895 163.497 123.95 163.426C124.004 163.356 124.073 163.297 124.151 163.254C124.229 163.211 124.315 163.185 124.404 163.177C124.493 163.168 124.582 163.178 124.667 163.206L129.24 164.698C129.397 164.749 129.529 164.858 129.609 165.004C129.689 165.149 129.71 165.319 129.669 165.479L127.084 175.582C127.061 175.669 127.022 175.75 126.967 175.82C126.912 175.891 126.844 175.949 126.766 175.992C126.687 176.035 126.601 176.062 126.512 176.07C126.423 176.078 126.334 176.068 126.249 176.04V176.043ZM122.654 173.493L125.992 174.587L128.252 165.751L124.922 164.664L122.654 173.493Z" fill="#083A55"/>
<path d="M190.106 116.311C190.106 116.311 216.114 136.979 234.047 144.901C235.376 145.493 207.979 169.42 207.979 169.42C207.979 169.42 183.143 145.499 181.258 131.311C181.047 129.719 189.155 117.578 190.106 116.311Z" fill="#267939"/>
<path d="M181.847 102.267C181.476 101.758 180.07 99.464 179.189 99.6688C178.536 99.8279 179.098 101.393 179.197 101.727C179.653 103.368 180.192 105.031 180.913 106.565C180.238 105.676 179.417 104.902 178.696 104.066C176.235 101.187 173.599 98.461 170.371 96.4393C169.922 96.1589 167.522 94.4946 166.998 95.3606C166.588 96.0363 167.963 97.5258 168.313 97.981C171.563 102.228 176.265 107.113 176.265 107.582C175.824 107.681 174.183 105.903 173.873 105.645C171.382 103.587 168.807 101.559 166.05 99.8723C165.45 99.5084 163.004 97.7528 162.214 98.4362C161.644 98.9371 163.141 100.609 163.407 100.943C165.283 103.29 167.342 105.485 169.4 107.672C169.56 107.847 171.832 110.469 171.832 110.536C171.414 110.68 169.925 109.215 169.629 108.995C167.624 107.483 165.55 105.963 163.325 104.779C162.87 104.537 161.616 103.784 161.084 104.263C160.431 104.863 162.345 106.724 162.657 107.08C164.495 109.122 166.515 110.992 168.597 112.785C168.817 112.975 170.474 114.119 170.375 114.487C170.236 114.997 164.694 111.465 163.895 112.945C163.295 114.046 166.986 116.484 167.624 116.971C172.439 120.624 181.303 130.878 181.303 130.878C182.025 128.129 189.331 117.434 190.053 116.394C188.328 113.196 183.801 104.979 181.85 102.266L181.847 102.267Z" fill="white"/>
<path d="M181.14 131.533C181.054 131.533 180.968 131.515 180.888 131.482C180.809 131.449 180.736 131.4 180.676 131.338C176.372 126.971 171.707 120.725 166.892 117.249C164.779 115.724 162.576 113.996 163.318 112.634C163.935 111.493 165.662 111.929 167.485 112.689C164.913 110.435 163.636 109.096 162.001 107.338C161.06 106.327 159.618 104.726 160.64 103.786C161.478 103.032 162.8 103.755 163.51 104.142C168.949 107.107 169.116 108.883 162.792 101.227C162.096 100.384 160.794 98.8204 161.783 97.9504C162.765 97.0987 164.523 98.12 166.101 99.1347C167.587 100.091 168.904 100.881 171.5 102.9C169.114 100.143 168.075 98.7225 167.614 98.1565C166.957 97.3491 165.848 96.003 166.442 95.0248C167.23 93.7244 169.322 94.9883 170.578 95.7996C174.008 98.013 176.369 100.354 179.077 103.509C178.884 102.962 178.715 102.429 178.569 101.902C178.272 100.962 178.07 100.1 178.393 99.5247C178.461 99.4034 178.553 99.2973 178.663 99.2131C178.773 99.129 178.9 99.0685 179.035 99.0356C180.146 98.7786 181.193 100.166 182.182 101.605C184.689 105.251 188.886 112.711 190.755 116.331C190.794 116.407 190.817 116.491 190.823 116.576C190.83 116.662 190.819 116.748 190.792 116.829C190.764 116.911 190.721 116.986 190.665 117.051C190.609 117.115 190.54 117.168 190.463 117.206C190.308 117.283 190.129 117.296 189.965 117.241C189.801 117.186 189.665 117.068 189.588 116.914C188.496 114.797 181.45 101.858 179.538 100.431C179.665 101.421 180.999 105.184 181.733 106.415C182.3 107.365 182.541 107.803 182.318 108.228C182.256 108.362 182.157 108.476 182.032 108.555C181.908 108.635 181.764 108.678 181.616 108.678C181.064 108.671 180.824 108.153 180.545 107.554C180.174 106.756 178.85 105.248 178.2 104.494C175.525 101.365 173.25 99.0799 169.866 96.8939C168.427 95.9639 167.818 95.7891 167.584 95.7683C167.822 96.7204 173.184 102.859 174.227 104.03C174.731 104.602 176.914 106.993 176.914 107.585C176.914 107.734 176.864 107.877 176.771 107.993C176.678 108.109 176.549 108.19 176.404 108.222C175.492 108.429 174.094 106.684 173.453 106.151C169.448 102.844 167.911 101.852 165.388 100.23C163.759 99.1843 163.07 98.9495 162.778 98.9286C163.485 100.705 172.478 109.638 172.478 110.54C172.478 110.675 172.436 110.808 172.357 110.918C172.278 111.029 172.167 111.112 172.039 111.157C171.449 111.359 170.819 110.919 169.541 109.787C168.19 108.592 162.815 104.922 161.639 104.763C162.16 105.998 167.673 111.29 169.241 112.466C170.626 113.508 171.177 114.044 170.994 114.672C170.964 114.764 170.917 114.849 170.854 114.923C170.791 114.997 170.715 115.058 170.629 115.102C170.433 115.197 170.164 115.327 168.709 114.665C168.372 114.528 165.033 112.887 164.445 113.277C164.474 113.424 164.787 114.121 167.651 116.189C172.654 119.802 177.279 126.035 181.604 130.421C181.694 130.513 181.755 130.629 181.78 130.756C181.804 130.882 181.791 131.012 181.741 131.131C181.691 131.25 181.608 131.351 181.501 131.423C181.394 131.494 181.269 131.532 181.14 131.533Z" fill="#083A55"/>
<path d="M182.558 120.455C182.395 120.455 182.237 120.394 182.117 120.283C180.162 118.488 179.121 116.213 179.186 113.879C179.228 112.343 179.786 110.836 180.542 110.215C180.608 110.16 180.684 110.12 180.766 110.095C180.848 110.07 180.934 110.061 181.019 110.07C181.105 110.078 181.187 110.103 181.263 110.143C181.339 110.184 181.406 110.238 181.46 110.305C181.514 110.371 181.555 110.447 181.58 110.529C181.605 110.611 181.613 110.697 181.605 110.782C181.597 110.868 181.572 110.951 181.531 111.026C181.491 111.102 181.436 111.169 181.37 111.223C181.027 111.505 180.527 112.526 180.489 113.915C180.452 115.296 180.856 117.356 182.999 119.324C183.095 119.413 183.162 119.529 183.192 119.656C183.221 119.784 183.211 119.918 183.164 120.04C183.116 120.162 183.033 120.267 182.925 120.341C182.817 120.415 182.689 120.454 182.558 120.455Z" fill="#083A55"/>
<path d="M191.122 132.39C191.025 132.39 190.93 132.369 190.843 132.328C190.755 132.286 190.678 132.226 190.617 132.152C190.556 132.077 190.512 131.99 190.488 131.896C190.465 131.803 190.462 131.705 190.481 131.61L191.833 124.828C191.875 124.667 191.977 124.528 192.118 124.439C192.259 124.351 192.429 124.32 192.592 124.352C192.755 124.385 192.9 124.478 192.997 124.614C193.094 124.75 193.135 124.917 193.112 125.082L191.76 131.864C191.73 132.012 191.65 132.145 191.534 132.241C191.417 132.336 191.271 132.389 191.121 132.389L191.122 132.39Z" fill="white"/>
<path d="M200.999 144.634C200.999 144.634 195.077 143.69 194.701 143.641C194.613 143.633 194.529 143.607 194.452 143.566C194.374 143.524 194.307 143.467 194.252 143.399C194.197 143.33 194.157 143.252 194.133 143.167C194.11 143.083 194.104 142.995 194.115 142.908C194.126 142.821 194.155 142.737 194.199 142.662C194.244 142.586 194.303 142.52 194.373 142.468C194.443 142.416 194.524 142.379 194.609 142.358C194.694 142.337 194.782 142.334 194.869 142.349C195.517 142.432 200.875 143.302 201.102 143.339C201.89 143.467 201.796 144.635 200.998 144.635L200.999 144.634Z" fill="white"/>
<path d="M210.337 139.818C210.033 139.818 210.252 139.898 205.756 136.669C204.873 136.034 205.873 135.148 206.439 135.554C207.501 136.317 210.137 138.211 210.723 138.64C210.833 138.721 210.916 138.835 210.958 138.966C211 139.097 210.999 139.238 210.956 139.369C210.914 139.499 210.831 139.613 210.719 139.694C210.608 139.774 210.474 139.818 210.337 139.818Z" fill="white"/>
<path d="M206.465 159.682C206.368 159.682 206.271 159.66 206.184 159.618C206.096 159.576 206.019 159.515 205.957 159.439C205.896 159.364 205.853 159.275 205.83 159.181C205.808 159.086 205.807 158.988 205.827 158.893C205.95 158.32 206.512 154.614 206.792 152.735C206.804 152.649 206.832 152.566 206.875 152.492C206.919 152.417 206.977 152.352 207.046 152.299C207.115 152.247 207.194 152.209 207.278 152.188C207.362 152.167 207.449 152.162 207.535 152.175C207.62 152.188 207.702 152.217 207.777 152.262C207.851 152.307 207.915 152.366 207.966 152.436C208.017 152.506 208.053 152.585 208.073 152.67C208.093 152.754 208.096 152.841 208.082 152.927C208.048 153.15 207.264 158.41 207.103 159.165C207.071 159.311 206.991 159.442 206.875 159.536C206.759 159.63 206.614 159.681 206.465 159.682Z" fill="white"/>
<path d="M219.026 149.227C218.971 149.063 218.983 148.884 219.06 148.729C219.137 148.574 219.272 148.456 219.436 148.401C225.952 146.211 226.209 145.842 226.634 146.45C226.7 146.544 226.741 146.655 226.75 146.77C226.76 146.885 226.739 147.001 226.689 147.105C226.639 147.209 226.563 147.299 226.467 147.364C226.371 147.429 226.26 147.467 226.145 147.475C225.518 147.635 221.324 149.143 219.853 149.638C219.689 149.693 219.51 149.68 219.356 149.604C219.201 149.527 219.083 149.392 219.027 149.228L219.026 149.227Z" fill="white"/>
<path d="M48.2271 130.711C48.2271 130.711 19.0826 146.647 0.0633625 151.409C-1.35702 151.767 21.5738 180 21.5738 180C21.5738 180 50.2214 160.682 54.3938 146.997C54.8829 145.395 48.7332 131.774 48.2271 130.711Z" fill="#3CAE5C"/>
<path d="M78.8722 123.765C78.4314 123.203 77.0645 123.728 76.5702 123.895C74.1781 124.685 71.876 125.824 69.643 126.979C69.317 127.146 67.6005 128.331 67.2118 128.126C67.2118 128.072 69.9013 125.863 70.0982 125.718C72.4903 123.91 74.8994 122.095 77.1388 120.096C77.4584 119.816 79.2205 118.426 78.7418 117.833C78.0884 117.021 75.3767 118.334 74.7233 118.594C71.7156 119.794 68.8292 121.351 66.0262 122.953C65.6767 123.158 63.7633 124.624 63.3368 124.449C63.3368 124.086 69.0861 119.8 72.8164 116.344C73.2338 115.956 74.8446 114.719 74.555 113.99C74.1833 113.048 71.5317 114.278 71.0386 114.476C67.5144 115.919 64.4611 118.161 61.5447 120.569C60.6864 121.282 59.7487 121.894 58.9361 122.661C59.9156 121.272 60.7177 119.726 61.4547 118.191C61.606 117.873 62.4264 116.429 61.8042 116.163C60.9682 115.813 59.1982 117.833 58.7509 118.266C56.3653 120.605 50.4947 127.935 48.2617 130.792C48.7782 131.924 54.2171 143.826 54.4141 146.591C55.2893 146.549 64.2746 138.277 70.2665 135.174C70.9813 134.803 75.0285 133.033 74.6268 131.847C74.0907 130.249 68.0153 132.783 67.9736 132.264C67.9357 131.885 69.7735 131.034 70.0161 130.89C72.3703 129.477 74.6802 127.973 76.8362 126.271C77.2158 125.983 79.4188 124.463 78.8722 123.765Z" fill="#083A55"/>
<path d="M54.5799 147.237C53.9473 147.237 53.6852 146.423 54.1991 146.055C59.0954 142.548 64.5148 137.423 69.9719 134.598C70.2511 134.453 73.8835 132.767 74.0087 132.013C73.3331 131.661 69.8728 132.654 69.5598 132.722C68.1211 133.084 67.8564 132.997 67.6151 132.825C67.5353 132.765 67.4687 132.689 67.4194 132.603C67.37 132.516 67.339 132.42 67.3281 132.321C67.2355 131.407 68.8881 130.798 69.6889 130.331C73.4374 128.081 74.6739 127.067 76.5873 125.652C77.7181 124.815 78.112 124.371 78.2464 124.154C76.4895 124.268 71.5136 126.751 69.9485 127.56C69.2454 127.921 67.7416 129.142 66.9134 128.704C65.1604 127.776 70.4128 125.114 76.7112 119.611C77.6895 118.757 77.9725 118.437 78.1094 118.212C76.5808 118.047 67.6816 122.593 65.9769 123.78C64.4104 124.87 63.6644 125.288 63.097 125.054C61.2397 124.294 65.7473 121.866 72.381 115.868C72.5336 115.731 73.7035 114.753 73.9135 114.288C73.4831 114.241 72.5975 114.543 71.2893 115.083C67.2394 116.757 62.6731 120.23 59.4867 123.239C59.0941 123.6 58.6819 124.746 57.8837 124.621C57.5915 124.574 57.3607 124.358 57.2668 124.045C57.0724 123.436 57.8537 122.796 58.3167 122.182C60.1245 119.616 61.1862 117.374 61.3453 116.84C59.1097 118.016 50.4427 129.13 48.6689 131.341C48.0963 132.051 47.1024 131.229 47.5928 130.599C50.1518 127.309 55.3912 120.788 58.5385 117.56C59.7528 116.314 61.014 115.124 62.0614 115.563C62.1902 115.617 62.3064 115.697 62.4025 115.798C62.4986 115.899 62.5726 116.019 62.6196 116.151C62.8531 116.793 62.4761 117.623 62.107 118.354C61.9388 118.688 61.7327 119.139 61.2788 119.948C64.4561 117.334 67.2707 115.357 70.9775 113.799C72.3484 113.223 74.6074 112.334 75.1682 113.752C75.5869 114.81 74.3178 115.904 73.4831 116.633C72.8909 117.15 71.7145 118.298 68.8359 120.655C71.721 119.12 73.1062 118.577 74.7991 117.858C76.5299 117.124 78.4407 116.412 79.2559 117.427C80.0894 118.458 78.4668 119.829 77.6908 120.49C76.14 121.81 75.523 122.421 72.0979 125.028C73.4609 124.381 74.9048 123.762 76.3708 123.278C77.1925 122.993 78.6925 122.476 79.3903 123.366C80.3098 124.54 78.3103 125.974 77.2356 126.794C75.2813 128.293 73.2494 129.687 71.1484 130.972C72.8596 130.581 74.82 130.361 75.2491 131.642C75.8282 133.346 72.2636 134.9 70.5719 135.755C64.4352 138.853 55.6299 147.237 54.5786 147.237H54.5799Z" fill="#083A55"/>
<path d="M54.7103 134.879C56.5768 133.679 57.7533 132.151 58.1146 130.461C58.4263 128.999 58.0533 127.743 57.6398 127.11C57.5482 126.965 57.5173 126.79 57.5537 126.623C57.5901 126.456 57.6908 126.309 57.8342 126.216C57.9776 126.122 58.152 126.088 58.3199 126.122C58.4878 126.156 58.6357 126.255 58.7315 126.397C59.3093 127.28 59.7854 128.881 59.3902 130.734C59.0876 132.154 58.1524 134.217 55.416 135.977C54.696 136.44 53.9838 135.346 54.7103 134.879Z" fill="#083A55"/>
<path d="M195.25 76.3718C192.09 74.5862 183.872 70.0681 180.773 68.8146C180.188 68.5798 177.781 67.3942 177.143 68.0399C176.672 68.5185 177.985 69.5437 178.244 69.7785C179.505 70.9107 180.842 72.0311 182.276 72.9415C181.236 72.5541 180.127 72.3376 179.064 72.0115C175.448 70.9028 171.772 69.9989 167.959 70.0224C167.427 70.0224 164.511 69.9011 164.526 70.9106C164.541 71.6932 166.501 72.2163 167.04 72.4145C171.744 74.1584 178.897 75.9884 178.897 76.2883C178.571 76.6079 176.239 75.9844 175.836 75.9323C172.63 75.5227 169.372 75.1875 166.136 75.2332C165.437 75.241 162.429 75.0662 162.133 76.0614C161.912 76.7983 164.078 77.4061 164.479 77.5431C167.312 78.5226 170.229 79.2896 173.139 80.0422C173.367 80.1022 176.724 81.1208 176.724 81.1587C176.442 81.5004 174.408 81.0595 174.042 81.0295C172.632 80.9148 164.665 80.2117 164.282 81.5917C164.048 82.4499 166.66 83.0043 167.123 83.1334C169.767 83.8782 172.471 84.3868 175.19 84.7899C175.472 84.8277 177.492 84.9112 177.606 85.2764C177.758 85.7746 171.185 85.759 171.302 87.4337C171.386 88.6872 175.799 88.7707 176.596 88.8398C181.729 89.2859 195.51 93.4023 195.642 93.4597C194.768 90.8471 195.206 77.6044 195.252 76.3744L195.25 76.3718Z" fill="white"/>
<path d="M248.244 76.5775C248.159 76.4904 248.056 76.4234 247.942 76.3812C247.829 76.339 247.707 76.3227 247.586 76.3335C229.118 79.07 197.773 75.8862 195.467 75.6462C192.011 73.6988 184.944 69.9046 180.738 68.0864C179.126 67.3898 177.49 66.7664 176.684 67.5816C176.587 67.6797 176.511 67.7969 176.462 67.9258C176.412 68.0546 176.39 68.1924 176.397 68.3303C176.424 69.0098 177.091 69.6346 177.709 70.1707C178.057 70.4719 178.395 70.7863 179.092 71.3354C175.128 70.1263 171.842 69.4076 167.814 69.3672C166.314 69.3515 163.859 69.3933 163.881 70.9219C163.903 72.0593 165.498 72.5823 166.552 72.9332C167.373 73.2071 168.793 73.7901 172.382 74.8766C169.101 74.5584 167.623 74.5975 165.822 74.5766C163.935 74.5518 161.888 74.6249 161.516 75.8718C161.133 77.154 163.162 77.7996 164.137 78.1113C165.814 78.6487 166.74 79.0257 171.033 80.1604C169.451 80.0635 167.864 80.0722 166.284 80.1865C165.472 80.2387 163.961 80.3365 163.662 81.4152C163.271 82.8408 165.617 83.3977 166.955 83.7564C169.111 84.3381 171.419 84.8533 174.182 85.289C172.452 85.5812 170.566 86.129 170.658 87.4711C170.778 89.2737 174.658 89.3415 176.546 89.4824C182.45 89.9258 189.37 92.6036 195.206 93.9823C200.765 102.677 228.369 110.183 238.613 112.258C238.773 112.291 238.939 112.262 239.078 112.178C239.218 112.094 239.321 111.962 239.367 111.806C246.057 89.3454 249.044 77.4905 248.246 76.5735L248.244 76.5775ZM176.213 88.1572C172.592 87.9394 172.032 87.4815 171.953 87.4137C172.246 86.7746 175.928 86.3703 176.346 86.2985C177.687 86.0911 177.979 85.9385 178.158 85.6529C178.209 85.5675 178.242 85.4725 178.255 85.3738C178.268 85.2751 178.261 85.1747 178.234 85.079C177.958 84.1973 176.233 84.2638 175.291 84.1425C171.033 83.5112 169.274 83.0051 167.082 82.4469C165.767 82.1104 165.239 81.8573 165.029 81.7112C165.202 81.633 165.573 81.5417 166.366 81.4908C169.087 81.3121 171.1 81.4425 173.995 81.6786C174.768 81.7438 176.634 82.3021 177.233 81.5717C177.329 81.4551 177.381 81.309 177.382 81.1582C177.382 80.6782 177.382 80.4982 173.307 79.4104C171.994 79.0713 163.972 76.9727 162.875 76.1757C163.132 76.0362 163.85 75.8627 165.798 75.8836C168.78 75.9149 170.523 75.9096 175.754 76.5788C176.546 76.6883 179.552 77.6835 179.552 76.2892C179.552 75.7896 179.319 75.6762 177.943 75.1936C176.319 74.6223 166.089 71.7137 165.248 70.9376C165.651 70.7341 166.552 70.6728 167.966 70.6741C171.863 70.678 175.672 71.6524 178.875 72.6358C181.891 73.5632 182.063 73.6923 182.501 73.9727C183.056 74.3301 183.534 74.6379 184.004 74.351C184.129 74.2711 184.229 74.1569 184.292 74.0219C184.355 73.8869 184.377 73.7367 184.357 73.5893C184.317 73.1328 183.961 72.9149 182.865 72.3632C181.652 71.7528 178.511 69.2994 177.846 68.4959C180.13 68.6603 192.576 75.5262 194.591 76.6531C194.496 79.3426 194.21 88.838 194.775 92.541C189.085 91.1232 181.957 88.5041 176.211 88.1598L176.213 88.1572Z" fill="#083A55"/>
<path d="M190.629 83.9013C185.755 83.0078 184.517 79.8396 183.907 76.5514C183.887 76.3867 183.931 76.2205 184.029 76.0868C184.128 75.9531 184.273 75.8617 184.436 75.8314C184.599 75.801 184.768 75.8338 184.908 75.9232C185.048 76.0126 185.148 76.1519 185.189 76.3127C185.7 79.0714 186.561 81.8287 190.864 82.6191C191.029 82.6555 191.173 82.7545 191.267 82.8952C191.36 83.0359 191.395 83.2073 191.365 83.3734C191.335 83.5395 191.241 83.6874 191.104 83.7858C190.966 83.8843 190.796 83.9256 190.629 83.9013Z" fill="#083A55"/>
</svg>
