<svg width="33" height="34" viewBox="0 0 33 34" fill="none" xmlns="http://www.w3.org/2000/svg">
<path d="M8.76125 0H21.8934C22.4845 0 23.0565 0.209474 23.5079 0.591233L31.4472 7.30657C32.0088 7.78158 32.3327 8.4798 32.3327 9.21534V30.1389C32.3327 33.1231 32.2986 33.3333 29.2374 33.3333H8.76125C5.7001 33.3333 5.66602 33.1231 5.66602 30.1389V3.19444C5.66602 0.210208 5.7001 0 8.76125 0Z" fill="#E9EAEE"/>
<rect y="17.666" width="19" height="11" rx="2" fill="#287D3C"/>
<path d="M7.81724 25.666L6.81624 24.196L5.91324 25.666H5.20624L6.46624 23.685L5.19924 21.823H5.92724L6.90024 23.251L7.78924 21.823H8.49624L7.24324 23.755L8.54524 25.666H7.81724ZM9.77642 20.486V25.666H9.13942V20.486H9.77642ZM12.0046 21.774C12.4386 21.774 12.7862 21.8883 13.0476 22.117C13.3136 22.341 13.4746 22.6443 13.5306 23.027H12.9216C12.8936 22.7983 12.7979 22.6117 12.6346 22.467C12.4759 22.3177 12.2612 22.243 11.9906 22.243C11.7619 22.243 11.5822 22.299 11.4516 22.411C11.3256 22.5183 11.2626 22.6653 11.2626 22.852C11.2626 22.992 11.3046 23.1063 11.3886 23.195C11.4772 23.279 11.5846 23.3443 11.7106 23.391C11.8412 23.433 12.0186 23.4797 12.2426 23.531C12.5272 23.5963 12.7559 23.664 12.9286 23.734C13.1059 23.7993 13.2552 23.9067 13.3766 24.056C13.5026 24.2053 13.5656 24.406 13.5656 24.658C13.5656 24.9707 13.4466 25.225 13.2086 25.421C12.9752 25.617 12.6626 25.715 12.2706 25.715C11.8132 25.715 11.4399 25.6053 11.1506 25.386C10.8612 25.1667 10.6909 24.861 10.6396 24.469H11.2556C11.2789 24.7023 11.3792 24.8913 11.5566 25.036C11.7386 25.1807 11.9766 25.253 12.2706 25.253C12.4899 25.253 12.6602 25.197 12.7816 25.085C12.9076 24.973 12.9706 24.826 12.9706 24.644C12.9706 24.4947 12.9262 24.3757 12.8376 24.287C12.7489 24.1983 12.6392 24.1307 12.5086 24.084C12.3779 24.0373 12.1982 23.9883 11.9696 23.937C11.6849 23.8717 11.4562 23.8063 11.2836 23.741C11.1156 23.6757 10.9709 23.573 10.8496 23.433C10.7329 23.2883 10.6746 23.0947 10.6746 22.852C10.6746 22.53 10.7936 22.271 11.0316 22.075C11.2696 21.8743 11.5939 21.774 12.0046 21.774Z" fill="white"/>
</svg>
