<svg width="328" height="301" viewBox="0 0 328 301" fill="none" xmlns="http://www.w3.org/2000/svg">
<path d="M240.181 96.3223C242.328 97.259 247.58 97.1386 247.58 97.1386C247.58 97.1386 246.449 93.6997 246.356 93.4923C245.198 91.0838 241.559 87.1031 238.588 87.4711C238.098 87.5517 237.631 87.7345 237.216 88.0077C236.801 88.2808 236.449 88.6382 236.181 89.0565C235.914 89.4749 235.737 89.9449 235.663 90.4359C235.589 90.927 235.619 91.4281 235.752 91.9068C236.24 93.9941 238.347 95.5195 240.181 96.3223Z" fill="#C2C2C2"/>
<path d="M293.301 97.4736C293.342 97.5071 294.251 93.988 294.285 93.7605C294.653 91.0844 293.81 85.779 291.114 84.4811C290.66 84.2773 290.169 84.1713 289.672 84.1699C289.175 84.1686 288.683 84.272 288.229 84.4733C287.774 84.6746 287.368 84.9694 287.035 85.3385C286.702 85.7075 286.45 86.1426 286.297 86.6153C285.574 88.6224 286.491 91.0309 287.575 92.7101C288.866 94.6771 293.295 97.4736 293.301 97.4736Z" fill="#C2C2C2"/>
<path d="M308.977 78.4464C306 78.1253 302.467 82.1997 301.377 84.6416C301.283 84.8557 300.193 88.3213 300.246 88.3213H300.313C299.751 88.9903 299.156 89.6594 298.513 90.4221C297.356 91.8471 296.051 93.4728 294.753 95.3394C293.332 97.3328 292.03 99.4081 290.853 101.555C289.516 103.952 288.397 106.464 287.508 109.061C287.504 109.092 287.504 109.124 287.508 109.155C287.508 108.278 287.508 105.81 287.461 105.636C287.113 102.96 284.892 98.0691 281.948 97.5271C281.456 97.4493 280.953 97.4766 280.472 97.6071C279.991 97.7376 279.543 97.9684 279.157 98.2843C278.772 98.6003 278.458 98.9942 278.235 99.4402C278.013 99.8863 277.887 100.374 277.867 100.872C277.693 102.98 279.205 105.087 280.71 106.419C282.39 107.917 287.046 109.369 287.401 109.483C286.565 112.146 285.906 114.861 285.427 117.611C285.146 119.21 284.905 120.829 284.691 122.462C284.691 121.706 284.691 121.023 284.651 120.93C284.303 118.254 282.082 113.363 279.145 112.821C278.652 112.743 278.149 112.771 277.667 112.901C277.186 113.032 276.738 113.262 276.352 113.578C275.966 113.894 275.651 114.288 275.428 114.734C275.205 115.18 275.078 115.668 275.057 116.166C274.883 118.274 276.395 120.381 277.901 121.713C279.406 123.044 283.36 124.389 284.41 124.71L284.169 126.59C283.815 129.587 283.467 132.611 283.039 135.521C282.891 136.552 282.704 137.562 282.524 138.572C282.524 137.903 282.524 137.334 282.483 137.234C282.142 134.558 279.921 129.667 276.977 129.125C276.485 129.048 275.982 129.075 275.501 129.205C275.02 129.336 274.572 129.567 274.186 129.883C273.801 130.198 273.487 130.592 273.264 131.038C273.042 131.485 272.917 131.973 272.896 132.471C272.722 134.571 274.234 136.679 275.74 138.01C277.245 139.341 280.811 140.546 282.055 140.947C281.834 141.977 281.62 143.014 281.386 144.005C281.199 144.674 281.058 145.343 280.831 146.012C280.603 146.681 280.403 147.35 280.195 147.979C279.747 149.216 279.292 150.494 278.817 151.685C278.503 152.521 278.182 153.304 277.86 154.1C278.021 153.077 278.295 151.063 278.302 150.889C278.269 148.538 277.634 146.234 276.455 144.199C276.463 143.937 276.448 143.675 276.409 143.416C276.347 142.923 276.182 142.448 275.924 142.023C275.667 141.598 275.323 141.231 274.915 140.948C274.506 140.665 274.043 140.47 273.554 140.378C273.066 140.286 272.564 140.297 272.08 140.412C269.19 141.181 267.35 146.259 267.216 148.929C267.216 149.083 267.31 150.802 267.397 151.886C267.25 151.257 267.116 150.641 266.955 149.999C266.654 148.721 266.286 147.45 265.952 146.085L265.356 144.078C265.169 143.409 264.888 142.74 264.654 142.071C264.085 140.512 263.429 138.953 262.734 137.388C263.851 137.12 267.812 136.11 269.424 134.886C271.036 133.661 272.682 131.688 272.669 129.574C272.683 129.077 272.592 128.583 272.402 128.124C272.212 127.665 271.928 127.251 271.567 126.908C271.207 126.566 270.779 126.304 270.31 126.139C269.842 125.973 269.344 125.908 268.849 125.948C265.871 126.269 263.289 131.012 262.747 133.628C262.747 133.789 262.54 135.709 262.466 136.766C262.038 135.836 261.616 134.906 261.128 133.976C259.79 131.3 258.365 128.624 256.953 125.948C256.518 125.131 256.097 124.315 255.669 123.492C256.07 123.405 260.807 122.308 262.586 120.936C264.165 119.726 265.845 117.739 265.831 115.624C265.845 115.128 265.754 114.634 265.564 114.175C265.375 113.715 265.09 113.301 264.73 112.959C264.37 112.617 263.941 112.355 263.473 112.189C263.004 112.024 262.506 111.959 262.011 111.998C259.034 112.319 256.451 117.063 255.91 119.679C255.869 119.873 255.622 122.642 255.595 123.345C254.658 121.545 253.742 119.739 252.919 117.919C251.784 115.472 250.809 112.953 250.002 110.379C250.189 110.332 255.133 109.208 256.96 107.81C258.539 106.599 260.218 104.612 260.205 102.498C260.219 102.001 260.128 101.506 259.937 101.046C259.747 100.587 259.462 100.172 259.101 99.8302C258.74 99.488 258.311 99.2259 257.842 99.0607C257.372 98.8956 256.874 98.8313 256.378 98.8719C253.407 99.193 250.825 103.936 250.283 106.552C250.25 106.72 250.056 108.827 249.989 109.831H249.821C249.075 107.219 248.565 104.545 248.296 101.842C248.129 100.357 248.055 98.9254 248.008 97.5338C248.952 97.4201 253.253 96.8648 255.033 95.7676C256.813 94.6704 258.633 92.9443 258.847 90.8435C258.913 90.3516 258.876 89.8511 258.737 89.3746C258.598 88.898 258.36 88.4561 258.038 88.0776C257.717 87.699 257.32 87.3922 256.873 87.1772C256.425 86.9621 255.937 86.8436 255.441 86.8294C252.451 86.8294 249.366 91.2517 248.544 93.794C248.497 93.9345 248.196 95.3863 247.995 96.4701C247.995 95.8412 247.961 95.1922 247.961 94.5901C247.961 92.3288 248.109 90.2548 248.256 88.4217C248.343 87.378 248.443 86.4146 248.55 85.5582C249.413 84.9628 252.872 82.5208 253.936 80.7747C255 79.0285 255.829 76.6133 255.053 74.6463C254.886 74.1777 254.623 73.7494 254.28 73.3893C253.937 73.0291 253.522 72.7452 253.062 72.5559C252.602 72.3666 252.107 72.2762 251.61 72.2905C251.113 72.3049 250.624 72.4237 250.176 72.6393C247.5 73.9773 246.831 79.3295 247.259 82.0057C247.299 82.2331 248.303 85.7255 248.35 85.6987L248.396 85.6586C248.283 86.5082 248.169 87.4114 248.062 88.4016C247.881 90.2347 247.687 92.3087 247.634 94.5834C247.553 97.038 247.614 99.4951 247.814 101.943C248.016 104.676 248.463 107.385 249.152 110.038C249.152 110.038 249.152 110.098 249.152 110.132C248.684 109.389 247.299 107.369 247.145 107.221C245.399 105.214 240.836 102.324 238.08 103.495C237.627 103.701 237.223 104.001 236.894 104.374C236.565 104.747 236.319 105.185 236.17 105.659C236.022 106.134 235.975 106.635 236.034 107.129C236.092 107.623 236.253 108.099 236.508 108.526C237.525 110.379 239.967 111.289 241.94 111.583C244.168 111.905 248.851 110.546 249.226 110.433C249.995 113.117 250.945 115.745 252.069 118.3C252.738 119.792 253.407 121.278 254.123 122.756C253.695 122.127 253.307 121.572 253.247 121.498C251.501 119.491 246.931 116.601 244.181 117.772C243.729 117.978 243.325 118.278 242.996 118.651C242.667 119.024 242.42 119.462 242.272 119.936C242.124 120.411 242.077 120.912 242.135 121.406C242.193 121.9 242.355 122.376 242.609 122.803C243.626 124.656 246.061 125.573 248.035 125.861C250.009 126.148 254.056 125.071 255.12 124.77C255.401 125.339 255.675 125.901 255.956 126.463C257.294 129.139 258.679 131.862 259.971 134.538C260.412 135.481 260.814 136.431 261.222 137.375C260.84 136.819 260.512 136.351 260.459 136.291C258.713 134.284 254.143 131.393 251.394 132.564C250.941 132.77 250.537 133.069 250.209 133.441C249.88 133.813 249.633 134.251 249.484 134.725C249.336 135.199 249.289 135.699 249.347 136.193C249.405 136.686 249.567 137.162 249.821 137.589C250.838 139.442 253.274 140.358 255.247 140.646C257.221 140.934 260.88 139.977 262.145 139.609C262.526 140.593 262.921 141.576 263.249 142.539C263.463 143.208 263.71 143.837 263.884 144.513C264.058 145.189 264.252 145.851 264.44 146.52C264.747 147.798 265.069 149.116 265.336 150.367C265.53 151.243 265.697 152.073 265.871 152.916C265.437 151.966 264.533 150.133 264.466 149.992C263.041 147.731 258.967 144.192 256.063 144.935C255.586 145.07 255.142 145.305 254.761 145.623C254.38 145.942 254.07 146.337 253.853 146.784C253.635 147.23 253.513 147.717 253.497 148.214C253.48 148.71 253.568 149.205 253.755 149.665C254.478 151.672 256.746 152.923 258.653 153.511C260.76 154.181 265.41 153.565 266.012 153.511C266.286 154.903 266.547 156.261 266.768 157.526C267.156 159.707 267.437 161.714 267.718 163.5H269.651C269.344 161.627 268.982 159.486 268.514 157.198C268.233 155.786 267.912 154.288 267.564 152.742C268.962 152.179 270.326 151.538 271.652 150.822C273.184 152.481 277.111 154.421 277.62 154.669C277.084 156.007 276.549 157.251 276.027 158.442C275.224 160.289 274.455 161.981 273.739 163.5H275.806C276.402 162.162 277.024 160.704 277.66 159.131C278.208 157.793 278.77 156.368 279.332 154.89C279.894 155.01 284.497 155.947 286.645 155.458C288.592 155.017 290.947 153.92 291.816 151.993C292.038 151.548 292.162 151.061 292.182 150.564C292.203 150.068 292.118 149.572 291.933 149.111C291.749 148.649 291.469 148.232 291.112 147.885C290.756 147.539 290.33 147.272 289.863 147.102C287.026 146.145 282.697 149.37 281.112 151.518C281.018 151.645 280.155 153.137 279.627 154.087C279.854 153.478 280.082 152.896 280.296 152.267C280.751 151.036 281.165 149.792 281.634 148.454C281.828 147.785 282.028 147.116 282.222 146.447C282.416 145.778 282.577 145.068 282.758 144.373C283.146 142.754 283.427 141.094 283.734 139.415C284.812 139.81 288.672 141.155 290.672 141.014C292.673 140.874 295.161 140.138 296.312 138.338C296.599 137.931 296.796 137.468 296.891 136.979C296.986 136.491 296.978 135.988 296.865 135.503C296.753 135.018 296.539 134.562 296.239 134.165C295.938 133.768 295.558 133.439 295.121 133.2C292.445 131.862 287.695 134.357 285.802 136.244C285.688 136.364 284.464 137.87 283.835 138.706C283.989 137.696 284.156 136.699 284.283 135.662C284.651 132.691 284.952 129.681 285.226 126.677C285.313 125.753 285.414 124.837 285.507 123.92C285.895 124.061 290.445 125.76 292.686 125.6C294.693 125.459 297.175 124.73 298.326 122.923C298.612 122.517 298.809 122.054 298.905 121.566C299 121.078 298.991 120.576 298.879 120.091C298.766 119.607 298.553 119.152 298.252 118.756C297.952 118.359 297.571 118.031 297.135 117.792C294.459 116.421 289.709 118.949 287.816 120.836C287.675 120.977 285.942 123.144 285.527 123.72C285.742 121.713 285.969 119.705 286.283 117.698C286.685 115.03 287.259 112.391 288.003 109.797C288.184 109.864 292.927 111.657 295.222 111.49C297.229 111.356 299.711 110.62 300.862 108.854C301.148 108.447 301.345 107.984 301.441 107.495C301.536 107.007 301.527 106.503 301.415 106.019C301.302 105.534 301.089 105.078 300.788 104.681C300.488 104.284 300.107 103.955 299.671 103.716C296.995 102.378 292.245 104.873 290.351 106.76C290.231 106.88 288.906 108.533 288.297 109.336L288.143 109.255C288.966 106.665 290.016 104.154 291.281 101.749C291.95 100.411 292.686 99.1863 293.422 98.0022C294.272 98.4236 298.172 100.317 300.253 100.404C302.333 100.491 304.809 100.029 306.147 98.3969C306.475 98.024 306.722 97.5862 306.87 97.1118C307.018 96.6374 307.064 96.1372 307.006 95.6437C306.948 95.1501 306.787 94.6743 306.533 94.2473C306.279 93.8203 305.938 93.4515 305.531 93.1651C303.036 91.5126 298.025 93.4996 295.931 95.1722C295.817 95.2591 294.767 96.3095 294.011 97.0856C294.352 96.5571 294.68 96.0018 295.021 95.5C296.272 93.6133 297.537 91.9675 298.667 90.5157C299.336 89.6928 299.918 88.9636 300.494 88.2878C301.544 88.2878 305.772 88.1407 307.626 87.2776C309.479 86.4146 311.499 84.8424 311.934 82.7751C312.049 82.2949 312.062 81.796 311.972 81.3104C311.883 80.8249 311.693 80.3635 311.414 79.9558C311.136 79.5481 310.775 79.2032 310.355 78.9433C309.935 78.6833 309.466 78.5141 308.977 78.4464Z" fill="#C2C2C2"/>
<path d="M10.0546 144.854C12.2022 145.79 17.4541 145.67 17.4541 145.67C17.4541 145.67 16.3234 142.238 16.2297 142.024C15.0723 139.615 11.4328 135.635 8.4623 136.036C7.97229 136.117 7.50472 136.299 7.09 136.573C6.67528 136.846 6.32268 137.203 6.05513 137.621C5.78758 138.04 5.61107 138.51 5.53707 139.001C5.46307 139.492 5.49324 139.993 5.62562 140.472C6.11401 142.526 8.22145 144.051 10.0546 144.854Z" fill="#C2C2C2"/>
<path d="M63.1754 146.012C63.2156 146.012 64.1254 142.519 64.1589 142.292C64.5268 139.616 63.6839 134.317 60.9877 133.012C60.5344 132.809 60.0432 132.703 59.5461 132.701C59.0491 132.7 58.5574 132.803 58.1029 133.005C57.6485 133.206 57.2416 133.501 56.9087 133.87C56.5757 134.239 56.3243 134.674 56.1707 135.147C55.4481 137.154 56.3647 139.569 57.4485 141.241C58.7197 143.208 63.1687 146.005 63.1754 146.012Z" fill="#C2C2C2"/>
<path d="M78.8507 126.977C75.8735 126.656 72.3411 130.731 71.2505 133.173C71.1569 133.387 70.0664 136.852 70.1199 136.852H70.1868C69.6248 137.488 69.0294 138.19 68.3871 138.953C67.2297 140.385 65.9251 142.011 64.6272 143.87C63.2084 145.865 61.9061 147.941 60.7267 150.086C59.3902 152.483 58.2707 154.995 57.3816 157.592C57.3777 157.623 57.3777 157.655 57.3816 157.686C57.3816 156.809 57.3816 154.341 57.3347 154.167C56.9868 151.491 54.7657 146.6 51.8219 146.058C51.3298 145.981 50.827 146.009 50.3465 146.14C49.8659 146.271 49.4184 146.502 49.0332 146.818C48.648 147.134 48.3338 147.527 48.1111 147.973C47.8884 148.418 47.7622 148.906 47.7409 149.403C47.5669 151.504 49.0789 153.611 50.5842 154.943C52.2635 156.441 56.9199 157.893 57.2745 158.007C56.4395 160.67 55.7802 163.386 55.3009 166.136C55.0199 167.735 54.779 169.36 54.565 170.986C54.565 170.23 54.565 169.548 54.5248 169.454C54.1769 166.778 51.9557 161.887 49.0187 161.345C48.5262 161.269 48.0231 161.297 47.5422 161.428C47.0613 161.559 46.6134 161.789 46.2276 162.105C45.8419 162.421 45.5271 162.814 45.3036 163.26C45.0802 163.705 44.9532 164.193 44.9309 164.691C44.757 166.791 46.269 168.899 47.7743 170.23C49.2796 171.562 53.2336 172.906 54.284 173.234L54.0431 175.107C53.6885 178.111 53.3741 181.129 52.9125 184.039C52.7653 185.069 52.5779 186.079 52.3973 187.096C52.3973 186.427 52.3973 185.852 52.3572 185.758C52.016 183.082 49.7948 178.192 46.8511 177.65C46.3589 177.573 45.8561 177.601 45.3756 177.732C44.895 177.863 44.4475 178.094 44.0623 178.409C43.6771 178.725 43.3629 179.119 43.1402 179.564C42.9175 180.01 42.7913 180.497 42.77 180.995C42.596 183.096 44.108 185.203 45.6133 186.534C47.1187 187.866 50.6846 189.07 51.929 189.471C51.7082 190.508 51.4941 191.539 51.26 192.529C51.0726 193.198 50.9321 193.867 50.7047 194.536C50.4772 195.205 50.2765 195.874 50.0691 196.503C49.6208 197.741 49.1659 199.018 48.6909 200.209C48.3764 201.046 48.0219 201.835 47.7342 202.625C47.8947 201.601 48.169 199.587 48.1757 199.413C48.144 197.062 47.5081 194.758 46.3292 192.723C46.3372 192.459 46.3215 192.195 46.2824 191.933C46.2196 191.441 46.0541 190.967 45.7964 190.542C45.5387 190.117 45.1946 189.751 44.7865 189.468C44.3784 189.185 43.9154 188.991 43.4274 188.898C42.9394 188.805 42.4373 188.816 41.9538 188.93C39.0636 189.706 37.2237 194.777 37.0899 197.446C37.0899 197.6 37.1836 199.32 37.2706 200.403C37.1234 199.775 36.9896 199.159 36.829 198.517C36.5279 197.239 36.16 195.968 35.8255 194.603L35.23 192.629C35.0427 191.96 34.7617 191.291 34.561 190.622C33.9923 189.063 33.3367 187.504 32.6409 185.939C33.7582 185.671 37.7188 184.661 39.3312 183.437C40.9435 182.212 42.5893 180.239 42.576 178.125C42.5898 177.628 42.4988 177.134 42.3091 176.675C42.1193 176.216 41.835 175.802 41.4747 175.46C41.1143 175.118 40.686 174.855 40.2176 174.69C39.7491 174.524 39.2511 174.459 38.7558 174.499C35.7786 174.826 33.1962 179.563 32.6543 182.179C32.6543 182.34 32.4469 184.26 32.3733 185.323C31.9451 184.387 31.5236 183.457 31.0687 182.534C29.7306 179.857 28.3056 177.181 26.8939 174.505C26.459 173.682 26.0376 172.866 25.6094 172.05C26.0108 171.956 30.7475 170.859 32.5271 169.494C34.106 168.277 35.7853 166.29 35.7719 164.175C35.7857 163.679 35.6948 163.185 35.5051 162.726C35.3153 162.266 35.031 161.852 34.6707 161.51C34.3103 161.168 33.882 160.906 33.4135 160.74C32.9451 160.575 32.447 160.51 31.9518 160.549C28.9746 160.877 26.3921 165.614 25.8502 168.23C25.8101 168.43 25.5625 171.194 25.5358 171.896C24.5991 170.096 23.6826 168.29 22.8597 166.47C21.7232 164.024 20.7487 161.505 19.9427 158.93C20.13 158.89 25.0742 157.766 26.9006 156.361C28.4795 155.15 30.1588 153.163 30.1454 151.049C30.1593 150.552 30.0682 150.057 29.878 149.598C29.6879 149.138 29.403 148.723 29.0419 148.381C28.6808 148.039 28.2516 147.777 27.7824 147.612C27.3131 147.447 26.8143 147.382 26.3186 147.423C23.3481 147.744 20.7656 152.488 20.2237 155.103C20.2237 155.277 19.9962 157.385 19.9293 158.388H19.7621C19.0151 155.777 18.5046 153.103 18.2367 150.4C18.0694 148.915 17.9958 147.483 17.949 146.092C18.8923 145.978 23.1942 145.423 24.9738 144.325C26.7534 143.228 28.5732 141.502 28.7873 139.401C28.8541 138.909 28.8167 138.409 28.6775 137.932C28.5383 137.456 28.3003 137.014 27.9792 136.635C27.658 136.257 27.2608 135.95 26.8133 135.735C26.3659 135.52 25.8782 135.401 25.3819 135.387C22.3913 135.387 19.3071 139.809 18.4842 142.352C18.4374 142.492 18.1363 143.944 17.9356 145.028C17.9356 144.399 17.9356 143.75 17.9356 143.148C17.9356 140.887 18.0828 138.813 18.23 136.979C18.317 135.936 18.4173 134.972 18.5244 134.123C19.3874 133.527 22.8463 131.079 23.8766 129.332C24.9069 127.586 25.7699 125.171 24.9939 123.211C24.8271 122.742 24.5637 122.314 24.2206 121.954C23.8775 121.594 23.4625 121.31 23.0026 121.12C22.5426 120.931 22.0479 120.841 21.5507 120.855C21.0535 120.869 20.5649 120.988 20.1166 121.204C17.4405 122.582 16.7715 127.894 17.1997 130.57C17.2398 130.798 18.2434 134.297 18.2902 134.263L18.337 134.23C18.2233 135.073 18.1096 135.976 18.0025 136.966C17.8219 138.806 17.6279 140.88 17.5743 143.148C17.4939 145.602 17.5542 148.06 17.755 150.507C17.9563 153.24 18.4041 155.95 19.093 158.602C19.093 158.636 19.093 158.663 19.093 158.696C18.6247 157.953 17.2398 155.933 17.0859 155.786C15.3398 153.779 10.777 150.895 8.0206 152.059C7.5681 152.266 7.16417 152.565 6.83515 152.938C6.50612 153.311 6.2594 153.749 6.11105 154.224C5.96271 154.699 5.91608 155.199 5.9742 155.693C6.03233 156.187 6.1939 156.663 6.44839 157.09C7.46531 158.944 9.90727 159.86 11.8809 160.148C14.1088 160.469 18.792 159.111 19.1666 159.004C19.9367 161.685 20.8866 164.311 22.01 166.865C22.679 168.357 23.3481 169.842 24.0639 171.321C23.6357 170.698 23.2477 170.136 23.1875 170.07C21.4413 168.063 16.8719 165.172 14.1222 166.336C13.6813 166.544 13.2881 166.841 12.9674 167.209C12.6467 167.576 12.4052 168.005 12.2583 168.47C12.1113 168.935 12.0619 169.425 12.1132 169.91C12.1646 170.395 12.3155 170.864 12.5566 171.287C13.5735 173.14 16.0088 174.057 17.9824 174.345C19.9561 174.632 24.0037 173.555 25.0675 173.254L25.9038 174.954C27.2418 177.63 28.6267 180.346 29.9179 183.022C30.3595 183.972 30.7609 184.915 31.169 185.859C30.7877 185.303 30.4598 184.842 30.4063 184.775C28.6602 182.768 24.0907 179.878 21.341 181.048C20.8885 181.255 20.4845 181.554 20.1555 181.927C19.8265 182.3 19.5798 182.738 19.4314 183.213C19.2831 183.688 19.2365 184.188 19.2946 184.682C19.3527 185.176 19.5143 185.652 19.7688 186.079C20.7857 187.926 23.2209 188.843 25.1946 189.13C27.1682 189.418 30.8278 188.461 32.0923 188.1C32.4736 189.077 32.8683 190.06 33.1962 191.03C33.4103 191.699 33.6578 192.322 33.8317 192.997C34.0057 193.673 34.1997 194.335 34.387 195.004C34.6948 196.282 35.0159 197.6 35.2835 198.858C35.4776 199.728 35.6448 200.557 35.8188 201.4C35.3839 200.457 34.4807 198.624 34.4138 198.477C32.9888 196.215 28.9144 192.683 26.0108 193.419C25.5327 193.555 25.0888 193.79 24.7078 194.11C24.3268 194.429 24.0173 194.825 23.7996 195.272C23.5818 195.719 23.4606 196.207 23.4439 196.703C23.4272 197.2 23.5154 197.695 23.7026 198.155C24.4252 200.163 26.6932 201.414 28.5999 201.996C30.7074 202.665 35.3571 202.049 35.9593 201.996C36.2336 203.387 36.4945 204.745 36.7153 206.01C37.1033 208.191 37.3843 210.198 37.6653 211.984H39.5988C39.291 210.111 38.9297 207.97 38.4614 205.689C38.1804 204.277 37.8593 202.772 37.5114 201.226C38.9115 200.669 40.2766 200.028 41.5992 199.306C43.1313 200.965 47.0585 202.906 47.5669 203.153C47.0317 204.491 46.4965 205.736 45.9746 206.926C45.1718 208.78 44.4024 210.466 43.6865 211.984H45.7538C46.3493 210.646 46.9715 209.188 47.6071 207.616C48.1557 206.277 48.7176 204.852 49.2796 203.374C49.8416 203.494 54.4445 204.431 56.5921 203.943C58.539 203.508 60.894 202.404 61.7637 200.477C61.9849 200.032 62.1096 199.545 62.1298 199.048C62.1499 198.552 62.065 198.056 61.8806 197.595C61.6963 197.133 61.4165 196.716 61.0597 196.37C60.7029 196.024 60.2771 195.757 59.8101 195.586C56.9735 194.636 52.6448 197.854 51.0592 200.002C50.9656 200.129 50.1025 201.621 49.574 202.571C49.8015 201.962 50.0289 201.38 50.243 200.751C50.698 199.52 51.1128 198.276 51.5811 196.938C51.7751 196.269 51.9758 195.6 52.1698 194.931C52.3639 194.262 52.5244 193.553 52.7051 192.857C53.0931 191.238 53.3741 189.578 53.6818 187.899C54.759 188.294 58.6193 189.639 60.6197 189.498C62.6201 189.358 65.1089 188.628 66.2596 186.856C66.5458 186.449 66.743 185.987 66.8383 185.498C66.9335 185.01 66.9246 184.508 66.8122 184.023C66.6998 183.539 66.4864 183.084 66.1859 182.688C65.8855 182.291 65.5048 181.963 65.0687 181.724C62.3926 180.353 57.6425 182.882 55.7491 184.761C55.6354 184.882 54.4111 186.387 53.7822 187.224C53.9361 186.213 54.1033 185.216 54.2304 184.179C54.5984 181.216 54.8995 178.198 55.1738 175.194C55.2607 174.271 55.3611 173.355 55.4548 172.438C55.8428 172.585 60.3922 174.278 62.6334 174.117C64.6405 173.983 67.1226 173.247 68.2734 171.481C68.5597 171.074 68.757 170.611 68.8523 170.123C68.9476 169.634 68.9387 169.131 68.8264 168.646C68.714 168.161 68.5006 167.705 68.2001 167.309C67.8996 166.912 67.5188 166.583 67.0825 166.343C64.4064 164.972 59.6563 167.501 57.7629 169.387C57.6224 169.528 55.8896 171.695 55.4748 172.271C55.6889 170.264 55.9164 168.257 56.2308 166.249C56.6331 163.581 57.2074 160.942 57.9502 158.348C58.1309 158.415 62.8743 160.208 65.1691 160.048C67.1762 159.907 69.6583 159.171 70.809 157.371C71.0952 156.965 71.2924 156.502 71.3877 156.014C71.4829 155.526 71.474 155.024 71.3616 154.539C71.2492 154.055 71.0358 153.6 70.7353 153.203C70.4349 152.807 70.0542 152.479 69.6181 152.24C66.942 150.868 62.1919 153.391 60.2985 155.277C60.1781 155.404 58.8534 157.05 58.2446 157.853L58.0907 157.773C58.9121 155.185 59.9622 152.675 61.2285 150.273C61.8975 148.935 62.6334 147.704 63.3694 146.52C64.219 146.941 68.1195 148.841 70.2002 148.922C72.2809 149.002 74.7563 148.547 76.0943 146.915C76.4228 146.542 76.6692 146.104 76.8172 145.629C76.9653 145.155 77.0118 144.655 76.9538 144.161C76.8957 143.668 76.7344 143.192 76.4802 142.765C76.2261 142.338 75.8849 141.969 75.4788 141.683C72.9833 140.03 67.9723 142.017 65.8782 143.69C65.7645 143.783 64.7141 144.827 63.9581 145.603C64.2993 145.075 64.6272 144.519 64.9684 144.018C66.2194 142.131 67.4839 140.485 68.6146 139.033C69.2836 138.217 69.8657 137.488 70.441 136.812C71.4914 136.812 75.7197 136.665 77.5729 135.795C79.4261 134.926 81.4465 133.36 81.8814 131.299C81.9951 130.814 82.005 130.311 81.9105 129.821C81.816 129.332 81.6193 128.868 81.3332 128.46C81.0471 128.052 80.6781 127.709 80.2503 127.454C79.8225 127.198 79.3456 127.036 78.8507 126.977Z" fill="#C2C2C2"/>
<path d="M38.8227 115.806H289.709C291.565 115.806 293.345 116.543 294.657 117.855C295.969 119.168 296.707 120.948 296.707 122.804V287.719H31.8313V122.797C31.8331 120.943 32.5702 119.166 33.881 117.855C35.1917 116.545 36.969 115.807 38.8227 115.806Z" fill="white" stroke="#0B0D27" stroke-linecap="round" stroke-linejoin="round"/>
<path d="M285.942 129.233H42.5759V266.766H285.942V129.233Z" stroke="#0B0D27" stroke-linecap="round" stroke-linejoin="round"/>
<path d="M255.876 279.443H73.853V288.408H255.876V279.443Z" fill="#0B0D27" stroke="#0B0D27" stroke-linecap="round" stroke-linejoin="round"/>
<path d="M255.876 283.759H73.853V288.409H255.876V283.759Z" fill="white" stroke="#0B0D27" stroke-linecap="round" stroke-linejoin="round"/>
<path d="M10.4089 293.721C10.4089 293.721 13.3995 297.38 22.3712 300.364H307.378C307.378 300.364 314.021 298.705 317.012 294.055L10.4089 293.721Z" fill="#0B0D27" stroke="#0B0D27" stroke-linecap="round" stroke-linejoin="round"/>
<path d="M316.369 287.178H11.0714C10.373 287.178 9.80688 287.744 9.80688 288.442V292.898C9.80688 293.596 10.373 294.162 11.0714 294.162H316.369C317.068 294.162 317.634 293.596 317.634 292.898V288.442C317.634 287.744 317.068 287.178 316.369 287.178Z" fill="white" stroke="#0B0D27" stroke-linecap="round" stroke-linejoin="round"/>
<path d="M166.527 121.004C166.528 120.543 166.393 120.092 166.138 119.709C165.883 119.325 165.52 119.025 165.094 118.848C164.669 118.671 164.201 118.624 163.749 118.713C163.297 118.802 162.881 119.023 162.555 119.348C162.229 119.674 162.006 120.089 161.916 120.54C161.825 120.992 161.871 121.461 162.047 121.887C162.223 122.312 162.522 122.676 162.905 122.933C163.288 123.189 163.738 123.325 164.199 123.325C164.815 123.325 165.406 123.081 165.843 122.646C166.279 122.211 166.525 121.62 166.527 121.004Z" fill="white" stroke="#0B0D27" stroke-linecap="round" stroke-linejoin="round"/>
<path d="M1.18311 300.364H327" stroke="#0B0D27" stroke-linecap="round" stroke-linejoin="round"/>
<path d="M185.313 155.044C186.123 154.235 186.722 153.24 187.057 152.146C187.392 151.051 187.452 149.891 187.233 148.768L182.851 153.144C182.601 153.389 182.265 153.526 181.914 153.526C181.564 153.526 181.228 153.389 180.978 153.144L177.338 149.504C177.093 149.254 176.956 148.918 176.956 148.567C176.956 148.217 177.093 147.881 177.338 147.631L181.714 143.249C180.49 143.013 179.225 143.11 178.051 143.527C176.877 143.945 175.836 144.669 175.036 145.624C174.235 146.58 173.705 147.731 173.499 148.96C173.294 150.19 173.42 151.451 173.866 152.615L162.559 163.661L161.469 162.57L163.248 160.79C163.332 160.699 163.378 160.58 163.378 160.456C163.378 160.332 163.332 160.213 163.248 160.121L161.87 158.75C161.78 158.663 161.66 158.615 161.536 158.615C161.411 158.615 161.291 158.663 161.201 158.75L160.532 159.419L159.04 157.934L159.616 157.358C159.732 157.234 159.797 157.07 159.797 156.9C159.797 156.73 159.732 156.566 159.616 156.442L147.279 144.105C146.985 143.811 146.636 143.578 146.252 143.419C145.868 143.26 145.456 143.178 145.041 143.178C144.625 143.178 144.214 143.26 143.83 143.419C143.446 143.578 143.097 143.811 142.803 144.105L141.545 145.363C141.251 145.657 141.018 146.005 140.859 146.389C140.7 146.773 140.618 147.185 140.618 147.601C140.618 148.016 140.7 148.428 140.859 148.812C141.018 149.196 141.251 149.545 141.545 149.838L153.882 162.175C154.006 162.292 154.17 162.357 154.34 162.357C154.511 162.357 154.674 162.292 154.799 162.175L155.367 161.6L156.859 163.092L156.19 163.761C156.103 163.851 156.055 163.971 156.055 164.096C156.055 164.22 156.103 164.34 156.19 164.43L157.528 165.808C157.619 165.892 157.739 165.938 157.863 165.938C157.987 165.938 158.106 165.892 158.197 165.808L159.977 164.029L161.047 165.099L151.681 174.245C150.517 173.797 149.255 173.668 148.024 173.873C146.794 174.078 145.642 174.608 144.686 175.409C143.73 176.21 143.006 177.252 142.589 178.427C142.172 179.603 142.077 180.868 142.314 182.092L146.697 177.717C146.947 177.472 147.283 177.334 147.633 177.334C147.983 177.334 148.32 177.472 148.57 177.717L152.209 181.356C152.455 181.607 152.592 181.943 152.592 182.293C152.592 182.643 152.455 182.98 152.209 183.23L147.834 187.612C149.058 187.847 150.322 187.751 151.496 187.333C152.67 186.915 153.711 186.191 154.512 185.236C155.312 184.281 155.843 183.129 156.048 181.9C156.254 180.671 156.127 179.409 155.682 178.245L165.048 169.107L177.826 181.885C177.644 182.358 177.602 182.874 177.706 183.37C177.811 183.867 178.057 184.322 178.415 184.682L181.499 187.766L185.199 184.066L182.115 180.982C181.756 180.624 181.3 180.378 180.804 180.273C180.308 180.169 179.792 180.21 179.318 180.393L166.54 167.675L177.84 156.643C179.106 157.13 180.487 157.238 181.814 156.954C183.141 156.671 184.357 156.007 185.313 155.044Z" fill="#0B0D27" stroke="#0B0D27" stroke-linecap="round" stroke-linejoin="round"/>
<path d="M216.101 212.915H109.378V219.278H216.101V212.915Z" fill="#3B4CF1"/>
<path d="M151.119 212.915H144.014L140.367 219.271H147.473L151.119 212.915Z" fill="#0B0D27"/>
<path d="M216.102 219.271V213.53L212.81 219.271H216.102Z" fill="#0B0D27"/>
<path d="M165.603 212.915H158.498L154.859 219.271H161.964L165.603 212.915Z" fill="#0B0D27"/>
<path d="M136.628 212.915H129.523L125.876 219.271H132.988L136.628 212.915Z" fill="#0B0D27"/>
<path d="M111.392 219.271H118.497L122.143 212.915H115.032L111.392 219.271Z" fill="#0B0D27"/>
<path d="M209.071 212.915H201.965L198.326 219.271H205.431L209.071 212.915Z" fill="#0B0D27"/>
<path d="M180.095 212.915H172.989L169.343 219.271H176.455L180.095 212.915Z" fill="#0B0D27"/>
<path d="M194.586 212.915H187.474L183.834 219.271H190.94L194.586 212.915Z" fill="#0B0D27"/>
<path d="M120.368 236.144C119.227 236.144 118.251 235.909 117.44 235.44C116.629 234.971 116.005 234.304 115.568 233.44C115.141 232.565 114.928 231.536 114.928 230.352C114.928 229.467 115.051 228.672 115.296 227.968C115.541 227.253 115.893 226.645 116.352 226.144C116.821 225.632 117.392 225.243 118.064 224.976C118.747 224.709 119.515 224.576 120.368 224.576C120.997 224.576 121.6 224.661 122.176 224.832C122.763 225.003 123.269 225.248 123.696 225.568C123.877 225.685 123.995 225.829 124.048 226C124.112 226.16 124.123 226.315 124.08 226.464C124.048 226.613 123.979 226.741 123.872 226.848C123.765 226.944 123.627 226.997 123.456 227.008C123.296 227.019 123.12 226.96 122.928 226.832C122.576 226.565 122.187 226.368 121.76 226.24C121.333 226.112 120.885 226.048 120.416 226.048C119.605 226.048 118.923 226.219 118.368 226.56C117.813 226.891 117.392 227.376 117.104 228.016C116.816 228.656 116.672 229.435 116.672 230.352C116.672 231.269 116.816 232.053 117.104 232.704C117.392 233.344 117.813 233.835 118.368 234.176C118.923 234.507 119.605 234.672 120.416 234.672C120.885 234.672 121.333 234.608 121.76 234.48C122.197 234.341 122.608 234.139 122.992 233.872C123.184 233.755 123.355 233.701 123.504 233.712C123.664 233.723 123.797 233.776 123.904 233.872C124.011 233.968 124.08 234.091 124.112 234.24C124.155 234.379 124.149 234.528 124.096 234.688C124.053 234.837 123.952 234.965 123.792 235.072C123.355 235.424 122.837 235.691 122.24 235.872C121.643 236.053 121.019 236.144 120.368 236.144ZM128.778 236.144C127.989 236.144 127.306 235.979 126.73 235.648C126.165 235.317 125.722 234.848 125.402 234.24C125.082 233.632 124.922 232.917 124.922 232.096C124.922 231.467 125.013 230.907 125.194 230.416C125.375 229.925 125.631 229.504 125.962 229.152C126.303 228.789 126.709 228.517 127.178 228.336C127.658 228.144 128.191 228.048 128.778 228.048C129.557 228.048 130.229 228.213 130.794 228.544C131.37 228.875 131.818 229.344 132.138 229.952C132.458 230.549 132.618 231.264 132.618 232.096C132.618 232.715 132.527 233.275 132.346 233.776C132.165 234.277 131.903 234.704 131.562 235.056C131.231 235.408 130.826 235.68 130.346 235.872C129.877 236.053 129.354 236.144 128.778 236.144ZM128.778 234.896C129.215 234.896 129.599 234.789 129.93 234.576C130.261 234.363 130.517 234.048 130.698 233.632C130.89 233.216 130.986 232.704 130.986 232.096C130.986 231.179 130.783 230.485 130.378 230.016C129.973 229.547 129.439 229.312 128.778 229.312C128.33 229.312 127.941 229.419 127.61 229.632C127.279 229.835 127.018 230.144 126.826 230.56C126.645 230.976 126.554 231.488 126.554 232.096C126.554 233.003 126.757 233.696 127.162 234.176C127.567 234.656 128.106 234.896 128.778 234.896ZM135.233 236.112C134.977 236.112 134.78 236.043 134.641 235.904C134.502 235.755 134.433 235.552 134.433 235.296V228.896C134.433 228.629 134.502 228.427 134.641 228.288C134.78 228.149 134.972 228.08 135.217 228.08C135.473 228.08 135.665 228.149 135.793 228.288C135.932 228.427 136.001 228.629 136.001 228.896V230.144L135.825 229.856C136.06 229.259 136.428 228.811 136.929 228.512C137.43 228.203 138.006 228.048 138.657 228.048C139.276 228.048 139.788 228.165 140.193 228.4C140.609 228.624 140.918 228.971 141.121 229.44C141.324 229.899 141.425 230.48 141.425 231.184V235.296C141.425 235.552 141.356 235.755 141.217 235.904C141.078 236.043 140.881 236.112 140.625 236.112C140.358 236.112 140.156 236.043 140.017 235.904C139.878 235.755 139.809 235.552 139.809 235.296V231.28C139.809 230.608 139.676 230.117 139.409 229.808C139.153 229.499 138.748 229.344 138.193 229.344C137.542 229.344 137.02 229.547 136.625 229.952C136.241 230.357 136.049 230.901 136.049 231.584V235.296C136.049 235.84 135.777 236.112 135.233 236.112ZM146.388 236.144C145.918 236.144 145.433 236.091 144.932 235.984C144.441 235.877 143.988 235.696 143.572 235.44C143.433 235.344 143.337 235.237 143.284 235.12C143.23 235.003 143.209 234.885 143.22 234.768C143.241 234.64 143.289 234.533 143.364 234.448C143.449 234.352 143.55 234.293 143.668 234.272C143.796 234.251 143.929 234.277 144.068 234.352C144.484 234.587 144.884 234.752 145.268 234.848C145.652 234.933 146.03 234.976 146.404 234.976C146.969 234.976 147.396 234.875 147.684 234.672C147.972 234.469 148.116 234.197 148.116 233.856C148.116 233.579 148.02 233.365 147.828 233.216C147.636 233.056 147.348 232.933 146.964 232.848L145.444 232.544C144.782 232.405 144.281 232.16 143.94 231.808C143.598 231.456 143.428 231.008 143.428 230.464C143.428 229.973 143.561 229.547 143.828 229.184C144.094 228.821 144.468 228.544 144.948 228.352C145.428 228.149 145.982 228.048 146.612 228.048C147.081 228.048 147.524 228.107 147.94 228.224C148.356 228.341 148.74 228.517 149.092 228.752C149.23 228.827 149.321 228.928 149.364 229.056C149.406 229.173 149.412 229.291 149.38 229.408C149.358 229.525 149.305 229.632 149.22 229.728C149.134 229.813 149.028 229.867 148.9 229.888C148.782 229.899 148.649 229.867 148.5 229.792C148.18 229.589 147.86 229.445 147.54 229.36C147.23 229.275 146.921 229.232 146.612 229.232C146.046 229.232 145.62 229.339 145.332 229.552C145.054 229.755 144.916 230.032 144.916 230.384C144.916 230.651 145.001 230.869 145.172 231.04C145.342 231.211 145.609 231.333 145.972 231.408L147.492 231.712C148.185 231.851 148.708 232.085 149.06 232.416C149.422 232.747 149.604 233.195 149.604 233.76C149.604 234.496 149.31 235.077 148.724 235.504C148.137 235.931 147.358 236.144 146.388 236.144ZM154.652 236.144C154.012 236.144 153.473 236.032 153.036 235.808C152.598 235.584 152.273 235.253 152.06 234.816C151.846 234.379 151.74 233.845 151.74 233.216V229.44H150.78C150.566 229.44 150.401 229.387 150.284 229.28C150.166 229.163 150.107 229.008 150.107 228.816C150.107 228.613 150.166 228.459 150.284 228.352C150.401 228.245 150.566 228.192 150.78 228.192H151.74V226.544C151.74 226.277 151.809 226.075 151.948 225.936C152.097 225.797 152.3 225.728 152.556 225.728C152.812 225.728 153.009 225.797 153.148 225.936C153.286 226.075 153.356 226.277 153.356 226.544V228.192H155.228C155.441 228.192 155.606 228.245 155.724 228.352C155.841 228.459 155.9 228.613 155.9 228.816C155.9 229.008 155.841 229.163 155.724 229.28C155.606 229.387 155.441 229.44 155.228 229.44H153.356V233.088C153.356 233.653 153.473 234.08 153.708 234.368C153.953 234.656 154.348 234.8 154.891 234.8C155.084 234.8 155.249 234.784 155.388 234.752C155.537 234.709 155.66 234.683 155.756 234.672C155.873 234.672 155.969 234.715 156.044 234.8C156.118 234.875 156.156 235.024 156.156 235.248C156.156 235.408 156.124 235.557 156.06 235.696C156.006 235.835 155.905 235.925 155.756 235.968C155.628 236.011 155.452 236.048 155.228 236.08C155.014 236.123 154.822 236.144 154.652 236.144ZM157.983 236.112C157.717 236.112 157.514 236.043 157.375 235.904C157.237 235.755 157.167 235.552 157.167 235.296V228.896C157.167 228.629 157.237 228.427 157.375 228.288C157.514 228.149 157.706 228.08 157.951 228.08C158.207 228.08 158.399 228.149 158.527 228.288C158.666 228.427 158.735 228.629 158.735 228.896V230.064H158.575C158.746 229.424 159.061 228.939 159.519 228.608C159.978 228.277 160.565 228.085 161.279 228.032C161.471 228.021 161.621 228.069 161.727 228.176C161.845 228.283 161.909 228.448 161.919 228.672C161.941 228.896 161.893 229.077 161.775 229.216C161.658 229.344 161.477 229.419 161.231 229.44L160.927 229.472C160.234 229.536 159.706 229.755 159.343 230.128C158.981 230.501 158.799 231.013 158.799 231.664V235.296C158.799 235.552 158.73 235.755 158.591 235.904C158.463 236.043 158.261 236.112 157.983 236.112ZM165.92 236.144C165.291 236.144 164.763 236.027 164.336 235.792C163.92 235.557 163.605 235.211 163.392 234.752C163.189 234.283 163.088 233.696 163.088 232.992V228.896C163.088 228.619 163.157 228.416 163.296 228.288C163.435 228.149 163.632 228.08 163.888 228.08C164.144 228.08 164.341 228.149 164.48 228.288C164.629 228.416 164.704 228.619 164.704 228.896V233.008C164.704 233.637 164.832 234.101 165.088 234.4C165.344 234.699 165.749 234.848 166.304 234.848C166.912 234.848 167.403 234.645 167.776 234.24C168.16 233.824 168.352 233.28 168.352 232.608V228.896C168.352 228.619 168.421 228.416 168.56 228.288C168.699 228.149 168.901 228.08 169.168 228.08C169.424 228.08 169.621 228.149 169.76 228.288C169.899 228.416 169.968 228.619 169.968 228.896V235.296C169.968 235.84 169.707 236.112 169.184 236.112C168.939 236.112 168.747 236.043 168.608 235.904C168.469 235.755 168.4 235.552 168.4 235.296V233.936L168.608 234.288C168.395 234.885 168.053 235.344 167.584 235.664C167.115 235.984 166.56 236.144 165.92 236.144ZM175.685 236.144C174.885 236.144 174.192 235.979 173.605 235.648C173.029 235.307 172.581 234.832 172.261 234.224C171.941 233.605 171.781 232.88 171.781 232.048C171.781 231.429 171.872 230.875 172.053 230.384C172.235 229.883 172.491 229.461 172.821 229.12C173.163 228.779 173.573 228.517 174.053 228.336C174.544 228.144 175.088 228.048 175.685 228.048C176.059 228.048 176.448 228.107 176.853 228.224C177.269 228.331 177.653 228.512 178.005 228.768C178.144 228.853 178.229 228.96 178.261 229.088C178.304 229.205 178.309 229.328 178.277 229.456C178.256 229.584 178.197 229.696 178.101 229.792C178.016 229.877 177.909 229.931 177.781 229.952C177.653 229.963 177.515 229.925 177.365 229.84C177.109 229.659 176.848 229.531 176.581 229.456C176.315 229.371 176.059 229.328 175.813 229.328C175.429 229.328 175.088 229.392 174.789 229.52C174.501 229.637 174.256 229.813 174.053 230.048C173.851 230.272 173.696 230.555 173.589 230.896C173.493 231.237 173.445 231.627 173.445 232.064C173.445 232.939 173.648 233.627 174.053 234.128C174.469 234.619 175.056 234.864 175.813 234.864C176.059 234.864 176.315 234.827 176.581 234.752C176.848 234.677 177.109 234.549 177.365 234.368C177.515 234.283 177.653 234.251 177.781 234.272C177.909 234.293 178.011 234.352 178.085 234.448C178.171 234.533 178.224 234.64 178.245 234.768C178.277 234.885 178.272 235.008 178.229 235.136C178.187 235.264 178.096 235.371 177.957 235.456C177.616 235.701 177.243 235.877 176.837 235.984C176.443 236.091 176.059 236.144 175.685 236.144ZM183.058 236.144C182.418 236.144 181.879 236.032 181.442 235.808C181.004 235.584 180.679 235.253 180.466 234.816C180.252 234.379 180.146 233.845 180.146 233.216V229.44H179.186C178.972 229.44 178.807 229.387 178.69 229.28C178.572 229.163 178.514 229.008 178.514 228.816C178.514 228.613 178.572 228.459 178.69 228.352C178.807 228.245 178.972 228.192 179.186 228.192H180.146V226.544C180.146 226.277 180.215 226.075 180.354 225.936C180.503 225.797 180.706 225.728 180.962 225.728C181.218 225.728 181.415 225.797 181.554 225.936C181.692 226.075 181.762 226.277 181.762 226.544V228.192H183.634C183.847 228.192 184.012 228.245 184.13 228.352C184.247 228.459 184.306 228.613 184.306 228.816C184.306 229.008 184.247 229.163 184.13 229.28C184.012 229.387 183.847 229.44 183.634 229.44H181.762V233.088C181.762 233.653 181.879 234.08 182.114 234.368C182.359 234.656 182.754 234.8 183.298 234.8C183.49 234.8 183.655 234.784 183.794 234.752C183.943 234.709 184.066 234.683 184.162 234.672C184.279 234.672 184.375 234.715 184.45 234.8C184.524 234.875 184.562 235.024 184.562 235.248C184.562 235.408 184.53 235.557 184.466 235.696C184.412 235.835 184.311 235.925 184.162 235.968C184.034 236.011 183.858 236.048 183.634 236.08C183.42 236.123 183.228 236.144 183.058 236.144ZM186.514 236.096C186.258 236.096 186.061 236.021 185.922 235.872C185.783 235.712 185.714 235.493 185.714 235.216V228.976C185.714 228.699 185.783 228.485 185.922 228.336C186.061 228.187 186.258 228.112 186.514 228.112C186.77 228.112 186.967 228.187 187.106 228.336C187.255 228.485 187.33 228.699 187.33 228.976V235.216C187.33 235.493 187.261 235.712 187.122 235.872C186.983 236.021 186.781 236.096 186.514 236.096ZM186.514 226.448C186.194 226.448 185.943 226.368 185.762 226.208C185.591 226.048 185.506 225.824 185.506 225.536C185.506 225.237 185.591 225.013 185.762 224.864C185.943 224.704 186.194 224.624 186.514 224.624C186.834 224.624 187.079 224.704 187.25 224.864C187.431 225.013 187.522 225.237 187.522 225.536C187.522 225.824 187.431 226.048 187.25 226.208C187.079 226.368 186.834 226.448 186.514 226.448ZM192.997 236.144C192.207 236.144 191.525 235.979 190.949 235.648C190.383 235.317 189.941 234.848 189.621 234.24C189.301 233.632 189.141 232.917 189.141 232.096C189.141 231.467 189.231 230.907 189.413 230.416C189.594 229.925 189.85 229.504 190.181 229.152C190.522 228.789 190.927 228.517 191.397 228.336C191.877 228.144 192.41 228.048 192.997 228.048C193.775 228.048 194.447 228.213 195.013 228.544C195.589 228.875 196.037 229.344 196.357 229.952C196.677 230.549 196.837 231.264 196.837 232.096C196.837 232.715 196.746 233.275 196.565 233.776C196.383 234.277 196.122 234.704 195.781 235.056C195.45 235.408 195.045 235.68 194.565 235.872C194.095 236.053 193.573 236.144 192.997 236.144ZM192.997 234.896C193.434 234.896 193.818 234.789 194.149 234.576C194.479 234.363 194.735 234.048 194.917 233.632C195.109 233.216 195.205 232.704 195.205 232.096C195.205 231.179 195.002 230.485 194.597 230.016C194.191 229.547 193.658 229.312 192.997 229.312C192.549 229.312 192.159 229.419 191.829 229.632C191.498 229.835 191.237 230.144 191.045 230.56C190.863 230.976 190.773 231.488 190.773 232.096C190.773 233.003 190.975 233.696 191.381 234.176C191.786 234.656 192.325 234.896 192.997 234.896ZM199.452 236.112C199.196 236.112 198.998 236.043 198.86 235.904C198.721 235.755 198.652 235.552 198.652 235.296V228.896C198.652 228.629 198.721 228.427 198.86 228.288C198.998 228.149 199.19 228.08 199.436 228.08C199.692 228.08 199.884 228.149 200.012 228.288C200.15 228.427 200.22 228.629 200.22 228.896V230.144L200.044 229.856C200.278 229.259 200.646 228.811 201.148 228.512C201.649 228.203 202.225 228.048 202.876 228.048C203.494 228.048 204.006 228.165 204.412 228.4C204.828 228.624 205.137 228.971 205.34 229.44C205.542 229.899 205.644 230.48 205.644 231.184V235.296C205.644 235.552 205.574 235.755 205.436 235.904C205.297 236.043 205.1 236.112 204.844 236.112C204.577 236.112 204.374 236.043 204.236 235.904C204.097 235.755 204.028 235.552 204.028 235.296V231.28C204.028 230.608 203.894 230.117 203.628 229.808C203.372 229.499 202.966 229.344 202.412 229.344C201.761 229.344 201.238 229.547 200.844 229.952C200.46 230.357 200.268 230.901 200.268 231.584V235.296C200.268 235.84 199.996 236.112 199.452 236.112Z" fill="#0B0D27"/>
<path d="M146.872 206.144C146.115 206.144 145.448 206.048 144.872 205.856C144.296 205.653 143.811 205.355 143.416 204.96C143.032 204.565 142.739 204.075 142.536 203.488C142.333 202.901 142.232 202.224 142.232 201.456V195.44C142.232 195.163 142.301 194.955 142.44 194.816C142.589 194.677 142.797 194.608 143.064 194.608C143.331 194.608 143.533 194.677 143.672 194.816C143.821 194.955 143.896 195.163 143.896 195.44V201.424C143.896 202.523 144.147 203.344 144.648 203.888C145.16 204.432 145.901 204.704 146.872 204.704C147.853 204.704 148.595 204.432 149.096 203.888C149.597 203.344 149.848 202.523 149.848 201.424V195.44C149.848 195.163 149.917 194.955 150.056 194.816C150.205 194.677 150.408 194.608 150.664 194.608C150.931 194.608 151.133 194.677 151.272 194.816C151.411 194.955 151.48 195.163 151.48 195.44V201.456C151.48 202.48 151.304 203.344 150.952 204.048C150.611 204.741 150.099 205.264 149.416 205.616C148.733 205.968 147.885 206.144 146.872 206.144ZM154.67 206.112C154.414 206.112 154.217 206.043 154.078 205.904C153.94 205.755 153.87 205.552 153.87 205.296V198.896C153.87 198.629 153.94 198.427 154.078 198.288C154.217 198.149 154.409 198.08 154.654 198.08C154.91 198.08 155.102 198.149 155.23 198.288C155.369 198.427 155.438 198.629 155.438 198.896V200.144L155.262 199.856C155.497 199.259 155.865 198.811 156.366 198.512C156.868 198.203 157.444 198.048 158.094 198.048C158.713 198.048 159.225 198.165 159.63 198.4C160.046 198.624 160.356 198.971 160.558 199.44C160.761 199.899 160.862 200.48 160.862 201.184V205.296C160.862 205.552 160.793 205.755 160.654 205.904C160.516 206.043 160.318 206.112 160.062 206.112C159.796 206.112 159.593 206.043 159.454 205.904C159.316 205.755 159.246 205.552 159.246 205.296V201.28C159.246 200.608 159.113 200.117 158.846 199.808C158.59 199.499 158.185 199.344 157.63 199.344C156.98 199.344 156.457 199.547 156.062 199.952C155.678 200.357 155.486 200.901 155.486 201.584V205.296C155.486 205.84 155.214 206.112 154.67 206.112ZM166.065 206.144C165.382 206.144 164.78 205.984 164.257 205.664C163.745 205.333 163.345 204.864 163.057 204.256C162.769 203.637 162.625 202.917 162.625 202.096C162.625 201.253 162.769 200.533 163.057 199.936C163.345 199.339 163.745 198.875 164.257 198.544C164.78 198.213 165.382 198.048 166.065 198.048C166.748 198.048 167.334 198.219 167.825 198.56C168.326 198.891 168.662 199.339 168.833 199.904H168.657V195.424C168.657 195.157 168.726 194.955 168.865 194.816C169.004 194.677 169.201 194.608 169.457 194.608C169.713 194.608 169.91 194.677 170.049 194.816C170.198 194.955 170.273 195.157 170.273 195.424V205.296C170.273 205.552 170.204 205.755 170.065 205.904C169.926 206.043 169.729 206.112 169.473 206.112C169.217 206.112 169.02 206.043 168.881 205.904C168.742 205.755 168.673 205.552 168.673 205.296V203.888L168.849 204.24C168.678 204.816 168.342 205.28 167.841 205.632C167.35 205.973 166.758 206.144 166.065 206.144ZM166.481 204.896C166.918 204.896 167.302 204.789 167.633 204.576C167.964 204.363 168.22 204.048 168.401 203.632C168.593 203.216 168.689 202.704 168.689 202.096C168.689 201.179 168.486 200.485 168.081 200.016C167.676 199.547 167.142 199.312 166.481 199.312C166.033 199.312 165.644 199.419 165.313 199.632C164.982 199.835 164.721 200.144 164.529 200.56C164.348 200.976 164.257 201.488 164.257 202.096C164.257 203.003 164.46 203.696 164.865 204.176C165.27 204.656 165.809 204.896 166.481 204.896ZM176.206 206.144C175.353 206.144 174.617 205.984 173.998 205.664C173.39 205.333 172.916 204.869 172.574 204.272C172.244 203.664 172.078 202.944 172.078 202.112C172.078 201.301 172.244 200.592 172.574 199.984C172.905 199.376 173.358 198.901 173.934 198.56C174.51 198.219 175.166 198.048 175.902 198.048C176.446 198.048 176.932 198.139 177.358 198.32C177.785 198.491 178.148 198.747 178.446 199.088C178.756 199.419 178.985 199.824 179.134 200.304C179.294 200.784 179.374 201.323 179.374 201.92C179.374 202.101 179.321 202.24 179.214 202.336C179.108 202.421 178.948 202.464 178.734 202.464H173.358V201.472H178.286L178.014 201.696C178.014 201.163 177.934 200.709 177.774 200.336C177.625 199.963 177.396 199.68 177.086 199.488C176.788 199.285 176.414 199.184 175.966 199.184C175.465 199.184 175.038 199.301 174.686 199.536C174.345 199.771 174.084 200.096 173.902 200.512C173.721 200.928 173.63 201.413 173.63 201.968V202.064C173.63 203.003 173.849 203.712 174.286 204.192C174.734 204.661 175.38 204.896 176.222 204.896C176.542 204.896 176.878 204.853 177.23 204.768C177.593 204.683 177.934 204.539 178.254 204.336C178.436 204.229 178.596 204.181 178.734 204.192C178.884 204.203 179.001 204.251 179.086 204.336C179.182 204.421 179.241 204.528 179.262 204.656C179.284 204.784 179.262 204.917 179.198 205.056C179.134 205.184 179.022 205.301 178.862 205.408C178.5 205.653 178.078 205.84 177.598 205.968C177.118 206.085 176.654 206.144 176.206 206.144ZM181.952 206.112C181.685 206.112 181.483 206.043 181.344 205.904C181.205 205.755 181.136 205.552 181.136 205.296V198.896C181.136 198.629 181.205 198.427 181.344 198.288C181.483 198.149 181.675 198.08 181.92 198.08C182.176 198.08 182.368 198.149 182.496 198.288C182.635 198.427 182.704 198.629 182.704 198.896V200.064H182.544C182.715 199.424 183.029 198.939 183.488 198.608C183.947 198.277 184.533 198.085 185.248 198.032C185.44 198.021 185.589 198.069 185.696 198.176C185.813 198.283 185.877 198.448 185.888 198.672C185.909 198.896 185.861 199.077 185.744 199.216C185.627 199.344 185.445 199.419 185.2 199.44L184.896 199.472C184.203 199.536 183.675 199.755 183.312 200.128C182.949 200.501 182.768 201.013 182.768 201.664V205.296C182.768 205.552 182.699 205.755 182.56 205.904C182.432 206.043 182.229 206.112 181.952 206.112Z" fill="#0B0D27"/>
<path d="M168.496 79.9477C170.787 77.6563 170.787 73.9413 168.496 71.65C166.204 69.3586 162.489 69.3586 160.198 71.65C157.907 73.9413 157.907 77.6563 160.198 79.9477C162.489 82.2391 166.204 82.2391 168.496 79.9477Z" fill="white" stroke="#0B0D27" stroke-linecap="round" stroke-linejoin="round"/>
<path d="M164.513 28.4101V1" stroke="#0B0D27" stroke-width="2" stroke-linecap="round" stroke-linejoin="round"/>
<path d="M164.513 46.5141V28.4102" stroke="#808080" stroke-width="2" stroke-miterlimit="10"/>
<path d="M155.421 46.5137L137.31 77.8911H191.341L173.224 46.5137H155.421Z" fill="#3B4CF1" stroke="#0B0D27" stroke-width="0.972732" stroke-miterlimit="10"/>
<path d="M157.241 46.5137L142.823 77.8911H185.828L171.411 46.5137H157.241Z" fill="#0B0D27" stroke="#0B0D27" stroke-linecap="round" stroke-linejoin="round"/>
<path d="M114.71 115.806H38.8224C36.9682 115.806 35.1899 116.542 33.8788 117.853C32.5676 119.165 31.8311 120.943 31.8311 122.797V255.318L114.71 115.806Z" fill="#808080" stroke="#0B0D27" stroke-miterlimit="10"/>
<path d="M213.801 115.806H289.689C291.543 115.806 293.321 116.542 294.632 117.853C295.943 119.165 296.68 120.943 296.68 122.797V255.726L213.801 115.806Z" fill="#808080" stroke="#0B0D27" stroke-miterlimit="10"/>
<path d="M114.71 115.806L31.8311 255.338" stroke="#0B0D27" stroke-linecap="round" stroke-linejoin="round"/>
<path d="M213.801 115.806L296.68 255.726" stroke="#0B0D27" stroke-linecap="round" stroke-linejoin="round"/>
<path d="M42.5757 237.461V129.232H106.428" stroke="#0B0D27" stroke-linecap="round" stroke-linejoin="round"/>
<path d="M221.902 129.232H285.935V238.01" stroke="#0B0D27" stroke-linecap="round" stroke-linejoin="round"/>
<path d="M213.8 115.805L191.341 77.8916H137.31L114.71 115.805" fill="white" fill-opacity="0.3"/>
<path d="M213.8 115.805L191.341 77.8916H137.31L114.71 115.805" stroke="#0B0D27" stroke-miterlimit="10"/>
</svg>
