<svg width="24" height="24" viewBox="0 0 24 24" fill="none" xmlns="http://www.w3.org/2000/svg">
<path d="M12 22.75C6.07 22.75 1.25 17.93 1.25 12C1.25 6.07 6.07 1.25 12 1.25C17.93 1.25 22.75 6.07 22.75 12C22.75 17.93 17.93 22.75 12 22.75ZM12 2.75C6.9 2.75 2.75 6.9 2.75 12C2.75 17.1 6.9 21.25 12 21.25C17.1 21.25 21.25 17.1 21.25 12C21.25 6.9 17.1 2.75 12 2.75Z" fill="white"/>
<path d="M12 16.75C11.59 16.75 11.25 16.41 11.25 16V11C11.25 10.59 11.59 10.25 12 10.25C12.41 10.25 12.75 10.59 12.75 11V16C12.75 16.41 12.41 16.75 12 16.75Z" fill="white"/>
<path d="M12 9.00086C11.87 9.00086 11.74 8.97086 11.62 8.92086C11.5 8.87086 11.39 8.80086 11.29 8.71086C11.2 8.61086 11.13 8.51086 11.08 8.38086C11.03 8.26086 11 8.13086 11 8.00086C11 7.87086 11.03 7.74086 11.08 7.62086C11.13 7.50086 11.2 7.39086 11.29 7.29086C11.39 7.20086 11.5 7.13086 11.62 7.08086C11.86 6.98086 12.14 6.98086 12.38 7.08086C12.5 7.13086 12.61 7.20086 12.71 7.29086C12.8 7.39086 12.87 7.50086 12.92 7.62086C12.97 7.74086 13 7.87086 13 8.00086C13 8.13086 12.97 8.26086 12.92 8.38086C12.87 8.51086 12.8 8.61086 12.71 8.71086C12.61 8.80086 12.5 8.87086 12.38 8.92086C12.26 8.97086 12.13 9.00086 12 9.00086Z" fill="white"/>
</svg>
